<svg xmlns="http://www.w3.org/2000/svg" width="501" height="239" viewBox="0 0 501 239" fill="none"><path d="M235.54 56.9H231V54.84H242.46V56.9H237.94V69H235.54V56.9Z" fill="#FF6187"></path><path d="M247.047 69H244.647V54.84H247.047V60.62H254.007V54.84H256.407V69H254.007V62.64H247.047V69Z" fill="#FF6187"></path><path d="M262.358 66.96H270.038V69H260.038V54.84H269.838V56.88H262.358V60.78H269.038V62.62H262.358V66.96Z" fill="#FF6187"></path><path d="M207.426 0.336156L211.455 9.85608H209.424L208.609 7.83914H203.43L202.63 9.85608H200.6L204.644 0.336156H207.426ZM206.035 1.73456L203.909 6.64243H208.161L206.035 1.73456Z" fill="#FF6187"></path><path d="M229.487 8.6997L232.157 0.336156H234.123L231.006 9.85608H228.048L225.842 2.13795L223.652 9.85608H220.679L217.545 0.336156H219.512L222.197 8.6997L224.611 0.336156H227.137L229.487 8.6997Z" fill="#FF6187"></path><path d="M240.819 0.336156L244.848 9.85608H242.818L242.002 7.83914H236.823L236.023 9.85608H233.993L238.038 0.336156H240.819ZM239.428 1.73456L237.302 6.64243H241.555L239.428 1.73456Z" fill="#FF6187"></path><path d="M246.741 9.85608V0.336156H251.952C253.188 0.336156 254.206 0.618526 255.005 1.18327C255.805 1.74801 256.204 2.4741 256.204 3.36155C256.204 3.98904 255.954 4.55379 255.453 5.05578C254.963 5.55777 254.334 5.89392 253.567 6.06424L256.38 9.85608H254.19L251.712 6.29283H248.659V9.85608H246.741ZM251.728 1.66733H248.659V5.00199H251.728C252.464 5.00199 253.071 4.8496 253.551 4.54482C254.041 4.23108 254.286 3.83665 254.286 3.36155C254.286 2.83267 254.046 2.42032 253.567 2.1245C253.098 1.81972 252.485 1.66733 251.728 1.66733Z" fill="#FF6187"></path><path d="M258.746 9.85608V0.336156H263.957C265.194 0.336156 266.211 0.618526 267.011 1.18327C267.81 1.74801 268.21 2.4741 268.21 3.36155C268.21 3.98904 267.959 4.55379 267.458 5.05578C266.968 5.55777 266.339 5.89392 265.572 6.06424L268.386 9.85608H266.195L263.718 6.29283H260.664V9.85608H258.746ZM263.734 1.66733H260.664V5.00199H263.734C264.469 5.00199 265.076 4.8496 265.556 4.54482C266.046 4.23108 266.291 3.83665 266.291 3.36155C266.291 2.83267 266.052 2.42032 265.572 2.1245C265.103 1.81972 264.49 1.66733 263.734 1.66733Z" fill="#FF6187"></path><path d="M272.67 0.336156V9.85608H270.751V0.336156H272.67Z" fill="#FF6187"></path><path d="M276.742 8.76693C275.602 7.81673 275.032 6.59313 275.032 5.09612C275.032 3.5991 275.602 2.3755 276.742 1.4253C277.893 0.4751 279.375 0 281.186 0C282.998 0 284.479 0.4751 285.631 1.4253C286.782 2.3755 287.357 3.5991 287.357 5.09612C287.357 6.59313 286.782 7.81673 285.631 8.76693C284.479 9.71713 282.998 10.1922 281.186 10.1922C279.375 10.1922 277.893 9.71713 276.742 8.76693ZM278.133 2.44721C277.344 3.13745 276.95 4.02042 276.95 5.09612C276.95 6.17181 277.344 7.05478 278.133 7.74502C278.932 8.43526 279.95 8.78486 281.186 8.79383C282.433 8.79383 283.451 8.44871 284.24 7.75847C285.039 7.05926 285.439 6.17181 285.439 5.09612C285.439 4.02042 285.039 3.13745 284.24 2.44721C283.451 1.74801 282.433 1.39841 281.186 1.39841C279.95 1.39841 278.932 1.74801 278.133 2.44721Z" fill="#FF6187"></path><path d="M289.719 9.85608V0.336156H294.931C296.167 0.336156 297.185 0.618526 297.984 1.18327C298.783 1.74801 299.183 2.4741 299.183 3.36155C299.183 3.98904 298.933 4.55379 298.432 5.05578C297.942 5.55777 297.313 5.89392 296.545 6.06424L299.359 9.85608H297.169L294.691 6.29283H291.638V9.85608H289.719ZM294.707 1.66733H291.638V5.00199H294.707C295.442 5.00199 296.05 4.8496 296.529 4.54482C297.02 4.23108 297.265 3.83665 297.265 3.36155C297.265 2.83267 297.025 2.42032 296.545 2.1245C296.076 1.81972 295.464 1.66733 294.707 1.66733Z" fill="#FF6187"></path><path d="M168.18 26.6638H163V17.1439H168.116C169.203 17.1439 170.098 17.3904 170.801 17.8835C171.505 18.3765 171.856 19.004 171.856 19.7659C171.856 20.241 171.697 20.6668 171.377 21.0433C171.068 21.4198 170.668 21.6663 170.178 21.7829C170.764 21.9084 171.244 22.1773 171.617 22.5896C171.99 23.002 172.176 23.4771 172.176 24.0149C172.176 24.7859 171.798 25.4223 171.041 25.9243C170.295 26.4173 169.341 26.6638 168.18 26.6638ZM167.86 22.4283H164.918V25.3327H167.86C168.553 25.3327 169.123 25.1982 169.57 24.9293C170.029 24.6514 170.258 24.3018 170.258 23.8805C170.258 23.4592 170.029 23.114 169.57 22.8451C169.123 22.5672 168.553 22.4283 167.86 22.4283ZM167.828 18.4751H164.918V21.1509H167.828C168.446 21.1509 168.952 21.0254 169.347 20.7744C169.741 20.5234 169.938 20.2052 169.938 19.8197C169.938 19.4253 169.741 19.1026 169.347 18.8516C168.952 18.6006 168.446 18.4751 167.828 18.4751Z" fill="#FF6187"></path><path d="M176.563 25.2923H182.702V26.6638H174.709V17.1439H182.542V18.5154H176.563V21.1374H181.903V22.3745H176.563V25.2923Z" fill="#FF6187"></path><path d="M194.043 23.3561L195.866 23.6116C195.61 24.5976 194.971 25.4089 193.948 26.0453C192.924 26.6818 191.752 27 190.431 27C188.715 27 187.297 26.5204 186.178 25.5613C185.059 24.6021 184.505 23.383 184.516 21.9039C184.516 20.4248 185.07 19.2057 186.178 18.2465C187.297 17.2874 188.715 16.8078 190.431 16.8078C191.752 16.8078 192.924 17.1439 193.948 17.8162C194.971 18.4796 195.61 19.3222 195.866 20.3441L194.027 20.5324C193.836 19.8601 193.399 19.3043 192.717 18.865C192.045 18.4258 191.288 18.2062 190.447 18.2062C189.274 18.2062 188.31 18.5558 187.553 19.255C186.807 19.9452 186.434 20.8282 186.434 21.9039C186.434 22.9796 186.807 23.867 187.553 24.5662C188.31 25.2565 189.274 25.6016 190.447 25.6016C191.278 25.6016 192.029 25.3909 192.701 24.9696C193.383 24.5483 193.83 24.0105 194.043 23.3561Z" fill="#FF6187"></path><path d="M199.402 25.5747C198.262 24.6245 197.692 23.4009 197.692 21.9039C197.692 20.4069 198.262 19.1833 199.402 18.2331C200.553 17.2829 202.035 16.8078 203.847 16.8078C205.658 16.8078 207.14 17.2829 208.291 18.2331C209.442 19.1833 210.017 20.4069 210.017 21.9039C210.017 23.4009 209.442 24.6245 208.291 25.5747C207.14 26.5249 205.658 27 203.847 27C202.035 27 200.553 26.5249 199.402 25.5747ZM200.793 19.255C200.004 19.9452 199.61 20.8282 199.61 21.9039C199.61 22.9796 200.004 23.8625 200.793 24.5528C201.592 25.243 202.61 25.5926 203.847 25.6016C205.093 25.6016 206.111 25.2565 206.9 24.5662C207.699 23.867 208.099 22.9796 208.099 21.9039C208.099 20.8282 207.699 19.9452 206.9 19.255C206.111 18.5558 205.093 18.2062 203.847 18.2062C202.61 18.2062 201.592 18.5558 200.793 19.255Z" fill="#FF6187"></path><path d="M214.282 26.6638H212.379V17.1439H215.065L218.726 24.5931L222.371 17.1439H225.073V26.6638H223.17V19.1474L219.461 26.6638H217.991L214.282 19.1609V26.6638Z" fill="#FF6187"></path><path d="M229.83 25.2923H235.969V26.6638H227.975V17.1439H235.809V18.5154H229.83V21.1374H235.169V22.3745H229.83V25.2923Z" fill="#FF6187"></path><path d="M242.738 27C241.321 27 240.154 26.6773 239.237 26.0319C238.321 25.3775 237.862 24.5528 237.862 23.5578H239.685C239.685 24.1673 239.972 24.6738 240.548 25.0772C241.134 25.4716 241.88 25.6688 242.786 25.6688C243.564 25.6688 244.182 25.5209 244.64 25.2251C245.109 24.9293 245.344 24.5618 245.344 24.1225C245.344 23.8088 245.205 23.5533 244.928 23.3561C244.662 23.1499 244.31 22.9975 243.873 22.8989C243.447 22.7913 242.973 22.6972 242.45 22.6165C241.928 22.5448 241.406 22.4507 240.884 22.3342C240.372 22.2176 239.898 22.0742 239.461 21.9039C239.035 21.7246 238.683 21.4646 238.406 21.124C238.139 20.7744 238.006 20.3486 238.006 19.8466C238.006 18.9502 238.411 18.2196 239.221 17.6549C240.042 17.0901 241.108 16.8078 242.418 16.8078C243.74 16.8078 244.827 17.117 245.68 17.7356C246.543 18.3451 246.98 19.125 246.99 20.0752H245.216C245.216 19.5105 244.955 19.0488 244.433 18.6902C243.91 18.3227 243.244 18.1389 242.434 18.1389C241.678 18.1389 241.065 18.2779 240.596 18.5558C240.138 18.8337 239.909 19.1877 239.909 19.618C239.909 19.9676 240.09 20.25 240.452 20.4651C240.814 20.6803 241.267 20.8282 241.811 20.9089C242.354 20.9895 242.941 21.0926 243.569 21.2181C244.209 21.3347 244.8 21.4736 245.344 21.635C245.887 21.7873 246.34 22.0563 246.703 22.4417C247.065 22.8182 247.246 23.2978 247.246 23.8805C247.246 24.7859 246.836 25.5344 246.015 26.126C245.195 26.7087 244.102 27 242.738 27Z" fill="#FF6187"></path><path d="M260.427 17.1439L264.456 26.6638H262.426L261.61 24.6469H256.431L255.632 26.6638H253.601L257.646 17.1439H260.427ZM259.037 18.5423L256.91 23.4502H261.163L259.037 18.5423Z" fill="#FF6187"></path><path d="M278.54 26.6638H271.282V17.1439H273.2V25.2654H278.54V26.6638Z" fill="#FF6187"></path><path d="M282.472 25.2923H288.611V26.6638H280.618V17.1439H288.451V18.5154H282.472V21.1374H287.812V22.3745H282.472V25.2923Z" fill="#FF6187"></path><path d="M300.624 22.6165L296.531 22.6031V21.3391H302.51C302.532 21.5364 302.542 21.7291 302.542 21.9173C302.542 23.2978 302.052 24.4587 301.071 25.3999C299.952 26.4666 298.455 27 296.579 27C294.789 27 293.313 26.5204 292.151 25.5613C291 24.6021 290.425 23.383 290.425 21.9039C290.425 20.4248 291 19.2057 292.151 18.2465C293.313 17.2874 294.789 16.8078 296.579 16.8078C297.794 16.8078 298.887 17.0722 299.857 17.6011C300.837 18.121 301.482 18.7844 301.791 19.5911L300.032 20.008C299.809 19.488 299.372 19.0578 298.722 18.7171C298.071 18.3765 297.357 18.2062 296.579 18.2062C295.343 18.2062 294.325 18.5513 293.526 19.2415C292.737 19.9318 292.343 20.8192 292.343 21.9039C292.343 22.9706 292.743 23.8536 293.542 24.5528C294.352 25.252 295.375 25.6016 296.611 25.6016C297.709 25.6016 298.642 25.3147 299.409 24.741C300.176 24.1673 300.581 23.4592 300.624 22.6165Z" fill="#FF6187"></path><path d="M306.748 25.2923H312.887V26.6638H304.894V17.1439H312.727V18.5154H306.748V21.1374H312.088V22.3745H306.748V25.2923Z" fill="#FF6187"></path><path d="M317.658 17.1439L322.806 24.7141V17.1439H324.676V26.6638H322.278L317.115 19.1071V26.6638H315.244V17.1439H317.658Z" fill="#FF6187"></path><path d="M327.593 26.6638V17.1439H331.446C333.417 17.1439 335 17.5787 336.194 18.4482C337.398 19.3177 338 20.4696 338 21.9039C338 23.3381 337.398 24.49 336.194 25.3596C335 26.2291 333.417 26.6638 331.446 26.6638H327.593ZM334.803 24.3914C335.655 23.7729 336.082 22.9437 336.082 21.9039C336.082 20.864 335.655 20.0349 334.803 19.4163C333.961 18.7978 332.842 18.4885 331.446 18.4885H329.495V25.3192H331.446C332.842 25.3192 333.961 25.01 334.803 24.3914Z" fill="#FF6187"></path><path d="M91.1201 110.077V93.0224H96.8882V110.158C96.8882 113.894 95.5263 116.974 92.8025 119.401C90.1107 121.8 86.666 123 82.4681 123C78.2382 123 74.7614 121.8 72.0376 119.401C69.3459 116.974 68 113.894 68 110.158V93.0224H73.768V110.077C73.768 112.421 74.5691 114.453 76.1714 116.17C77.8056 117.861 79.9046 118.719 82.4681 118.747C85.0317 118.747 87.1146 117.942 88.7168 116.334C90.319 114.698 91.1201 112.612 91.1201 110.077Z" fill="#FF6187"></path><path d="M112.629 93.0224L128.107 116.047V93.0224H133.731V121.978H126.521L110.995 98.9934V121.978H105.371V93.0224H112.629Z" fill="#FF6187"></path><path d="M155.767 123C151.505 123 147.997 122.018 145.241 120.055C142.485 118.065 141.107 115.557 141.107 112.53H146.587C146.587 114.384 147.452 115.925 149.182 117.152C150.945 118.351 153.188 118.951 155.912 118.951C158.251 118.951 160.109 118.501 161.487 117.602C162.897 116.702 163.602 115.584 163.602 114.248C163.602 113.294 163.186 112.517 162.353 111.917C161.551 111.29 160.494 110.826 159.18 110.526C157.898 110.199 156.472 109.913 154.902 109.668C153.332 109.449 151.762 109.163 150.192 108.809C148.654 108.454 147.228 108.018 145.914 107.5C144.632 106.955 143.574 106.164 142.741 105.128C141.94 104.065 141.54 102.77 141.54 101.243C141.54 98.5163 142.757 96.2942 145.193 94.5765C147.66 92.8588 150.865 92 154.806 92C158.78 92 162.048 92.9406 164.612 94.8219C167.207 96.6759 168.521 99.0479 168.553 101.938H163.218C163.218 100.22 162.433 98.8162 160.862 97.7256C159.292 96.6077 157.29 96.0488 154.854 96.0488C152.579 96.0488 150.736 96.4714 149.326 97.3166C147.949 98.1618 147.26 99.2388 147.26 100.547C147.26 101.611 147.804 102.47 148.894 103.124C149.983 103.778 151.345 104.228 152.98 104.474C154.614 104.719 156.376 105.033 158.267 105.414C160.19 105.769 161.968 106.191 163.602 106.682C165.237 107.146 166.598 107.964 167.688 109.136C168.777 110.281 169.322 111.74 169.322 113.512C169.322 116.266 168.089 118.542 165.621 120.342C163.154 122.114 159.869 123 155.767 123Z" fill="#FF6187"></path><path d="M184.124 97.2348H173.213V93.0224H200.755V97.2348H189.892V121.978H184.124V97.2348Z" fill="#FF6187"></path><path d="M207.877 118.665C204.448 115.775 202.734 112.053 202.734 107.5C202.734 102.947 204.448 99.2252 207.877 96.3351C211.338 93.445 215.792 92 221.24 92C226.687 92 231.141 93.445 234.602 96.3351C238.063 99.2252 239.793 102.947 239.793 107.5C239.793 112.053 238.063 115.775 234.602 118.665C231.141 121.555 226.687 123 221.24 123C215.792 123 211.338 121.555 207.877 118.665ZM212.059 99.4433C209.688 101.543 208.502 104.228 208.502 107.5C208.502 110.772 209.688 113.457 212.059 115.557C214.462 117.656 217.523 118.719 221.24 118.747C224.989 118.747 228.049 117.697 230.42 115.598C232.824 113.471 234.025 110.772 234.025 107.5C234.025 104.228 232.824 101.543 230.42 99.4433C228.049 97.3166 224.989 96.2533 221.24 96.2533C217.523 96.2533 214.462 97.3166 212.059 99.4433Z" fill="#FF6187"></path><path d="M260.884 112.08H252.472V121.978H246.896V93.0224H260.884C264.665 93.0224 267.757 93.9222 270.16 95.7216C272.564 97.4938 273.765 99.7704 273.765 102.551C273.733 105.332 272.516 107.623 270.112 109.422C267.709 111.194 264.633 112.08 260.884 112.08ZM259.97 97.0712H252.472V107.991H259.97C262.277 107.991 264.184 107.486 265.69 106.478C267.196 105.442 267.965 104.133 267.997 102.551C267.997 100.97 267.244 99.6614 265.738 98.6253C264.232 97.5893 262.31 97.0712 259.97 97.0712Z" fill="#FF6187"></path><path d="M294.352 112.08H285.94V121.978H280.365V93.0224H294.352C298.133 93.0224 301.226 93.9222 303.629 95.7216C306.032 97.4938 307.234 99.7704 307.234 102.551C307.202 105.332 305.984 107.623 303.581 109.422C301.177 111.194 298.101 112.08 294.352 112.08ZM293.439 97.0712H285.94V107.991H293.439C295.746 107.991 297.653 107.486 299.159 106.478C300.665 105.442 301.434 104.133 301.466 102.551C301.466 100.97 300.713 99.6614 299.207 98.6253C297.701 97.5893 295.778 97.0712 293.439 97.0712Z" fill="#FF6187"></path><path d="M328.887 93.0224L341 121.978H334.896L332.444 115.843H316.871L314.467 121.978H308.363L320.524 93.0224H328.887ZM324.705 97.2757L318.312 112.203H331.098L324.705 97.2757Z" fill="#FF6187"></path><path d="M362.265 121.978H346.691V93.0224H362.072C365.341 93.0224 368.033 93.7722 370.148 95.2718C372.263 96.7713 373.32 98.6799 373.32 100.997C373.32 102.442 372.839 103.737 371.878 104.883C370.949 106.028 369.747 106.777 368.273 107.132C370.036 107.514 371.478 108.332 372.599 109.586C373.721 110.84 374.281 112.285 374.281 113.921C374.281 116.266 373.144 118.201 370.869 119.728C368.626 121.228 365.758 121.978 362.265 121.978ZM361.303 109.095H352.459V117.929H361.303C363.386 117.929 365.101 117.52 366.447 116.702C367.824 115.857 368.513 114.793 368.513 113.512C368.513 112.23 367.824 111.181 366.447 110.363C365.101 109.518 363.386 109.095 361.303 109.095ZM361.207 97.0712H352.459V105.21H361.207C363.066 105.21 364.588 104.828 365.774 104.065C366.959 103.301 367.552 102.333 367.552 101.161C367.552 99.9613 366.959 98.9798 365.774 98.2164C364.588 97.4529 363.066 97.0712 361.207 97.0712Z" fill="#FF6187"></path><path d="M403.719 121.978H381.896V93.0224H387.664V117.724H403.719V121.978Z" fill="#FF6187"></path><path d="M415.542 117.806H434V121.978H409.967V93.0224H433.519V97.1939H415.542V105.169H431.597V108.931H415.542V117.806Z" fill="#FF6187"></path><path d="M27.8396 202C19.7464 202 13.0831 200.037 7.84986 196.111C2.61662 192.13 0 187.113 0 181.061H10.4056C10.4056 184.769 12.0486 187.85 15.3346 190.303C18.6815 192.703 22.9411 193.902 28.1135 193.902C32.5556 193.902 36.085 193.003 38.7017 191.203C41.3791 189.404 42.7179 187.168 42.7179 184.496C42.7179 182.588 41.9268 181.033 40.3446 179.834C38.8234 178.58 36.8153 177.653 34.3203 177.053C31.8863 176.398 29.1784 175.826 26.1966 175.335C23.2149 174.899 20.2332 174.326 17.2514 173.617C14.3306 172.909 11.6227 172.036 9.12775 171C6.69368 169.909 4.68558 168.328 3.10343 166.256C1.58214 164.129 0.821498 161.539 0.821498 158.485C0.821498 153.033 3.13386 148.588 7.75859 145.153C12.4442 141.718 18.5293 140 26.0141 140C33.5597 140 39.7666 141.881 44.6347 145.644C49.5637 149.352 52.0586 154.096 52.1194 159.876H41.9876C41.9876 156.441 40.4968 153.632 37.515 151.451C34.5333 149.215 30.7301 148.098 26.1054 148.098C21.7849 148.098 18.2859 148.943 15.6084 150.633C12.9918 152.324 11.6835 154.478 11.6835 157.095C11.6835 159.222 12.718 160.939 14.787 162.248C16.8559 163.557 19.4421 164.456 22.5455 164.947C25.649 165.438 28.9958 166.065 32.5861 166.828C36.2372 167.537 39.6144 168.383 42.7179 169.364C45.8213 170.291 48.4075 171.927 50.4765 174.272C52.5454 176.562 53.5799 179.479 53.5799 183.024C53.5799 188.531 51.2371 193.084 46.5515 196.683C41.8659 200.228 35.6286 202 27.8396 202Z" fill="#FF6187"></path><path d="M88.3509 193.33C81.8398 187.55 78.5842 180.106 78.5842 171C78.5842 161.894 81.8398 154.45 88.3509 148.67C94.9229 142.89 103.381 140 113.726 140C124.071 140 132.529 142.89 139.101 148.67C145.673 154.45 148.959 161.894 148.959 171C148.959 180.106 145.673 187.55 139.101 193.33C132.529 199.11 124.071 202 113.726 202C103.381 202 94.9229 199.11 88.3509 193.33ZM96.292 154.887C91.789 159.085 89.5375 164.456 89.5375 171C89.5375 177.544 91.789 182.915 96.292 187.113C100.856 191.312 106.667 193.439 113.726 193.493C120.846 193.493 126.657 191.394 131.16 187.195C135.724 182.942 138.006 177.544 138.006 171C138.006 164.456 135.724 159.085 131.16 154.887C126.657 150.633 120.846 148.507 113.726 148.507C106.667 148.507 100.856 150.633 96.292 154.887Z" fill="#FF6187"></path><path d="M218.035 199.955H176.595V142.045H187.548V191.449H218.035V199.955Z" fill="#FF6187"></path><path d="M244.047 199.955V142.045H266.045C277.303 142.045 286.339 144.69 293.155 149.979C300.031 155.268 303.469 162.275 303.469 171C303.469 179.725 300.031 186.732 293.155 192.021C286.339 197.31 277.303 199.955 266.045 199.955H244.047ZM285.214 186.132C290.082 182.369 292.516 177.325 292.516 171C292.516 164.675 290.082 159.631 285.214 155.868C280.406 152.106 274.017 150.224 266.045 150.224H254.909V191.776H266.045C274.017 191.776 280.406 189.894 285.214 186.132Z" fill="#FF6187"></path><path d="M341.975 142.045V199.955H331.021V142.045H341.975Z" fill="#FF6187"></path><path d="M383.301 191.612H418.352V199.955H372.713V142.045H417.439V150.388H383.301V166.338H413.788V173.863H383.301V191.612Z" fill="#FF6187"></path><path d="M445.96 199.955V142.045H475.716C482.775 142.045 488.586 143.763 493.15 147.198C497.714 150.633 499.996 155.05 499.996 160.449C499.996 164.266 498.566 167.701 495.706 170.755C492.907 173.808 489.316 175.853 484.935 176.889L501 199.955H488.495L474.347 178.28H456.913V199.955H445.96ZM474.438 150.142H456.913V170.427H474.438C478.637 170.427 482.106 169.5 484.844 167.646C487.643 165.738 489.043 163.339 489.043 160.449C489.043 157.231 487.673 154.723 484.935 152.923C482.258 151.069 478.759 150.142 474.438 150.142Z" fill="#FF6187"></path><path d="M36.8 227.38V238H35V227.38H36.8Z" fill="#FF6187"></path><path d="M51.8414 227.38L56.6714 235.825V227.38H58.4264V238H56.1764L51.3314 229.57V238H49.5764V227.38H51.8414Z" fill="#FF6187"></path><path d="M75.3533 238.375C74.0233 238.375 72.9283 238.015 72.0683 237.295C71.2083 236.565 70.7783 235.645 70.7783 234.535H72.4883C72.4883 235.215 72.7583 235.78 73.2983 236.23C73.8483 236.67 74.5483 236.89 75.3983 236.89C76.1283 236.89 76.7083 236.725 77.1383 236.395C77.5783 236.065 77.7983 235.655 77.7983 235.165C77.7983 234.815 77.6683 234.53 77.4083 234.31C77.1583 234.08 76.8283 233.91 76.4183 233.8C76.0183 233.68 75.5733 233.575 75.0833 233.485C74.5933 233.405 74.1033 233.3 73.6133 233.17C73.1333 233.04 72.6883 232.88 72.2783 232.69C71.8783 232.49 71.5483 232.2 71.2883 231.82C71.0383 231.43 70.9133 230.955 70.9133 230.395C70.9133 229.395 71.2933 228.58 72.0533 227.95C72.8233 227.32 73.8233 227.005 75.0533 227.005C76.2933 227.005 77.3133 227.35 78.1133 228.04C78.9233 228.72 79.3333 229.59 79.3433 230.65H77.6783C77.6783 230.02 77.4333 229.505 76.9433 229.105C76.4533 228.695 75.8283 228.49 75.0683 228.49C74.3583 228.49 73.7833 228.645 73.3433 228.955C72.9133 229.265 72.6983 229.66 72.6983 230.14C72.6983 230.53 72.8683 230.845 73.2083 231.085C73.5483 231.325 73.9733 231.49 74.4833 231.58C74.9933 231.67 75.5433 231.785 76.1333 231.925C76.7333 232.055 77.2883 232.21 77.7983 232.39C78.3083 232.56 78.7333 232.86 79.0733 233.29C79.4133 233.71 79.5833 234.245 79.5833 234.895C79.5833 235.905 79.1983 236.74 78.4283 237.4C77.6583 238.05 76.6333 238.375 75.3533 238.375Z" fill="#FF6187"></path><path d="M96.2923 234.37H93.6673V238H91.9273V227.38H96.2923C97.4723 227.38 98.4373 227.71 99.1873 228.37C99.9373 229.02 100.312 229.855 100.312 230.875C100.302 231.895 99.9223 232.735 99.1723 233.395C98.4223 234.045 97.4623 234.37 96.2923 234.37ZM96.0073 228.865H93.6673V232.87H96.0073C96.7273 232.87 97.3223 232.685 97.7923 232.315C98.2623 231.935 98.5023 231.455 98.5123 230.875C98.5123 230.295 98.2773 229.815 97.8073 229.435C97.3373 229.055 96.7373 228.865 96.0073 228.865Z" fill="#FF6187"></path><path d="M114.222 227.38V238H112.422V227.38H114.222Z" fill="#FF6187"></path><path d="M126.998 238V227.38H131.888C133.048 227.38 134.003 227.695 134.753 228.325C135.503 228.955 135.878 229.765 135.878 230.755C135.878 231.455 135.643 232.085 135.173 232.645C134.713 233.205 134.123 233.58 133.403 233.77L136.043 238H133.988L131.663 234.025H128.798V238H126.998ZM131.678 228.865H128.798V232.585H131.678C132.368 232.585 132.938 232.415 133.388 232.075C133.848 231.725 134.078 231.285 134.078 230.755C134.078 230.165 133.853 229.705 133.403 229.375C132.963 229.035 132.388 228.865 131.678 228.865Z" fill="#FF6187"></path><path d="M150.053 236.47H155.813V238H148.313V227.38H155.663V228.91H150.053V231.835H155.063V233.215H150.053V236.47Z" fill="#FF6187"></path><path d="M168.075 238V227.38H171.69C173.54 227.38 175.025 227.865 176.145 228.835C177.275 229.805 177.84 231.09 177.84 232.69C177.84 234.29 177.275 235.575 176.145 236.545C175.025 237.515 173.54 238 171.69 238H168.075ZM174.84 235.465C175.64 234.775 176.04 233.85 176.04 232.69C176.04 231.53 175.64 230.605 174.84 229.915C174.05 229.225 173 228.88 171.69 228.88H169.86V236.5H171.69C173 236.5 174.05 236.155 174.84 235.465Z" fill="#FF6187"></path><path d="M209.631 238H204.771V227.38H209.571C210.591 227.38 211.431 227.655 212.091 228.205C212.751 228.755 213.081 229.455 213.081 230.305C213.081 230.835 212.931 231.31 212.631 231.73C212.341 232.15 211.966 232.425 211.506 232.555C212.056 232.695 212.506 232.995 212.856 233.455C213.206 233.915 213.381 234.445 213.381 235.045C213.381 235.905 213.026 236.615 212.316 237.175C211.616 237.725 210.721 238 209.631 238ZM209.331 233.275H206.571V236.515H209.331C209.981 236.515 210.516 236.365 210.936 236.065C211.366 235.755 211.581 235.365 211.581 234.895C211.581 234.425 211.366 234.04 210.936 233.74C210.516 233.43 209.981 233.275 209.331 233.275ZM209.301 228.865H206.571V231.85H209.301C209.881 231.85 210.356 231.71 210.726 231.43C211.096 231.15 211.281 230.795 211.281 230.365C211.281 229.925 211.096 229.565 210.726 229.285C210.356 229.005 209.881 228.865 209.301 228.865Z" fill="#FF6187"></path><path d="M227.779 234.22L223.954 227.38H225.904L228.679 232.57L231.379 227.38H233.374L229.579 234.22V238H227.779V234.22Z" fill="#FF6187"></path><path d="M262.178 228.925H258.773V227.38H267.368V228.925H263.978V238H262.178V228.925Z" fill="#FF6187"></path><path d="M279.073 238V227.38H283.963C285.123 227.38 286.078 227.695 286.828 228.325C287.578 228.955 287.953 229.765 287.953 230.755C287.953 231.455 287.718 232.085 287.248 232.645C286.788 233.205 286.198 233.58 285.478 233.77L288.118 238H286.063L283.738 234.025H280.873V238H279.073ZM283.753 228.865H280.873V232.585H283.753C284.443 232.585 285.013 232.415 285.463 232.075C285.923 231.725 286.153 231.285 286.153 230.755C286.153 230.165 285.928 229.705 285.478 229.375C285.038 229.035 284.463 228.865 283.753 228.865Z" fill="#FF6187"></path><path d="M307.513 233.635V227.38H309.313V233.665C309.313 235.035 308.888 236.165 308.038 237.055C307.198 237.935 306.123 238.375 304.813 238.375C303.493 238.375 302.408 237.935 301.558 237.055C300.718 236.165 300.298 235.035 300.298 233.665V227.38H302.098V233.635C302.098 234.495 302.348 235.24 302.848 235.87C303.358 236.49 304.013 236.805 304.813 236.815C305.613 236.815 306.263 236.52 306.763 235.93C307.263 235.33 307.513 234.565 307.513 233.635Z" fill="#FF6187"></path><path d="M323.75 236.47H329.51V238H322.01V227.38H329.36V228.91H323.75V231.835H328.76V233.215H323.75V236.47Z" fill="#FF6187"></path><path d="M358.191 236.47H363.951V238H356.451V227.38H363.801V228.91H358.191V231.835H363.201V233.215H358.191V236.47Z" fill="#FF6187"></path><path d="M377.127 227.38L380.277 236.68L383.412 227.38H385.287L381.627 238H378.912L375.252 227.38H377.127Z" fill="#FF6187"></path><path d="M398.842 236.47H404.602V238H397.102V227.38H404.452V228.91H398.842V231.835H403.852V233.215H398.842V236.47Z" fill="#FF6187"></path><path d="M419.129 227.38L423.959 235.825V227.38H425.714V238H423.464L418.619 229.57V238H416.864V227.38H419.129Z" fill="#FF6187"></path><path d="M440.826 228.925H437.421V227.38H446.016V228.925H442.626V238H440.826V228.925Z" fill="#FF6187"></path><path d="M461.861 238.375C460.531 238.375 459.436 238.015 458.576 237.295C457.716 236.565 457.286 235.645 457.286 234.535H458.996C458.996 235.215 459.266 235.78 459.806 236.23C460.356 236.67 461.056 236.89 461.906 236.89C462.636 236.89 463.216 236.725 463.646 236.395C464.086 236.065 464.306 235.655 464.306 235.165C464.306 234.815 464.176 234.53 463.916 234.31C463.666 234.08 463.336 233.91 462.926 233.8C462.526 233.68 462.081 233.575 461.591 233.485C461.101 233.405 460.611 233.3 460.121 233.17C459.641 233.04 459.196 232.88 458.786 232.69C458.386 232.49 458.056 232.2 457.796 231.82C457.546 231.43 457.421 230.955 457.421 230.395C457.421 229.395 457.801 228.58 458.561 227.95C459.331 227.32 460.331 227.005 461.561 227.005C462.801 227.005 463.821 227.35 464.621 228.04C465.431 228.72 465.841 229.59 465.851 230.65H464.186C464.186 230.02 463.941 229.505 463.451 229.105C462.961 228.695 462.336 228.49 461.576 228.49C460.866 228.49 460.291 228.645 459.851 228.955C459.421 229.265 459.206 229.66 459.206 230.14C459.206 230.53 459.376 230.845 459.716 231.085C460.056 231.325 460.481 231.49 460.991 231.58C461.501 231.67 462.051 231.785 462.641 231.925C463.241 232.055 463.796 232.21 464.306 232.39C464.816 232.56 465.241 232.86 465.581 233.29C465.921 233.71 466.091 234.245 466.091 234.895C466.091 235.905 465.706 236.74 464.936 237.4C464.166 238.05 463.141 238.375 461.861 238.375Z" fill="#FF6187"></path></svg>