<svg xmlns="http://www.w3.org/2000/svg" width="150" height="36" viewBox="0 0 150 36" fill="none"><g clip-path="url(#clip0_179_2729)"><path d="M45.5352 24.7062H56.0296V21.5453H49.2651V9.63892H45.5352V24.7062Z" fill="white"></path><path d="M62.2481 22.599C60.7519 22.599 59.9722 21.2925 59.9722 19.3327C59.9722 17.3728 60.7519 16.0452 62.2481 16.0452C63.7443 16.0452 64.5451 17.3728 64.5451 19.3327C64.5451 21.2925 63.7443 22.599 62.2481 22.599ZM62.2692 25.0435C65.7462 25.0435 68.0221 22.5779 68.0221 19.3327C68.0221 16.0874 65.7462 13.6218 62.2692 13.6218C58.8132 13.6218 56.4951 16.0874 56.4951 19.3327C56.4951 22.5779 58.8132 25.0435 62.2692 25.0435Z" fill="white"></path><path d="M74.0411 28.4366C75.6427 28.4366 77.0546 28.0783 78.0029 27.2354C78.8669 26.4557 79.4358 25.2756 79.4358 23.653V13.9172H76.1484V15.0762H76.1063C75.4741 14.1701 74.5047 13.6011 73.0718 13.6011C70.3955 13.6011 68.541 15.8348 68.541 18.9958C68.541 22.3043 70.7958 24.1166 73.2193 24.1166C74.5258 24.1166 75.3477 23.5898 75.9798 22.8733H76.0641V23.948C76.0641 25.2545 75.453 26.0132 73.999 26.0132C72.861 26.0132 72.292 25.5285 72.1024 24.9595H68.7728C69.11 27.2143 71.0698 28.4366 74.0411 28.4366ZM74.02 21.5667C72.7346 21.5667 71.8917 20.5131 71.8917 18.8904C71.8917 17.2467 72.7346 16.1931 74.02 16.1931C75.453 16.1931 76.2116 17.4153 76.2116 18.8694C76.2116 20.3866 75.5162 21.5667 74.02 21.5667Z" fill="white"></path><path d="M86.1939 22.599C84.6977 22.599 83.918 21.2925 83.918 19.3327C83.918 17.3728 84.6977 16.0452 86.1939 16.0452C87.6901 16.0452 88.4909 17.3728 88.4909 19.3327C88.4909 21.2925 87.6901 22.599 86.1939 22.599ZM86.215 25.0435C89.692 25.0435 91.9679 22.5779 91.9679 19.3327C91.9679 16.0874 89.692 13.6218 86.215 13.6218C82.759 13.6218 80.4409 16.0874 80.4409 19.3327C80.4409 22.5779 82.759 25.0435 86.215 25.0435Z" fill="white"></path><path d="M92.9719 24.7062H96.4068V13.9168H92.9719V24.7062ZM92.9719 12.4206H96.4068V9.63892H92.9719V12.4206Z" fill="white"></path><path d="M97.8972 28.268H101.332V23.5898H101.374C102.049 24.4959 103.039 25.0438 104.43 25.0438C107.254 25.0438 109.129 22.81 109.129 19.3119C109.129 16.0666 107.38 13.6011 104.514 13.6011C103.039 13.6011 101.985 14.2543 101.248 15.2237H101.185V13.9172H97.8972V28.268ZM103.545 22.3886C102.07 22.3886 101.227 21.1874 101.227 19.4383C101.227 17.6893 101.985 16.3617 103.482 16.3617C104.957 16.3617 105.652 17.5839 105.652 19.4383C105.652 21.2717 104.851 22.3886 103.545 22.3886Z" fill="white"></path><path d="M114.722 25.0438C117.546 25.0438 119.632 23.8216 119.632 21.4614C119.632 18.7008 117.398 18.2161 115.502 17.9C114.132 17.6471 112.91 17.5418 112.91 16.7831C112.91 16.1088 113.563 15.7927 114.406 15.7927C115.354 15.7927 116.008 16.0877 116.134 17.0571H119.295C119.126 14.9287 117.483 13.6011 114.427 13.6011C111.877 13.6011 109.77 14.7812 109.77 17.0571C109.77 19.5859 111.772 20.0916 113.647 20.4077C115.08 20.6606 116.387 20.766 116.387 21.7353C116.387 22.4307 115.734 22.8101 114.701 22.8101C113.563 22.8101 112.847 22.2832 112.72 21.2085H109.475C109.58 23.5898 111.561 25.0438 114.722 25.0438Z" fill="white"></path><path d="M124.297 25.0223C125.793 25.0223 126.741 24.4323 127.521 23.3786H127.584V24.7062H130.872V13.9167H127.437V19.9437C127.437 21.2291 126.72 22.1142 125.54 22.1142C124.444 22.1142 123.918 21.4609 123.918 20.2808V13.9167H120.504V20.9973C120.504 23.3997 121.81 25.0223 124.297 25.0223Z" fill="white"></path><path d="M132.366 24.7066H135.801V18.6586C135.801 17.3732 136.433 16.467 137.508 16.467C138.54 16.467 139.025 17.1414 139.025 18.3004V24.7066H142.46V18.6586C142.46 17.3732 143.071 16.467 144.167 16.467C145.2 16.467 145.684 17.1414 145.684 18.3004V24.7066H149.119V17.6893C149.119 15.2659 147.897 13.6011 145.452 13.6011C144.062 13.6011 142.903 14.1911 142.06 15.4977H142.017C141.47 14.3386 140.395 13.6011 138.983 13.6011C137.424 13.6011 136.391 14.3386 135.717 15.4555H135.653V13.9172H132.366V24.7066Z" fill="white"></path><path fill-rule="evenodd" clip-rule="evenodd" d="M18.1613 35.2428C27.86 35.2428 35.7223 27.3805 35.7223 17.6818C35.7223 7.98317 27.86 0.12085 18.1613 0.12085C8.46264 0.12085 0.600342 7.98317 0.600342 17.6818C0.600342 27.3805 8.46264 35.2428 18.1613 35.2428ZM23.6397 8.30149C23.9064 7.35426 22.9872 6.79413 22.1477 7.39223L10.4284 15.741C9.518 16.3896 9.66121 17.6818 10.6436 17.6818H13.7296V17.6579H19.744L14.8434 19.3871L12.6829 27.0622C12.4163 28.0094 13.3354 28.5695 14.175 27.9714L25.8942 19.6227C26.8047 18.9741 26.6614 17.6818 25.6791 17.6818H20.9993L23.6397 8.30149Z" fill="#7B61FF"></path></g><defs><clipPath id="clip0_179_2729"><rect width="149.268" height="36" fill="white"></rect></clipPath></defs></svg>