<svg xmlns="http://www.w3.org/2000/svg" width="147" height="36" viewBox="0 0 147 36" fill="none"><g clip-path="url(#clip0_179_2740)"><path d="M42.7002 25.2824H53.1946V22.1214H46.4301V10.2151H42.7002V25.2824Z" fill="white"></path><path d="M59.4117 23.1752C57.9155 23.1752 57.1358 21.8686 57.1358 19.9088C57.1358 17.949 57.9155 16.6214 59.4117 16.6214C60.9079 16.6214 61.7086 17.949 61.7086 19.9088C61.7086 21.8686 60.9079 23.1752 59.4117 23.1752ZM59.4327 25.6197C62.9098 25.6197 65.1857 23.1541 65.1857 19.9088C65.1857 16.6636 62.9098 14.198 59.4327 14.198C55.9767 14.198 53.6587 16.6636 53.6587 19.9088C53.6587 23.1541 55.9767 25.6197 59.4327 25.6197Z" fill="white"></path><path d="M71.2047 29.012C72.8062 29.012 74.2182 28.6538 75.1664 27.8109C76.0304 27.0311 76.5994 25.8511 76.5994 24.2284V14.4926H73.312V15.6516H73.2699C72.6377 14.7455 71.6683 14.1765 70.2353 14.1765C67.559 14.1765 65.7046 16.4103 65.7046 19.5712C65.7046 22.8797 67.9594 24.692 70.3828 24.692C71.6894 24.692 72.5112 24.1652 73.1434 23.4487H73.2277V24.5234C73.2277 25.83 72.6166 26.5886 71.1625 26.5886C70.0246 26.5886 69.4556 26.1039 69.266 25.535H65.9364C66.2736 27.7898 68.2334 29.012 71.2047 29.012ZM71.1836 22.1422C69.8981 22.1422 69.0552 21.0885 69.0552 19.4659C69.0552 17.8222 69.8981 16.7685 71.1836 16.7685C72.6166 16.7685 73.3752 17.9908 73.3752 19.4448C73.3752 20.9621 72.6798 22.1422 71.1836 22.1422Z" fill="white"></path><path d="M83.3589 23.1752C81.8627 23.1752 81.083 21.8686 81.083 19.9088C81.083 17.949 81.8627 16.6214 83.3589 16.6214C84.8551 16.6214 85.6559 17.949 85.6559 19.9088C85.6559 21.8686 84.8551 23.1752 83.3589 23.1752ZM83.38 25.6197C86.8571 25.6197 89.1332 23.1541 89.1332 19.9088C89.1332 16.6636 86.8571 14.198 83.38 14.198C79.924 14.198 77.606 16.6636 77.606 19.9088C77.606 23.1541 79.924 25.6197 83.38 25.6197Z" fill="white"></path><path d="M90.1353 25.2824H93.5702V14.4929H90.1353V25.2824ZM90.1353 12.9967H93.5702V10.2151H90.1353V12.9967Z" fill="white"></path><path d="M95.0605 28.8434H98.4955V24.1652H98.5376C99.212 25.0713 100.202 25.6192 101.593 25.6192C104.417 25.6192 106.293 23.3855 106.293 19.8873C106.293 16.6421 104.543 14.1765 101.678 14.1765C100.202 14.1765 99.1487 14.8298 98.4112 15.7991H98.348V14.4926H95.0605V28.8434ZM100.708 22.964C99.233 22.964 98.3901 21.7629 98.3901 20.0138C98.3901 18.2647 99.1487 16.9371 100.645 16.9371C102.12 16.9371 102.815 18.1593 102.815 20.0138C102.815 21.8471 102.015 22.964 100.708 22.964Z" fill="white"></path><path d="M111.885 25.6192C114.709 25.6192 116.795 24.397 116.795 22.0368C116.795 19.2762 114.562 18.7915 112.665 18.4754C111.295 18.2226 110.073 18.1172 110.073 17.3586C110.073 16.6842 110.726 16.3681 111.569 16.3681C112.518 16.3681 113.171 16.6631 113.297 17.6325H116.458C116.29 15.5041 114.646 14.1765 111.59 14.1765C109.041 14.1765 106.933 15.3566 106.933 17.6325C106.933 20.1613 108.935 20.6671 110.811 20.9831C112.244 21.236 113.55 21.3414 113.55 22.3108C113.55 23.0062 112.897 23.3855 111.864 23.3855C110.726 23.3855 110.01 22.8587 109.883 21.7839H106.638C106.744 24.1652 108.724 25.6192 111.885 25.6192Z" fill="white"></path><path d="M121.462 25.5985C122.958 25.5985 123.907 25.0084 124.686 23.9548H124.75V25.2824H128.037V14.4929H124.602V20.5198C124.602 21.8053 123.886 22.6904 122.705 22.6904C121.61 22.6904 121.083 22.0371 121.083 20.857V14.4929H117.669V21.5735C117.669 23.9758 118.975 25.5985 121.462 25.5985Z" fill="white"></path><path d="M129.531 25.2821H132.966V19.2341C132.966 17.9486 133.598 17.0425 134.673 17.0425C135.706 17.0425 136.19 17.7168 136.19 18.8758V25.2821H139.625V19.2341C139.625 17.9486 140.236 17.0425 141.332 17.0425C142.365 17.0425 142.849 17.7168 142.849 18.8758V25.2821H146.284V18.2647C146.284 15.8413 145.062 14.1765 142.618 14.1765C141.227 14.1765 140.068 14.7666 139.225 16.0731H139.183C138.635 14.9141 137.56 14.1765 136.148 14.1765C134.589 14.1765 133.556 14.9141 132.882 16.031H132.819V14.4926H129.531V25.2821Z" fill="white"></path><path fill-rule="evenodd" clip-rule="evenodd" d="M7.59907 3.41716C6.34288 4.29552 5.20695 5.33404 4.22086 6.50309C8.25049 6.12898 13.37 6.73985 19.3137 9.71172C25.6607 12.8852 30.7717 12.9925 34.3287 12.3064C34.0059 11.3292 33.5995 10.39 33.1183 9.49722C29.0465 9.92667 23.8265 9.35822 17.743 6.31657C13.88 4.38504 10.4747 3.58938 7.59907 3.41716ZM30.7397 6.1117C27.5242 2.51903 22.8513 0.258057 17.6503 0.258057C16.1229 0.258057 14.641 0.453077 13.2282 0.819551C15.1416 1.34164 17.1743 2.10546 19.3137 3.17517C23.7677 5.40213 27.613 6.11917 30.7397 6.1117ZM35.0891 15.7364C30.792 16.5849 24.858 16.4106 17.743 12.8531C11.0913 9.52724 5.79705 9.56913 2.22644 10.3626C2.04214 10.4035 1.86217 10.4466 1.68655 10.4913C1.21907 11.508 0.845912 12.5771 0.578167 13.6874C0.864133 13.611 1.15964 13.5383 1.46452 13.4706C5.7963 12.508 11.9167 12.5498 19.3137 16.2483C25.9655 19.5741 31.2597 19.5323 34.8304 18.7388C34.9527 18.7116 35.0732 18.6835 35.1918 18.6546C35.2048 18.3777 35.2113 18.0991 35.2113 17.819C35.2113 17.1144 35.1698 16.4194 35.0891 15.7364ZM34.6184 22.3605C30.3629 23.1045 24.6018 22.819 17.743 19.3897C11.0913 16.0638 5.79705 16.1057 2.22644 16.8992C1.43387 17.0752 0.720882 17.2897 0.0919282 17.5162C0.0902133 17.6169 0.0893555 17.7179 0.0893555 17.819C0.0893555 27.5177 7.95166 35.38 17.6503 35.38C25.7785 35.38 32.6169 29.8579 34.6184 22.3605Z" fill="#7B61FF"></path></g><defs><clipPath id="clip0_179_2740"><rect width="146.634" height="36" fill="white"></rect></clipPath></defs></svg>