<svg xmlns="http://www.w3.org/2000/svg" width="123" height="23" viewBox="0 0 123 23" fill="none"><g clip-path="url(#clip0_179_2751)"><path d="M8.29012 19.0091C5.92045 21.3775 1.90713 21.368 0.786313 18.2116C0.566874 17.5936 0.391425 16.9581 0.262382 16.3098C-0.264497 13.6624 0.00591646 10.9184 1.03943 8.42466C2.07294 5.93099 3.82313 3.79957 6.06867 2.29998C8.31424 0.8004 10.9543 -1.15623e-07 13.655 0C16.3557 1.15623e-07 18.9957 0.8004 21.2412 2.29998C23.4868 3.79957 25.237 5.93099 26.2705 8.42474C27.304 10.9184 27.5744 13.6624 27.0475 16.3098C26.9185 16.9581 26.7431 17.5936 26.5236 18.2116C25.4028 21.368 21.3895 21.3775 19.0198 19.0091L15.3618 15.3532C15.0123 15.0039 15.0485 14.4279 15.1449 13.9435C15.2034 13.649 15.1734 13.3437 15.0584 13.0663C14.9434 12.7889 14.7487 12.5517 14.4989 12.3849C14.2491 12.2182 13.9554 12.1291 13.655 12.1291C13.3545 12.1291 13.0609 12.2182 12.811 12.3849C12.5612 12.5517 12.3665 12.7889 12.2515 13.0663C12.1365 13.3437 12.1065 13.649 12.1651 13.9435C12.2615 14.4279 12.2975 15.0039 11.9481 15.3532L8.29012 19.0091Z" fill="#7B61FF"></path><path d="M38.4187 15.7322H42.0891V17.8939H35.6167V6.39746H38.4187V15.7322Z" fill="white"></path><path d="M47.0966 18.0253C46.2008 18.0253 45.3924 17.8342 44.6714 17.4521C43.9614 17.07 43.3988 16.5241 42.9837 15.8144C42.5796 15.1047 42.3774 14.275 42.3774 13.3251C42.3774 12.3862 42.585 11.5619 43.0001 10.8522C43.4152 10.1317 43.9833 9.58029 44.7042 9.19818C45.4252 8.81606 46.2336 8.625 47.1294 8.625C48.0251 8.625 48.8335 8.81606 49.5545 9.19818C50.2755 9.58029 50.8435 10.1317 51.2586 10.8522C51.6737 11.5619 51.8813 12.3862 51.8813 13.3251C51.8813 14.264 51.6682 15.0938 51.2422 15.8144C50.8271 16.5241 50.2536 17.07 49.5217 17.4521C48.8007 17.8342 47.9924 18.0253 47.0966 18.0253ZM47.0966 15.6015C47.6318 15.6015 48.0852 15.405 48.4567 15.0119C48.839 14.6189 49.0302 14.0566 49.0302 13.3251C49.0302 12.5936 48.8444 12.0314 48.473 11.6383C48.1125 11.2453 47.6646 11.0487 47.1294 11.0487C46.5832 11.0487 46.1298 11.2453 45.7693 11.6383C45.4088 12.0204 45.2286 12.5827 45.2286 13.3251C45.2286 14.0566 45.4034 14.6189 45.753 15.0119C46.1135 15.405 46.5613 15.6015 47.0966 15.6015Z" fill="white"></path><path d="M56.3493 8.625C56.9938 8.625 57.5564 8.75602 58.0371 9.01806C58.5286 9.28002 58.9055 9.62399 59.1677 10.0497V8.75602H61.9696V17.8778C61.9696 18.7185 61.8004 19.4774 61.4617 20.1542C61.134 20.842 60.626 21.3879 59.9379 21.7919C59.2606 22.1959 58.4139 22.3979 57.398 22.3979C56.0434 22.3979 54.9456 22.0758 54.1044 21.4316C53.2633 20.7983 52.7826 19.9358 52.6624 18.8441H55.4317C55.5191 19.1934 55.7266 19.4664 56.0544 19.6629C56.382 19.8703 56.7863 19.9741 57.2669 19.9741C57.8459 19.9741 58.3046 19.8048 58.6433 19.4664C58.9929 19.1389 59.1677 18.6094 59.1677 17.8778V16.5841C58.8946 17.0098 58.5177 17.3593 58.0371 17.6322C57.5564 17.8942 56.9938 18.0253 56.3493 18.0253C55.5956 18.0253 54.9128 17.8342 54.301 17.4521C53.6893 17.059 53.2032 16.5077 52.8427 15.798C52.4932 15.0775 52.3184 14.2477 52.3184 13.3088C52.3184 12.3698 52.4932 11.5455 52.8427 10.8359C53.2032 10.1262 53.6893 9.58029 54.301 9.19818C54.9128 8.81606 55.5956 8.625 56.3493 8.625ZM59.1677 13.3251C59.1677 12.6264 58.9711 12.075 58.5778 11.6711C58.1955 11.2671 57.7257 11.0651 57.1686 11.0651C56.6115 11.0651 56.1363 11.2671 55.743 11.6711C55.3607 12.0641 55.1695 12.61 55.1695 13.3088C55.1695 14.0075 55.3607 14.5643 55.743 14.9792C56.1363 15.3831 56.6115 15.5851 57.1686 15.5851C57.7257 15.5851 58.1955 15.3831 58.5778 14.9792C58.9711 14.5752 59.1677 14.0239 59.1677 13.3251Z" fill="white"></path><path d="M67.6684 18.0253C66.7726 18.0253 65.9642 17.8342 65.2433 17.4521C64.5332 17.07 63.9706 16.5241 63.5555 15.8144C63.1513 15.1047 62.9492 14.275 62.9492 13.3251C62.9492 12.3862 63.1567 11.5619 63.5719 10.8522C63.987 10.1317 64.555 9.58029 65.276 9.19818C65.997 8.81606 66.8054 8.625 67.7011 8.625C68.5969 8.625 69.4053 8.81606 70.1262 9.19818C70.8473 9.58029 71.4153 10.1317 71.8304 10.8522C72.2455 11.5619 72.4531 12.3862 72.4531 13.3251C72.4531 14.264 72.2401 15.0938 71.814 15.8144C71.3989 16.5241 70.8254 17.07 70.0935 17.4521C69.3725 17.8342 68.5641 18.0253 67.6684 18.0253ZM67.6684 15.6015C68.2036 15.6015 68.657 15.405 69.0284 15.0119C69.4108 14.6189 69.6019 14.0566 69.6019 13.3251C69.6019 12.5936 69.4162 12.0314 69.0448 11.6383C68.6843 11.2453 68.2364 11.0487 67.7011 11.0487C67.1549 11.0487 66.7016 11.2453 66.3411 11.6383C65.9807 12.0204 65.8004 12.5827 65.8004 13.3251C65.8004 14.0566 65.9752 14.6189 66.3247 15.0119C66.6852 15.405 67.1331 15.6015 67.6684 15.6015Z" fill="white"></path><path d="M74.8574 7.80607C74.3658 7.80607 73.9617 7.66414 73.6449 7.38028C73.339 7.0855 73.186 6.72521 73.186 6.29941C73.186 5.8627 73.339 5.50241 73.6449 5.21854C73.9617 4.92376 74.3658 4.77637 74.8574 4.77637C75.3381 4.77637 75.7313 4.92376 76.0372 5.21854C76.354 5.50241 76.5123 5.8627 76.5123 6.29941C76.5123 6.72521 76.354 7.0855 76.0372 7.38028C75.7313 7.66414 75.3381 7.80607 74.8574 7.80607ZM76.2502 8.75594V17.8942H73.4482V8.75594H76.2502Z" fill="white"></path><path d="M80.5899 10.0497C80.8628 9.62399 81.2398 9.28002 81.7207 9.01806C82.2016 8.75602 82.7642 8.625 83.4086 8.625C84.1624 8.625 84.8449 8.81606 85.4567 9.19818C86.0685 9.58029 86.5494 10.1262 86.8986 10.8359C87.2589 11.5455 87.4398 12.3698 87.4398 13.3088C87.4398 14.2477 87.2589 15.0775 86.8986 15.798C86.5494 16.5077 86.0685 17.059 85.4567 17.4521C84.8449 17.8342 84.1624 18.0253 83.4086 18.0253C82.7745 18.0253 82.2127 17.8942 81.7207 17.6322C81.2398 17.3702 80.8628 17.0317 80.5899 16.6169V22.2504H77.7881V8.75602H80.5899V10.0497ZM84.5886 13.3088C84.5886 12.61 84.3918 12.0641 83.9982 11.6711C83.6157 11.2671 83.1411 11.0651 82.5729 11.0651C82.0159 11.0651 81.5405 11.2671 81.1469 11.6711C80.7652 12.075 80.574 12.6264 80.574 13.3251C80.574 14.0239 80.7652 14.5752 81.1469 14.9792C81.5405 15.3831 82.0159 15.5851 82.5729 15.5851C83.13 15.5851 83.6054 15.3831 83.9982 14.9792C84.3918 14.5643 84.5886 14.0075 84.5886 13.3088Z" fill="white"></path><path d="M92.1386 18.0253C91.3411 18.0253 90.6309 17.8888 90.0079 17.6159C89.3858 17.3429 88.8938 16.9717 88.5335 16.5022C88.1732 16.0218 87.9709 15.4869 87.9272 14.8973H90.6967C90.7293 15.2139 90.8769 15.4704 91.1387 15.667C91.4014 15.8635 91.7236 15.9618 92.1061 15.9618C92.4552 15.9618 92.7227 15.8963 92.9083 15.7652C93.1051 15.6233 93.2035 15.4432 93.2035 15.2248C93.2035 14.9628 93.0671 14.7717 92.7941 14.6516C92.5211 14.5206 92.0783 14.3787 91.4665 14.2258C90.811 14.073 90.265 13.9147 89.8278 13.7509C89.3913 13.5763 89.0144 13.3088 88.6978 12.9484C88.3804 12.5773 88.2224 12.0805 88.2224 11.4582C88.2224 10.9341 88.3645 10.4592 88.6486 10.0334C88.943 9.59671 89.3691 9.25274 89.9262 9.00164C90.4944 8.75055 91.1665 8.625 91.9418 8.625C93.0885 8.625 93.99 8.90885 94.6454 9.47656C95.312 10.0443 95.6945 10.7976 95.7929 11.7366H93.2035C93.1599 11.42 93.0179 11.1689 92.7774 10.9832C92.5481 10.7976 92.2426 10.7048 91.8601 10.7048C91.5323 10.7048 91.2808 10.7703 91.1062 10.9014C90.9316 11.0214 90.8443 11.1907 90.8443 11.409C90.8443 11.6711 90.9808 11.8676 91.2538 11.9986C91.5379 12.1296 91.9743 12.2607 92.5647 12.3916C93.2416 12.5663 93.7932 12.741 94.2193 12.9157C94.6454 13.0795 95.0168 13.3524 95.3334 13.7346C95.6612 14.1057 95.831 14.6079 95.8421 15.2412C95.8421 15.7762 95.6889 16.2566 95.3826 16.6824C95.0882 17.0972 94.6565 17.4248 94.0884 17.665C93.5313 17.9052 92.8814 18.0253 92.1386 18.0253Z" fill="white"></path><path d="M106.093 8.75586V17.8941H103.291V16.6495C103.007 17.0534 102.619 17.3809 102.127 17.632C101.646 17.8723 101.112 17.9923 100.521 17.9923C99.822 17.9923 99.2047 17.8395 98.6698 17.5338C98.1342 17.2172 97.7191 16.7641 97.4247 16.1745C97.1295 15.585 96.9819 14.8917 96.9819 14.0946V8.75586H99.7673V13.718C99.7673 14.3294 99.926 14.8043 100.243 15.1428C100.559 15.4812 100.985 15.6505 101.521 15.6505C102.067 15.6505 102.499 15.4812 102.815 15.1428C103.132 14.8043 103.291 14.3294 103.291 13.718V8.75586H106.093Z" fill="white"></path><path d="M119.281 8.65747C120.417 8.65747 121.318 9.00136 121.985 9.68922C122.662 10.377 123 11.3323 123 12.5551V17.894H120.215V12.9318C120.215 12.3422 120.056 11.8891 119.74 11.5725C119.433 11.245 119.008 11.0812 118.461 11.0812C117.915 11.0812 117.484 11.245 117.167 11.5725C116.861 11.8891 116.708 12.3422 116.708 12.9318V17.894H113.922V12.9318C113.922 12.3422 113.764 11.8891 113.448 11.5725C113.141 11.245 112.715 11.0812 112.169 11.0812C111.623 11.0812 111.192 11.245 110.875 11.5725C110.569 11.8891 110.416 12.3422 110.416 12.9318V17.894H107.614V8.75574H110.416V9.90209C110.7 9.51997 111.072 9.2197 111.53 9.00136C111.989 8.77207 112.508 8.65747 113.087 8.65747C113.775 8.65747 114.387 8.80483 114.922 9.09963C115.468 9.39442 115.894 9.81477 116.2 10.3607C116.517 9.85839 116.949 9.44899 117.495 9.13238C118.041 8.81577 118.637 8.65747 119.281 8.65747Z" fill="white"></path></g><defs><clipPath id="clip0_179_2751"><rect width="123" height="23" fill="white"></rect></clipPath></defs></svg>