<svg xmlns="http://www.w3.org/2000/svg" width="38" height="40" viewBox="0 0 38 40" fill="none"><path d="M11.148 12.7344L10.9841 27.4033L7.78409 29.2C6.60409 29.876 5.27359 30.2458 3.91398 30.2755C2.55438 30.3053 1.20896 29.9942 0.000488281 29.3705L0.229996 10.5705V9.84917L0.256226 8.52458C0.270559 7.01591 0.681986 5.53763 1.44911 4.23847C2.21623 2.93932 3.31199 1.86512 4.62613 1.12396C5.94028 0.382807 7.42644 0.000835679 8.9351 0.0164839C10.4438 0.0321321 11.9217 0.444848 13.2202 1.2131L14.3021 1.86884C13.3319 2.68651 12.551 3.70516 12.0132 4.85434C11.4754 6.00352 11.1936 7.2558 11.1874 8.52458L11.148 11.9738V12.7344Z" fill="#6C52EE"></path><path d="M11.148 12.7344L10.9841 27.4033L7.78409 29.2C6.60409 29.876 5.27359 30.2458 3.91398 30.2755C2.55438 30.3053 1.20896 29.9942 0.000488281 29.3705L0.229996 10.5705V9.84917L0.256226 8.52458C0.270559 7.01591 0.681986 5.53763 1.44911 4.23847C2.21623 2.93932 3.31199 1.86512 4.62613 1.12396C5.94028 0.382807 7.42644 0.000835679 8.9351 0.0164839C10.4438 0.0321321 11.9217 0.444848 13.2202 1.2131L14.3021 1.86884C13.3319 2.68651 12.551 3.70516 12.0132 4.85434C11.4754 6.00352 11.1936 7.2558 11.1874 8.52458L11.148 11.9738V12.7344Z" fill="url(#paint0_radial_214_2407)"></path><path d="M11.148 12.7344L10.9841 27.4033L7.78409 29.2C6.60409 29.876 5.27359 30.2458 3.91398 30.2755C2.55438 30.3053 1.20896 29.9942 0.000488281 29.3705L0.229996 10.5705V9.84917L0.256226 8.52458C0.270559 7.01591 0.681986 5.53763 1.44911 4.23847C2.21623 2.93932 3.31199 1.86512 4.62613 1.12396C5.94028 0.382807 7.42644 0.000835679 8.9351 0.0164839C10.4438 0.0321321 11.9217 0.444848 13.2202 1.2131L14.3021 1.86884C13.3319 2.68651 12.551 3.70516 12.0132 4.85434C11.4754 6.00352 11.1936 7.2558 11.1874 8.52458L11.148 11.9738V12.7344Z" fill="url(#paint1_linear_214_2407)"></path><path d="M31.633 28.2951L14.5838 37.8623L13.974 38.2098L12.7674 38.8656C11.4566 39.5973 9.97679 39.9724 8.47568 39.9536C6.97457 39.9347 5.50467 39.5225 4.21266 38.758C2.92065 37.9935 1.85172 36.9036 1.11256 35.597C0.373402 34.2903 -0.0101436 32.8127 0.00020396 31.3115V30.0918C1.16771 30.6474 2.44493 30.9343 3.73791 30.9311C5.26736 30.9277 6.76979 30.5279 8.09857 29.7705L10.9707 28.1574L11.6264 27.7836L24.4068 20.5705L27.6855 22.5377C28.7308 23.1426 29.6278 23.9735 30.3108 24.9696C30.9938 25.9657 31.4456 27.1019 31.633 28.2951Z" fill="#6C52EE"></path><path d="M31.633 28.2951L14.5838 37.8623L13.974 38.2098L12.7674 38.8656C11.4566 39.5973 9.97679 39.9724 8.47568 39.9536C6.97457 39.9347 5.50467 39.5225 4.21266 38.758C2.92065 37.9935 1.85172 36.9036 1.11256 35.597C0.373402 34.2903 -0.0101436 32.8127 0.00020396 31.3115V30.0918C1.16771 30.6474 2.44493 30.9343 3.73791 30.9311C5.26736 30.9277 6.76979 30.5279 8.09857 29.7705L10.9707 28.1574L11.6264 27.7836L24.4068 20.5705L27.6855 22.5377C28.7308 23.1426 29.6278 23.9735 30.3108 24.9696C30.9938 25.9657 31.4456 27.1019 31.633 28.2951Z" fill="url(#paint2_radial_214_2407)"></path><path d="M31.633 28.2951L14.5838 37.8623L13.974 38.2098L12.7674 38.8656C11.4566 39.5973 9.97679 39.9724 8.47568 39.9536C6.97457 39.9347 5.50467 39.5225 4.21266 38.758C2.92065 37.9935 1.85172 36.9036 1.11256 35.597C0.373402 34.2903 -0.0101436 32.8127 0.00020396 31.3115V30.0918C1.16771 30.6474 2.44493 30.9343 3.73791 30.9311C5.26736 30.9277 6.76979 30.5279 8.09857 29.7705L10.9707 28.1574L11.6264 27.7836L24.4068 20.5705L27.6855 22.5377C28.7308 23.1426 29.6278 23.9735 30.3108 24.9696C30.9938 25.9657 31.4456 27.1019 31.633 28.2951Z" fill="url(#paint3_linear_214_2407)"></path><path d="M32.6758 27.7049L32.2431 27.9475C32.0109 26.7107 31.5154 25.5382 30.7901 24.5097C30.0649 23.4813 29.1269 22.6209 28.0398 21.9869L25.0693 20.223L24.4135 19.8426L11.8037 12.3607L11.8431 8.52459C11.849 7.31007 12.1272 6.11233 12.6572 5.01951C13.1872 3.92669 13.9554 2.96658 14.9053 2.20984L31.7906 12.2164L32.4004 12.5771L32.8463 12.8393C34.1423 13.6077 35.2132 14.7036 35.9515 16.0169C36.6897 17.3303 37.0693 18.8148 37.052 20.3213C37.0347 21.8279 36.6212 23.3033 35.8531 24.5994C35.0849 25.8955 33.9891 26.9665 32.6758 27.7049Z" fill="#6C52EE"></path><path d="M32.6758 27.7049L32.2431 27.9475C32.0109 26.7107 31.5154 25.5382 30.7901 24.5097C30.0649 23.4813 29.1269 22.6209 28.0398 21.9869L25.0693 20.223L24.4135 19.8426L11.8037 12.3607L11.8431 8.52459C11.849 7.31007 12.1272 6.11233 12.6572 5.01951C13.1872 3.92669 13.9554 2.96658 14.9053 2.20984L31.7906 12.2164L32.4004 12.5771L32.8463 12.8393C34.1423 13.6077 35.2132 14.7036 35.9515 16.0169C36.6897 17.3303 37.0693 18.8148 37.052 20.3213C37.0347 21.8279 36.6212 23.3033 35.8531 24.5994C35.0849 25.8955 33.9891 26.9665 32.6758 27.7049Z" fill="url(#paint4_radial_214_2407)"></path><path d="M32.6758 27.7049L32.2431 27.9475C32.0109 26.7107 31.5154 25.5382 30.7901 24.5097C30.0649 23.4813 29.1269 22.6209 28.0398 21.9869L25.0693 20.223L24.4135 19.8426L11.8037 12.3607L11.8431 8.52459C11.849 7.31007 12.1272 6.11233 12.6572 5.01951C13.1872 3.92669 13.9554 2.96658 14.9053 2.20984L31.7906 12.2164L32.4004 12.5771L32.8463 12.8393C34.1423 13.6077 35.2132 14.7036 35.9515 16.0169C36.6897 17.3303 37.0693 18.8148 37.052 20.3213C37.0347 21.8279 36.6212 23.3033 35.8531 24.5994C35.0849 25.8955 33.9891 26.9665 32.6758 27.7049Z" fill="url(#paint5_linear_214_2407)"></path><defs><radialGradient id="paint0_radial_214_2407" cx="0" cy="0" r="1" gradientUnits="userSpaceOnUse" gradientTransform="translate(-2.3695 -27.8245) rotate(78.6274) scale(59.2657 23.6461)"><stop offset="0.286933" stop-color="#619BFF"></stop><stop offset="0.695365" stop-color="#CDDBF8" stop-opacity="0"></stop></radialGradient><linearGradient id="paint1_linear_214_2407" x1="11.2542" y1="-6.03627" x2="5.59049" y2="-4.96974" gradientUnits="userSpaceOnUse"><stop stop-color="#9E61FF"></stop><stop offset="0.793333" stop-color="#8E61FF" stop-opacity="0"></stop></linearGradient><radialGradient id="paint2_radial_214_2407" cx="0" cy="0" r="1" gradientUnits="userSpaceOnUse" gradientTransform="translate(-5.24204 2.73744) rotate(55.2184) scale(45.3127 43.8171)"><stop offset="0.286933" stop-color="#619BFF"></stop><stop offset="0.695365" stop-color="#CDDBF8" stop-opacity="0"></stop></radialGradient><linearGradient id="paint3_linear_214_2407" x1="24.8915" y1="16.6937" x2="15.7748" y2="22.6219" gradientUnits="userSpaceOnUse"><stop stop-color="#9E61FF"></stop><stop offset="0.793333" stop-color="#8E61FF" stop-opacity="0"></stop></linearGradient><radialGradient id="paint4_radial_214_2407" cx="0" cy="0" r="1" gradientUnits="userSpaceOnUse" gradientTransform="translate(7.61961 -21.4688) rotate(67.3389) scale(53.5505 39.2947)"><stop offset="0.286933" stop-color="#619BFF"></stop><stop offset="0.695365" stop-color="#CDDBF8" stop-opacity="0"></stop></radialGradient><linearGradient id="paint5_linear_214_2407" x1="31.6717" y1="-2.9377" x2="22.6903" y2="0.572973" gradientUnits="userSpaceOnUse"><stop stop-color="#9E61FF"></stop><stop offset="0.793333" stop-color="#8E61FF" stop-opacity="0"></stop></linearGradient></defs></svg>