<svg xmlns="http://www.w3.org/2000/svg" width="309" height="148" viewBox="0 0 309 148" fill="none"><path d="M145.273 36.0723H142.473V34.8018H149.541V36.0723H146.754V43.5352H145.273V36.0723Z" fill="white"></path><path d="M152.37 43.5352H150.89V34.8018H152.37V38.3667H156.663V34.8018H158.143V43.5352H156.663V39.6125H152.37V43.5352Z" fill="white"></path><path d="M161.813 42.277H166.55V43.5352H160.383V34.8018H166.427V36.06H161.813V38.4654H165.933V39.6002H161.813V42.277Z" fill="white"></path><path d="M127.933 1.1856L130.418 7.05717H129.166L128.663 5.81319H125.468L124.975 7.05717H123.723L126.218 1.1856H127.933ZM127.075 2.04809L125.764 5.0751H128.387L127.075 2.04809Z" fill="white"></path><path d="M141.54 6.34395L143.186 1.1856H144.399L142.476 7.05717H140.652L139.292 2.29689L137.941 7.05717H136.107L134.174 1.1856H135.387L137.044 6.34395L138.532 1.1856H140.09L141.54 6.34395Z" fill="white"></path><path d="M148.529 1.1856L151.014 7.05717H149.761L149.259 5.81319H146.064L145.571 7.05717H144.319L146.813 1.1856H148.529ZM147.671 2.04809L146.36 5.0751H148.983L147.671 2.04809Z" fill="white"></path><path d="M152.181 7.05717V1.1856H155.395C156.158 1.1856 156.786 1.35976 157.279 1.70807C157.772 2.05638 158.018 2.50422 158.018 3.05156C158.018 3.43858 157.864 3.78689 157.555 4.0965C157.252 4.40612 156.864 4.61345 156.391 4.71849L158.127 7.05717H156.776L155.247 4.85948H153.364V7.05717H152.181ZM155.257 2.00663H153.364V4.06333H155.257C155.711 4.06333 156.086 3.96934 156.381 3.78136C156.684 3.58786 156.835 3.34459 156.835 3.05156C156.835 2.72537 156.687 2.47104 156.391 2.28859C156.102 2.10061 155.724 2.00663 155.257 2.00663Z" fill="white"></path><path d="M159.586 7.05717V1.1856H162.8C163.562 1.1856 164.19 1.35976 164.683 1.70807C165.176 2.05638 165.423 2.50422 165.423 3.05156C165.423 3.43858 165.268 3.78689 164.959 4.0965C164.657 4.40612 164.269 4.61345 163.796 4.71849L165.531 7.05717H164.18L162.652 4.85948H160.769V7.05717H159.586ZM162.662 2.00663H160.769V4.06333H162.662C163.115 4.06333 163.49 3.96934 163.786 3.78136C164.088 3.58786 164.239 3.34459 164.239 3.05156C164.239 2.72537 164.091 2.47104 163.796 2.28859C163.506 2.10061 163.128 2.00663 162.662 2.00663Z" fill="white"></path><path d="M168.173 1.1856V7.05717H166.99V1.1856H168.173Z" fill="white"></path><path d="M170.685 6.38542C169.982 5.79937 169.63 5.04469 169.63 4.12138C169.63 3.19808 169.982 2.4434 170.685 1.85735C171.395 1.2713 172.309 0.978271 173.426 0.978271C174.544 0.978271 175.457 1.2713 176.167 1.85735C176.877 2.4434 177.232 3.19808 177.232 4.12138C177.232 5.04469 176.877 5.79937 176.167 6.38542C175.457 6.97147 174.544 7.2645 173.426 7.2645C172.309 7.2645 171.395 6.97147 170.685 6.38542ZM171.543 2.48763C171.056 2.91335 170.813 3.45793 170.813 4.12138C170.813 4.78484 171.056 5.32942 171.543 5.75514C172.036 6.18086 172.664 6.39648 173.426 6.40201C174.195 6.40201 174.823 6.18915 175.309 5.76343C175.802 5.33219 176.049 4.78484 176.049 4.12138C176.049 3.45793 175.802 2.91335 175.309 2.48763C174.823 2.05638 174.195 1.84076 173.426 1.84076C172.664 1.84076 172.036 2.05638 171.543 2.48763Z" fill="white"></path><path d="M178.689 7.05717V1.1856H181.903C182.666 1.1856 183.293 1.35976 183.786 1.70807C184.279 2.05638 184.526 2.50422 184.526 3.05156C184.526 3.43858 184.371 3.78689 184.062 4.0965C183.76 4.40612 183.372 4.61345 182.899 4.71849L184.634 7.05717H183.284L181.755 4.85948H179.872V7.05717H178.689ZM181.765 2.00663H179.872V4.06333H181.765C182.219 4.06333 182.593 3.96934 182.889 3.78136C183.192 3.58786 183.343 3.34459 183.343 3.05156C183.343 2.72537 183.195 2.47104 182.899 2.28859C182.61 2.10061 182.232 2.00663 181.765 2.00663Z" fill="white"></path><path d="M103.727 17.4236H100.533V11.5521H103.688C104.358 11.5521 104.91 11.7041 105.344 12.0082C105.778 12.3123 105.995 12.6993 105.995 13.1692C105.995 13.4623 105.896 13.7249 105.699 13.9571C105.509 14.1893 105.262 14.3413 104.96 14.4132C105.321 14.4906 105.617 14.6565 105.847 14.9108C106.077 15.1651 106.192 15.4582 106.192 15.7899C106.192 16.2654 105.959 16.6579 105.492 16.9675C105.032 17.2716 104.444 17.4236 103.727 17.4236ZM103.53 14.8113H101.716V16.6026H103.53C103.957 16.6026 104.309 16.5197 104.585 16.3538C104.868 16.1824 105.009 15.9668 105.009 15.7069C105.009 15.4471 104.868 15.2342 104.585 15.0684C104.309 14.897 103.957 14.8113 103.53 14.8113ZM103.51 12.3731H101.716V14.0234H103.51C103.892 14.0234 104.204 13.946 104.447 13.7912C104.69 13.6364 104.812 13.4401 104.812 13.2024C104.812 12.9591 104.69 12.7601 104.447 12.6053C104.204 12.4505 103.892 12.3731 103.51 12.3731Z" fill="white"></path><path d="M108.898 16.5777H112.684V17.4236H107.754V11.5521H112.586V12.398H108.898V14.0151H112.191V14.7781H108.898V16.5777Z" fill="white"></path><path d="M119.679 15.3835L120.803 15.5411C120.646 16.1492 120.251 16.6496 119.62 17.0421C118.989 17.4347 118.266 17.631 117.451 17.631C116.393 17.631 115.518 17.3352 114.828 16.7436C114.138 16.152 113.796 15.4001 113.803 14.4879C113.803 13.5756 114.145 12.8237 114.828 12.2321C115.518 11.6405 116.393 11.3447 117.451 11.3447C118.266 11.3447 118.989 11.5521 119.62 11.9667C120.251 12.3759 120.646 12.8956 120.803 13.5258L119.669 13.6419C119.551 13.2273 119.282 12.8845 118.861 12.6136C118.447 12.3427 117.98 12.2072 117.461 12.2072C116.738 12.2072 116.143 12.4229 115.676 12.8541C115.216 13.2798 114.986 13.8244 114.986 14.4879C114.986 15.1513 115.216 15.6987 115.676 16.1299C116.143 16.5556 116.738 16.7685 117.461 16.7685C117.974 16.7685 118.437 16.6385 118.851 16.3787C119.272 16.1188 119.548 15.7871 119.679 15.3835Z" fill="white"></path><path d="M122.984 16.7519C122.281 16.1658 121.929 15.4112 121.929 14.4879C121.929 13.5645 122.281 12.8099 122.984 12.2238C123.694 11.6378 124.608 11.3447 125.725 11.3447C126.843 11.3447 127.757 11.6378 128.467 12.2238C129.176 12.8099 129.531 13.5645 129.531 14.4879C129.531 15.4112 129.176 16.1658 128.467 16.7519C127.757 17.3379 126.843 17.631 125.725 17.631C124.608 17.631 123.694 17.3379 122.984 16.7519ZM123.842 12.8541C123.356 13.2798 123.113 13.8244 123.113 14.4879C123.113 15.1513 123.356 15.6959 123.842 16.1216C124.335 16.5473 124.963 16.7629 125.725 16.7685C126.495 16.7685 127.122 16.5556 127.609 16.1299C128.102 15.6987 128.348 15.1513 128.348 14.4879C128.348 13.8244 128.102 13.2798 127.609 12.8541C127.122 12.4229 126.495 12.2072 125.725 12.2072C124.963 12.2072 124.335 12.4229 123.842 12.8541Z" fill="white"></path><path d="M132.162 17.4236H130.988V11.5521H132.645L134.903 16.1465L137.151 11.5521H138.817V17.4236H137.644V12.7878L135.356 17.4236H134.449L132.162 12.796V17.4236Z" fill="white"></path><path d="M141.751 16.5777H145.537V17.4236H140.607V11.5521H145.439V12.398H141.751V14.0151H145.044V14.7781H141.751V16.5777Z" fill="white"></path><path d="M149.713 17.631C148.838 17.631 148.119 17.4319 147.553 17.0339C146.988 16.6303 146.705 16.1216 146.705 15.5079H147.829C147.829 15.8839 148.007 16.1962 148.362 16.445C148.723 16.6883 149.183 16.8099 149.742 16.8099C150.222 16.8099 150.603 16.7187 150.886 16.5363C151.175 16.3538 151.32 16.1271 151.32 15.8562C151.32 15.6627 151.234 15.5051 151.063 15.3835C150.899 15.2564 150.682 15.1624 150.413 15.1015C150.15 15.0352 149.857 14.9771 149.535 14.9274C149.213 14.8832 148.891 14.8251 148.569 14.7532C148.253 14.6814 147.961 14.5929 147.691 14.4879C147.428 14.3773 147.211 14.2169 147.041 14.0068C146.876 13.7912 146.794 13.5286 146.794 13.219C146.794 12.6661 147.044 12.2155 147.543 11.8672C148.049 11.5189 148.707 11.3447 149.515 11.3447C150.33 11.3447 151.001 11.5355 151.527 11.917C152.059 12.2929 152.329 12.7739 152.335 13.36H151.241C151.241 13.0117 151.08 12.7269 150.758 12.5058C150.436 12.2791 150.025 12.1658 149.525 12.1658C149.058 12.1658 148.681 12.2515 148.391 12.4228C148.109 12.5942 147.967 12.8126 147.967 13.078C147.967 13.2936 148.079 13.4678 148.303 13.6005C148.526 13.7332 148.805 13.8244 149.141 13.8742C149.476 13.9239 149.837 13.9875 150.225 14.0649C150.62 14.1368 150.984 14.2225 151.32 14.322C151.655 14.416 151.934 14.5818 152.158 14.8196C152.381 15.0518 152.493 15.3476 152.493 15.7069C152.493 16.2654 152.24 16.727 151.734 17.0919C151.228 17.4513 150.554 17.631 149.713 17.631Z" fill="white"></path><path d="M160.623 11.5521L163.107 17.4236H161.855L161.352 16.1797H158.158L157.665 17.4236H156.413L158.907 11.5521H160.623ZM159.765 12.4146L158.454 15.4416H161.076L159.765 12.4146Z" fill="white"></path><path d="M171.794 17.4236H167.317V11.5521H168.501V16.5611H171.794V17.4236Z" fill="white"></path><path d="M174.219 16.5777H178.005V17.4236H173.075V11.5521H177.907V12.398H174.219V14.0151H177.512V14.7781H174.219V16.5777Z" fill="white"></path><path d="M185.415 14.9274L182.89 14.9191V14.1395H186.578C186.591 14.2612 186.598 14.38 186.598 14.4961C186.598 15.3476 186.295 16.0636 185.691 16.6441C185 17.302 184.077 17.631 182.92 17.631C181.816 17.631 180.905 17.3352 180.189 16.7436C179.479 16.152 179.124 15.4001 179.124 14.4879C179.124 13.5756 179.479 12.8237 180.189 12.2321C180.905 11.6405 181.816 11.3447 182.92 11.3447C183.669 11.3447 184.343 11.5078 184.941 11.834C185.546 12.1547 185.944 12.5638 186.134 13.0614L185.05 13.3185C184.912 12.9978 184.642 12.7325 184.241 12.5224C183.84 12.3123 183.4 12.2072 182.92 12.2072C182.157 12.2072 181.53 12.4201 181.037 12.8458C180.55 13.2715 180.307 13.8189 180.307 14.4879C180.307 15.1458 180.554 15.6904 181.047 16.1216C181.546 16.5528 182.177 16.7685 182.94 16.7685C183.617 16.7685 184.192 16.5916 184.665 16.2377C185.138 15.8839 185.388 15.4471 185.415 14.9274Z" fill="white"></path><path d="M189.192 16.5777H192.978V17.4236H188.048V11.5521H192.879V12.398H189.192V14.0151H192.485V14.7781H189.192V16.5777Z" fill="white"></path><path d="M195.921 11.5521L199.096 16.2211V11.5521H200.249V17.4236H198.77L195.585 12.7629V17.4236H194.432V11.5521H195.921Z" fill="white"></path><path d="M202.048 17.4236V11.5521H204.424C205.64 11.5521 206.617 11.8202 207.353 12.3565C208.095 12.8928 208.467 13.6032 208.467 14.4879C208.467 15.3725 208.095 16.0829 207.353 16.6192C206.617 17.1555 205.64 17.4236 204.424 17.4236H202.048ZM206.495 16.0221C207.021 15.6406 207.284 15.1292 207.284 14.4879C207.284 13.8465 207.021 13.3351 206.495 12.9536C205.976 12.5721 205.285 12.3814 204.424 12.3814H203.221V16.5943H204.424C205.285 16.5943 205.976 16.4036 206.495 16.0221Z" fill="white"></path><path d="M56.1997 68.8698V58.3514H59.7572V68.9203C59.7572 71.2241 58.9172 73.1243 57.2373 74.6209C55.5771 76.1007 53.4525 76.8406 50.8634 76.8406C48.2545 76.8406 46.1101 76.1007 44.4302 74.6209C42.77 73.1243 41.9399 71.2241 41.9399 68.9203V58.3514H45.4975V68.8698C45.4975 70.316 45.9916 71.5688 46.9798 72.6282C47.9877 73.6708 49.2823 74.2005 50.8634 74.2173C52.4445 74.2173 53.7292 73.7212 54.7174 72.7291C55.7056 71.7201 56.1997 70.4337 56.1997 68.8698Z" fill="white"></path><path d="M69.4658 58.3514L79.0118 72.5525V58.3514H82.4804V76.21H78.0335L68.4578 62.0341V76.21H64.9892V58.3514H69.4658Z" fill="white"></path><path d="M96.0719 76.8406C93.4433 76.8406 91.2792 76.2352 89.5795 75.0245C87.8797 73.7969 87.0299 72.2498 87.0299 70.3833H90.4095C90.4095 71.5267 90.9432 72.4768 92.0104 73.2336C93.0974 73.9735 94.4809 74.3434 96.1609 74.3434C97.6036 74.3434 98.75 74.066 99.5998 73.511C100.469 72.9561 100.904 72.2666 100.904 71.4427C100.904 70.8541 100.647 70.3748 100.133 70.0049C99.6393 69.6181 98.9871 69.3323 98.1768 69.1473C97.3862 68.9455 96.5067 68.7689 95.5383 68.6176C94.5699 68.483 93.6014 68.3065 92.633 68.0879C91.6843 67.8693 90.8048 67.6002 89.9945 67.2807C89.2039 66.9444 88.5517 66.4567 88.0379 65.8177C87.5438 65.1619 87.2967 64.3631 87.2967 63.4214C87.2967 61.7398 88.0477 60.3693 89.5498 59.3099C91.0716 58.2505 93.048 57.7208 95.479 57.7208C97.9297 57.7208 99.9457 58.301 101.527 59.4613C103.128 60.6048 103.938 62.0678 103.958 63.8502H100.667C100.667 62.7908 100.183 61.9248 99.2144 61.2522C98.246 60.5627 97.0107 60.218 95.5087 60.218C94.1054 60.218 92.969 60.4786 92.0994 60.9999C91.2495 61.5212 90.8246 62.1855 90.8246 62.9926C90.8246 63.6485 91.1606 64.1782 91.8325 64.5817C92.5045 64.9853 93.3445 65.2628 94.3525 65.4141C95.3604 65.5655 96.4474 65.7589 97.6135 65.9943C98.7994 66.2129 99.8963 66.4735 100.904 66.7762C101.912 67.0621 102.752 67.5666 103.424 68.2897C104.096 68.9959 104.432 69.8956 104.432 70.9886C104.432 72.687 103.671 74.0912 102.149 75.201C100.628 76.2941 98.6017 76.8406 96.0719 76.8406Z" fill="white"></path><path d="M113.561 60.9495H106.832V58.3514H123.819V60.9495H117.119V76.21H113.561V60.9495Z" fill="white"></path><path d="M128.211 74.1668C126.097 72.3844 125.039 70.089 125.039 67.2807C125.039 64.4724 126.097 62.1771 128.211 60.3946C130.346 58.6121 133.093 57.7208 136.453 57.7208C139.813 57.7208 142.56 58.6121 144.695 60.3946C146.829 62.1771 147.896 64.4724 147.896 67.2807C147.896 70.089 146.829 72.3844 144.695 74.1668C142.56 75.9493 139.813 76.8406 136.453 76.8406C133.093 76.8406 130.346 75.9493 128.211 74.1668ZM130.791 62.3116C129.328 63.6064 128.597 65.2628 128.597 67.2807C128.597 69.2986 129.328 70.955 130.791 72.2498C132.273 73.5447 134.16 74.2005 136.453 74.2173C138.765 74.2173 140.653 73.5699 142.115 72.2751C143.598 70.9634 144.339 69.2986 144.339 67.2807C144.339 65.2628 143.598 63.6064 142.115 62.3116C140.653 60.9999 138.765 60.3441 136.453 60.3441C134.16 60.3441 132.273 60.9999 130.791 62.3116Z" fill="white"></path><path d="M160.904 70.1058H155.716V76.21H152.277V58.3514H160.904C163.236 58.3514 165.143 58.9064 166.626 60.0162C168.108 61.1092 168.849 62.5134 168.849 64.2286C168.829 65.9438 168.078 67.3564 166.596 68.4662C165.114 69.5593 163.216 70.1058 160.904 70.1058ZM160.341 60.8486H155.716V67.5834H160.341C161.764 67.5834 162.94 67.2723 163.869 66.6501C164.798 66.0111 165.272 65.2039 165.292 64.2286C165.292 63.2533 164.827 62.4461 163.898 61.8071C162.969 61.1681 161.784 60.8486 160.341 60.8486Z" fill="white"></path><path d="M181.546 70.1058H176.358V76.21H172.919V58.3514H181.546C183.878 58.3514 185.786 58.9064 187.268 60.0162C188.75 61.1092 189.491 62.5134 189.491 64.2286C189.472 65.9438 188.721 67.3564 187.238 68.4662C185.756 69.5593 183.859 70.1058 181.546 70.1058ZM180.983 60.8486H176.358V67.5834H180.983C182.406 67.5834 183.582 67.2723 184.511 66.6501C185.44 66.0111 185.914 65.2039 185.934 64.2286C185.934 63.2533 185.469 62.4461 184.54 61.8071C183.612 61.1681 182.426 60.8486 180.983 60.8486Z" fill="white"></path><path d="M202.846 58.3514L210.317 76.21H206.552L205.04 72.4264H195.435L193.953 76.21H190.188L197.688 58.3514H202.846ZM200.267 60.9747L196.324 70.1815H204.21L200.267 60.9747Z" fill="white"></path><path d="M223.433 76.21H213.827V58.3514H223.314C225.33 58.3514 226.99 58.8139 228.295 59.7387C229.599 60.6636 230.251 61.8407 230.251 63.2701C230.251 64.1613 229.955 64.9601 229.362 65.6664C228.789 66.3726 228.047 66.8351 227.138 67.0537C228.225 67.2891 229.115 67.7936 229.806 68.5671C230.498 69.3407 230.844 70.2319 230.844 71.2409C230.844 72.687 230.142 73.881 228.739 74.8227C227.356 75.7475 225.587 76.21 223.433 76.21ZM222.84 68.2644H217.385V73.7128H222.84C224.124 73.7128 225.182 73.4606 226.012 72.9561C226.862 72.4348 227.287 71.779 227.287 70.9886C227.287 70.1983 226.862 69.5509 226.012 69.0464C225.182 68.5251 224.124 68.2644 222.84 68.2644ZM222.78 60.8486H217.385V65.8682H222.78C223.927 65.8682 224.865 65.6327 225.597 65.1619C226.328 64.691 226.694 64.0941 226.694 63.371C226.694 62.6311 226.328 62.0257 225.597 61.5549C224.865 61.084 223.927 60.8486 222.78 60.8486Z" fill="white"></path><path d="M249 76.21H235.541V58.3514H239.098V73.5867H249V76.21Z" fill="white"></path><path d="M256.292 73.6371H267.676V76.21H252.853V58.3514H267.38V60.9243H256.292V65.8429H266.194V68.1635H256.292V73.6371Z" fill="white"></path><path d="M17.1706 125.565C12.1789 125.565 8.06922 124.354 4.84153 121.933C1.61384 119.478 0 116.384 0 112.65H6.41785C6.41785 114.937 7.43119 116.838 9.45788 118.351C11.5221 119.831 14.1493 120.571 17.3394 120.571C20.0792 120.571 22.256 120.016 23.8699 118.906C25.5213 117.796 26.3469 116.417 26.3469 114.769C26.3469 113.592 25.859 112.634 24.8832 111.894C23.9449 111.12 22.7064 110.548 21.1676 110.178C19.6664 109.775 17.9962 109.422 16.1572 109.119C14.3182 108.85 12.4791 108.497 10.6401 108.06C8.83861 107.622 7.16847 107.084 5.62969 106.445C4.12844 105.773 2.88991 104.797 1.91409 103.519C0.975813 102.208 0.506672 100.61 0.506672 98.7268C0.506672 95.3636 1.93286 92.6226 4.78524 90.5038C7.67514 88.385 11.4283 87.3256 16.0446 87.3256C20.6985 87.3256 24.5267 88.4859 27.5292 90.8065C30.5692 93.0934 32.108 96.0194 32.1455 99.5844H25.8966C25.8966 97.4656 24.9771 95.7335 23.138 94.3883C21.299 93.0094 18.9533 92.3199 16.1009 92.3199C13.4362 92.3199 11.2781 92.8412 9.62677 93.8838C8.01293 94.9264 7.206 96.2548 7.206 97.8692C7.206 99.1808 7.84403 100.24 9.1201 101.047C10.3962 101.855 11.9912 102.409 13.9053 102.712C15.8194 103.015 17.8836 103.402 20.098 103.872C22.3499 104.31 24.4329 104.831 26.3469 105.436C28.261 106.008 29.8561 107.017 31.1322 108.463C32.4082 109.876 33.0463 111.675 33.0463 113.861C33.0463 117.258 31.6013 120.066 28.7114 122.286C25.8215 124.472 21.9746 125.565 17.1706 125.565Z" fill="white"></path><path d="M54.4919 120.218C50.476 116.653 48.4681 112.062 48.4681 106.445C48.4681 100.829 50.476 96.238 54.4919 92.673C58.5452 89.1081 63.7621 87.3256 70.1424 87.3256C76.5227 87.3256 81.7396 89.1081 85.7929 92.673C89.8463 96.238 91.873 100.829 91.873 106.445C91.873 112.062 89.8463 116.653 85.7929 120.218C81.7396 123.783 76.5227 125.565 70.1424 125.565C63.7621 125.565 58.5452 123.783 54.4919 120.218ZM59.3897 96.5071C56.6124 99.0967 55.2237 102.409 55.2237 106.445C55.2237 110.481 56.6124 113.794 59.3897 116.384C62.2045 118.973 65.7888 120.285 70.1424 120.318C74.5336 120.318 78.1178 119.024 80.8951 116.434C83.71 113.811 85.1174 110.481 85.1174 106.445C85.1174 102.409 83.71 99.0967 80.8951 96.5071C78.1178 93.8838 74.5336 92.5721 70.1424 92.5721C65.7888 92.5721 62.2045 93.8838 59.3897 96.5071Z" fill="white"></path><path d="M134.477 124.304H108.918V88.5868H115.673V119.057H134.477V124.304Z" fill="white"></path><path d="M150.52 124.304V88.5868H164.088C171.031 88.5868 176.605 90.2179 180.808 93.4802C185.049 96.7425 187.17 101.064 187.17 106.445C187.17 111.826 185.049 116.148 180.808 119.41C176.605 122.673 171.031 124.304 164.088 124.304H150.52ZM175.91 115.778C178.913 113.458 180.414 110.347 180.414 106.445C180.414 102.544 178.913 99.4331 175.91 97.1125C172.945 94.7919 169.004 93.6316 164.088 93.6316H157.22V119.259H164.088C169.004 119.259 172.945 118.099 175.91 115.778Z" fill="white"></path><path d="M210.918 88.5868V124.304H204.163V88.5868H210.918Z" fill="white"></path><path d="M236.407 119.158H258.025V124.304H229.877V88.5868H257.462V93.7324H236.407V103.57H255.211V108.211H236.407V119.158Z" fill="white"></path><path d="M275.053 124.304V88.5868H293.406C297.759 88.5868 301.344 89.6462 304.158 91.765C306.973 93.8838 308.381 96.608 308.381 99.9375C308.381 102.292 307.499 104.411 305.735 106.294C304.008 108.177 301.794 109.439 299.092 110.078L309 124.304H301.287L292.561 110.935H281.809V124.304H275.053ZM292.618 93.5811H281.809V106.092H292.618C295.207 106.092 297.347 105.52 299.035 104.377C300.762 103.2 301.625 101.72 301.625 99.9375C301.625 97.9533 300.781 96.4062 299.092 95.2963C297.44 94.1528 295.282 93.5811 292.618 93.5811Z" fill="white"></path><path d="M22.6971 141.219V147.769H21.5869V141.219H22.6971Z" fill="white"></path><path d="M31.9741 141.219L34.9531 146.427V141.219H36.0355V147.769H34.6478L31.6596 142.569V147.769H30.5771V141.219H31.9741Z" fill="white"></path><path d="M46.4755 148C45.6552 148 44.9798 147.778 44.4494 147.334C43.919 146.884 43.6538 146.316 43.6538 145.632H44.7084C44.7084 146.051 44.875 146.399 45.208 146.677C45.5472 146.948 45.979 147.084 46.5032 147.084C46.9535 147.084 47.3112 146.982 47.5764 146.779C47.8478 146.575 47.9835 146.322 47.9835 146.02C47.9835 145.804 47.9033 145.628 47.7429 145.493C47.5887 145.351 47.3852 145.246 47.1323 145.178C46.8856 145.104 46.6111 145.039 46.3089 144.984C46.0067 144.935 45.7045 144.87 45.4023 144.79C45.1062 144.709 44.8318 144.611 44.5789 144.494C44.3322 144.37 44.1287 144.191 43.9683 143.957C43.8141 143.716 43.737 143.424 43.737 143.078C43.737 142.461 43.9714 141.959 44.4401 141.57C44.915 141.182 45.5318 140.987 46.2904 140.987C47.0552 140.987 47.6843 141.2 48.1777 141.626C48.6773 142.045 48.9302 142.582 48.9364 143.235H47.9094C47.9094 142.847 47.7583 142.529 47.4561 142.283C47.1539 142.03 46.7684 141.903 46.2997 141.903C45.8618 141.903 45.5071 141.999 45.2358 142.19C44.9705 142.381 44.8379 142.625 44.8379 142.921C44.8379 143.161 44.9428 143.356 45.1525 143.504C45.3622 143.652 45.6243 143.754 45.9389 143.809C46.2534 143.865 46.5926 143.935 46.9565 144.022C47.3266 144.102 47.6689 144.198 47.9835 144.309C48.298 144.413 48.5601 144.598 48.7698 144.864C48.9795 145.123 49.0844 145.453 49.0844 145.854C49.0844 146.477 48.8469 146.992 48.372 147.399C47.8971 147.799 47.2649 148 46.4755 148Z" fill="white"></path><path d="M59.39 145.53H57.771V147.769H56.6978V141.219H59.39C60.1178 141.219 60.7129 141.422 61.1755 141.829C61.6381 142.23 61.8694 142.745 61.8694 143.374C61.8632 144.003 61.6288 144.521 61.1663 144.928C60.7037 145.329 60.1116 145.53 59.39 145.53ZM59.2142 142.134H57.771V144.605H59.2142C59.6583 144.605 60.0252 144.491 60.3151 144.262C60.605 144.028 60.753 143.732 60.7592 143.374C60.7592 143.016 60.6143 142.72 60.3244 142.486C60.0345 142.252 59.6644 142.134 59.2142 142.134Z" fill="white"></path><path d="M70.4482 141.219V147.769H69.338V141.219H70.4482Z" fill="white"></path><path d="M78.3282 147.769V141.219H81.3442C82.0597 141.219 82.6487 141.413 83.1112 141.801C83.5738 142.19 83.8051 142.69 83.8051 143.3C83.8051 143.732 83.6602 144.12 83.3703 144.466C83.0866 144.811 82.7227 145.043 82.2786 145.16L83.9069 147.769H82.6394L81.2054 145.317H79.4384V147.769H78.3282ZM81.2147 142.134H79.4384V144.429H81.2147C81.6403 144.429 81.9918 144.324 82.2694 144.114C82.5531 143.898 82.6949 143.627 82.6949 143.3C82.6949 142.936 82.5562 142.653 82.2786 142.449C82.0072 142.239 81.6526 142.134 81.2147 142.134Z" fill="white"></path><path d="M92.5476 146.825H96.1001V147.769H91.4744V141.219H96.0076V142.162H92.5476V143.966H95.6376V144.817H92.5476V146.825Z" fill="white"></path><path d="M103.663 147.769V141.219H105.892C107.033 141.219 107.949 141.518 108.64 142.116C109.337 142.714 109.686 143.507 109.686 144.494C109.686 145.48 109.337 146.273 108.64 146.871C107.949 147.47 107.033 147.769 105.892 147.769H103.663ZM107.835 146.205C108.329 145.78 108.575 145.209 108.575 144.494C108.575 143.778 108.329 143.208 107.835 142.782C107.348 142.357 106.7 142.144 105.892 142.144H104.764V146.844H105.892C106.7 146.844 107.348 146.631 107.835 146.205Z" fill="white"></path><path d="M129.294 147.769H126.296V141.219H129.257C129.886 141.219 130.404 141.388 130.811 141.727C131.218 142.067 131.421 142.498 131.421 143.023C131.421 143.35 131.329 143.642 131.144 143.902C130.965 144.161 130.734 144.33 130.45 144.41C130.789 144.497 131.067 144.682 131.283 144.965C131.499 145.249 131.606 145.576 131.606 145.946C131.606 146.477 131.388 146.914 130.95 147.26C130.518 147.599 129.966 147.769 129.294 147.769ZM129.109 144.854H127.406V146.853H129.109C129.509 146.853 129.839 146.76 130.098 146.575C130.364 146.384 130.496 146.143 130.496 145.854C130.496 145.564 130.364 145.326 130.098 145.141C129.839 144.95 129.509 144.854 129.109 144.854ZM129.09 142.134H127.406V143.976H129.09C129.448 143.976 129.741 143.889 129.969 143.716C130.197 143.544 130.311 143.325 130.311 143.06C130.311 142.788 130.197 142.566 129.969 142.394C129.741 142.221 129.448 142.134 129.09 142.134Z" fill="white"></path><path d="M140.487 145.437L138.127 141.219H139.33L141.042 144.42L142.707 141.219H143.937L141.597 145.437V147.769H140.487V145.437Z" fill="white"></path><path d="M161.703 142.171H159.603V141.219H164.904V142.171H162.813V147.769H161.703V142.171Z" fill="white"></path><path d="M172.123 147.769V141.219H175.139C175.854 141.219 176.443 141.413 176.906 141.801C177.368 142.19 177.6 142.69 177.6 143.3C177.6 143.732 177.455 144.12 177.165 144.466C176.881 144.811 176.517 145.043 176.073 145.16L177.702 147.769H176.434L175 145.317H173.233V147.769H172.123ZM175.009 142.134H173.233V144.429H175.009C175.435 144.429 175.786 144.324 176.064 144.114C176.348 143.898 176.49 143.627 176.49 143.3C176.49 142.936 176.351 142.653 176.073 142.449C175.802 142.239 175.447 142.134 175.009 142.134Z" fill="white"></path><path d="M189.663 145.076V141.219H190.774V145.095C190.774 145.94 190.512 146.637 189.987 147.186C189.469 147.729 188.806 148 187.998 148C187.184 148 186.515 147.729 185.991 147.186C185.473 146.637 185.214 145.94 185.214 145.095V141.219H186.324V145.076C186.324 145.607 186.478 146.066 186.786 146.455C187.101 146.837 187.505 147.032 187.998 147.038C188.492 147.038 188.893 146.856 189.201 146.492C189.509 146.122 189.663 145.65 189.663 145.076Z" fill="white"></path><path d="M199.678 146.825H203.231V147.769H198.605V141.219H203.138V142.162H199.678V143.966H202.768V144.817H199.678V146.825Z" fill="white"></path><path d="M220.92 146.825H224.473V147.769H219.847V141.219H224.38V142.162H220.92V143.966H224.01V144.817H220.92V146.825Z" fill="white"></path><path d="M232.6 141.219L234.542 146.955L236.476 141.219H237.632L235.375 147.769H233.701L231.443 141.219H232.6Z" fill="white"></path><path d="M245.993 146.825H249.545V147.769H244.919V141.219H249.453V142.162H245.993V143.966H249.083V144.817H245.993V146.825Z" fill="white"></path><path d="M258.505 141.219L261.484 146.427V141.219H262.566V147.769H261.179L258.19 142.569V147.769H257.108V141.219H258.505Z" fill="white"></path><path d="M271.887 142.171H269.787V141.219H275.088V142.171H272.997V147.769H271.887V142.171Z" fill="white"></path><path d="M284.86 148C284.04 148 283.365 147.778 282.834 147.334C282.304 146.884 282.039 146.316 282.039 145.632H283.093C283.093 146.051 283.26 146.399 283.593 146.677C283.932 146.948 284.364 147.084 284.888 147.084C285.338 147.084 285.696 146.982 285.961 146.779C286.233 146.575 286.368 146.322 286.368 146.02C286.368 145.804 286.288 145.628 286.128 145.493C285.974 145.351 285.77 145.246 285.517 145.178C285.271 145.104 284.996 145.039 284.694 144.984C284.392 144.935 284.09 144.87 283.787 144.79C283.491 144.709 283.217 144.611 282.964 144.494C282.717 144.37 282.514 144.191 282.353 143.957C282.199 143.716 282.122 143.424 282.122 143.078C282.122 142.461 282.356 141.959 282.825 141.57C283.3 141.182 283.917 140.987 284.675 140.987C285.44 140.987 286.069 141.2 286.563 141.626C287.062 142.045 287.315 142.582 287.321 143.235H286.294C286.294 142.847 286.143 142.529 285.841 142.283C285.539 142.03 285.153 141.903 284.685 141.903C284.247 141.903 283.892 141.999 283.621 142.19C283.356 142.381 283.223 142.625 283.223 142.921C283.223 143.161 283.328 143.356 283.538 143.504C283.747 143.652 284.009 143.754 284.324 143.809C284.638 143.865 284.978 143.935 285.342 144.022C285.712 144.102 286.054 144.198 286.368 144.309C286.683 144.413 286.945 144.598 287.155 144.864C287.365 145.123 287.469 145.453 287.469 145.854C287.469 146.477 287.232 146.992 286.757 147.399C286.282 147.799 285.65 148 284.86 148Z" fill="white"></path></svg>