<?xml version="1.0" standalone="no"?>
<!DOCTYPE svg PUBLIC "-//W3C//DTD SVG 1.1//EN" "http://www.w3.org/Graphics/SVG/1.1/DTD/svg11.dtd" >
<svg xmlns="http://www.w3.org/2000/svg" xmlns:xlink="http://www.w3.org/1999/xlink" version="1.1">
<metadata>
Created by FontForge 20170731 at Sun Aug 30 20:34:36 2020
 By Aleksey,,,
Copyright (c) 2017 by Alexander Slobzheninov. All rights reserved.
</metadata>
<defs>
<font id="Metropolitano-Medium" horiz-adv-x="611" >
  <font-face 
    font-family="Metropolitano Medium"
    font-weight="500"
    font-stretch="normal"
    units-per-em="1000"
    panose-1="0 0 0 0 0 0 0 0 0 0"
    ascent="800"
    descent="-200"
    x-height="508"
    cap-height="708"
    bbox="-58 -317 1449 1034"
    underline-thickness="50"
    underline-position="-375"
    unicode-range="U+001D-F6C3"
  />
<missing-glyph horiz-adv-x="500" 
d="M0 0z" />
    <glyph glyph-name=".notdef" horiz-adv-x="500" 
d="M0 0z" />
    <glyph glyph-name="uni0000" horiz-adv-x="742" 
d="M651 708v-708h-560v708h560zM187 84h366v539h-366v-539z" />
    <glyph glyph-name="uni0000" horiz-adv-x="742" 
d="M651 708v-708h-560v708h560zM187 84h366v539h-366v-539z" />
    <glyph glyph-name="nonmarkingreturn" horiz-adv-x="333" 
 />
    <glyph glyph-name="uni001D" horiz-adv-x="0" 
d="M0 0z" />
    <glyph glyph-name="space" unicode=" " horiz-adv-x="309" 
d="M0 0z" />
    <glyph glyph-name="exclam" unicode="!" horiz-adv-x="282" 
d="M74 52q0 29 19 47.5t48 18.5t48 -18.5t19 -47.5t-19 -47.5t-48 -18.5t-48 18.5t-19 47.5zM200 520l-28 -295h-62l-27 295v188h117v-188z" />
    <glyph glyph-name="quotedbl" unicode="&#x22;" horiz-adv-x="355" 
d="M126 376h-66l-12 192v140h89v-140zM296 376h-67l-11 192v140h89v-140z" />
    <glyph glyph-name="numbersign" unicode="#" horiz-adv-x="946" 
d="M599 235l-62 -235h-94l63 235h-158l-62 -235h-94l63 235h-207v77h228l35 132h-213v78h233l58 216h94l-58 -216h157l58 216h93l-57 -216h222v-78h-243l-36 -132h229v-77h-249zM526 312l36 132h-158l-35 -132h157z" />
    <glyph glyph-name="dollar" unicode="$" horiz-adv-x="711" 
d="M410 -23v-97h-111v101q-107 18 -172 86t-65 164h114q0 -68 54.5 -112.5t139.5 -44.5q73 0 116.5 33t43.5 82q0 35 -25.5 57.5t-66 34t-89.5 20.5q-49 8 -97.5 21t-89 32.5t-66 58t-25.5 94.5q0 89 62 150t166 73v90h111v-92q100 -17 161.5 -82t61.5 -156h-111
q0 63 -49 103.5t-125 40.5q-71 0 -114.5 -31t-43.5 -79q0 -39 34 -63t85 -33t110.5 -22.5t110.5 -31t85 -60t34 -107.5q0 -92 -65 -155.5t-174 -74.5z" />
    <glyph glyph-name="percent" unicode="%" horiz-adv-x="1032" 
d="M778 400q92 0 149 -57t57 -149q0 -91 -57.5 -148t-148.5 -57t-148 57t-57 148t57 148.5t148 57.5zM778 299q-46 0 -74.5 -29t-28.5 -76q0 -46 28.5 -74.5t74.5 -28.5t75 28.5t29 74.5q0 47 -29 76t-75 29zM254 749q92 0 149 -57.5t57 -148.5t-57.5 -148t-148.5 -57
t-148.5 57t-57.5 148t57 148.5t149 57.5zM254 647q-46 0 -75 -28.5t-29 -75.5q0 -46 29 -75t75 -29t74.5 29t28.5 75q0 47 -28.5 75.5t-74.5 28.5zM834 738l-515 -738h-120l515 738h120z" />
    <glyph glyph-name="ampersand" unicode="&#x26;" horiz-adv-x="809" 
d="M765 0h-146l-78 70q-111 -95 -239 -95q-105 0 -172.5 57.5t-67.5 148.5q0 76 38.5 122t106.5 78q-64 75 -63 156q0 81 59 135t147 55q84 0 145 -51t72 -130l-105 -20q-5 46 -35.5 75.5t-74.5 29.5q-42 0 -71 -27.5t-29 -71.5q0 -66 70 -130q7 -6 60 -54
q53 -49 98.5 -90.5t61.5 -55.5q45 58 72 138h106q-38 -114 -109 -201q49 -43 154 -139zM319 72q80 0 151 61q-125 117 -194 179q-99 -37 -99 -126q0 -49 40 -81.5t102 -32.5z" />
    <glyph glyph-name="quotesingle" unicode="'" horiz-adv-x="185" 
d="M126 376h-66l-12 192v140h89v-140z" />
    <glyph glyph-name="parenleft" unicode="(" horiz-adv-x="349" 
d="M57 279q0 136 43.5 261.5t115.5 197.5h106q-78 -78 -123.5 -201.5t-45.5 -257.5q0 -136 45.5 -259t123.5 -200h-106q-72 72 -115.5 197.5t-43.5 261.5z" />
    <glyph glyph-name="parenright" unicode=")" horiz-adv-x="349" 
d="M292 279q0 -136 -43.5 -261.5t-115.5 -197.5h-106q78 77 123.5 200t45.5 259q0 134 -45.5 257.5t-123.5 201.5h106q72 -72 115.5 -197.5t43.5 -261.5z" />
    <glyph glyph-name="asterisk" unicode="*" horiz-adv-x="516" 
d="M429 345l-136 83l4 -160h-78l4 160l-136 -83l-39 66l140 77l-140 77l39 66l136 -83l-4 160h78l-4 -160l136 83l39 -66l-140 -77l140 -77z" />
    <glyph glyph-name="plus" unicode="+" horiz-adv-x="566" 
d="M337 90h-108v178h-181v91h181v171h108v-171h181v-91h-181v-178z" />
    <glyph glyph-name="comma" unicode="," horiz-adv-x="235" 
d="M49 52q0 28 18.5 46t46.5 18q33 0 53 -24.5t20 -65.5q0 -51 -23.5 -99.5t-59.5 -73.5l-54 29q27 19 44 48.5t17 55.5q-28 0 -45 18.5t-17 47.5z" />
    <glyph glyph-name="hyphen" unicode="-" horiz-adv-x="506" 
d="M458 358v-94h-410v94h410z" />
    <glyph glyph-name="period" unicode="." horiz-adv-x="230" 
d="M48 52q0 29 19 47.5t48 18.5t48 -18.5t19 -47.5t-19 -47.5t-48 -18.5t-48 18.5t-19 47.5z" />
    <glyph glyph-name="slash" unicode="/" horiz-adv-x="460" 
d="M433 708l-304 -938h-102l304 938h102z" />
    <glyph glyph-name="zero" unicode="0" horiz-adv-x="756" 
d="M67 354q0 166 86 272.5t225 106.5t225 -106.5t86 -272.5t-86 -272.5t-225 -106.5t-225 106.5t-86 272.5zM182 354q0 -120 54.5 -197.5t141.5 -77.5t141.5 77.5t54.5 197.5t-54.5 197.5t-141.5 77.5t-141.5 -77.5t-54.5 -197.5z" />
    <glyph glyph-name="one" unicode="1" horiz-adv-x="432" 
d="M213 562l-174 -130v131l194 145h98v-708h-118v562z" />
    <glyph glyph-name="two" unicode="2" horiz-adv-x="649" 
d="M327 733q109 0 182 -64t73 -161q0 -127 -144 -232l-242 -177h373v-99h-500v124l295 221q50 38 76 74t26 80q0 57 -39 94.5t-100 37.5q-58 0 -101.5 -44t-51.5 -112l-112 22q16 103 91 169.5t174 66.5z" />
    <glyph glyph-name="three" unicode="3" horiz-adv-x="646" 
d="M81 609v99h475v-75l-185 -198q90 -11 149.5 -74.5t59.5 -152.5q0 -101 -75 -167t-190 -66q-110 0 -187 71t-86 180l105 18q10 -73 56 -120t107 -47q67 0 110.5 38.5t43.5 97.5q0 60 -43 99.5t-110 39.5q-36 0 -63 -12l-32 79l182 190h-317z" />
    <glyph glyph-name="four" unicode="4" horiz-adv-x="645" 
d="M37 222l298 486h167v-459h86v-99h-86v-150h-120v150h-345v72zM381 596l-211 -347h212z" />
    <glyph glyph-name="five" unicode="5" horiz-adv-x="651" 
d="M147 708h386v-99h-293l-16 -156h105q118 0 189.5 -67t71.5 -172q0 -104 -73.5 -171.5t-187.5 -67.5q-110 0 -185 71t-83 181l105 17q6 -73 50.5 -120t108.5 -47q65 0 107.5 39t42.5 98q0 64 -45 104.5t-122 40.5h-197z" />
    <glyph glyph-name="six" unicode="6" horiz-adv-x="650" 
d="M126 410l223 298h140l-200 -265q33 11 69 11q106 0 175 -65.5t69 -166.5q0 -108 -78 -177.5t-199 -69.5q-120 0 -198.5 68.5t-78.5 169.5q0 94 78 197zM168 222q0 -64 45.5 -105t115.5 -40q66 0 109.5 41t43.5 104q0 61 -43.5 100.5t-110.5 40.5q-70 0 -115 -40t-45 -101
z" />
    <glyph glyph-name="seven" unicode="7" horiz-adv-x="523" 
d="M236 0h-127l256 606h-346v102h485v-71z" />
    <glyph glyph-name="eight" unicode="8" horiz-adv-x="688" 
d="M344 734q108 0 177.5 -53.5t69.5 -139.5q0 -57 -31.5 -103.5t-80.5 -60.5q61 -14 101.5 -68t40.5 -121q0 -93 -78 -152t-199 -59t-199 59.5t-78 151.5q0 67 40 121t102 68q-49 14 -80.5 60.5t-31.5 103.5q0 85 69.5 139t177.5 54zM344 324q-65 0 -107 -35t-42 -88
q0 -54 42 -89t107 -35t107 35t42 89q0 53 -42 88t-107 35zM344 634q-57 0 -93.5 -30t-36.5 -77t36.5 -78t93.5 -31t93.5 31t36.5 78t-36.5 77t-93.5 30z" />
    <glyph glyph-name="nine" unicode="9" horiz-adv-x="650" 
d="M524 298l-224 -298h-139l200 265q-33 -11 -70 -11q-106 0 -174.5 65.5t-68.5 166.5q0 108 77.5 177t199.5 69q120 0 198.5 -68t78.5 -169q0 -94 -78 -197zM482 486q0 63 -45.5 104t-115.5 41q-67 -1 -110 -41.5t-43 -103.5q0 -61 43.5 -101t109.5 -40q70 0 115.5 39.5
t45.5 101.5z" />
    <glyph glyph-name="colon" unicode=":" horiz-adv-x="230" 
d="M48 52q0 29 19 47.5t48 18.5t48 -18.5t19 -47.5t-19 -47.5t-48 -18.5t-48 18.5t-19 47.5zM48 427q0 29 19 47.5t48 18.5t48 -18.5t19 -47.5t-19 -47.5t-48 -18.5t-48 18.5t-19 47.5z" />
    <glyph glyph-name="semicolon" unicode=";" horiz-adv-x="235" 
d="M48 427q0 29 19 47.5t48 18.5t48 -18.5t19 -47.5t-19 -47.5t-48 -18.5t-48 18.5t-19 47.5zM49 52q0 28 18.5 46t46.5 18q33 0 53 -24.5t20 -65.5q0 -51 -23.5 -99.5t-59.5 -73.5l-54 29q27 19 44 48.5t17 55.5q-28 0 -45 18.5t-17 47.5z" />
    <glyph glyph-name="less" unicode="&#x3c;" horiz-adv-x="458" 
d="M401 96v-98l-374 204v103l374 204v-98l-296 -157z" />
    <glyph glyph-name="equal" unicode="=" horiz-adv-x="566" 
d="M48 232h470v-93h-470v93zM48 484h470v-93h-470v93z" />
    <glyph glyph-name="greater" unicode="&#x3e;" horiz-adv-x="458" 
d="M57 509l374 -204v-103l-374 -204v98l296 158l-296 157v98z" />
    <glyph glyph-name="question" unicode="?" horiz-adv-x="619" 
d="M239 52q0 28 19 46.5t48 18.5q30 0 49 -18t19 -47t-19 -48t-49 -19q-29 0 -48 19t-19 48zM359 192h-105q0 79 24.5 124t76.5 82q29 20 44.5 33t29.5 36t14 48q0 50 -36.5 84t-90.5 34q-60 0 -100.5 -42t-48.5 -108l-110 21q11 101 83.5 165t178.5 64q104 0 173.5 -60.5
t69.5 -152.5q0 -63 -30.5 -102t-92.5 -79q-43 -28 -61.5 -59.5t-18.5 -87.5z" />
    <glyph glyph-name="at" unicode="@" horiz-adv-x="1033" 
d="M154 260q0 -151 92.5 -249t234.5 -98q85 0 147 34v-88q-61 -32 -147 -32q-181 0 -302.5 123t-121.5 310q0 189 130 312t329 123q200 0 330 -123t130 -312q0 -118 -48.5 -192t-129.5 -74q-56 0 -94 37t-39 93q-19 -36 -70 -59t-110 -23q-87 0 -141.5 62t-54.5 156
q0 96 64 158t163 62q100 0 164 -60.5t64 -155.5v-121q0 -30 15.5 -51.5t39.5 -21.5q37 0 58 53t21 137q0 153 -102.5 252.5t-259.5 99.5t-259.5 -99.5t-102.5 -252.5zM516 393q-55 0 -90.5 -38t-35.5 -95t35.5 -93.5t90.5 -36.5t91 36.5t36 93.5t-36 95t-91 38z" />
    <glyph glyph-name="A" unicode="A" horiz-adv-x="733" 
d="M454 708l252 -708h-127l-51 150h-324l-50 -150h-127l253 708h174zM367 604l-133 -365h266z" />
    <glyph glyph-name="B" unicode="B" horiz-adv-x="732" 
d="M415 0h-324v708h320q102 0 168 -55t66 -140q0 -53 -29.5 -95t-75.5 -55q55 -14 90 -60t35 -106q0 -86 -70.5 -141.5t-179.5 -55.5zM395 315h-184v-216h184q65 0 107.5 30.5t42.5 77.5t-42.5 77.5t-107.5 30.5zM393 609h-182v-199h182q58 0 95 28t37 71q0 44 -37 72
t-95 28z" />
    <glyph glyph-name="C" unicode="C" horiz-adv-x="824" 
d="M653 246l114 -19q-24 -110 -120 -181t-220 -71q-161 0 -266 107t-104 272q0 165 104.5 272t265.5 107q124 0 220 -74.5t120 -188.5l-115 -14q-18 75 -81.5 124t-142.5 49q-110 0 -180.5 -77.5t-70.5 -197.5t70.5 -197.5t180.5 -77.5q78 0 141.5 47t83.5 120z" />
    <glyph glyph-name="D" unicode="D" horiz-adv-x="798" 
d="M91 0v708h241q185 0 297.5 -97t112.5 -257t-112.5 -257t-297.5 -97h-241zM622 354q0 116 -79.5 185t-210.5 69h-122v-508h122q131 0 210.5 69t79.5 185z" />
    <glyph glyph-name="E" unicode="E" horiz-adv-x="647" 
d="M207 102h384v-102h-500v708h490v-102h-374v-195h334v-92h-334v-217z" />
    <glyph glyph-name="F" unicode="F" horiz-adv-x="592" 
d="M494 274h-283v-274h-120v708h463v-104h-343v-235h283v-95z" />
    <glyph glyph-name="G" unicode="G" horiz-adv-x="871" 
d="M695 301l-256 1v94h374q2 -22 2 -43q0 -154 -92 -259q-105 -119 -281 -119q-168 0 -276.5 107t-108.5 272t108.5 272t276.5 107q114 0 205.5 -58.5t120.5 -148.5l-110 -31q-21 58 -82 96t-134 38q-116 0 -190.5 -77t-74.5 -198q0 -119 75.5 -197t191.5 -78q103 0 175 64
t76 158z" />
    <glyph glyph-name="H" unicode="H" horiz-adv-x="769" 
d="M210 0h-120v708h120v-289h348v289h120v-708h-120v318h-348v-318z" />
    <glyph glyph-name="I" unicode="I" horiz-adv-x="302" 
d="M211 708v-708h-120v708h120z" />
    <glyph glyph-name="J" unicode="J" horiz-adv-x="486" 
d="M277 221v487h120v-492q0 -104 -63 -170t-161 -66q-69 0 -134 20v98q54 -16 105 -16q59 0 96 38t37 101z" />
    <glyph glyph-name="K" unicode="K" horiz-adv-x="661" 
d="M91 708h120v-302l273 302h150l-316 -343l325 -365h-151l-281 324v-324h-120v708z" />
    <glyph glyph-name="L" unicode="L" horiz-adv-x="584" 
d="M545 0h-454v708h120v-604h334v-104z" />
    <glyph glyph-name="M" unicode="M" horiz-adv-x="976" 
d="M210 0h-119v708h168l229 -554l228 554h169v-708h-119v559l-232 -559h-92l-232 558v-558z" />
    <glyph glyph-name="N" unicode="N" horiz-adv-x="772" 
d="M242 708l322 -563v563h117v-708h-150l-323 562v-562h-117v708h151z" />
    <glyph glyph-name="O" unicode="O" horiz-adv-x="885" 
d="M57 354q0 167 107.5 273t277.5 106t278 -106t108 -273t-108 -273t-278 -106t-277.5 106t-107.5 273zM177 354q0 -120 74.5 -197t190.5 -78q117 0 191.5 77.5t74.5 197.5t-74.5 197.5t-191.5 77.5q-116 0 -190.5 -77.5t-74.5 -197.5z" />
    <glyph glyph-name="P" unicode="P" horiz-adv-x="696" 
d="M382 242h-175v-242h-116v708h291q118 0 193 -65.5t75 -167.5q-1 -102 -76 -167.5t-192 -65.5zM363 609h-156v-267h156q72 0 119 37.5t48 95.5q0 58 -47 96t-120 38z" />
    <glyph glyph-name="Q" unicode="Q" horiz-adv-x="885" 
d="M57 354q0 167 107.5 273t277.5 106t278 -106t108 -273q0 -98 -38.5 -177t-109.5 -130l145 -187h-131l-109 139q-66 -24 -143 -24q-170 0 -277.5 106t-107.5 273zM177 354q0 -120 74.5 -197t190.5 -78q116 0 191 77.5t75 197.5t-74.5 197.5t-191.5 77.5
q-116 0 -190.5 -77.5t-74.5 -197.5z" />
    <glyph glyph-name="R" unicode="R" horiz-adv-x="751" 
d="M91 0v708h326q116 0 191 -63t75 -162q0 -70 -46.5 -126t-118.5 -75l176 -282h-137l-155 265h-191v-265h-120zM403 609h-192v-248h192q69 0 114.5 34.5t45.5 87.5q0 59 -44.5 92.5t-115.5 33.5z" />
    <glyph glyph-name="S" unicode="S" horiz-adv-x="711" 
d="M367 -25q-133 0 -219 72.5t-86 183.5h114q0 -68 54.5 -112.5t139.5 -44.5q73 0 116.5 33t43.5 82q0 35 -25.5 57.5t-66 34t-89.5 20.5q-49 8 -97.5 21t-89 32.5t-66 58t-25.5 94.5q0 100 76.5 163t199.5 63q124 0 204.5 -68.5t81.5 -174.5h-111q0 63 -49 103.5t-125 40.5
q-71 0 -114.5 -31t-43.5 -79q0 -39 34 -63t85 -33t110.5 -22.5t110.5 -31t85 -60t34 -107.5q0 -101 -77 -166.5t-205 -65.5z" />
    <glyph glyph-name="T" unicode="T" 
d="M246 605h-227v103h573v-103h-226v-605h-120v605z" />
    <glyph glyph-name="U" unicode="U" horiz-adv-x="771" 
d="M566 291v417h120v-419q0 -137 -84.5 -225.5t-215.5 -88.5q-132 0 -216.5 88.5t-84.5 225.5v419h120v-417q0 -86 50.5 -148.5t130.5 -63.5q80 0 130 59.5t50 152.5z" />
    <glyph glyph-name="V" unicode="V" horiz-adv-x="723" 
d="M152 708l210 -620l209 620h125l-244 -708h-181l-244 708h125z" />
    <glyph glyph-name="W" unicode="W" horiz-adv-x="1127" 
d="M792 86l167 622h123l-195 -708h-185l-138 574l-137 -574h-186l-196 708h123l168 -622l151 622h158z" />
    <glyph glyph-name="X" unicode="X" horiz-adv-x="749" 
d="M279 374l-233 334h141l184 -268l190 268h143l-242 -334l250 -374h-142l-199 305l-193 -305h-141z" />
    <glyph glyph-name="Y" unicode="Y" horiz-adv-x="681" 
d="M282 252l-255 456h130l185 -346l180 346h133l-253 -456v-252h-120v252z" />
    <glyph glyph-name="Z" unicode="Z" horiz-adv-x="664" 
d="M49 78l397 534h-387v96h546v-79l-395 -533h405v-96h-566v78z" />
    <glyph glyph-name="bracketleft" unicode="[" horiz-adv-x="450" 
d="M195 660v-763h228v-77h-332v918h332v-78h-228z" />
    <glyph glyph-name="backslash" unicode="\" horiz-adv-x="460" 
d="M27 708h102l304 -938h-102z" />
    <glyph glyph-name="bracketright" unicode="]" horiz-adv-x="450" 
d="M359 -180h-332v77h227v763h-227v78h332v-918z" />
    <glyph glyph-name="asciicircum" unicode="^" horiz-adv-x="581" 
d="M153 400h-105l187 308h111l187 -308h-104l-138 239z" />
    <glyph glyph-name="underscore" unicode="_" horiz-adv-x="500" 
d="M0 0h500v-85h-500v85z" />
    <glyph glyph-name="grave" unicode="`" horiz-adv-x="317" 
d="M48 755h113l108 -150h-100z" />
    <glyph glyph-name="a" unicode="a" horiz-adv-x="585" 
d="M459 475.5q61 -60.5 61 -160.5v-315h-121v63q-28 -36 -73 -55.5t-92 -19.5q-56 0 -100.5 20.5t-69.5 58.5t-25 88q0 51 28.5 90.5t77 61.5t107.5 22q73 0 147 -28v14q0 51 -31 85.5t-98 34.5q-62 0 -141 -40l-43 86q112 55 209 55q103 0 164 -60.5zM349 101.5
q40 23.5 50 62.5v59q-59 20 -129 20q-46 0 -78.5 -24t-32.5 -60t29 -58.5t73 -22.5q48 0 88 23.5z" />
    <glyph glyph-name="b" unicode="b" horiz-adv-x="668" 
d="M72 738h109v-299q68 89 184 89q111 0 183 -77.5t72 -196.5t-72.5 -196.5t-182.5 -77.5q-118 0 -187 91v-71h-106v738zM512 254q0 75 -47.5 123.5t-120.5 48.5t-120 -48.5t-47 -123.5t47 -123.5t120 -48.5q72 0 120 48.5t48 123.5z" />
    <glyph glyph-name="c" unicode="c" horiz-adv-x="618" 
d="M569 335l-103 -13q-13 50 -55 82t-94 32q-68 0 -114.5 -52t-46.5 -130t46 -130t115 -52q53 0 94 32t55 81l104 -13q-16 -83 -87.5 -137.5t-165.5 -54.5q-117 0 -193 77.5t-76 196.5t76 196.5t192 77.5q97 0 168 -54.5t85 -138.5z" />
    <glyph glyph-name="d" unicode="d" horiz-adv-x="668" 
d="M487 439v299h109v-738h-106v71q-69 -91 -187 -91q-110 0 -182.5 77.5t-72.5 196.5t72 196.5t183 77.5q116 0 184 -89zM156 254q0 -75 48 -123.5t120 -48.5q73 0 120 48.5t47 123.5t-47 123.5t-120 48.5t-120.5 -48.5t-47.5 -123.5z" />
    <glyph glyph-name="e" unicode="e" horiz-adv-x="638" 
d="M321 71q48 0 90 23.5t59 59.5l94 -31q-23 -62 -91 -102.5t-150 -40.5q-120 0 -197.5 79t-77.5 201q0 117 76.5 192.5t195.5 75.5q118 0 194 -75.5t76 -193.5q0 -16 -2 -38h-428q10 -68 54 -109t107 -41zM160 301h317q-9 60 -53 98t-107 38q-61 0 -103.5 -37.5
t-53.5 -98.5z" />
    <glyph glyph-name="f" unicode="f" horiz-adv-x="395" 
d="M357 744v-91q-31 9 -52 9q-32 0 -51 -21t-20 -55v-78h123v-85h-123v-423h-108v423h-78v85h78v87q0 73 40.5 118t105.5 45q45 0 85 -14z" />
    <glyph glyph-name="g" unicode="g" horiz-adv-x="668" 
d="M75 -75l99 21q17 -46 59 -75t93 -29q72 0 116.5 44.5t44.5 123.5v65q-68 -85 -183 -85q-111 0 -183.5 74.5t-72.5 189.5q0 118 72.5 195t183.5 77q116 0 184 -87v69h108v-499q0 -121 -73.5 -190t-192.5 -69q-92 0 -163 49t-92 126zM324 82q73 0 120 48.5t47 123.5
q0 77 -47 127.5t-120 50.5t-120.5 -50.5t-47.5 -127.5q0 -75 47.5 -123.5t120.5 -48.5z" />
    <glyph glyph-name="h" unicode="h" 
d="M343 528q93 0 149.5 -60.5t56.5 -156.5v-311h-108v302q0 57 -32.5 93t-88.5 37q-58 0 -98.5 -40t-40.5 -100v-292h-109v738h109v-291q25 38 69 59.5t93 21.5z" />
    <glyph glyph-name="i" unicode="i" horiz-adv-x="279" 
d="M194 508v-508h-108v508h108zM72 657q0 28 19 46.5t48 18.5q30 0 49 -18t19 -47t-19 -48t-49 -19q-29 0 -48 19t-19 48z" />
    <glyph glyph-name="j" unicode="j" horiz-adv-x="278" 
d="M85 -55v563h108v-576q0 -72 -41 -116t-109 -44q-58 0 -97 14l1 89q29 -8 63 -8q34 1 54.5 22.5t20.5 55.5zM71 657q0 28 19 46.5t48 18.5q30 0 48.5 -18t18.5 -47t-18.5 -48t-48.5 -19q-29 0 -48 19t-19 48z" />
    <glyph glyph-name="k" unicode="k" horiz-adv-x="542" 
d="M72 738h109v-426l195 196h139l-236 -235l245 -273h-138l-205 232v-232h-109v738z" />
    <glyph glyph-name="l" unicode="l" horiz-adv-x="251" 
d="M180 738v-738h-108v738h108z" />
    <glyph glyph-name="m" unicode="m" horiz-adv-x="935" 
d="M72 0v508h105v-58q51 78 146 78q58 0 105 -26t70 -70q27 44 72.5 69.5t99.5 25.5q89 0 146 -61.5t57 -158.5v-307h-108v298q0 58 -33 95t-85 39q-53 0 -87.5 -38t-34.5 -96v-298h-108v298q0 60 -32 97t-84 37q-54 0 -87 -37t-33 -97v-298h-109z" />
    <glyph glyph-name="n" unicode="n" 
d="M344 528q92 0 148.5 -61t56.5 -157v-310h-108v302q0 57 -32.5 93.5t-88.5 36.5q-58 0 -98.5 -40t-40.5 -100v-292h-109v508h107v-65q27 40 71 62.5t94 22.5z" />
    <glyph glyph-name="o" unicode="o" horiz-adv-x="646" 
d="M599 254q0 -121 -77 -197.5t-199 -76.5t-199 76.5t-77 197.5t77 197.5t199 76.5t199 -76.5t77 -197.5zM491 254q0 77 -47.5 127.5t-120.5 50.5t-120.5 -50.5t-47.5 -127.5t47.5 -127.5t120.5 -50.5t120.5 50.5t47.5 127.5z" />
    <glyph glyph-name="p" unicode="p" horiz-adv-x="668" 
d="M181 69v-299h-109v738h106v-71q69 91 187 91q110 0 182.5 -77.5t72.5 -196.5t-72 -196.5t-183 -77.5q-116 0 -184 89zM512 254q0 75 -48 123.5t-120 48.5q-73 0 -120 -48.5t-47 -123.5t47 -123.5t120 -48.5t120.5 48.5t47.5 123.5z" />
    <glyph glyph-name="q" unicode="q" horiz-adv-x="668" 
d="M596 -230h-109v299q-68 -89 -184 -89q-111 0 -183 77.5t-72 196.5t72.5 196.5t182.5 77.5q118 0 187 -91v71h106v-738zM156 254q0 -75 47.5 -123.5t120.5 -48.5t120 48.5t47 123.5t-47 123.5t-120 48.5q-72 0 -120 -48.5t-48 -123.5z" />
    <glyph glyph-name="r" unicode="r" horiz-adv-x="407" 
d="M315 526q30 0 64 -13v-97q-38 17 -78 17q-54 0 -87 -43.5t-33 -111.5v-278h-109v508h105v-65q49 83 138 83z" />
    <glyph glyph-name="s" unicode="s" horiz-adv-x="555" 
d="M283 -21q-101 0 -166 54.5t-65 138.5h100q0 -46 37 -75.5t94 -29.5q51 0 84 21.5t33 53.5q0 31 -35.5 46.5t-84.5 23.5q-50 7 -100 18.5t-85 45.5t-35 92q0 69 58.5 115t145.5 46q98 0 162.5 -49t64.5 -125h-101q-1 37 -36.5 61t-90.5 24q-42 0 -71.5 -20.5t-29.5 -50.5
q0 -26 25 -42t63 -22t82.5 -16t82.5 -22.5t63.5 -42t25.5 -73.5q0 -74 -62.5 -123t-158.5 -49z" />
    <glyph glyph-name="t" unicode="t" horiz-adv-x="404" 
d="M116 143v280h-78v85h84l14 123h88v-123h125v-85h-125v-273q0 -35 20 -56.5t55 -21.5q29 0 57 9l-1 -87q-39 -14 -89 -14q-68 0 -109 45t-41 118z" />
    <glyph glyph-name="u" unicode="u" 
d="M268 -20q-93 0 -149.5 61t-56.5 157v310h109v-302q0 -58 32.5 -94t88.5 -36q57 0 98 40t41 100v292h108v-508h-107v65q-26 -39 -70.5 -62t-93.5 -23z" />
    <glyph glyph-name="v" unicode="v" horiz-adv-x="579" 
d="M213 0l-186 508h116l146 -424l147 424h117l-187 -508h-153z" />
    <glyph glyph-name="w" unicode="w" horiz-adv-x="893" 
d="M201 0l-164 508h113l127 -401l112 401h114l117 -403l125 403h112l-166 -508h-143l-101 382l-103 -382h-143z" />
    <glyph glyph-name="x" unicode="x" horiz-adv-x="591" 
d="M168 0h-131l177 264l-168 244h128l121 -182l121 182h128l-168 -244l178 -264h-132l-127 199z" />
    <glyph glyph-name="y" unicode="y" horiz-adv-x="583" 
d="M72 -209v88q39 -14 67 -14q13 0 24.5 3.5t19.5 7.5t17 15l13.5 16.5t12.5 21.5l10.5 21t10.5 25t9 23l-229 510h119l159 -375l138 375h113l-198 -520q-20 -53 -35.5 -84.5t-39 -65t-53.5 -49t-69 -15.5q-45 0 -89 17z" />
    <glyph glyph-name="z" unicode="z" horiz-adv-x="562" 
d="M347 414h-288v94h444v-71l-295 -343h305v-94h-464v71z" />
    <glyph glyph-name="braceleft" unicode="{" horiz-adv-x="391" 
d="M305 -103h60v-77h-117q-53 0 -85 32.5t-32 85.5v230q0 29 -17.5 46.5t-46.5 17.5h-10v103h10q29 0 46.5 17.5t17.5 46.5v221q0 53 32 85.5t85 32.5h117v-78h-60q-31 0 -50.5 -19t-19.5 -51v-202q0 -44 -27 -72.5t-70 -30.5l-10 -1l10 -1q43 -2 70 -30.5t27 -72.5v-213
q0 -31 19.5 -50.5t50.5 -19.5z" />
    <glyph glyph-name="bar" unicode="|" horiz-adv-x="282" 
d="M91 738h100v-968h-100v968z" />
    <glyph glyph-name="braceright" unicode="}" horiz-adv-x="391" 
d="M143 -180h-116v77h60q31 0 50.5 19.5t19.5 50.5v213q0 44 26.5 72.5t69.5 30.5l10 1l-10 1q-43 2 -69.5 30.5t-26.5 72.5v202q0 32 -19.5 51t-50.5 19h-60v78h116q53 0 85.5 -32.5t32.5 -85.5v-221q0 -29 17.5 -46.5t46.5 -17.5h10v-103h-10q-29 0 -46.5 -17.5
t-17.5 -46.5v-230q0 -53 -32.5 -85.5t-85.5 -32.5z" />
    <glyph glyph-name="asciitilde" unicode="~" horiz-adv-x="666" 
d="M207 410q40 0 89.5 -28t95.5 -56q45 -28 77 -28q64 0 108 64l41 -65q-28 -41 -71.5 -67t-83.5 -26q-32 0 -70.5 17.5t-67.5 39.5q-30 21 -65 38.5t-62 17.5q-60 0 -110 -65l-40 66q27 41 72.5 66.5t86.5 25.5z" />
    <glyph glyph-name="exclamdown" unicode="&#xa1;" horiz-adv-x="280" 
d="M81 -42l28 294h62l27 -294v-188h-117v188zM207 425q0 -28 -19 -46.5t-48 -18.5t-48 18.5t-19 46.5q0 29 19 48t48 19t48 -19t19 -48z" />
    <glyph glyph-name="cent" unicode="&#xa2;" horiz-adv-x="618" 
d="M367 -16v-95h-104v96q-96 17 -155.5 91t-59.5 178t59.5 178t155.5 91v88h104v-87q79 -14 135 -65.5t67 -123.5l-103 -13q-13 50 -55 82t-94 32q-68 0 -114.5 -52t-46.5 -130t46 -130t115 -52q53 0 94 32t55 81l104 -13q-13 -71 -69.5 -122.5t-133.5 -65.5z" />
    <glyph glyph-name="sterling" unicode="&#xa3;" horiz-adv-x="628" 
d="M367 641q-47 0 -72 -34t-25 -90v-123h239v-87h-244q-4 -68 -20 -112t-37.5 -65t-54.5 -36h425v-94h-530v114q33 6 54 21t36.5 58t16.5 114h-97v87h100v125q0 95 55 154.5t151 59.5q94 0 150.5 -58t65.5 -153l-101 -18q-5 62 -34 99.5t-78 37.5z" />
    <glyph glyph-name="currency" unicode="&#xa4;" horiz-adv-x="746" 
d="M536 469l88 84l64 -63l-87 -83q48 -65 48 -153q0 -89 -48 -154l88 -84l-65 -62l-88 85q-68 -45 -163 -45q-91 0 -160 44l-91 -84l-65 62l88 84q-48 67 -48 154q0 86 48 153l-86 84l65 63l89 -85q68 45 160 45q95 0 163 -45zM541 254q0 77 -47.5 126t-120.5 49
q-72 0 -119 -49.5t-47 -125.5q0 -77 46.5 -126.5t119.5 -49.5t120.5 49.5t47.5 126.5z" />
    <glyph glyph-name="yen" unicode="&#xa5;" horiz-adv-x="711" 
d="M270 296l-233 412h134l186 -353l182 353h136l-231 -412h197v-74h-223v-67h223v-75h-223l-1 -80h-120l1 80h-226v75h226v67h-226v74h198z" />
    <glyph glyph-name="section" unicode="&#xa7;" horiz-adv-x="626" 
d="M312 705q83 0 147 -48t81 -124l-105 -13q-7 41 -43 67.5t-84 26.5q-49 0 -80.5 -19.5t-31.5 -50.5q0 -15 5 -27t18 -21.5t24 -15.5t33.5 -12t36 -9t41.5 -9q40 -9 61 -14t54.5 -17.5t50.5 -26.5t30.5 -38t13.5 -55q0 -47 -34.5 -84t-89.5 -48q43 -13 70 -50t27 -84
q0 -83 -64 -135.5t-164 -52.5q-84 0 -148 49t-79 125l106 14q8 -42 43.5 -69t81.5 -27q51 0 82 21t31 58q0 17 -5.5 30.5t-18.5 23t-24 16t-34.5 12.5t-36 8.5t-41.5 7.5q-44 8 -74 16.5t-63 24.5t-50 43.5t-17 64.5q0 47 32.5 84t83.5 48q-38 14 -62.5 51t-24.5 84
q0 76 63 125.5t158 49.5zM277 368q-47 -3 -78.5 -27t-31.5 -52q0 -19 9 -34t21 -23.5t33 -15t35.5 -9t37.5 -5.5q22 -2 38 -6q50 3 82.5 26t32.5 55q0 24 -12.5 40.5t-37.5 25t-43 12t-47 6.5q-30 5 -39 7z" />
    <glyph glyph-name="dieresis" unicode="&#xa8;" horiz-adv-x="474" 
d="M112 580q-28 0 -46 18t-18 45q0 28 18 45t46 17q29 0 47 -17t18 -45q0 -27 -18.5 -45t-46.5 -18zM361 580q-28 0 -46 18t-18 45q0 28 18 45t46 17q29 0 47 -17t18 -45q0 -27 -18.5 -45t-46.5 -18z" />
    <glyph glyph-name="copyright" unicode="&#xa9;" horiz-adv-x="967" 
d="M57 256q0 181 119 298t307 117q189 0 308.5 -116t119.5 -299q0 -185 -119.5 -302t-308.5 -117q-188 0 -307 117t-119 302zM134 256q0 -155 98 -253t252 -98t252 98t98 253q0 151 -98 248.5t-252 97.5t-252 -97.5t-98 -248.5zM735 335l-74 -13q-14 56 -62.5 92t-108.5 36
q-79 0 -130.5 -55t-51.5 -141t52 -141.5t132 -55.5q64 0 113 39t63 99l67 -15q-14 -86 -83 -141t-161 -55q-117 0 -192.5 75.5t-75.5 194.5t75.5 194.5t193.5 75.5q89 0 157.5 -53.5t85.5 -135.5z" />
    <glyph glyph-name="guillemotleft" unicode="&#xab;" horiz-adv-x="670" 
d="M364 508l-197 -253l197 -255h-122l-194 255l194 253h122zM613 508l-197 -253l197 -255h-122l-194 255l194 253h122z" />
    <glyph glyph-name="logicalnot" unicode="&#xac;" horiz-adv-x="646" 
d="M507 70v204h-459v90h540v-294h-81z" />
    <glyph glyph-name="registered" unicode="&#xae;" horiz-adv-x="967" 
d="M57 256q0 181 119 298t307 117q189 0 308.5 -116t119.5 -299q0 -185 -119.5 -302t-308.5 -117q-188 0 -307 117t-119 302zM834 256q0 151 -98 248.5t-252 97.5t-252 -97.5t-98 -248.5q0 -155 98 -253t252 -98t252 98t98 253zM390 10h-81v498h223q75 0 122.5 -42.5
t47.5 -108.5q0 -54 -32.5 -92.5t-87.5 -50.5l114 -204h-91l-104 196h-111v-196zM620 358q0 42 -28 66t-76 24h-126v-185h131q44 0 71.5 26t27.5 69z" />
    <glyph glyph-name="macron" unicode="&#xaf;" horiz-adv-x="418" 
d="M370 677v-70h-322v70h322z" />
    <glyph glyph-name="degree" unicode="&#xb0;" horiz-adv-x="511" 
d="M256 343q-94 0 -151 55t-57 144t57 144t151 55q93 0 150 -55t57 -144t-57 -144t-150 -55zM256 669q-58 0 -92.5 -35t-34.5 -92t34.5 -92t92.5 -35q56 0 91 35t35 92t-35 92t-91 35z" />
    <glyph glyph-name="plusminus" unicode="&#xb1;" horiz-adv-x="566" 
d="M48 90h470v-90h-470v90zM334 188h-102v118h-184v90h184v112h102v-112h184v-90h-184v-118z" />
    <glyph glyph-name="acute" unicode="&#xb4;" horiz-adv-x="319" 
d="M269 755l-121 -150h-100l107 150h114z" />
    <glyph glyph-name="paragraph" unicode="&#xb6;" horiz-adv-x="753" 
d="M672 627h-94v-845h-96v845h-114v-845h-96v534q-102 0 -163.5 54t-60.5 142t62.5 142t161.5 54h400v-81z" />
    <glyph glyph-name="periodcentered" unicode="&#xb7;" horiz-adv-x="230" 
d="M115 224q-29 0 -48 18.5t-19 47.5q0 28 19 46t48 18t48 -18t19 -46q0 -29 -19 -47.5t-48 -18.5z" />
    <glyph glyph-name="cedilla" unicode="&#xb8;" horiz-adv-x="322" 
d="M140 -114h-52l17 128h71l-13 -84q50 0 80.5 -27.5t30.5 -73.5q0 -44 -32 -71.5t-84 -27.5q-41 0 -71.5 21.5t-38.5 56.5l55 18q6 -17 20.5 -27.5t30.5 -10.5q20 0 33 13t13 33q0 23 -17 37.5t-43 14.5z" />
    <glyph glyph-name="guillemotright" unicode="&#xbb;" horiz-adv-x="669" 
d="M372 255l-193 -255h-123l197 255l-197 253h123zM621 255l-193 -255h-123l197 255l-197 253h123z" />
    <glyph glyph-name="questiondown" unicode="&#xbf;" horiz-adv-x="619" 
d="M260 309h105q0 -78 -24.5 -123.5t-76.5 -82.5q-30 -21 -45 -33.5t-29.5 -35.5t-14.5 -49q0 -49 37 -83t91 -34q60 0 100.5 41.5t48.5 107.5l110 -20q-11 -101 -83.5 -165t-178.5 -64q-104 0 -173.5 60.5t-69.5 152.5q0 63 30.5 102t92.5 79q43 28 61.5 59.5t18.5 87.5z
M380 449q0 -28 -19 -46.5t-48 -18.5t-48 18.5t-19 46.5q0 29 19 48t48 19t48 -19t19 -48z" />
    <glyph glyph-name="Agrave" unicode="&#xc0;" horiz-adv-x="733" 
d="M454 708l252 -708h-127l-51 150h-324l-50 -150h-127l253 708h174zM367 604l-133 -365h266zM308 804l-118 122h122l109 -122h-113z" />
    <glyph glyph-name="Aacute" unicode="&#xc1;" horiz-adv-x="733" 
d="M454 708l252 -708h-127l-51 150h-324l-50 -150h-127l253 708h174zM367 604l-133 -365h266zM536 926l-118 -122h-112l108 122h122z" />
    <glyph glyph-name="Acircumflex" unicode="&#xc2;" horiz-adv-x="733" 
d="M454 708l252 -708h-127l-51 150h-324l-50 -150h-127l253 708h174zM367 604l-133 -365h266zM289 795h-93l117 131h112l118 -131h-93l-81 78z" />
    <glyph glyph-name="Atilde" unicode="&#xc3;" horiz-adv-x="733" 
d="M454 708l252 -708h-127l-51 150h-324l-50 -150h-127l253 708h174zM367 604l-133 -365h266zM241 830l-53 37q15 34 46.5 55.5t69.5 21.5q39 0 81 -28q41 -29 60 -29q39 0 62 45l55 -36q-15 -34 -47.5 -55.5t-74.5 -21.5q-33 0 -58 14.5t-44 28.5t-36 14q-34 0 -61 -46z
" />
    <glyph glyph-name="Adieresis" unicode="&#xc4;" horiz-adv-x="733" 
d="M454 708l252 -708h-127l-51 150h-324l-50 -150h-127l253 708h174zM367 604l-133 -365h266zM254 803q-29 0 -47 17.5t-18 45.5t18 45.5t47 17.5q28 0 46 -17.5t18 -45.5t-17.5 -45.5t-46.5 -17.5zM485 803q-28 0 -46 17.5t-18 45.5t18 45.5t46 17.5q29 0 47 -17.5
t18 -45.5t-18 -45.5t-47 -17.5z" />
    <glyph glyph-name="Aring" unicode="&#xc5;" horiz-adv-x="733" 
d="M454 708l252 -708h-127l-51 150h-324l-50 -150h-127l253 708h174zM367 604l-133 -365h266zM366 756q-45 0 -74.5 27.5t-29.5 69.5t29 69t74 27q46 0 75 -27t29 -70q0 -42 -28.5 -69t-74.5 -27zM366 891q-16 0 -27 -10.5t-11 -27.5t10.5 -28t27.5 -11t28 11t11 28
q-1 17 -11.5 27.5t-27.5 10.5z" />
    <glyph glyph-name="AE" unicode="&#xc6;" horiz-adv-x="969" 
d="M913 102v-102h-437v132h-248l-68 -132h-133l362 708h514v-102h-319v-200h279v-93h-279v-211h329zM476 225v399l-204 -399h204z" />
    <glyph glyph-name="Ccedilla" unicode="&#xc7;" horiz-adv-x="824" 
d="M427 -114h-52l12 91q-146 14 -238.5 118.5t-91.5 258.5q0 165 104.5 272t265.5 107q124 0 220 -74.5t120 -188.5l-115 -14q-18 75 -81.5 124t-142.5 49q-110 0 -180.5 -77.5t-70.5 -197.5t70.5 -197.5t180.5 -77.5q78 0 141.5 47t83.5 120l114 -19q-22 -102 -109 -172
t-201 -79l-6 -46q49 0 79.5 -27.5t30.5 -73.5q0 -44 -32 -71.5t-84 -27.5q-41 0 -71.5 21.5t-38.5 56.5l55 18q6 -17 20.5 -27.5t30.5 -10.5q20 0 33 13t13 33q0 23 -17 37.5t-43 14.5z" />
    <glyph glyph-name="Egrave" unicode="&#xc8;" horiz-adv-x="647" 
d="M207 102h384v-102h-500v708h490v-102h-374v-195h334v-92h-334v-217zM297 804l-118 122h122l108 -122h-112z" />
    <glyph glyph-name="Eacute" unicode="&#xc9;" horiz-adv-x="647" 
d="M207 102h384v-102h-500v708h490v-102h-374v-195h334v-92h-334v-217zM505 926l-119 -122h-112l109 122h122z" />
    <glyph glyph-name="Ecircumflex" unicode="&#xca;" horiz-adv-x="647" 
d="M207 102h384v-102h-500v708h490v-102h-374v-195h334v-92h-334v-217zM258 795h-94l118 131h111l118 -131h-93l-81 78z" />
    <glyph glyph-name="Edieresis" unicode="&#xcb;" horiz-adv-x="647" 
d="M207 102h384v-102h-500v708h490v-102h-374v-195h334v-92h-334v-217zM222 803q-28 0 -46 17.5t-18 45.5t18 45.5t46 17.5q29 0 47 -17.5t18 -45.5t-18 -45.5t-47 -17.5zM454 803q-29 0 -47 17.5t-18 45.5t18 45.5t47 17.5q28 0 46 -17.5t18 -45.5t-17.5 -45.5t-46.5 -17.5
z" />
    <glyph glyph-name="Igrave" unicode="&#xcc;" horiz-adv-x="303" 
d="M212 708v-708h-120v708h120zM91 804l-119 122h122l109 -122h-112z" />
    <glyph glyph-name="Iacute" unicode="&#xcd;" horiz-adv-x="306" 
d="M212 708v-708h-120v708h120zM318 926l-118 -122h-112l108 122h122z" />
    <glyph glyph-name="Icircumflex" unicode="&#xce;" horiz-adv-x="303" 
d="M212 708v-708h-120v708h120zM71 778h-93l118 131h111l118 -131h-93l-81 78z" />
    <glyph glyph-name="Idieresis" unicode="&#xcf;" horiz-adv-x="302" 
d="M211 708v-708h-120v708h120zM35 803q-28 0 -46 17.5t-18 45.5t18 45.5t46 17.5q29 0 47 -17.5t18 -45.5t-18 -45.5t-47 -17.5zM267 803q-29 0 -46.5 17.5t-17.5 45.5t18 45.5t46 17.5t46 -17.5t18 -45.5t-17.5 -45.5t-46.5 -17.5z" />
    <glyph glyph-name="Ntilde" unicode="&#xd1;" horiz-adv-x="772" 
d="M242 708l322 -563v563h117v-708h-150l-323 562v-562h-117v708h151zM258 830l-53 37q15 34 46.5 55.5t69.5 21.5q39 0 81 -28q41 -29 60 -29q40 0 62 45l55 -36q-15 -35 -47.5 -56t-74.5 -21q-33 0 -58 14.5t-44 28.5t-36 14q-34 0 -61 -46z" />
    <glyph glyph-name="Ograve" unicode="&#xd2;" horiz-adv-x="885" 
d="M57 354q0 167 107.5 273t277.5 106t278 -106t108 -273t-108 -273t-278 -106t-277.5 106t-107.5 273zM177 354q0 -120 74.5 -197t190.5 -78q117 0 191.5 77.5t74.5 197.5t-74.5 197.5t-191.5 77.5q-116 0 -190.5 -77.5t-74.5 -197.5zM390 804l-118 122h122l108 -122h-112z
" />
    <glyph glyph-name="Oacute" unicode="&#xd3;" horiz-adv-x="885" 
d="M57 354q0 167 107.5 273t277.5 106t278 -106t108 -273t-108 -273t-278 -106t-277.5 106t-107.5 273zM177 354q0 -120 74.5 -197t190.5 -78q117 0 191.5 77.5t74.5 197.5t-74.5 197.5t-191.5 77.5q-116 0 -190.5 -77.5t-74.5 -197.5zM601 926l-119 -122h-112l109 122h122z
" />
    <glyph glyph-name="Ocircumflex" unicode="&#xd4;" horiz-adv-x="885" 
d="M57 354q0 167 107.5 273t277.5 106t278 -106t108 -273t-108 -273t-278 -106t-277.5 106t-107.5 273zM177 354q0 -120 74.5 -197t190.5 -78q117 0 191.5 77.5t74.5 197.5t-74.5 197.5t-191.5 77.5q-116 0 -190.5 -77.5t-74.5 -197.5zM362 795h-93l117 131h112l118 -131
h-93l-81 78z" />
    <glyph glyph-name="Otilde" unicode="&#xd5;" horiz-adv-x="885" 
d="M57 354q0 167 107.5 273t277.5 106t278 -106t108 -273t-108 -273t-278 -106t-277.5 106t-107.5 273zM177 354q0 -120 74.5 -197t190.5 -78q117 0 191.5 77.5t74.5 197.5t-74.5 197.5t-191.5 77.5q-116 0 -190.5 -77.5t-74.5 -197.5zM314 830l-53 37q15 34 46.5 55.5
t69.5 21.5q39 0 81 -28q41 -29 60 -29q39 0 63 45l54 -36q-15 -34 -47.5 -55.5t-74.5 -21.5q-33 0 -58 14.5t-44 28.5t-36 14q-34 0 -61 -46z" />
    <glyph glyph-name="Odieresis" unicode="&#xd6;" horiz-adv-x="885" 
d="M57 354q0 167 107.5 273t277.5 106t278 -106t108 -273t-108 -273t-278 -106t-277.5 106t-107.5 273zM177 354q0 -120 74.5 -197t190.5 -78q117 0 191.5 77.5t74.5 197.5t-74.5 197.5t-191.5 77.5q-116 0 -190.5 -77.5t-74.5 -197.5zM327 803q-29 0 -47 17.5t-18 45.5
t18 45.5t47 17.5q28 0 46 -17.5t18 -45.5t-17.5 -45.5t-46.5 -17.5zM558 803q-28 0 -46 17.5t-18 45.5t18 45.5t46 17.5q29 0 47 -17.5t18 -45.5t-18 -45.5t-47 -17.5z" />
    <glyph glyph-name="multiply" unicode="&#xd7;" horiz-adv-x="416" 
d="M112 128l-64 64l98 104l-98 104l64 63l96 -102l96 102l64 -63l-98 -104l98 -104l-63 -63l-97 101z" />
    <glyph glyph-name="Oslash" unicode="&#xd8;" horiz-adv-x="865" 
d="M572 708l77 152l96 1l-96 -191q75 -50 117 -132.5t42 -183.5q0 -165 -106 -272t-270 -107q-63 0 -125 19l-67 -134h-95l85 169q-81 49 -127 134t-46 191q0 165 106 272t269 107q74 0 140 -25zM177 354q0 -71 27.5 -129t76.5 -94l243 481q-43 17 -92 17q-111 0 -183 -78
t-72 -197zM688 354q0 135 -92 214l-240 -478q38 -11 76 -11q112 0 184 77.5t72 197.5z" />
    <glyph glyph-name="Ugrave" unicode="&#xd9;" horiz-adv-x="771" 
d="M566 291v417h120v-419q0 -137 -84.5 -225.5t-215.5 -88.5q-132 0 -216.5 88.5t-84.5 225.5v419h120v-417q0 -86 50.5 -148.5t130.5 -63.5q80 0 130 59.5t50 152.5zM333 804l-118 122h122l109 -122h-113z" />
    <glyph glyph-name="Uacute" unicode="&#xda;" horiz-adv-x="771" 
d="M566 291v417h120v-419q0 -137 -84.5 -225.5t-215.5 -88.5q-132 0 -216.5 88.5t-84.5 225.5v419h120v-417q0 -86 50.5 -148.5t130.5 -63.5q80 0 130 59.5t50 152.5zM544 926l-119 -122h-112l109 122h122z" />
    <glyph glyph-name="Ucircumflex" unicode="&#xdb;" horiz-adv-x="771" 
d="M566 291v417h120v-419q0 -137 -84.5 -225.5t-215.5 -88.5q-132 0 -216.5 88.5t-84.5 225.5v419h120v-417q0 -86 50.5 -148.5t130.5 -63.5q80 0 130 59.5t50 152.5zM305 795h-93l118 131h111l118 -131h-93l-81 78z" />
    <glyph glyph-name="Udieresis" unicode="&#xdc;" horiz-adv-x="771" 
d="M566 291v417h120v-419q0 -137 -84.5 -225.5t-215.5 -88.5q-132 0 -216.5 88.5t-84.5 225.5v419h120v-417q0 -86 50.5 -148.5t130.5 -63.5q80 0 130 59.5t50 152.5zM270 803q-29 0 -46.5 17.5t-17.5 45.5t18 45.5t46 17.5t46 -17.5t18 -45.5t-17.5 -45.5t-46.5 -17.5z
M502 803q-29 0 -47 17.5t-18 45.5t18 45.5t47 17.5q28 0 46 -17.5t18 -45.5t-18 -45.5t-46 -17.5z" />
    <glyph glyph-name="Yacute" unicode="&#xdd;" horiz-adv-x="681" 
d="M282 252l-255 456h130l185 -346l180 346h133l-253 -456v-252h-120v252zM499 926l-119 -122h-112l109 122h122z" />
    <glyph glyph-name="germandbls" unicode="&#xdf;" horiz-adv-x="714" 
d="M201 473v-473h-120v480q0 108 73 177.5t188 69.5q107 0 176 -56t69 -142q0 -58 -29 -99.5t-75 -49.5q72 -11 118 -67t46 -134q0 -88 -62.5 -146t-157.5 -58q-71 0 -146 35l30 87q57 -26 100 -26q51 0 83.5 33.5t32.5 85.5q0 65 -36.5 103.5t-111.5 38.5h-45v86h46
q40 0 65 29t25 73q0 48 -36.5 79t-93.5 31q-63 0 -101 -42.5t-38 -114.5z" />
    <glyph glyph-name="agrave" unicode="&#xe0;" horiz-adv-x="585" 
d="M459 475.5q61 -60.5 61 -160.5v-315h-121v63q-28 -36 -73 -55.5t-92 -19.5q-56 0 -100.5 20.5t-69.5 58.5t-25 88q0 51 28.5 90.5t77 61.5t107.5 22q73 0 147 -28v14q0 51 -31 85.5t-98 34.5q-62 0 -141 -40l-43 86q112 55 209 55q103 0 164 -60.5zM349 101.5
q40 23.5 50 62.5v59q-59 20 -129 20q-46 0 -78.5 -24t-32.5 -60t29 -58.5t73 -22.5q48 0 88 23.5zM132 755h113l108 -150h-100z" />
    <glyph glyph-name="aacute" unicode="&#xe1;" horiz-adv-x="585" 
d="M459 475.5q61 -60.5 61 -160.5v-315h-121v63q-28 -36 -73 -55.5t-92 -19.5q-56 0 -100.5 20.5t-69.5 58.5t-25 88q0 51 28.5 90.5t77 61.5t107.5 22q73 0 147 -28v14q0 51 -31 85.5t-98 34.5q-62 0 -141 -40l-43 86q112 55 209 55q103 0 164 -60.5zM349 101.5
q40 23.5 50 62.5v59q-59 20 -129 20q-46 0 -78.5 -24t-32.5 -60t29 -58.5t73 -22.5q48 0 88 23.5zM426 755l-121 -150h-100l107 150h114z" />
    <glyph glyph-name="acircumflex" unicode="&#xe2;" horiz-adv-x="585" 
d="M459 475.5q61 -60.5 61 -160.5v-315h-121v63q-28 -36 -73 -55.5t-92 -19.5q-56 0 -100.5 20.5t-69.5 58.5t-25 88q0 51 28.5 90.5t77 61.5t107.5 22q73 0 147 -28v14q0 51 -31 85.5t-98 34.5q-62 0 -141 -40l-43 86q112 55 209 55q103 0 164 -60.5zM349 101.5
q40 23.5 50 62.5v59q-59 20 -129 20q-46 0 -78.5 -24t-32.5 -60t29 -58.5t73 -22.5q48 0 88 23.5zM108 605l116 150h110l117 -150h-92l-80 96l-80 -96h-91z" />
    <glyph glyph-name="atilde" unicode="&#xe3;" horiz-adv-x="585" 
d="M459 475.5q61 -60.5 61 -160.5v-315h-121v63q-28 -36 -73 -55.5t-92 -19.5q-56 0 -100.5 20.5t-69.5 58.5t-25 88q0 51 28.5 90.5t77 61.5t107.5 22q73 0 147 -28v14q0 51 -31 85.5t-98 34.5q-62 0 -141 -40l-43 86q112 55 209 55q103 0 164 -60.5zM349 101.5
q40 23.5 50 62.5v59q-59 20 -129 20q-46 0 -78.5 -24t-32.5 -60t29 -58.5t73 -22.5q48 0 88 23.5zM146 593l-54 28q14 34 46.5 55.5t71.5 21.5q38 0 80 -28q41 -29 62 -29q40 0 59 38l55 -29q-15 -34 -47.5 -55.5t-73.5 -21.5q-42 0 -82 29q-40 28 -60 28q-37 0 -57 -37z
" />
    <glyph glyph-name="adieresis" unicode="&#xe4;" horiz-adv-x="585" 
d="M459 475.5q61 -60.5 61 -160.5v-315h-121v63q-28 -36 -73 -55.5t-92 -19.5q-56 0 -100.5 20.5t-69.5 58.5t-25 88q0 51 28.5 90.5t77 61.5t107.5 22q73 0 147 -28v14q0 51 -31 85.5t-98 34.5q-62 0 -141 -40l-43 86q112 55 209 55q103 0 164 -60.5zM349 101.5
q40 23.5 50 62.5v59q-59 20 -129 20q-46 0 -78.5 -24t-32.5 -60t29 -58.5t73 -22.5q48 0 88 23.5zM154 580q-28 0 -46 18t-18 45q0 28 18 45t46 17q29 0 47 -17t18 -45q0 -27 -18.5 -45t-46.5 -18zM403 580q-28 0 -46 18t-18 45q0 28 18 45t46 17q29 0 47 -17t18 -45
q0 -27 -18.5 -45t-46.5 -18z" />
    <glyph glyph-name="aring" unicode="&#xe5;" horiz-adv-x="585" 
d="M459 475.5q61 -60.5 61 -160.5v-315h-121v63q-28 -36 -73 -55.5t-92 -19.5q-56 0 -100.5 20.5t-69.5 58.5t-25 88q0 51 28.5 90.5t77 61.5t107.5 22q73 0 147 -28v14q0 51 -31 85.5t-98 34.5q-62 0 -141 -40l-43 86q112 55 209 55q103 0 164 -60.5zM349 101.5
q40 23.5 50 62.5v59q-59 20 -129 20q-46 0 -78.5 -24t-32.5 -60t29 -58.5t73 -22.5q48 0 88 23.5zM280 541q-57 0 -92.5 33t-35.5 86t35.5 86.5t92.5 33.5q56 0 91.5 -33.5t35.5 -86.5t-35.5 -86t-91.5 -33zM280 723q-28 0 -45.5 -17.5t-16.5 -45.5q0 -27 17 -44.5t45 -17.5
q27 0 44.5 17.5t17.5 44.5q0 28 -17.5 45.5t-44.5 17.5z" />
    <glyph glyph-name="ae" unicode="&#xe6;" horiz-adv-x="1071" 
d="M1023 260q0 -20 -2 -52h-426q12 -62 58.5 -99.5t113.5 -37.5q91 0 136 77l93 -31q-24 -60 -87.5 -98.5t-139.5 -38.5q-66 0 -121 29t-81 77v-86h-78v72q-70 -92 -189 -92q-110 0 -181 77t-71 197q0 119 71 196.5t181 77.5q117 0 189 -93v73h78v-83q57 103 191 103
q116 0 190.5 -75.5t74.5 -192.5zM156 254q0 -81 47.5 -133.5t121.5 -52.5q72 0 120.5 51.5t48.5 134.5q0 81 -47.5 133t-121.5 52t-121.5 -52t-47.5 -133zM592 286h322q-3 65 -48.5 107.5t-114.5 42.5q-64 0 -107.5 -41.5t-51.5 -108.5z" />
    <glyph glyph-name="ccedilla" unicode="&#xe7;" horiz-adv-x="618" 
d="M323 -114h-52l13 96q-104 11 -170 86.5t-66 185.5q0 119 76 196.5t192 77.5q97 0 168 -54.5t85 -138.5l-103 -13q-13 50 -55 82t-94 32q-68 0 -114.5 -52t-46.5 -130t46 -130t115 -52q53 0 94 32t55 81l104 -13q-14 -74 -74 -126.5t-142 -63.5l-7 -52q50 0 80 -27.5
t30 -73.5q0 -44 -32 -71.5t-84 -27.5q-41 0 -72 22t-38 56l56 18q6 -17 20 -27.5t30 -10.5q20 0 33 13t13 33q0 23 -17 37.5t-43 14.5z" />
    <glyph glyph-name="egrave" unicode="&#xe8;" horiz-adv-x="638" 
d="M321 71q48 0 90 23.5t59 59.5l94 -31q-23 -62 -91 -102.5t-150 -40.5q-120 0 -197.5 79t-77.5 201q0 117 76.5 192.5t195.5 75.5q118 0 194 -75.5t76 -193.5q0 -16 -2 -38h-428q10 -68 54 -109t107 -41zM160 301h317q-9 60 -53 98t-107 38q-61 0 -103.5 -37.5
t-53.5 -98.5zM165 753h113l107 -150h-99z" />
    <glyph glyph-name="eacute" unicode="&#xe9;" horiz-adv-x="638" 
d="M321 71q48 0 90 23.5t59 59.5l94 -31q-23 -62 -91 -102.5t-150 -40.5q-120 0 -197.5 79t-77.5 201q0 117 76.5 192.5t195.5 75.5q118 0 194 -75.5t76 -193.5q0 -16 -2 -38h-428q10 -68 54 -109t107 -41zM160 301h317q-9 60 -53 98t-107 38q-61 0 -103.5 -37.5
t-53.5 -98.5zM371 753h114l-121 -151h-100z" />
    <glyph glyph-name="ecircumflex" unicode="&#xea;" horiz-adv-x="638" 
d="M321 71q48 0 90 23.5t59 59.5l94 -31q-23 -62 -91 -102.5t-150 -40.5q-120 0 -197.5 79t-77.5 201q0 117 76.5 192.5t195.5 75.5q118 0 194 -75.5t76 -193.5q0 -16 -2 -38h-428q10 -68 54 -109t107 -41zM160 301h317q-9 60 -53 98t-107 38q-61 0 -103.5 -37.5
t-53.5 -98.5zM243 603h-91l116 150h110l117 -151l-92 1l-80 96z" />
    <glyph glyph-name="edieresis" unicode="&#xeb;" horiz-adv-x="638" 
d="M321 71q48 0 90 23.5t59 59.5l94 -31q-23 -62 -91 -102.5t-150 -40.5q-120 0 -197.5 79t-77.5 201q0 117 76.5 192.5t195.5 75.5q118 0 194 -75.5t76 -193.5q0 -16 -2 -38h-428q10 -68 54 -109t107 -41zM160 301h317q-9 60 -53 98t-107 38q-61 0 -103.5 -37.5
t-53.5 -98.5zM198 593q-29 0 -47 17.5t-18 45.5q0 27 18.5 44.5t46.5 17.5t46 -17.5t18 -44.5q0 -28 -18 -45.5t-46 -17.5zM447 593q-29 0 -47 17.5t-18 45.5q0 27 18.5 44.5t46.5 17.5t46 -17.5t18 -44.5q0 -28 -18 -45.5t-46 -17.5z" />
    <glyph glyph-name="igrave" unicode="&#xec;" horiz-adv-x="256" 
d="M184 508v-508h-108v508h108zM-36 753h113l107 -150h-99z" />
    <glyph glyph-name="iacute" unicode="&#xed;" horiz-adv-x="256" 
d="M184 508v-508h-108v508h108zM179 753h113l-121 -151h-100z" />
    <glyph glyph-name="icircumflex" unicode="&#xee;" horiz-adv-x="256" 
d="M181 508v-508h-108v508h108zM47 603h-91l116 150h110l117 -151l-91 1l-80 96z" />
    <glyph glyph-name="idieresis" unicode="&#xef;" horiz-adv-x="262" 
d="M185 508v-508h-108v508h108zM7 593q-29 0 -47 17.5t-18 45.5q0 27 18.5 44.5t46.5 17.5t46 -17.5t18 -44.5q0 -28 -18 -45.5t-46 -17.5zM256 593q-29 0 -47 17.5t-18 45.5q0 27 18.5 44.5t46.5 17.5t46 -17.5t18 -44.5q0 -28 -18 -45.5t-46 -17.5z" />
    <glyph glyph-name="ntilde" unicode="&#xf1;" 
d="M344 528q92 0 148.5 -61t56.5 -157v-310h-108v302q0 57 -32.5 93.5t-88.5 36.5q-58 0 -98.5 -40t-40.5 -100v-292h-109v508h107v-65q27 40 71 62.5t94 22.5zM179 627l-54 28q14 34 46.5 55.5t71.5 21.5q38 0 80 -28q41 -29 63 -29q39 0 58 38l55 -29q-15 -34 -47.5 -55.5
t-73.5 -21.5q-42 0 -82 28t-60 28q-36 0 -57 -36z" />
    <glyph glyph-name="ograve" unicode="&#xf2;" horiz-adv-x="648" 
d="M600 254q0 -121 -77 -197.5t-199 -76.5t-199 76.5t-77 197.5t77 197.5t199 76.5t199 -76.5t77 -197.5zM491 254q0 77 -47 127.5t-120 50.5t-120.5 -50.5t-47.5 -127.5t47.5 -127.5t120.5 -50.5t120 50.5t47 127.5zM158 753h113l108 -150h-100z" />
    <glyph glyph-name="oacute" unicode="&#xf3;" horiz-adv-x="648" 
d="M600 254q0 -121 -77 -197.5t-199 -76.5t-199 76.5t-77 197.5t77 197.5t199 76.5t199 -76.5t77 -197.5zM491 254q0 77 -47 127.5t-120 50.5t-120.5 -50.5t-47.5 -127.5t47.5 -127.5t120.5 -50.5t120 50.5t47 127.5zM373 753h113l-121 -151h-99z" />
    <glyph glyph-name="ocircumflex" unicode="&#xf4;" horiz-adv-x="648" 
d="M600 254q0 -121 -77 -197.5t-199 -76.5t-199 76.5t-77 197.5t77 197.5t199 76.5t199 -76.5t77 -197.5zM491 254q0 77 -47 127.5t-120 50.5t-120.5 -50.5t-47.5 -127.5t47.5 -127.5t120.5 -50.5t120 50.5t47 127.5zM244 603h-90l115 150h111l117 -151l-92 1l-80 96z" />
    <glyph glyph-name="otilde" unicode="&#xf5;" horiz-adv-x="648" 
d="M600 254q0 -121 -77 -197.5t-199 -76.5t-199 76.5t-77 197.5t77 197.5t199 76.5t199 -76.5t77 -197.5zM491 254q0 77 -47 127.5t-120 50.5t-120.5 -50.5t-47.5 -127.5t47.5 -127.5t120.5 -50.5t120 50.5t47 127.5zM201 627l-54 28q14 34 46.5 55.5t71.5 21.5q38 0 80 -28
q41 -29 62 -29q40 0 59 38l55 -29q-15 -34 -47.5 -55.5t-73.5 -21.5q-42 0 -82 28t-60 28q-36 0 -57 -36z" />
    <glyph glyph-name="odieresis" unicode="&#xf6;" horiz-adv-x="648" 
d="M600 254q0 -121 -77 -197.5t-199 -76.5t-199 76.5t-77 197.5t77 197.5t199 76.5t199 -76.5t77 -197.5zM491 254q0 77 -47 127.5t-120 50.5t-120.5 -50.5t-47.5 -127.5t47.5 -127.5t120.5 -50.5t120 50.5t47 127.5zM199 593q-28 0 -46 17.5t-18 45.5q0 27 18 44.5t46 17.5
t46.5 -17.5t18.5 -44.5q0 -28 -18 -45.5t-47 -17.5zM448 593q-28 0 -46 17.5t-18 45.5q0 27 18 44.5t46 17.5t46.5 -17.5t18.5 -44.5q0 -28 -18 -45.5t-47 -17.5z" />
    <glyph glyph-name="divide" unicode="&#xf7;" horiz-adv-x="546" 
d="M273 20q-26 0 -42.5 16.5t-16.5 41.5t16.5 40.5t42.5 15.5t42.5 -15.5t16.5 -40.5t-16.5 -41.5t-42.5 -16.5zM48 331h450v-91h-450v91zM273 422q-26 0 -42.5 16.5t-16.5 41.5q0 24 17 40t42 16t42 -16t17 -40q0 -25 -16.5 -41.5t-42.5 -16.5z" />
    <glyph glyph-name="oslash" unicode="&#xf8;" horiz-adv-x="656" 
d="M425 513l43 87h87l-61 -120q54 -37 84 -95.5t30 -130.5q0 -121 -78.5 -197.5t-201.5 -76.5q-45 0 -82 10l-34 -70h-87l50 99q-60 35 -93.5 96t-33.5 139q0 121 78 197.5t202 76.5q52 0 97 -15zM144 254q0 -102 72 -156l171 340q-28 9 -59 9q-80 0 -132 -54t-52 -139z
M510 254q0 89 -58 145l-168 -334q19 -4 44 -4q80 0 131 54t51 139z" />
    <glyph glyph-name="ugrave" unicode="&#xf9;" 
d="M268 -20q-93 0 -149.5 61t-56.5 157v310h109v-302q0 -58 32.5 -94t88.5 -36q57 0 98 40t41 100v292h108v-508h-107v65q-26 -39 -70.5 -62t-93.5 -23zM143 752h113l108 -150h-100z" />
    <glyph glyph-name="uacute" unicode="&#xfa;" 
d="M268 -20q-93 0 -149.5 61t-56.5 157v310h109v-302q0 -58 32.5 -94t88.5 -36q57 0 98 40t41 100v292h108v-508h-107v65q-26 -39 -70.5 -62t-93.5 -23zM358 752h113l-121 -150h-99z" />
    <glyph glyph-name="ucircumflex" unicode="&#xfb;" 
d="M268 -20q-93 0 -149.5 61t-56.5 157v310h109v-302q0 -58 32.5 -94t88.5 -36q57 0 98 40t41 100v292h108v-508h-107v65q-26 -39 -70.5 -62t-93.5 -23zM221 602h-91l116 150h110l117 -150h-92l-80 96z" />
    <glyph glyph-name="udieresis" unicode="&#xfc;" 
d="M268 -20q-93 0 -149.5 61t-56.5 157v310h109v-302q0 -58 32.5 -94t88.5 -36q57 0 98 40t41 100v292h108v-508h-107v65q-26 -39 -70.5 -62t-93.5 -23zM176 592q-29 0 -47 17.5t-18 45.5q0 27 18.5 44.5t46.5 17.5t46 -17.5t18 -44.5q0 -28 -18 -45.5t-46 -17.5zM425 592
q-29 0 -47 17.5t-18 45.5q0 27 18.5 44.5t46.5 17.5t46 -17.5t18 -44.5q0 -28 -18 -45.5t-46 -17.5z" />
    <glyph glyph-name="yacute" unicode="&#xfd;" horiz-adv-x="583" 
d="M72 -209v88q39 -14 67 -14q13 0 24.5 3.5t19.5 7.5t17 15l13.5 16.5t12.5 21.5l10.5 21t10.5 25t9 23l-229 510h119l159 -375l138 375h113l-198 -520q-20 -53 -35.5 -84.5t-39 -65t-53.5 -49t-69 -15.5q-45 0 -89 17zM358 753h113l-121 -151h-99z" />
    <glyph glyph-name="ydieresis" unicode="&#xff;" horiz-adv-x="583" 
d="M72 -209v88q39 -14 67 -14q13 0 24.5 3.5t19.5 7.5t17 15l13.5 16.5t12.5 21.5l10.5 21t10.5 25t9 23l-229 510h119l159 -375l138 375h113l-198 -520q-20 -53 -35.5 -84.5t-39 -65t-53.5 -49t-69 -15.5q-45 0 -89 17zM167 593q-28 0 -46 17.5t-18 45.5q0 27 18 44.5
t46 17.5t46.5 -17.5t18.5 -44.5q0 -28 -18 -45.5t-47 -17.5zM416 593q-28 0 -46 17.5t-18 45.5q0 27 18 44.5t46 17.5t46 -17.5t18 -44.5q0 -28 -18 -45.5t-46 -17.5z" />
    <glyph glyph-name="Amacron" unicode="&#x100;" horiz-adv-x="733" 
d="M454 708l252 -708h-127l-51 150h-324l-50 -150h-127l253 708h174zM367 604l-133 -365h266zM530 893v-69h-321v69h321z" />
    <glyph glyph-name="amacron" unicode="&#x101;" horiz-adv-x="585" 
d="M459 475.5q61 -60.5 61 -160.5v-315h-121v63q-28 -36 -73 -55.5t-92 -19.5q-56 0 -100.5 20.5t-69.5 58.5t-25 88q0 51 28.5 90.5t77 61.5t107.5 22q73 0 147 -28v14q0 51 -31 85.5t-98 34.5q-62 0 -141 -40l-43 86q112 55 209 55q103 0 164 -60.5zM349 101.5
q40 23.5 50 62.5v59q-59 20 -129 20q-46 0 -78.5 -24t-32.5 -60t29 -58.5t73 -22.5q48 0 88 23.5zM440 677v-70h-322v70h322z" />
    <glyph glyph-name="Abreve" unicode="&#x102;" horiz-adv-x="733" 
d="M454 708l252 -708h-127l-51 150h-324l-50 -150h-127l253 708h174zM367 604l-133 -365h266zM442 926h75q0 -57 -41.5 -94t-105.5 -37q-65 0 -107 37t-42 94h77q0 -27 20 -44t52 -17t52 17t20 44z" />
    <glyph glyph-name="abreve" unicode="&#x103;" horiz-adv-x="585" 
d="M459 475.5q61 -60.5 61 -160.5v-315h-121v63q-28 -36 -73 -55.5t-92 -19.5q-56 0 -100.5 20.5t-69.5 58.5t-25 88q0 51 28.5 90.5t77 61.5t107.5 22q73 0 147 -28v14q0 51 -31 85.5t-98 34.5q-62 0 -141 -40l-43 86q112 55 209 55q103 0 164 -60.5zM349 101.5
q40 23.5 50 62.5v59q-59 20 -129 20q-46 0 -78.5 -24t-32.5 -60t29 -58.5t73 -22.5q48 0 88 23.5zM341 738h78q0 -63 -38.5 -102.5t-101.5 -39.5t-101.5 39.5t-38.5 102.5h77q0 -31 18 -51.5t45 -20.5t44.5 20.5t17.5 51.5z" />
    <glyph glyph-name="Aogonek" unicode="&#x104;" horiz-adv-x="778" 
d="M615 0h-36l-51 150h-324l-50 -150h-127l253 708h174l252 -708h-5q-109 -30 -109 -96q0 -51 43.5 -82t115.5 -34v-67q-100 0 -163 47t-63 121q0 76 90 111zM367 604l-133 -365h266z" />
    <glyph glyph-name="aogonek" unicode="&#x105;" horiz-adv-x="585" 
d="M459 475.5q61 -60.5 61 -160.5v-315h-121v63q-28 -36 -73 -55.5t-92 -19.5q-56 0 -100.5 20.5t-69.5 58.5t-25 88q0 51 28.5 90.5t77 61.5t107.5 22q73 0 147 -28v14q0 51 -31 85.5t-98 34.5q-62 0 -141 -40l-43 86q112 55 209 55q103 0 164 -60.5zM349 101.5
q40 23.5 50 62.5v59q-59 20 -129 20q-46 0 -78.5 -24t-32.5 -60t29 -58.5t73 -22.5q48 0 88 23.5zM470 10l52 -10q-113 -30 -113 -97q0 -51 44 -82t116 -34v-67q-100 0 -163 47t-63 121q0 44 33.5 76t93.5 46z" />
    <glyph glyph-name="Cacute" unicode="&#x106;" horiz-adv-x="824" 
d="M653 246l114 -19q-24 -110 -120 -181t-220 -71q-161 0 -266 107t-104 272q0 165 104.5 272t265.5 107q124 0 220 -74.5t120 -188.5l-115 -14q-18 75 -81.5 124t-142.5 49q-110 0 -180.5 -77.5t-70.5 -197.5t70.5 -197.5t180.5 -77.5q78 0 141.5 47t83.5 120zM576 926
l-119 -122h-112l109 122h122z" />
    <glyph glyph-name="cacute" unicode="&#x107;" horiz-adv-x="618" 
d="M569 335l-103 -13q-13 50 -55 82t-94 32q-68 0 -114.5 -52t-46.5 -130t46 -130t115 -52q53 0 94 32t55 81l104 -13q-16 -83 -87.5 -137.5t-165.5 -54.5q-117 0 -193 77.5t-76 196.5t76 196.5t192 77.5q97 0 168 -54.5t85 -138.5zM373 753h113l-120 -151h-100z" />
    <glyph glyph-name="Ccircumflex" unicode="&#x108;" horiz-adv-x="824" 
d="M653 246l114 -19q-24 -110 -120 -181t-220 -71q-161 0 -266 107t-104 272q0 165 104.5 272t265.5 107q124 0 220 -74.5t120 -188.5l-115 -14q-18 75 -81.5 124t-142.5 49q-110 0 -180.5 -77.5t-70.5 -197.5t70.5 -197.5t180.5 -77.5q78 0 141.5 47t83.5 120zM346 795h-94
l118 131h111l118 -131h-92l-81 78z" />
    <glyph glyph-name="ccircumflex" unicode="&#x109;" horiz-adv-x="618" 
d="M569 335l-103 -13q-13 50 -55 82t-94 32q-68 0 -114.5 -52t-46.5 -130t46 -130t115 -52q53 0 94 32t55 81l104 -13q-16 -83 -87.5 -137.5t-165.5 -54.5q-117 0 -193 77.5t-76 196.5t76 196.5t192 77.5q97 0 168 -54.5t85 -138.5zM236 603h-91l116 150h110l117 -151l-91 1
l-80 96z" />
    <glyph glyph-name="Cdotaccent" unicode="&#x10a;" horiz-adv-x="824" 
d="M653 246l114 -19q-24 -110 -120 -181t-220 -71q-161 0 -266 107t-104 272q0 165 104.5 272t265.5 107q124 0 220 -74.5t120 -188.5l-115 -14q-18 75 -81.5 124t-142.5 49q-110 0 -180.5 -77.5t-70.5 -197.5t70.5 -197.5t180.5 -77.5q78 0 141.5 47t83.5 120zM409 804
q-29 0 -47.5 16.5t-18.5 44.5q1 28 19 44.5t47 16.5q30 0 48 -16.5t18 -44.5t-18 -44.5t-48 -16.5z" />
    <glyph glyph-name="cdotaccent" unicode="&#x10b;" horiz-adv-x="618" 
d="M569 335l-103 -13q-13 50 -55 82t-94 32q-68 0 -114.5 -52t-46.5 -130t46 -130t115 -52q53 0 94 32t55 81l104 -13q-16 -83 -87.5 -137.5t-165.5 -54.5q-117 0 -193 77.5t-76 196.5t76 196.5t192 77.5q97 0 168 -54.5t85 -138.5zM315 595q-29 0 -47 18.5t-18 46.5
t18.5 46t46.5 18q29 0 47.5 -18t18.5 -46q0 -29 -18.5 -47t-47.5 -18z" />
    <glyph glyph-name="Ccaron" unicode="&#x10c;" horiz-adv-x="824" 
d="M653 246l114 -19q-24 -110 -120 -181t-220 -71q-161 0 -266 107t-104 272q0 165 104.5 272t265.5 107q124 0 220 -74.5t120 -188.5l-115 -14q-18 75 -81.5 124t-142.5 49q-110 0 -180.5 -77.5t-70.5 -197.5t70.5 -197.5t180.5 -77.5q78 0 141.5 47t83.5 120zM507 929h93
l-119 -134h-111l-119 134h95l80 -81z" />
    <glyph glyph-name="ccaron" unicode="&#x10d;" horiz-adv-x="618" 
d="M569 335l-103 -13q-13 50 -55 82t-94 32q-68 0 -114.5 -52t-46.5 -130t46 -130t115 -52q53 0 94 32t55 81l104 -13q-16 -83 -87.5 -137.5t-165.5 -54.5q-117 0 -193 77.5t-76 196.5t76 196.5t192 77.5q97 0 168 -54.5t85 -138.5zM395 753h92l-117 -151h-110l-116 151h91
l80 -96z" />
    <glyph glyph-name="Dcaron" unicode="&#x10e;" horiz-adv-x="798" 
d="M91 0v708h241q185 0 297.5 -97t112.5 -257t-112.5 -257t-297.5 -97h-241zM622 354q0 116 -79.5 185t-210.5 69h-122v-508h122q131 0 210.5 69t79.5 185zM450 929h94l-119 -134h-111l-119 134h95l80 -81z" />
    <glyph glyph-name="dcaron" unicode="&#x10f;" horiz-adv-x="779" 
d="M487 439v299h109v-738h-106v71q-69 -91 -187 -91q-110 0 -182.5 77.5t-72.5 196.5t72 196.5t183 77.5q116 0 184 -89zM156 254q0 -75 48 -123.5t120 -48.5q73 0 120 48.5t47 123.5t-47 123.5t-120 48.5t-120.5 -48.5t-47.5 -123.5zM719 619q-23 0 -36.5 15t-13.5 40
t15 40t40 15q28 0 45.5 -20t17.5 -52q0 -42 -20.5 -84t-52.5 -64l-39 23q44 39 44 87z" />
    <glyph glyph-name="Dcroat" unicode="&#x110;" horiz-adv-x="840" 
d="M133 443v265h240q185 0 297.5 -97t112.5 -257t-112.5 -257t-297.5 -97h-240v356h-106v87h106zM664 354q0 116 -80 185t-211 69h-122v-165h176v-87h-176v-256h122q131 0 211 69t80 185z" />
    <glyph glyph-name="dcroat" unicode="&#x111;" horiz-adv-x="710" 
d="M487 439v164h-189v70h189v65h109v-65h87v-70h-87v-603h-106v71q-69 -91 -187 -91q-110 0 -182.5 77.5t-72.5 196.5t72 196.5t183 77.5q116 0 184 -89zM156 254q0 -75 48 -123.5t120 -48.5q73 0 120 48.5t47 123.5t-47 123.5t-120 48.5t-120.5 -48.5t-47.5 -123.5z" />
    <glyph glyph-name="Emacron" unicode="&#x112;" horiz-adv-x="647" 
d="M207 102h384v-102h-500v708h490v-102h-374v-195h334v-92h-334v-217zM499 893v-69h-322v69h322z" />
    <glyph glyph-name="emacron" unicode="&#x113;" horiz-adv-x="638" 
d="M321 71q48 0 90 23.5t59 59.5l94 -31q-23 -62 -91 -102.5t-150 -40.5q-120 0 -197.5 79t-77.5 201q0 117 76.5 192.5t195.5 75.5q118 0 194 -75.5t76 -193.5q0 -16 -2 -38h-428q10 -68 54 -109t107 -41zM160 301h317q-9 60 -53 98t-107 38q-61 0 -103.5 -37.5
t-53.5 -98.5zM483 701v-70h-322v70h322z" />
    <glyph glyph-name="Ebreve" unicode="&#x114;" horiz-adv-x="647" 
d="M207 102h384v-102h-500v708h490v-102h-374v-195h334v-92h-334v-217zM410 926h76q0 -57 -42 -94t-106 -37t-106 37t-42 94h76q0 -27 20 -44t52 -17t52 17t20 44z" />
    <glyph glyph-name="ebreve" unicode="&#x115;" horiz-adv-x="638" 
d="M321 71q48 0 90 23.5t59 59.5l94 -31q-23 -62 -91 -102.5t-150 -40.5q-120 0 -197.5 79t-77.5 201q0 117 76.5 192.5t195.5 75.5q118 0 194 -75.5t76 -193.5q0 -16 -2 -38h-428q10 -68 54 -109t107 -41zM160 301h317q-9 60 -53 98t-107 38q-61 0 -103.5 -37.5
t-53.5 -98.5zM385 736h77q0 -63 -38.5 -102.5t-101.5 -39.5t-101 39.5t-39 102.5h78q0 -31 17.5 -51.5t44.5 -20.5q28 0 45.5 20t17.5 52z" />
    <glyph glyph-name="Edotaccent" unicode="&#x116;" horiz-adv-x="647" 
d="M207 102h384v-102h-500v708h490v-102h-374v-195h334v-92h-334v-217zM338 804q-29 0 -47.5 16.5t-18.5 44.5q1 28 19 44.5t47 16.5t47.5 -16.5t18.5 -44.5t-18.5 -44.5t-47.5 -16.5z" />
    <glyph glyph-name="edotaccent" unicode="&#x117;" horiz-adv-x="638" 
d="M321 71q48 0 90 23.5t59 59.5l94 -31q-23 -62 -91 -102.5t-150 -40.5q-120 0 -197.5 79t-77.5 201q0 117 76.5 192.5t195.5 75.5q118 0 194 -75.5t76 -193.5q0 -16 -2 -38h-428q10 -68 54 -109t107 -41zM160 301h317q-9 60 -53 98t-107 38q-61 0 -103.5 -37.5
t-53.5 -98.5zM322 604q-29 0 -47.5 18.5t-18.5 46.5t18.5 46t47.5 18t47.5 -18t18.5 -46q0 -29 -18.5 -47t-47.5 -18z" />
    <glyph glyph-name="Eogonek" unicode="&#x118;" horiz-adv-x="647" 
d="M456 0h-365v708h490v-102h-374v-195h334v-92h-334v-217h384v-102h-49q-111 -30 -111 -96q0 -52 44 -83t116 -33v-67q-100 0 -163 46.5t-63 120.5q0 77 91 112z" />
    <glyph glyph-name="eogonek" unicode="&#x119;" horiz-adv-x="638" 
d="M303 -19q-112 7 -183.5 84.5t-71.5 194.5t76.5 192.5t195.5 75.5q118 0 194 -75.5t76 -193.5q0 -16 -2 -38h-428q10 -68 54 -109t107 -41q48 0 90 23.5t59 59.5l94 -31q-18 -49 -65 -85.5t-109 -50.5q-74 -29 -74 -84q0 -51 43.5 -82t115.5 -34v-67q-100 0 -163 47
t-63 121q0 56 54 93zM160 301h317q-9 60 -53 98t-107 38q-61 0 -103.5 -37.5t-53.5 -98.5z" />
    <glyph glyph-name="Ecaron" unicode="&#x11a;" horiz-adv-x="647" 
d="M207 102h384v-102h-500v708h490v-102h-374v-195h334v-92h-334v-217zM421 929h94l-119 -134h-111l-119 134h95l80 -81z" />
    <glyph glyph-name="ecaron" unicode="&#x11b;" horiz-adv-x="638" 
d="M321 71q48 0 90 23.5t59 59.5l94 -31q-23 -62 -91 -102.5t-150 -40.5q-120 0 -197.5 79t-77.5 201q0 117 76.5 192.5t195.5 75.5q118 0 194 -75.5t76 -193.5q0 -16 -2 -38h-428q10 -68 54 -109t107 -41zM160 301h317q-9 60 -53 98t-107 38q-61 0 -103.5 -37.5
t-53.5 -98.5zM402 753h92l-117 -151h-110l-116 151h90l81 -96z" />
    <glyph glyph-name="Gcircumflex" unicode="&#x11c;" horiz-adv-x="871" 
d="M695 301l-256 1v94h374q2 -22 2 -43q0 -154 -92 -259q-105 -119 -281 -119q-168 0 -276.5 107t-108.5 272t108.5 272t276.5 107q114 0 205.5 -58.5t120.5 -148.5l-110 -31q-21 58 -82 96t-134 38q-116 0 -190.5 -77t-74.5 -198q0 -119 75.5 -197t191.5 -78q103 0 175 64
t76 158zM362 795h-94l118 131h111l119 -131h-93l-81 78z" />
    <glyph glyph-name="gcircumflex" unicode="&#x11d;" horiz-adv-x="668" 
d="M75 -75l99 21q17 -46 59 -75t93 -29q72 0 116.5 44.5t44.5 123.5v65q-68 -85 -183 -85q-111 0 -183.5 74.5t-72.5 189.5q0 118 72.5 195t183.5 77q116 0 184 -87v69h108v-499q0 -121 -73.5 -190t-192.5 -69q-92 0 -163 49t-92 126zM324 82q73 0 120 48.5t47 123.5
q0 77 -47 127.5t-120 50.5t-120.5 -50.5t-47.5 -127.5q0 -75 47.5 -123.5t120.5 -48.5zM242 603h-91l116 150h110l117 -151l-91 1l-80 96z" />
    <glyph glyph-name="Gbreve" unicode="&#x11e;" horiz-adv-x="871" 
d="M695 301l-256 1v94h374q2 -22 2 -43q0 -154 -92 -259q-105 -119 -281 -119q-168 0 -276.5 107t-108.5 272t108.5 272t276.5 107q114 0 205.5 -58.5t120.5 -148.5l-110 -31q-21 58 -82 96t-134 38q-116 0 -190.5 -77t-74.5 -198q0 -119 75.5 -197t191.5 -78q103 0 175 64
t76 158zM514 926h76q0 -57 -41.5 -94t-106.5 -37q-64 0 -106 37t-42 94h77q0 -27 20 -44t51 -17q32 0 52.5 17t19.5 44z" />
    <glyph glyph-name="gbreve" unicode="&#x11f;" horiz-adv-x="668" 
d="M75 -75l99 21q17 -46 59 -75t93 -29q72 0 116.5 44.5t44.5 123.5v65q-68 -85 -183 -85q-111 0 -183.5 74.5t-72.5 189.5q0 118 72.5 195t183.5 77q116 0 184 -87v69h108v-499q0 -121 -73.5 -190t-192.5 -69q-92 0 -163 49t-92 126zM324 82q73 0 120 48.5t47 123.5
q0 77 -47 127.5t-120 50.5t-120.5 -50.5t-47.5 -127.5q0 -75 47.5 -123.5t120.5 -48.5zM384 736h77q0 -63 -38.5 -102.5t-101.5 -39.5t-101 39.5t-38 102.5h77q0 -31 17.5 -51.5t44.5 -20.5q28 0 45.5 20t17.5 52z" />
    <glyph glyph-name="Gdotaccent" unicode="&#x120;" horiz-adv-x="871" 
d="M695 301l-256 1v94h374q2 -22 2 -43q0 -154 -92 -259q-105 -119 -281 -119q-168 0 -276.5 107t-108.5 272t108.5 272t276.5 107q114 0 205.5 -58.5t120.5 -148.5l-110 -31q-21 58 -82 96t-134 38q-116 0 -190.5 -77t-74.5 -198q0 -119 75.5 -197t191.5 -78q103 0 175 64
t76 158zM442 804q-29 0 -47 16.5t-18 44.5q1 28 18.5 44.5t46.5 16.5q30 0 48 -16.5t18 -44.5t-18 -44.5t-48 -16.5z" />
    <glyph glyph-name="gdotaccent" unicode="&#x121;" horiz-adv-x="668" 
d="M75 -75l99 21q17 -46 59 -75t93 -29q72 0 116.5 44.5t44.5 123.5v65q-68 -85 -183 -85q-111 0 -183.5 74.5t-72.5 189.5q0 118 72.5 195t183.5 77q116 0 184 -87v69h108v-499q0 -121 -73.5 -190t-192.5 -69q-92 0 -163 49t-92 126zM324 82q73 0 120 48.5t47 123.5
q0 77 -47 127.5t-120 50.5t-120.5 -50.5t-47.5 -127.5q0 -75 47.5 -123.5t120.5 -48.5zM321 604q-29 0 -47 18t-18 47q0 28 18.5 46t46.5 18q29 0 47.5 -18t18.5 -46q0 -29 -18.5 -47t-47.5 -18z" />
    <glyph glyph-name="uni0122" unicode="&#x122;" horiz-adv-x="871" 
d="M695 301l-256 1v94h374q2 -22 2 -43q0 -154 -92 -259q-105 -119 -281 -119q-168 0 -276.5 107t-108.5 272t108.5 272t276.5 107q114 0 205.5 -58.5t120.5 -148.5l-110 -31q-21 58 -82 96t-134 38q-116 0 -190.5 -77t-74.5 -198q0 -119 75.5 -197t191.5 -78q103 0 175 64
t76 158zM441 -207q-22 0 -36 15t-14 39q0 26 14.5 41t39.5 15q29 0 46.5 -20t17.5 -52q0 -42 -21 -83.5t-53 -64.5l-38 23q44 39 44 87z" />
    <glyph glyph-name="uni0123" unicode="&#x123;" horiz-adv-x="668" 
d="M75 -75l99 21q17 -46 59 -75t93 -29q72 0 116.5 44.5t44.5 123.5v65q-68 -85 -183 -85q-111 0 -183.5 74.5t-72.5 189.5q0 118 72.5 195t183.5 77q116 0 184 -87v69h108v-499q0 -121 -73.5 -190t-192.5 -69q-92 0 -163 49t-92 126zM324 82q73 0 120 48.5t47 123.5
q0 77 -47 127.5t-120 50.5t-120.5 -50.5t-47.5 -127.5q0 -75 47.5 -123.5t120.5 -48.5zM333 694q22 0 36 -15t14 -39q0 -25 -15 -40.5t-40 -15.5q-28 0 -45.5 20t-17.5 52q0 42 20.5 84t52.5 64l39 -23q-44 -37 -44 -87z" />
    <glyph glyph-name="Itilde" unicode="&#x128;" horiz-adv-x="313" 
d="M212 708v-708h-121v708h121zM23 830l-54 37q15 34 46.5 55.5t70.5 21.5t80 -28.5t61 -28.5q39 0 62 45l54 -36q-15 -34 -47.5 -55.5t-73.5 -21.5q-33 0 -58 14.5t-44 28.5t-36 14q-34 0 -61 -46z" />
    <glyph glyph-name="itilde" unicode="&#x129;" horiz-adv-x="273" 
d="M180 508v-508h-108v508h108zM3 627l-54 28q14 34 46.5 55.5t71.5 21.5q38 0 80 -28q41 -29 63 -29q39 0 58 38l55 -29q-15 -34 -47.5 -55.5t-73.5 -21.5q-42 0 -82 28t-60 28q-36 0 -57 -36z" />
    <glyph glyph-name="Imacron" unicode="&#x12a;" horiz-adv-x="290" 
d="M205 708v-708h-120v708h120zM306 893v-69h-322v69h322z" />
    <glyph glyph-name="imacron" unicode="&#x12b;" horiz-adv-x="251" 
d="M180 508v-508h-108v508h108zM286 701v-70h-321v70h321z" />
    <glyph glyph-name="Iogonek" unicode="&#x12e;" horiz-adv-x="305" 
d="M121 0h-30v708h120v-708h-4q-110 -30 -110 -96q0 -51 44 -82t116 -34v-67q-100 0 -163 47t-63 121q0 76 90 111z" />
    <glyph glyph-name="iogonek" unicode="&#x12f;" horiz-adv-x="265" 
d="M102 0h-20v508h109v-508h-3q-112 -30 -112 -97q0 -51 44 -82t116 -34v-67q-100 0 -163 47t-63 121q0 78 92 112zM69 657q0 28 19 46.5t48 18.5t48 -18.5t19 -46.5q0 -29 -19 -48t-48 -19t-48 19t-19 48z" />
    <glyph glyph-name="Idotaccent" unicode="&#x130;" horiz-adv-x="302" 
d="M211 708v-708h-120v708h120zM151 804q-29 0 -47.5 16.5t-18.5 44.5q1 28 19 44.5t47 16.5t47.5 -16.5t18.5 -44.5t-18.5 -44.5t-47.5 -16.5z" />
    <glyph glyph-name="dotlessi" unicode="&#x131;" horiz-adv-x="253" 
d="M181 508v-508h-109v508h109z" />
    <glyph glyph-name="IJ" unicode="&#x132;" horiz-adv-x="739" 
d="M211 708v-708h-120v708h120zM528 221v487h120v-492q0 -104 -63 -170t-161 -66q-69 0 -134 20v98q54 -16 105 -16q59 0 96 38t37 101z" />
    <glyph glyph-name="ij" unicode="&#x133;" horiz-adv-x="519" 
d="M194 508v-508h-108v508h108zM325 -55v563h109v-576q0 -72 -41 -116t-109 -44q-58 0 -97 14l1 89q29 -8 63 -8q34 1 54 22t20 56zM72 657q0 28 19 46.5t48 18.5q30 0 49 -18t19 -47t-19 -48t-49 -19q-29 0 -48 19t-19 48zM312 657q0 28 19 46.5t48 18.5t48 -18.5t19 -46.5
q0 -29 -19 -48t-48 -19t-48 19t-19 48z" />
    <glyph glyph-name="uni0136" unicode="&#x136;" horiz-adv-x="661" 
d="M91 708h120v-302l273 302h150l-316 -343l325 -365h-151l-281 324v-324h-120v708zM340 -205q-22 0 -36 15.5t-14 39.5q0 25 15 40.5t40 15.5q28 0 45.5 -20t17.5 -52q0 -42 -20.5 -84t-52.5 -65l-39 24q44 37 44 86z" />
    <glyph glyph-name="uni0137" unicode="&#x137;" horiz-adv-x="542" 
d="M72 738h109v-426l195 196h139l-236 -235l245 -273h-138l-205 232v-232h-109v738zM278 -198q-22 0 -36 15.5t-14 39.5q0 25 15 40.5t40 15.5q28 0 45.5 -20t17.5 -52q0 -43 -21 -84.5t-53 -64.5l-38 24q44 39 44 86z" />
    <glyph glyph-name="Lacute" unicode="&#x139;" horiz-adv-x="584" 
d="M545 0h-454v708h120v-604h334v-104zM326 926l-118 -122h-112l108 122h122z" />
    <glyph glyph-name="lacute" unicode="&#x13a;" horiz-adv-x="372" 
d="M181 738v-738h-109v738h109zM302 936l-118 -125h-111l108 125h121z" />
    <glyph glyph-name="uni013B" unicode="&#x13b;" horiz-adv-x="584" 
d="M545 0h-454v708h120v-604h334v-104zM314 -205q-22 0 -36 15.5t-14 39.5q0 25 14.5 40.5t39.5 15.5q29 0 46.5 -20t17.5 -52q0 -42 -21 -84t-53 -65l-38 24q44 39 44 86z" />
    <glyph glyph-name="uni013C" unicode="&#x13c;" horiz-adv-x="262" 
d="M181 738v-738h-109v738h109zM122 -206q-22 0 -36 15.5t-14 39.5q0 25 14.5 40.5t39.5 15.5q29 0 46.5 -20t17.5 -52q0 -42 -21 -83.5t-53 -64.5l-38 23q44 39 44 86z" />
    <glyph glyph-name="Lcaron" unicode="&#x13d;" horiz-adv-x="585" 
d="M545 0h-454v708h120v-604h334v-104zM347 627q-22 0 -36 15.5t-14 39.5q0 25 14.5 40.5t39.5 15.5q29 0 46.5 -20t17.5 -52q0 -42 -21 -84t-53 -64l-38 23q44 39 44 86z" />
    <glyph glyph-name="lcaron" unicode="&#x13e;" horiz-adv-x="376" 
d="M181 738v-738h-109v738h109zM316 619q-22 0 -36 15t-14 40t14.5 40t39.5 15q29 0 46.5 -20t17.5 -52q0 -42 -21 -83.5t-53 -64.5l-38 23q44 39 44 87z" />
    <glyph glyph-name="Lslash" unicode="&#x141;" horiz-adv-x="520" 
d="M27 267l108 66v375h120v-302l264 160v-98l-264 -160v-204h334v-104h-454v235l-108 -66v98z" />
    <glyph glyph-name="lslash" unicode="&#x142;" horiz-adv-x="458" 
d="M283 369v-369h-108v300l-146 -94v98l146 94v340h108v-271l147 94v-98z" />
    <glyph glyph-name="Nacute" unicode="&#x143;" horiz-adv-x="772" 
d="M242 708l322 -563v563h117v-708h-150l-323 562v-562h-117v708h151zM553 926l-118 -122h-112l108 122h122z" />
    <glyph glyph-name="nacute" unicode="&#x144;" 
d="M344 528q92 0 148.5 -61t56.5 -157v-310h-108v302q0 57 -32.5 93.5t-88.5 36.5q-58 0 -98.5 -40t-40.5 -100v-292h-109v508h107v-65q27 40 71 62.5t94 22.5zM382 753h114l-121 -151h-100z" />
    <glyph glyph-name="uni0145" unicode="&#x145;" horiz-adv-x="772" 
d="M242 708l322 -563v563h117v-708h-150l-323 562v-562h-117v708h151zM378 -206q-22 0 -35.5 15t-13.5 39q0 26 14.5 41t39.5 15q29 0 46.5 -20t17.5 -52q0 -42 -21 -84t-53 -64l-39 23q44 37 44 87z" />
    <glyph glyph-name="uni0146" unicode="&#x146;" 
d="M344 528q92 0 148.5 -61t56.5 -157v-310h-108v302q0 57 -32.5 93.5t-88.5 36.5q-58 0 -98.5 -40t-40.5 -100v-292h-109v508h107v-65q27 40 71 62.5t94 22.5zM305 -206q-22 0 -36 15t-14 39q0 26 14.5 41t39.5 15q29 0 46.5 -20t17.5 -52q0 -42 -21 -84t-53 -64l-38 23
q44 39 44 87z" />
    <glyph glyph-name="Ncaron" unicode="&#x147;" horiz-adv-x="772" 
d="M242 708l322 -563v563h117v-708h-150l-323 562v-562h-117v708h151zM461 929h94l-119 -134h-111l-119 134h95l80 -81z" />
    <glyph glyph-name="ncaron" unicode="&#x148;" 
d="M344 528q92 0 148.5 -61t56.5 -157v-310h-108v302q0 57 -32.5 93.5t-88.5 36.5q-58 0 -98.5 -40t-40.5 -100v-292h-109v508h107v-65q27 40 71 62.5t94 22.5zM405 753h91l-117 -151h-110l-116 151h91l81 -96z" />
    <glyph glyph-name="Omacron" unicode="&#x14c;" horiz-adv-x="885" 
d="M57 354q0 167 107.5 273t277.5 106t278 -106t108 -273t-108 -273t-278 -106t-277.5 106t-107.5 273zM177 354q0 -120 74.5 -197t190.5 -78q117 0 191.5 77.5t74.5 197.5t-74.5 197.5t-191.5 77.5q-116 0 -190.5 -77.5t-74.5 -197.5zM604 893v-69h-322v69h322z" />
    <glyph glyph-name="omacron" unicode="&#x14d;" horiz-adv-x="648" 
d="M600 254q0 -121 -77 -197.5t-199 -76.5t-199 76.5t-77 197.5t77 197.5t199 76.5t199 -76.5t77 -197.5zM491 254q0 77 -47 127.5t-120 50.5t-120.5 -50.5t-47.5 -127.5t47.5 -127.5t120.5 -50.5t120 50.5t47 127.5zM485 701v-70h-322v70h322z" />
    <glyph glyph-name="Obreve" unicode="&#x14e;" horiz-adv-x="885" 
d="M57 354q0 167 107.5 273t277.5 106t278 -106t108 -273t-108 -273t-278 -106t-277.5 106t-107.5 273zM177 354q0 -120 74.5 -197t190.5 -78q117 0 191.5 77.5t74.5 197.5t-74.5 197.5t-191.5 77.5q-116 0 -190.5 -77.5t-74.5 -197.5zM515 926h75q0 -57 -41.5 -94
t-105.5 -37q-65 0 -106.5 37t-42.5 94h77q0 -27 20 -44t52 -17t52 17t20 44z" />
    <glyph glyph-name="obreve" unicode="&#x14f;" horiz-adv-x="648" 
d="M600 254q0 -121 -77 -197.5t-199 -76.5t-199 76.5t-77 197.5t77 197.5t199 76.5t199 -76.5t77 -197.5zM491 254q0 77 -47 127.5t-120 50.5t-120.5 -50.5t-47.5 -127.5t47.5 -127.5t120.5 -50.5t120 50.5t47 127.5zM386 736h78q0 -63 -38.5 -102.5t-101.5 -39.5
t-101.5 39.5t-38.5 102.5h77q1 -32 18.5 -52t44.5 -20t44.5 20.5t17.5 51.5z" />
    <glyph glyph-name="Ohungarumlaut" unicode="&#x150;" horiz-adv-x="885" 
d="M57 354q0 167 107.5 273t277.5 106t278 -106t108 -273t-108 -273t-278 -106t-277.5 106t-107.5 273zM177 354q0 -120 74.5 -197t190.5 -78q117 0 191.5 77.5t74.5 197.5t-74.5 197.5t-191.5 77.5q-116 0 -190.5 -77.5t-74.5 -197.5zM400 926h106l-113 -131h-87zM576 926
h105l-121 -131h-86z" />
    <glyph glyph-name="ohungarumlaut" unicode="&#x151;" horiz-adv-x="646" 
d="M599 254q0 -121 -77 -197.5t-199 -76.5t-199 76.5t-77 197.5t77 197.5t199 76.5t199 -76.5t77 -197.5zM491 254q0 77 -47.5 127.5t-120.5 50.5t-120.5 -50.5t-47.5 -127.5t47.5 -127.5t120.5 -50.5t120.5 50.5t47.5 127.5zM301 748h110l-118 -146h-89zM478 748h109
l-126 -146l-91 1z" />
    <glyph glyph-name="OE" unicode="&#x152;" horiz-adv-x="1069" 
d="M57 354q0 165 102.5 267.5t267.5 102.5q71 0 123 -16h452v-102h-337v-200h297v-93h-297v-211h347v-102h-462q-53 -16 -123 -16q-165 0 -267.5 102.5t-102.5 267.5zM547 107v493q-43 19 -111 19q-113 0 -186 -73.5t-73 -191.5q0 -117 70.5 -191t179.5 -74q77 0 120 18z
" />
    <glyph glyph-name="oe" unicode="&#x153;" horiz-adv-x="1082" 
d="M765 71q48 0 90 23.5t59 59.5l93 -32q-23 -62 -90.5 -102t-147.5 -40q-147 0 -222 112q-74 -112 -223 -112q-122 0 -199 76.5t-77 197.5t77 197.5t199 76.5q147 0 221 -109q74 109 221 109q117 0 192.5 -75.5t75.5 -193.5q0 -16 -2 -38h-428q10 -68 54 -109t107 -41z
M491 254q0 77 -47 127.5t-120 50.5t-120.5 -50.5t-47.5 -127.5t47.5 -127.5t120.5 -50.5t120 50.5t47 127.5zM605 301h317q-10 61 -54 98.5t-107 37.5q-61 0 -103 -37.5t-53 -98.5z" />
    <glyph glyph-name="Racute" unicode="&#x154;" horiz-adv-x="751" 
d="M91 0v708h326q116 0 191 -63t75 -162q0 -70 -46.5 -126t-118.5 -75l176 -282h-137l-155 265h-191v-265h-120zM403 609h-192v-248h192q69 0 114.5 34.5t45.5 87.5q0 59 -44.5 92.5t-115.5 33.5zM547 926l-118 -122h-113l109 122h122z" />
    <glyph glyph-name="racute" unicode="&#x155;" horiz-adv-x="425" 
d="M315 526q30 0 64 -13v-97q-38 17 -78 17q-54 0 -87 -43.5t-33 -111.5v-278h-109v508h105v-65q49 83 138 83zM283 753h114l-121 -151h-100z" />
    <glyph glyph-name="uni0156" unicode="&#x156;" horiz-adv-x="751" 
d="M91 0v708h326q116 0 191 -63t75 -162q0 -70 -46.5 -126t-118.5 -75l176 -282h-137l-155 265h-191v-265h-120zM403 609h-192v-248h192q69 0 114.5 34.5t45.5 87.5q0 59 -44.5 92.5t-115.5 33.5zM375 -206q-22 0 -36 15.5t-14 39.5q0 25 15 40t40 15q28 0 45.5 -20
t17.5 -51q0 -43 -21 -84.5t-53 -64.5l-38 24q19 16 31.5 40t12.5 46z" />
    <glyph glyph-name="uni0157" unicode="&#x157;" horiz-adv-x="405" 
d="M315 526q30 0 64 -13v-97q-38 17 -78 17q-54 0 -87 -43.5t-33 -111.5v-278h-109v508h105v-65q49 83 138 83zM123 -206q-22 0 -36 15t-14 39q0 26 14.5 41t39.5 15q29 0 46.5 -20t17.5 -52q0 -42 -21 -84t-53 -64l-38 23q44 39 44 87z" />
    <glyph glyph-name="Rcaron" unicode="&#x158;" horiz-adv-x="751" 
d="M91 0v708h326q116 0 191 -63t75 -162q0 -70 -46.5 -126t-118.5 -75l176 -282h-137l-155 265h-191v-265h-120zM403 609h-192v-248h192q69 0 114.5 34.5t45.5 87.5q0 59 -44.5 92.5t-115.5 33.5zM446 929h94l-119 -134h-111l-119 134h95l80 -81z" />
    <glyph glyph-name="rcaron" unicode="&#x159;" horiz-adv-x="407" 
d="M315 526q30 0 64 -13v-97q-38 17 -78 17q-54 0 -87 -43.5t-33 -111.5v-278h-109v508h105v-65q49 83 138 83zM305 753h92l-117 -151h-110l-116 151h91l81 -96z" />
    <glyph glyph-name="Sacute" unicode="&#x15a;" horiz-adv-x="711" 
d="M367 -25q-133 0 -219 72.5t-86 183.5h114q0 -68 54.5 -112.5t139.5 -44.5q73 0 116.5 33t43.5 82q0 35 -25.5 57.5t-66 34t-89.5 20.5q-49 8 -97.5 21t-89 32.5t-66 58t-25.5 94.5q0 100 76.5 163t199.5 63q124 0 204.5 -68.5t81.5 -174.5h-111q0 63 -49 103.5t-125 40.5
q-71 0 -114.5 -31t-43.5 -79q0 -39 34 -63t85 -33t110.5 -22.5t110.5 -31t85 -60t34 -107.5q0 -101 -77 -166.5t-205 -65.5zM521 926l-118 -122h-112l108 122h122z" />
    <glyph glyph-name="sacute" unicode="&#x15b;" horiz-adv-x="555" 
d="M283 -21q-101 0 -166 54.5t-65 138.5h100q0 -46 37 -75.5t94 -29.5q51 0 84 21.5t33 53.5q0 31 -35.5 46.5t-84.5 23.5q-50 7 -100 18.5t-85 45.5t-35 92q0 69 58.5 115t145.5 46q98 0 162.5 -49t64.5 -125h-101q-1 37 -36.5 61t-90.5 24q-42 0 -71.5 -20.5t-29.5 -50.5
q0 -26 25 -42t63 -22t82.5 -16t82.5 -22.5t63.5 -42t25.5 -73.5q0 -74 -62.5 -123t-158.5 -49zM323 753h113l-121 -151h-100z" />
    <glyph glyph-name="Scircumflex" unicode="&#x15c;" horiz-adv-x="711" 
d="M367 -25q-133 0 -219 72.5t-86 183.5h114q0 -68 54.5 -112.5t139.5 -44.5q73 0 116.5 33t43.5 82q0 35 -25.5 57.5t-66 34t-89.5 20.5q-49 8 -97.5 21t-89 32.5t-66 58t-25.5 94.5q0 100 76.5 163t199.5 63q124 0 204.5 -68.5t81.5 -174.5h-111q0 63 -49 103.5t-125 40.5
q-71 0 -114.5 -31t-43.5 -79q0 -39 34 -63t85 -33t110.5 -22.5t110.5 -31t85 -60t34 -107.5q0 -101 -77 -166.5t-205 -65.5zM274 795h-93l117 131h112l118 -131h-93l-81 78z" />
    <glyph glyph-name="scircumflex" unicode="&#x15d;" horiz-adv-x="555" 
d="M283 -21q-101 0 -166 54.5t-65 138.5h100q0 -46 37 -75.5t94 -29.5q51 0 84 21.5t33 53.5q0 31 -35.5 46.5t-84.5 23.5q-50 7 -100 18.5t-85 45.5t-35 92q0 69 58.5 115t145.5 46q98 0 162.5 -49t64.5 -125h-101q-1 37 -36.5 61t-90.5 24q-42 0 -71.5 -20.5t-29.5 -50.5
q0 -26 25 -42t63 -22t82.5 -16t82.5 -22.5t63.5 -42t25.5 -73.5q0 -74 -62.5 -123t-158.5 -49zM185 603h-90l115 150h111l117 -151l-92 1l-80 96z" />
    <glyph glyph-name="Scedilla" unicode="&#x15e;" horiz-adv-x="711" 
d="M344 -114h-53l14 94q-109 17 -176 85.5t-67 165.5h114q0 -68 54.5 -112.5t139.5 -44.5q73 0 116.5 33t43.5 82q0 35 -25.5 57.5t-66 34t-89.5 20.5q-49 8 -97.5 21t-89 32.5t-66 58t-25.5 94.5q0 100 76.5 163t199.5 63q124 0 204.5 -68.5t81.5 -174.5h-111
q0 63 -49 103.5t-125 40.5q-71 0 -114.5 -31t-43.5 -79q0 -39 34 -63t85 -33t110.5 -22.5t110.5 -31t85 -60t34 -107.5q0 -100 -75.5 -165t-199.5 -67l-7 -45q50 0 80.5 -27.5t30.5 -73.5q0 -44 -32 -71.5t-84 -27.5q-41 0 -71.5 21.5t-38.5 56.5l55 18q6 -17 20.5 -27.5
t30.5 -10.5q20 0 33 13t13 33q0 23 -17 37.5t-43 14.5z" />
    <glyph glyph-name="scedilla" unicode="&#x15f;" horiz-adv-x="555" 
d="M283 -114h-53l14 96q-86 11 -139 63t-53 127h100q0 -46 37 -75.5t94 -29.5q51 0 84 21.5t33 53.5q0 31 -35.5 46.5t-84.5 23.5q-50 7 -100 18.5t-85 45.5t-35 92q0 69 58.5 115t145.5 46q98 0 162.5 -49t64.5 -125h-101q-1 37 -36.5 61t-90.5 24q-42 0 -71.5 -20.5
t-29.5 -50.5q0 -26 25 -42t63 -22t82.5 -16t82.5 -22.5t63.5 -42t25.5 -73.5q0 -68 -53 -115t-137 -55l-8 -51q50 0 80 -27.5t30 -73.5q0 -44 -31.5 -71.5t-83.5 -27.5q-41 0 -71.5 21.5t-38.5 56.5l55 18q6 -17 20.5 -27.5t30.5 -10.5q20 0 33 13t13 33q0 23 -17 37.5
t-43 14.5z" />
    <glyph glyph-name="Scaron" unicode="&#x160;" horiz-adv-x="711" 
d="M367 -25q-133 0 -219 72.5t-86 183.5h114q0 -68 54.5 -112.5t139.5 -44.5q73 0 116.5 33t43.5 82q0 35 -25.5 57.5t-66 34t-89.5 20.5q-49 8 -97.5 21t-89 32.5t-66 58t-25.5 94.5q0 100 76.5 163t199.5 63q124 0 204.5 -68.5t81.5 -174.5h-111q0 63 -49 103.5t-125 40.5
q-71 0 -114.5 -31t-43.5 -79q0 -39 34 -63t85 -33t110.5 -22.5t110.5 -31t85 -60t34 -107.5q0 -101 -77 -166.5t-205 -65.5zM429 929h94l-119 -134h-111l-119 134h95l80 -81z" />
    <glyph glyph-name="scaron" unicode="&#x161;" horiz-adv-x="555" 
d="M283 -21q-101 0 -166 54.5t-65 138.5h100q0 -46 37 -75.5t94 -29.5q51 0 84 21.5t33 53.5q0 31 -35.5 46.5t-84.5 23.5q-50 7 -100 18.5t-85 45.5t-35 92q0 69 58.5 115t145.5 46q98 0 162.5 -49t64.5 -125h-101q-1 37 -36.5 61t-90.5 24q-42 0 -71.5 -20.5t-29.5 -50.5
q0 -26 25 -42t63 -22t82.5 -16t82.5 -22.5t63.5 -42t25.5 -73.5q0 -74 -62.5 -123t-158.5 -49zM342 753h92l-117 -151h-110l-116 151h90l81 -96z" />
    <glyph glyph-name="uni0162" unicode="&#x162;" 
d="M246 605h-227v103h573v-103h-226v-605h-120v605zM297 -206q-22 0 -36 15.5t-14 39.5q0 25 15 40t40 15q28 0 45.5 -19.5t17.5 -51.5q0 -43 -20.5 -85t-52.5 -64l-39 24q19 16 31.5 40t12.5 46z" />
    <glyph glyph-name="uni0163" unicode="&#x163;" horiz-adv-x="404" 
d="M116 143v280h-78v85h84l14 123h88v-123h125v-85h-125v-273q0 -35 20 -56.5t55 -21.5q29 0 57 9l-1 -87q-39 -14 -89 -14q-68 0 -109 45t-41 118zM237 -206q-22 0 -36 15t-14 39q0 26 14.5 41t39.5 15q29 0 46.5 -20t17.5 -52q0 -42 -21 -84t-53 -64l-39 23q45 38 45 87z
" />
    <glyph glyph-name="Tcaron" unicode="&#x164;" 
d="M246 605h-227v103h573v-103h-226v-605h-120v605zM386 929h94l-119 -134h-111l-119 134h95l80 -81z" />
    <glyph glyph-name="tcaron" unicode="&#x165;" horiz-adv-x="415" 
d="M116 143v280h-78v85h84l14 123h88v-123h125v-85h-125v-273q0 -35 20 -56.5t55 -21.5q29 0 57 9l-1 -87q-39 -14 -89 -14q-68 0 -109 45t-41 118zM320 676q-22 0 -36 15.5t-14 39.5q0 25 15 40t40 15q28 0 45.5 -20t17.5 -52q0 -42 -20.5 -84t-52.5 -64l-39 24
q19 16 31.5 40t12.5 46z" />
    <glyph glyph-name="Utilde" unicode="&#x168;" horiz-adv-x="771" 
d="M566 291v417h120v-419q0 -137 -84.5 -225.5t-215.5 -88.5q-132 0 -216.5 88.5t-84.5 225.5v419h120v-417q0 -86 50.5 -148.5t130.5 -63.5q80 0 130 59.5t50 152.5zM258 830l-54 37q15 34 46.5 55.5t70.5 21.5t80 -28.5t60 -28.5q39 0 63 45l54 -36q-15 -34 -47.5 -55.5
t-73.5 -21.5q-42 0 -81 29q-40 28 -57 28q-35 0 -61 -46z" />
    <glyph glyph-name="utilde" unicode="&#x169;" 
d="M268 -20q-93 0 -149.5 61t-56.5 157v310h109v-302q0 -58 32.5 -94t88.5 -36q57 0 98 40t41 100v292h108v-508h-107v65q-26 -39 -70.5 -62t-93.5 -23zM177 626l-54 28q14 34 46.5 55.5t71.5 21.5q38 0 80 -28q41 -29 63 -29q39 0 58 38l55 -29q-15 -34 -47.5 -55.5
t-73.5 -21.5q-42 0 -82 28t-60 28q-37 0 -57 -36z" />
    <glyph glyph-name="Umacron" unicode="&#x16a;" horiz-adv-x="771" 
d="M566 291v417h120v-419q0 -137 -84.5 -225.5t-215.5 -88.5q-132 0 -216.5 88.5t-84.5 225.5v419h120v-417q0 -86 50.5 -148.5t130.5 -63.5q80 0 130 59.5t50 152.5zM547 893v-69h-322v69h322z" />
    <glyph glyph-name="umacron" unicode="&#x16b;" 
d="M268 -20q-93 0 -149.5 61t-56.5 157v310h109v-302q0 -58 32.5 -94t88.5 -36q57 0 98 40t41 100v292h108v-508h-107v65q-26 -39 -70.5 -62t-93.5 -23zM461 700v-70h-322v70h322z" />
    <glyph glyph-name="Ubreve" unicode="&#x16c;" horiz-adv-x="771" 
d="M566 291v417h120v-419q0 -137 -84.5 -225.5t-215.5 -88.5q-132 0 -216.5 88.5t-84.5 225.5v419h120v-417q0 -86 50.5 -148.5t130.5 -63.5q80 0 130 59.5t50 152.5zM458 926h75q1 -57 -40.5 -94t-106.5 -37q-64 0 -106 37t-43 94h77q0 -27 20 -44t52 -17t52 17t20 44z" />
    <glyph glyph-name="ubreve" unicode="&#x16d;" 
d="M268 -20q-93 0 -149.5 61t-56.5 157v310h109v-302q0 -58 32.5 -94t88.5 -36q57 0 98 40t41 100v292h108v-508h-107v65q-26 -39 -70.5 -62t-93.5 -23zM363 735h77q0 -63 -38.5 -102.5t-101.5 -39.5q-62 0 -100.5 39.5t-39.5 102.5h78q0 -31 17.5 -51.5t44.5 -20.5
q28 0 45.5 20t17.5 52z" />
    <glyph glyph-name="Uring" unicode="&#x16e;" horiz-adv-x="771" 
d="M566 291v417h120v-419q0 -137 -84.5 -225.5t-215.5 -88.5q-132 0 -216.5 88.5t-84.5 225.5v419h120v-417q0 -86 50.5 -148.5t130.5 -63.5q80 0 130 59.5t50 152.5zM386 768q-56 0 -92 33.5t-36 86.5t36 86t92 33t91.5 -33t35.5 -86t-35.5 -86.5t-91.5 -33.5zM386 950
q-28 0 -45.5 -17t-16.5 -45q0 -27 17 -44.5t45 -17.5q27 0 44.5 17.5t17.5 44.5q0 28 -17.5 45t-44.5 17z" />
    <glyph glyph-name="uring" unicode="&#x16f;" 
d="M268 -20q-93 0 -149.5 61t-56.5 157v310h109v-302q0 -58 32.5 -94t88.5 -36q57 0 98 40t41 100v292h108v-508h-107v65q-26 -39 -70.5 -62t-93.5 -23zM300 557q-56 0 -91.5 33.5t-35.5 86.5t35.5 86.5t91.5 33.5t91.5 -33.5t35.5 -86.5t-35.5 -86.5t-91.5 -33.5zM300 739
q-28 0 -45.5 -17t-16.5 -45q0 -27 17 -44.5t45 -17.5q27 0 44.5 17.5t17.5 44.5q0 28 -17.5 45t-44.5 17z" />
    <glyph glyph-name="Uhungarumlaut" unicode="&#x170;" horiz-adv-x="771" 
d="M566 291v417h120v-419q0 -137 -84.5 -225.5t-215.5 -88.5q-132 0 -216.5 88.5t-84.5 225.5v419h120v-417q0 -86 50.5 -148.5t130.5 -63.5q80 0 130 59.5t50 152.5zM343 926h105l-112 -131h-88zM519 926h104l-121 -131h-86z" />
    <glyph glyph-name="uhungarumlaut" unicode="&#x171;" horiz-adv-x="576" 
d="M268 -20q-93 0 -149.5 61t-56.5 157v310h109v-302q0 -58 32.5 -94t88.5 -36q57 0 98 40t41 100v292h108v-508h-107v65q-26 -39 -70.5 -62t-93.5 -23zM260 747h110l-118 -145h-89zM437 747h109l-126 -145h-91z" />
    <glyph glyph-name="Uogonek" unicode="&#x172;" horiz-adv-x="771" 
d="M368 -25q-125 7 -204 94.5t-79 219.5v419h120v-417q0 -86 50.5 -148.5t130.5 -63.5q80 0 130 59.5t50 152.5v417h120v-419q0 -120 -66 -204.5t-174 -104.5q-59 -28 -59 -77q0 -51 44 -82t116 -34v-67q-100 0 -163 47t-63 121q0 53 47 87z" />
    <glyph glyph-name="uogonek" unicode="&#x173;" horiz-adv-x="658" 
d="M445 0h-13v65q-26 -39 -70.5 -62t-93.5 -23q-93 0 -149.5 61t-56.5 157v310h109v-302q0 -58 32.5 -94t88.5 -36q57 0 98 40t41 100v292h108v-508h-10q-103 -30 -103 -94q0 -51 44 -82t116 -34v-67q-100 0 -163 46.5t-63 120.5q0 75 85 110z" />
    <glyph glyph-name="Wcircumflex" unicode="&#x174;" horiz-adv-x="1127" 
d="M792 86l167 622h123l-195 -708h-185l-138 574l-137 -574h-186l-196 708h123l168 -622l151 622h158zM483 795h-93l118 131h111l118 -131h-93l-81 78z" />
    <glyph glyph-name="wcircumflex" unicode="&#x175;" horiz-adv-x="893" 
d="M201 0l-164 508h113l127 -401l112 401h114l117 -403l125 403h112l-166 -508h-143l-101 382l-103 -382h-143zM367 603h-90l115 150h111l117 -151l-92 1l-80 96z" />
    <glyph glyph-name="Ycircumflex" unicode="&#x176;" horiz-adv-x="681" 
d="M282 252l-255 456h130l185 -346l180 346h133l-253 -456v-252h-120v252zM260 795h-93l117 131h112l118 -131h-93l-81 78z" />
    <glyph glyph-name="ycircumflex" unicode="&#x177;" horiz-adv-x="583" 
d="M72 -209v88q39 -14 67 -14q13 0 24.5 3.5t19.5 7.5t17 15l13.5 16.5t12.5 21.5l10.5 21t10.5 25t9 23l-229 510h119l159 -375l138 375h113l-198 -520q-20 -53 -35.5 -84.5t-39 -65t-53.5 -49t-69 -15.5q-45 0 -89 17zM212 603h-90l115 150h111l117 -151l-92 1l-80 96z
" />
    <glyph glyph-name="Ydieresis" unicode="&#x178;" horiz-adv-x="681" 
d="M282 252l-255 456h130l185 -346l180 346h133l-253 -456v-252h-120v252zM225 803q-29 0 -47 17.5t-18 45.5t18 45.5t47 17.5q28 0 46 -17.5t18 -45.5t-17.5 -45.5t-46.5 -17.5zM456 803q-28 0 -46 17.5t-18 45.5t18 45.5t46 17.5q29 0 47 -17.5t18 -45.5t-18 -45.5
t-47 -17.5z" />
    <glyph glyph-name="Zacute" unicode="&#x179;" horiz-adv-x="664" 
d="M49 78l397 534h-387v96h546v-79l-395 -533h405v-96h-566v78zM499 926l-119 -122h-112l109 122h122z" />
    <glyph glyph-name="zacute" unicode="&#x17a;" horiz-adv-x="562" 
d="M347 414h-288v94h444v-71l-295 -343h305v-94h-464v71zM331 753h113l-121 -151h-100z" />
    <glyph glyph-name="Zdotaccent" unicode="&#x17b;" horiz-adv-x="664" 
d="M49 78l397 534h-387v96h546v-79l-395 -533h405v-96h-566v78zM332 804q-29 0 -47.5 16.5t-18.5 44.5q1 28 19 44.5t47 16.5t47.5 -16.5t18.5 -44.5t-18.5 -44.5t-47.5 -16.5z" />
    <glyph glyph-name="zdotaccent" unicode="&#x17c;" horiz-adv-x="562" 
d="M347 414h-288v94h444v-71l-295 -343h305v-94h-464v71zM281 608q-29 0 -47 18t-18 47q0 28 18.5 46t46.5 18q29 0 47.5 -18t18.5 -46q0 -29 -18.5 -47t-47.5 -18z" />
    <glyph glyph-name="Zcaron" unicode="&#x17d;" horiz-adv-x="664" 
d="M49 78l397 534h-387v96h546v-79l-395 -533h405v-96h-566v78zM407 929h94l-119 -134h-112l-118 134h94l80 -81z" />
    <glyph glyph-name="zcaron" unicode="&#x17e;" horiz-adv-x="562" 
d="M347 414h-288v94h444v-71l-295 -343h305v-94h-464v71zM361 753h92l-117 -151h-110l-116 151h91l80 -96z" />
    <glyph glyph-name="Aringacute" unicode="&#x1fa;" horiz-adv-x="733" 
d="M454 708l252 -708h-127l-51 150h-324l-50 -150h-127l253 708h174zM367 604l-133 -365h266zM366 731q-45 0 -74.5 27.5t-29.5 69.5t29 69t74 27q46 0 75 -27t29 -70q0 -42 -28.5 -69t-74.5 -27zM366 866q-16 0 -27 -11t-11 -27q0 -17 10.5 -28t27.5 -11t28 11t11 28
q-1 17 -11.5 27.5t-27.5 10.5zM513 1034l-94 -90h-108l87 90h115z" />
    <glyph glyph-name="aringacute" unicode="&#x1fb;" horiz-adv-x="585" 
d="M459 475.5q61 -60.5 61 -160.5v-315h-121v63q-28 -36 -73 -55.5t-92 -19.5q-56 0 -100.5 20.5t-69.5 58.5t-25 88q0 51 28.5 90.5t77 61.5t107.5 22q73 0 147 -28v14q0 51 -31 85.5t-98 34.5q-62 0 -141 -40l-43 86q112 55 209 55q103 0 164 -60.5zM349 101.5
q40 23.5 50 62.5v59q-59 20 -129 20q-46 0 -78.5 -24t-32.5 -60t29 -58.5t73 -22.5q48 0 88 23.5zM280 541q-57 0 -92.5 33t-35.5 86t35.5 86.5t92.5 33.5q56 0 91.5 -33.5t35.5 -86.5t-35.5 -86t-91.5 -33zM280 723q-28 0 -45.5 -17.5t-16.5 -45.5q0 -27 17 -44.5t45 -17.5
q27 0 44.5 17.5t17.5 44.5q0 28 -17.5 45.5t-44.5 17.5zM450 941l-121 -150h-100l107 150h114z" />
    <glyph glyph-name="AEacute" unicode="&#x1fc;" horiz-adv-x="969" 
d="M913 102v-102h-437v132h-248l-68 -132h-133l362 708h514v-102h-319v-200h279v-93h-279v-211h329zM476 225v399l-204 -399h204zM723 914l-118 -122h-113l109 122h122z" />
    <glyph glyph-name="aeacute" unicode="&#x1fd;" horiz-adv-x="1071" 
d="M1023 260q0 -20 -2 -52h-426q12 -62 58.5 -99.5t113.5 -37.5q91 0 136 77l93 -31q-24 -60 -87.5 -98.5t-139.5 -38.5q-66 0 -121 29t-81 77v-86h-78v72q-70 -92 -189 -92q-110 0 -181 77t-71 197q0 119 71 196.5t181 77.5q117 0 189 -93v73h78v-83q57 103 191 103
q116 0 190.5 -75.5t74.5 -192.5zM156 254q0 -81 47.5 -133.5t121.5 -52.5q72 0 120.5 51.5t48.5 134.5q0 81 -47.5 133t-121.5 52t-121.5 -52t-47.5 -133zM592 286h322q-3 65 -48.5 107.5t-114.5 42.5q-64 0 -107.5 -41.5t-51.5 -108.5zM596 755h113l-121 -150h-100z" />
    <glyph glyph-name="Oslashacute" unicode="&#x1fe;" horiz-adv-x="865" 
d="M572 708l77 152l96 1l-96 -191q75 -50 117 -132.5t42 -183.5q0 -165 -106 -272t-270 -107q-63 0 -125 19l-67 -134h-95l85 169q-81 49 -127 134t-46 191q0 165 106 272t269 107q74 0 140 -25zM177 354q0 -71 27.5 -129t76.5 -94l243 481q-43 17 -92 17q-111 0 -183 -78
t-72 -197zM688 354q0 135 -92 214l-240 -478q38 -11 76 -11q112 0 184 77.5t72 197.5zM583 916l-118 -122h-112l108 122h122z" />
    <glyph glyph-name="oslashacute" unicode="&#x1ff;" horiz-adv-x="656" 
d="M425 513l43 87h87l-61 -120q54 -37 84 -95.5t30 -130.5q0 -121 -78.5 -197.5t-201.5 -76.5q-45 0 -82 10l-34 -70h-87l50 99q-60 35 -93.5 96t-33.5 139q0 121 78 197.5t202 76.5q52 0 97 -15zM216 98l171 340q-28 9 -59 9q-80 0 -132 -54t-52 -139q0 -102 72 -156z
M510 254q0 89 -58 145l-168 -334q19 -4 44 -4q80 0 131 54t51 139zM492 736l-120 -134h-100l106 134h114z" />
    <glyph glyph-name="uni0218" unicode="&#x218;" horiz-adv-x="711" 
d="M367 -25q-133 0 -219 72.5t-86 183.5h114q0 -68 54.5 -112.5t139.5 -44.5q73 0 116.5 33t43.5 82q0 35 -25.5 57.5t-66 34t-89.5 20.5q-49 8 -97.5 21t-89 32.5t-66 58t-25.5 94.5q0 100 76.5 163t199.5 63q124 0 204.5 -68.5t81.5 -174.5h-111q0 63 -49 103.5t-125 40.5
q-71 0 -114.5 -31t-43.5 -79q0 -39 34 -63t85 -33t110.5 -22.5t110.5 -31t85 -60t34 -107.5q0 -101 -77 -166.5t-205 -65.5zM347 -207q-22 0 -36 15.5t-14 39.5q0 25 15 40.5t40 15.5q28 0 45.5 -20t17.5 -52q0 -42 -20.5 -84t-52.5 -64l-39 23q44 37 44 86z" />
    <glyph glyph-name="uni0219" unicode="&#x219;" horiz-adv-x="555" 
d="M283 -21q-101 0 -166 54.5t-65 138.5h100q0 -46 37 -75.5t94 -29.5q51 0 84 21.5t33 53.5q0 31 -35.5 46.5t-84.5 23.5q-50 7 -100 18.5t-85 45.5t-35 92q0 69 58.5 115t145.5 46q98 0 162.5 -49t64.5 -125h-101q-1 37 -36.5 61t-90.5 24q-42 0 -71.5 -20.5t-29.5 -50.5
q0 -26 25 -42t63 -22t82.5 -16t82.5 -22.5t63.5 -42t25.5 -73.5q0 -74 -62.5 -123t-158.5 -49zM261 -206q-22 0 -36 15t-14 39q0 26 14.5 41t39.5 15q29 0 46.5 -20t17.5 -52q0 -42 -21 -84t-53 -64l-39 23q45 38 45 87z" />
    <glyph glyph-name="circumflex" unicode="&#x2c6;" horiz-adv-x="439" 
d="M48 605l116 150h110l117 -150h-92l-80 96l-80 -96h-91z" />
    <glyph glyph-name="caron" unicode="&#x2c7;" horiz-adv-x="439" 
d="M299 755h92l-117 -150h-110l-116 150h91l80 -96z" />
    <glyph glyph-name="breve" unicode="&#x2d8;" horiz-adv-x="376" 
d="M250 738h78q0 -63 -38.5 -102.5t-101.5 -39.5t-101.5 39.5t-38.5 102.5h77q0 -31 18 -51.5t45 -20.5t44.5 20.5t17.5 51.5z" />
    <glyph glyph-name="dotaccent" unicode="&#x2d9;" horiz-adv-x="228" 
d="M114 560q-29 0 -47.5 18t-18.5 47q0 28 18.5 46t47.5 18t47.5 -18t18.5 -46t-18.5 -46.5t-47.5 -18.5z" />
    <glyph glyph-name="ring" unicode="&#x2da;" horiz-adv-x="351" 
d="M176 541q-57 0 -92.5 33t-35.5 86t35.5 86.5t92.5 33.5q56 0 91.5 -33.5t35.5 -86.5t-35.5 -86t-91.5 -33zM176 723q-28 0 -45.5 -17.5t-16.5 -45.5q0 -27 17 -44.5t45 -17.5q27 0 44.5 17.5t17.5 44.5q0 28 -17.5 45.5t-44.5 17.5z" />
    <glyph glyph-name="ogonek" unicode="&#x2db;" horiz-adv-x="322" 
d="M175 10l52 -10q-113 -30 -113 -97q0 -51 44 -82t116 -34v-67q-100 0 -163 47t-63 121q0 44 33.5 76t93.5 46z" />
    <glyph glyph-name="tilde" unicode="&#x2dc;" horiz-adv-x="470" 
d="M102 593l-54 28q14 34 46.5 55.5t71.5 21.5q38 0 80 -28q41 -29 62 -29q40 0 59 38l55 -29q-15 -34 -47.5 -55.5t-73.5 -21.5q-42 0 -82 29q-40 28 -60 28q-37 0 -57 -37z" />
    <glyph glyph-name="hungarumlaut" unicode="&#x2dd;" horiz-adv-x="480" 
d="M146 750h109l-117 -145h-90zM322 750h110l-127 -145h-90z" />
    <glyph glyph-name="Wgrave" unicode="&#x1e80;" horiz-adv-x="1127" 
d="M792 86l167 622h123l-195 -708h-185l-138 574l-137 -574h-186l-196 708h123l168 -622l151 622h158zM503 804l-119 122h122l109 -122h-112z" />
    <glyph glyph-name="wgrave" unicode="&#x1e81;" horiz-adv-x="893" 
d="M201 0l-164 508h113l127 -401l112 401h114l117 -403l125 403h112l-166 -508h-143l-101 382l-103 -382h-143zM281 753h113l107 -150h-99z" />
    <glyph glyph-name="Wacute" unicode="&#x1e82;" horiz-adv-x="1127" 
d="M792 86l167 622h123l-195 -708h-185l-138 574l-137 -574h-186l-196 708h123l168 -622l151 622h158zM730 926l-118 -122h-112l108 122h122z" />
    <glyph glyph-name="wacute" unicode="&#x1e83;" horiz-adv-x="893" 
d="M201 0l-164 508h113l127 -401l112 401h114l117 -403l125 403h112l-166 -508h-143l-101 382l-103 -382h-143zM496 753h113l-121 -151h-99z" />
    <glyph glyph-name="Wdieresis" unicode="&#x1e84;" horiz-adv-x="1127" 
d="M792 86l167 622h123l-195 -708h-185l-138 574l-137 -574h-186l-196 708h123l168 -622l151 622h158zM449 803q-29 0 -47 17.5t-18 45.5t18 45.5t47 17.5q28 0 46 -17.5t18 -45.5t-18 -45.5t-46 -17.5zM680 803q-28 0 -46 17.5t-18 45.5t18 45.5t46 17.5q29 0 47 -17.5
t18 -45.5t-18 -45.5t-47 -17.5z" />
    <glyph glyph-name="wdieresis" unicode="&#x1e85;" horiz-adv-x="893" 
d="M201 0l-164 508h113l127 -401l112 401h114l117 -403l125 403h112l-166 -508h-143l-101 382l-103 -382h-143zM322 593q-28 0 -46 17.5t-18 45.5q0 27 18 44.5t46 17.5t46.5 -17.5t18.5 -44.5q0 -28 -18 -45.5t-47 -17.5zM571 593q-28 0 -46 17.5t-18 45.5q0 27 18 44.5
t46 17.5t46 -17.5t18 -44.5q0 -28 -18 -45.5t-46 -17.5z" />
    <glyph glyph-name="uni1E9E" unicode="&#x1e9e;" horiz-adv-x="714" 
d="M201 473v-473h-120v480q0 108 73 177.5t188 69.5q107 0 176 -56t69 -142q0 -58 -29 -99.5t-75 -49.5q72 -11 118 -67t46 -134q0 -88 -62.5 -146t-157.5 -58q-71 0 -146 35l30 87q57 -26 100 -26q51 0 83.5 33.5t32.5 85.5q0 65 -36.5 103.5t-111.5 38.5h-45v86h46
q40 0 65 29t25 73q0 48 -36.5 79t-93.5 31q-63 0 -101 -42.5t-38 -114.5z" />
    <glyph glyph-name="Ygrave" unicode="&#x1ef2;" horiz-adv-x="681" 
d="M282 252l-255 456h130l185 -346l180 346h133l-253 -456v-252h-120v252zM288 804l-118 122h122l108 -122h-112z" />
    <glyph glyph-name="ygrave" unicode="&#x1ef3;" horiz-adv-x="583" 
d="M72 -209v88q39 -14 67 -14q13 0 24.5 3.5t19.5 7.5t17 15l13.5 16.5t12.5 21.5l10.5 21t10.5 25t9 23l-229 510h119l159 -375l138 375h113l-198 -520q-20 -53 -35.5 -84.5t-39 -65t-53.5 -49t-69 -15.5q-45 0 -89 17zM134 753h114l107 -150h-100z" />
    <glyph glyph-name="endash" unicode="&#x2013;" horiz-adv-x="666" 
d="M618 358v-94h-570v94h570z" />
    <glyph glyph-name="emdash" unicode="&#x2014;" horiz-adv-x="829" 
d="M29 358h770v-94h-770v94z" />
    <glyph glyph-name="quoteleft" unicode="&#x2018;" horiz-adv-x="235" 
d="M186 539q0 -28 -18.5 -46.5t-47.5 -18.5q-32 0 -52 25t-20 65q0 52 23 100.5t60 72.5l53 -28q-26 -20 -43 -49t-17 -56q27 0 44.5 -18t17.5 -47z" />
    <glyph glyph-name="quoteright" unicode="&#x2019;" horiz-adv-x="235" 
d="M49 664q0 28 18.5 46.5t46.5 18.5q33 0 53 -24.5t20 -65.5q0 -52 -23.5 -100.5t-59.5 -72.5l-54 28q27 20 44 49t17 56q-28 0 -45 18t-17 47z" />
    <glyph glyph-name="quotesinglbase" unicode="&#x201a;" horiz-adv-x="235" 
d="M49 52q0 28 18.5 46t46.5 18q33 0 53 -24.5t20 -65.5q0 -51 -23.5 -99.5t-59.5 -73.5l-54 29q27 19 44 48.5t17 55.5q-28 0 -45 18.5t-17 47.5z" />
    <glyph glyph-name="quotedblleft" unicode="&#x201c;" horiz-adv-x="427" 
d="M188 539q0 -28 -18.5 -46.5t-47.5 -18.5q-32 0 -52 25t-20 65q0 52 23.5 100.5t59.5 72.5l53 -28q-26 -20 -43 -49t-17 -56q28 0 45 -18t17 -47zM376 539q0 -28 -18.5 -46.5t-47.5 -18.5q-32 0 -52 25t-20 65q0 52 23 100.5t60 72.5l53 -28q-26 -20 -43 -49t-17 -56
q27 0 44.5 -18t17.5 -47z" />
    <glyph glyph-name="quotedblright" unicode="&#x201d;" horiz-adv-x="424" 
d="M51 667q0 28 18.5 46.5t47.5 18.5q32 0 52 -25t20 -65q0 -52 -23 -100.5t-60 -72.5l-53 28q26 20 43 49t17 56q-28 0 -45 18t-17 47zM239 667q0 28 18.5 46.5t46.5 18.5q33 0 52.5 -24.5t19.5 -65.5q0 -52 -23 -100.5t-59 -72.5l-54 28q26 20 43 49t17 56q-27 0 -44 18
t-17 47z" />
    <glyph glyph-name="quotedblbase" unicode="&#x201e;" horiz-adv-x="424" 
d="M51 52q0 29 18.5 47t47.5 18q32 0 52 -25t20 -65q0 -52 -23 -100t-60 -73l-53 29q26 19 43 48.5t17 55.5q-28 0 -45 18t-17 47zM239 52q0 29 18.5 47t46.5 18q33 0 53 -24.5t20 -65.5q0 -51 -23.5 -99.5t-59.5 -73.5l-54 29q27 18 43.5 47.5t16.5 56.5q-27 0 -44 18
t-17 47z" />
    <glyph glyph-name="bullet" unicode="&#x2022;" horiz-adv-x="262" 
d="M131 229q-37 0 -60 23t-23 58t23 58t60 23q36 0 59.5 -23t23.5 -58t-23.5 -58t-59.5 -23z" />
    <glyph glyph-name="ellipsis" unicode="&#x2026;" horiz-adv-x="616" 
d="M48 52q0 29 19 47.5t48 18.5t48 -18.5t19 -47.5t-19 -47.5t-48 -18.5t-48 18.5t-19 47.5zM241 52q0 29 19 47.5t48 18.5t48 -18.5t19 -47.5t-19 -47.5t-48 -18.5t-48 18.5t-19 47.5zM433 52q0 29 19 47.5t49 18.5q29 0 48 -18.5t19 -47.5t-19 -47.5t-48 -18.5
q-30 0 -49 18.5t-19 47.5z" />
    <glyph glyph-name="perthousand" unicode="&#x2030;" horiz-adv-x="1497" 
d="M573 194q0 91 57 148.5t148 57.5q92 0 149 -57t57 -149q0 -91 -57.5 -148t-148.5 -57t-148 57t-57 148zM882 194q0 47 -29 76t-75 29t-74.5 -29t-28.5 -76q0 -46 28.5 -74.5t74.5 -28.5t75 28.5t29 74.5zM1037 194q0 91 57.5 148.5t148.5 57.5t148.5 -57t57.5 -149
q0 -91 -57.5 -148t-148.5 -57t-148.5 57t-57.5 148zM1346 194q0 47 -28.5 76t-74.5 29t-75 -29t-29 -76q0 -46 29 -74.5t75 -28.5t74.5 28.5t28.5 74.5zM48 543q0 91 57 148.5t149 57.5t149 -57.5t57 -148.5t-57.5 -148t-148.5 -57t-148.5 57t-57.5 148zM357 543
q0 47 -28.5 75.5t-75.5 28.5q-46 0 -74.5 -29t-28.5 -75t28.5 -75t74.5 -29t75 29t29 75zM714 738h120l-515 -738h-120z" />
    <glyph glyph-name="guilsinglleft" unicode="&#x2039;" horiz-adv-x="391" 
d="M343 508l-197 -253l197 -255h-123l-193 255l193 253h123z" />
    <glyph glyph-name="guilsinglright" unicode="&#x203a;" horiz-adv-x="391" 
d="M364 255l-193 -255h-123l198 255l-198 253h123z" />
    <glyph glyph-name="lira" unicode="&#x20a4;" horiz-adv-x="628" 
d="M54 414h104v104q0 95 55 154.5t148 59.5t151.5 -58.5t67.5 -152.5l-102 -16q-6 61 -33.5 98t-75.5 37q-47 0 -73 -35t-26 -91v-100h239v-66h-239q0 -20 -2 -54h241v-67h-256q-21 -110 -101 -146h426v-81h-530v108q36 7 60.5 33.5t35.5 89.5h-90v63h102q2 16 2 54h-104v66
z" />
    <glyph glyph-name="Euro" unicode="&#x20ac;" horiz-adv-x="918" 
d="M747 246l114 -19q-24 -110 -120 -181t-220 -71q-135 0 -232.5 77t-126.5 203h-115v69h105q-1 10 -1 30q0 23 1 34h-105v69h116q31 125 127.5 200.5t230.5 75.5q124 0 220 -74.5t120 -188.5l-115 -14q-18 75 -81.5 124t-142.5 49q-84 0 -146.5 -46.5t-88.5 -125.5h261v-69
h-276q-1 -11 -1 -34q0 -21 1 -30h275v-69h-261q26 -80 89 -128t147 -48q77 0 141 47t84 120z" />
    <glyph glyph-name="trademark" unicode="&#x2122;" horiz-adv-x="1134" 
d="M164 150v477h-145v81h382v-81h-145v-477h-92zM963 572l-167 -422h-69l-167 422v-422h-89v558h124l166 -429l164 429h127v-558h-89v422z" />
    <glyph glyph-name="minus" unicode="&#x2212;" horiz-adv-x="506" 
d="M48 358h410v-94h-410v94z" />
    <glyph glyph-name="notequal" unicode="&#x2260;" horiz-adv-x="566" 
d="M518 391h-158l-58 -159h216v-93h-249l-66 -179h-87l66 179h-134v93h167l59 159h-226v93h259l56 154h87l-57 -154h125v-93z" />
    <glyph glyph-name="lessequal" unicode="&#x2264;" horiz-adv-x="456" 
d="M408 88v-88h-360v88h360zM48 377l360 146v-89l-274 -108l274 -109v-88l-360 145v103z" />
    <glyph glyph-name="greaterequal" unicode="&#x2265;" horiz-adv-x="456" 
d="M48 88h360v-88h-360v88zM48 217l274 109l-274 108v89l360 -146v-103l-360 -145v88z" />
    <glyph glyph-name="commaaccent" unicode="&#xf6c3;" horiz-adv-x="214" 
d="M98 -30q-22 0 -36 15.5t-14 39.5q0 25 15 40.5t40 15.5q28 0 45.5 -20t17.5 -52q0 -42 -21 -84t-53 -64l-38 23q44 39 44 86z" />
    <glyph glyph-name="uni0009" horiz-adv-x="30" 
d="M0 0z" />
    <glyph glyph-name="nonmarkingreturn.1" horiz-adv-x="333" 
d="M0 0z" />
    <glyph glyph-name="IJacute" horiz-adv-x="742" 
d="M211 708v-708h-120v708h120zM528 221v487h120v-492q0 -104 -63 -170t-161 -66q-69 0 -134 20v98q54 -16 105 -16q59 0 96 38t37 101zM327 926l-119 -122h-112l109 122h122zM755 926l-118 -122h-112l108 122h122z" />
    <glyph glyph-name="acute.case" horiz-adv-x="327" 
d="M160 616h-112l109 122h121z" />
    <glyph glyph-name="breve.case" horiz-adv-x="392" 
d="M268 738h76q0 -57 -41.5 -94t-106.5 -37q-64 0 -106 37t-42 94h76q1 -27 21 -44t51 -17q32 0 52.5 17t19.5 44z" />
    <glyph glyph-name="caron.case" horiz-adv-x="443" 
d="M302 738h93l-118 -131h-111l-118 131h94l79 -77z" />
    <glyph glyph-name="circumflex.case" horiz-adv-x="443" 
d="M48 590l118 131h111l118 -131h-93l-81 78l-79 -78h-94z" />
    <glyph glyph-name="dieresis.case" horiz-adv-x="456" 
d="M112 566q-28 0 -46 17.5t-18 45.5t18 45.5t46 17.5q29 0 47 -17.5t18 -45.5t-18 -45.5t-47 -17.5zM344 566q-28 0 -46 17.5t-18 45.5t18 45.5t46 17.5t46 -17.5t18 -45.5t-18 -45.5t-46 -17.5z" />
    <glyph glyph-name="dotaccent.case" horiz-adv-x="228" 
d="M114 569q-29 0 -47.5 16.5t-18.5 44.5q1 28 19 44.5t47 16.5t47.5 -16.5t18.5 -44.5t-18.5 -44.5t-47.5 -16.5z" />
    <glyph glyph-name="hungarumlaut.case" horiz-adv-x="471" 
d="M143 738h105l-113 -131h-87zM318 738h105l-121 -131h-86z" />
    <glyph glyph-name="grave.case" horiz-adv-x="327" 
d="M166 643l-118 122h122l108 -122h-112z" />
    <glyph glyph-name="uni00ED_j_uni0301" horiz-adv-x="521" 
d="M80 508h108v-508h-108v508zM346 -57v565h109v-569q0 -71 -41.5 -115t-108.5 -44q-58 0 -97 14v79q28 -8 64 -8q34 0 54 21.5t20 56.5zM183 738h113l-120 -133h-100zM444 738h114l-121 -133h-100z" />
    <glyph glyph-name="ring.case" horiz-adv-x="303" 
d="M152 540q-46 0 -75 27t-29 70q0 42 29 68.5t74 26.5q46 0 75 -27t29 -69t-28.5 -69t-74.5 -27zM152 675q-16 0 -27 -10.5t-11 -27.5t10.5 -28t27.5 -11t28 11t11 28q-1 17 -11.5 27.5t-27.5 10.5z" />
    <glyph glyph-name="tilde.case" horiz-adv-x="470" 
d="M102 622l-54 37q15 34 46.5 55.5t70.5 21.5t80 -28.5t61 -28.5q40 0 62 45l54 -36q-15 -34 -47.5 -55.5t-73.5 -21.5q-33 0 -58 14.5t-44 28.5t-36 14q-34 0 -61 -46z" />
    <glyph glyph-name="nonmarkingreturn.2" horiz-adv-x="309" 
d="M0 0z" />
    </font>
</defs>
</svg>
