<?xml version="1.0" standalone="no"?>
<!DOCTYPE svg PUBLIC "-//W3C//DTD SVG 1.1//EN" "http://www.w3.org/Graphics/SVG/1.1/DTD/svg11.dtd" >
<svg xmlns="http://www.w3.org/2000/svg" xmlns:xlink="http://www.w3.org/1999/xlink" version="1.1">
<metadata>
Created by FontForge 20170731 at Sun Aug 30 20:34:16 2020
 By Aleksey,,,
Copyright (c) 2017 by Alexander Slobzheninov. All rights reserved.
</metadata>
<defs>
<font id="Metropolitano-Bold" horiz-adv-x="622" >
  <font-face 
    font-family="Metropolitano"
    font-weight="700"
    font-stretch="normal"
    units-per-em="1000"
    panose-1="0 0 0 0 0 0 0 0 0 0"
    ascent="800"
    descent="-200"
    x-height="512"
    cap-height="712"
    bbox="-65 -346 1498 1074"
    underline-thickness="50"
    underline-position="-375"
    unicode-range="U+001D-F6C3"
  />
<missing-glyph horiz-adv-x="500" 
d="M0 0z" />
    <glyph glyph-name=".notdef" horiz-adv-x="500" 
d="M0 0z" />
    <glyph glyph-name="uni0000" horiz-adv-x="742" 
d="M661 712v-712h-580v712h580zM213 114h315v484h-315v-484z" />
    <glyph glyph-name="uni0000" horiz-adv-x="742" 
d="M661 712v-712h-580v712h580zM213 114h315v484h-315v-484z" />
    <glyph glyph-name="nonmarkingreturn" horiz-adv-x="333" 
 />
    <glyph glyph-name="uni001D" horiz-adv-x="0" 
d="M0 0z" />
    <glyph glyph-name="space" unicode=" " horiz-adv-x="306" 
d="M0 0z" />
    <glyph glyph-name="exclam" unicode="!" horiz-adv-x="313" 
d="M69 69q0 37 24.5 60.5t62.5 23.5t62.5 -23.5t24.5 -60.5t-24.5 -61t-62.5 -24t-62.5 24t-24.5 61zM234 520l-39 -283h-78l-38 283v192h155v-192z" />
    <glyph glyph-name="quotedbl" unicode="&#x22;" horiz-adv-x="388" 
d="M138 364h-78l-18 208v140h114v-140zM328 364h-78l-18 208v140h114v-140z" />
    <glyph glyph-name="numbersign" unicode="#" horiz-adv-x="934" 
d="M613 216l-57 -216h-128l57 216h-140l-58 -216h-128l59 216h-176v102h203l32 118h-185v102h212l55 204h128l-55 -204h140l54 204h128l-55 -204h193v-102h-220l-32 -118h202v-102h-229zM513 318l31 118h-140l-32 -118h141z" />
    <glyph glyph-name="dollar" unicode="$" horiz-adv-x="718" 
d="M437 -19v-102h-156v104q-103 21 -165.5 89t-62.5 162h151q0 -58 46.5 -95t118.5 -37q61 0 97 26.5t36 65.5q0 35 -32.5 55.5t-81.5 28.5q-50 7 -107 20t-106.5 31t-82 62t-32.5 110q0 90 60 151.5t161 78.5v89h156v-92q96 -21 154 -85.5t58 -152.5h-146q1 52 -41 86
t-107 34q-59 0 -95.5 -24.5t-36.5 -62.5q0 -29 24.5 -47t63.5 -27t87 -16q47 -8 94 -21t86 -34t63.5 -61.5t24.5 -98.5q0 -91 -62 -155.5t-167 -81.5z" />
    <glyph glyph-name="percent" unicode="%" horiz-adv-x="1066" 
d="M810 414q94 0 154 -60t60 -154t-60 -154t-154 -60t-153.5 60t-59.5 154t59.5 154t153.5 60zM810 289q-39 0 -63.5 -25t-24.5 -64q0 -40 24.5 -64.5t63.5 -24.5q40 0 64.5 24.5t24.5 64.5q0 39 -24.5 64t-64.5 25zM256 756q94 0 154 -60t60 -154t-60 -154t-154 -60
t-154 60t-60 154t60 154t154 60zM256 631q-39 0 -64 -24.5t-25 -64.5q0 -39 25 -64t64 -25q40 0 64.5 25t24.5 64q0 40 -24.5 64.5t-64.5 24.5zM859 742l-509 -742h-142l508 742h143z" />
    <glyph glyph-name="ampersand" unicode="&#x26;" horiz-adv-x="834" 
d="M793 0h-179l-65 58q-112 -83 -239 -83q-115 0 -186 58t-71 154q0 75 38 121t105 77q-55 70 -55 145q0 87 64 145t159 58q91 0 156.5 -53t76.5 -135l-134 -24q-5 41 -32 67.5t-64 26.5t-61.5 -24.5t-24.5 -64.5q0 -60 65 -119q128 -118 204 -186q36 49 61 119h138
q-33 -108 -110 -200q28 -27 154 -140zM335 97q65 0 122 43q-12 11 -87 79t-87 79q-75 -31 -75 -101q0 -44 36 -72t91 -28z" />
    <glyph glyph-name="quotesingle" unicode="'" horiz-adv-x="198" 
d="M138 364h-78l-18 208v140h114v-140z" />
    <glyph glyph-name="parenleft" unicode="(" horiz-adv-x="365" 
d="M48 281q0 137 43.5 263t115.5 198h140q-76 -82 -121.5 -206.5t-45.5 -254.5q0 -132 45 -256t122 -205h-140q-72 72 -115.5 198t-43.5 263z" />
    <glyph glyph-name="parenright" unicode=")" horiz-adv-x="365" 
d="M317 281q0 -137 -43.5 -263t-115.5 -198h-140q77 81 122 205t45 256q0 130 -45.5 254.5t-121.5 206.5h140q72 -72 115.5 -198t43.5 -263z" />
    <glyph glyph-name="asterisk" unicode="*" horiz-adv-x="516" 
d="M423 338l-120 76l6 -142h-102l6 142l-120 -76l-51 88l125 66l-125 66l51 88l120 -76l-6 142h102l-6 -142l120 76l51 -88l-125 -66l125 -66z" />
    <glyph glyph-name="plus" unicode="+" horiz-adv-x="554" 
d="M349 90h-143v165h-164v115h164v160h143v-160h163v-115h-163v-165z" />
    <glyph glyph-name="comma" unicode="," horiz-adv-x="261" 
d="M43 68q0 37 24 60.5t60 23.5q41 0 66.5 -32.5t25.5 -84.5q0 -55 -27 -110.5t-69 -86.5l-73 26q31 26 51 59.5t20 60.5q-34 0 -56 23.5t-22 60.5z" />
    <glyph glyph-name="hyphen" unicode="-" horiz-adv-x="494" 
d="M452 372v-123h-410v123h410z" />
    <glyph glyph-name="period" unicode="." horiz-adv-x="258" 
d="M42 69q0 37 24.5 60.5t62.5 23.5t62.5 -23.5t24.5 -60.5t-24.5 -61t-62.5 -24t-62.5 24t-24.5 61z" />
    <glyph glyph-name="slash" unicode="/" horiz-adv-x="480" 
d="M463 712l-311 -942h-134l311 942h134z" />
    <glyph glyph-name="zero" unicode="0" horiz-adv-x="764" 
d="M58 356q0 166 90.5 273.5t233.5 107.5t234 -107.5t91 -273.5t-91 -273.5t-234 -107.5t-233.5 107.5t-90.5 273.5zM222 356q0 -103 45 -170t115 -67t115.5 67t45.5 170t-45.5 170t-115.5 67t-115 -67t-45 -170z" />
    <glyph glyph-name="one" unicode="1" horiz-adv-x="463" 
d="M208 527l-172 -128v166l196 147h140v-712h-164v527z" />
    <glyph glyph-name="two" unicode="2" horiz-adv-x="659" 
d="M335 737q113 0 189.5 -66.5t76.5 -167.5q0 -131 -139 -223l-234 -153h358v-127h-529v153l297 204q92 63 92 135q0 48 -32 79t-81 31t-85 -39.5t-44 -99.5l-149 29q13 106 92.5 175.5t187.5 69.5z" />
    <glyph glyph-name="three" unicode="3" horiz-adv-x="657" 
d="M69 585v127h507v-94l-169 -177q83 -15 137.5 -78t54.5 -148q0 -104 -79.5 -172t-201.5 -68q-120 0 -198.5 72.5t-86.5 186.5l147 23q8 -65 45 -106t91 -41t89.5 33t35.5 84t-35.5 84t-89.5 33q-37 0 -59 -11l-37 95l159 157h-310z" />
    <glyph glyph-name="four" unicode="4" horiz-adv-x="667" 
d="M28 239l278 473h230v-439h83v-126h-83v-147h-168v147h-340v92zM367 573l-173 -300h174z" />
    <glyph glyph-name="five" unicode="5" horiz-adv-x="664" 
d="M134 712h424v-127h-301l-13 -126h114q114 0 184 -67t70 -171q0 -108 -78 -177t-199 -69q-120 0 -197.5 72.5t-85.5 187.5l147 22q5 -65 41.5 -106t91.5 -41q53 0 87.5 33t34.5 83q0 55 -37.5 89t-101.5 34h-213z" />
    <glyph glyph-name="six" unicode="6" horiz-adv-x="667" 
d="M116 415l213 297h187l-188 -255q31 9 65 9q102 0 167 -65t65 -166q0 -115 -82 -187.5t-212 -72.5q-127 0 -208 71t-81 180q0 89 74 189zM210 235q0 -55 35.5 -90t90.5 -34q53 0 87 34.5t34 89.5q0 53 -34 86.5t-87 33.5q-55 0 -90.5 -33.5t-35.5 -86.5z" />
    <glyph glyph-name="seven" unicode="7" horiz-adv-x="529" 
d="M262 0h-175l242 577h-313v135h501v-98z" />
    <glyph glyph-name="eight" unicode="8" horiz-adv-x="699" 
d="M350 740q114 0 188 -55.5t74 -142.5q0 -56 -31 -102.5t-79 -61.5q61 -13 100.5 -66t39.5 -119q0 -94 -82.5 -154.5t-209.5 -60.5t-209.5 60.5t-82.5 154.5q0 66 39.5 119t99.5 66q-47 15 -78 61t-31 102q0 87 74 143t188 56zM350 312q-52 0 -85 -28t-33 -72t33 -72.5
t85 -28.5t85 28.5t33 72.5q0 43 -33.5 71.5t-84.5 28.5zM350 607q-46 0 -76.5 -25.5t-30.5 -64.5q0 -40 30 -65.5t77 -25.5q46 0 76 25.5t30 65.5q0 39 -30 64.5t-76 25.5z" />
    <glyph glyph-name="nine" unicode="9" horiz-adv-x="667" 
d="M552 297l-214 -297h-186l188 255q-32 -9 -65 -9q-103 0 -168 65t-65 166q0 115 82.5 187.5t212.5 72.5q127 0 207.5 -71t80.5 -180q0 -91 -73 -189zM457 477q0 55 -35.5 90t-90.5 34q-53 0 -87 -35t-34 -89q0 -52 34 -86t87 -34q56 0 91 33.5t35 86.5z" />
    <glyph glyph-name="colon" unicode=":" horiz-adv-x="258" 
d="M42 69q0 37 24.5 60.5t62.5 23.5t62.5 -23.5t24.5 -60.5t-24.5 -61t-62.5 -24t-62.5 24t-24.5 61zM42 431q0 37 24.5 61t62.5 24t62.5 -24t24.5 -61t-24.5 -60.5t-62.5 -23.5t-62.5 23.5t-24.5 60.5z" />
    <glyph glyph-name="semicolon" unicode=";" horiz-adv-x="261" 
d="M42 431q0 37 24.5 61t62.5 24t62.5 -24t24.5 -61t-24.5 -60.5t-62.5 -23.5t-62.5 23.5t-24.5 60.5zM43 68q0 37 24 60.5t60 23.5q41 0 66.5 -32.5t25.5 -84.5q0 -55 -27 -110.5t-69 -86.5l-73 26q31 26 51 59.5t20 60.5q-34 0 -56 23.5t-22 60.5z" />
    <glyph glyph-name="less" unicode="&#x3c;" horiz-adv-x="445" 
d="M398 125v-130l-380 193v136l380 193v-130l-274 -131z" />
    <glyph glyph-name="equal" unicode="=" horiz-adv-x="554" 
d="M42 241h470v-119h-470v119zM42 496h470v-119h-470v119z" />
    <glyph glyph-name="greater" unicode="&#x3e;" horiz-adv-x="445" 
d="M48 517l380 -193v-136l-380 -193v130l273 131l-273 131v130z" />
    <glyph glyph-name="question" unicode="?" horiz-adv-x="637" 
d="M228 68q0 37 24.5 61t62.5 24t62.5 -24t24.5 -61t-24.5 -61t-62.5 -24t-62.5 24t-24.5 61zM384 208h-138q0 76 24 121t76 81q26 18 39.5 28.5t26.5 31t13 42.5q0 40 -29.5 67t-72.5 27q-49 0 -83 -36.5t-41 -93.5l-151 28q11 102 88.5 167.5t192.5 65.5q112 0 186 -60
t74 -153q0 -61 -31.5 -103.5t-90.5 -76.5q-44 -25 -63.5 -54.5t-19.5 -81.5z" />
    <glyph glyph-name="at" unicode="@" horiz-adv-x="1036" 
d="M166 260q0 -142 84 -234.5t214 -92.5q86 0 151 37v-109q-64 -35 -151 -35q-178 0 -297 123t-119 311q0 189 132.5 312t337.5 123t337.5 -123t132.5 -312q0 -119 -52 -191.5t-148 -72.5q-59 0 -99.5 33.5t-44.5 85.5q-21 -32 -68 -53t-100 -21q-85 0 -137.5 61.5
t-52.5 157.5t65.5 158t166.5 62q103 0 167.5 -61.5t64.5 -159.5v-104q0 -30 12 -50.5t37 -20.5q34 0 52 48t18 128q0 146 -99.5 241t-251.5 95q-153 0 -252.5 -95t-99.5 -241zM518 368q-46 0 -75 -30.5t-29 -77.5t29 -76.5t75 -29.5q45 0 74.5 30t29.5 76q0 47 -29.5 77.5
t-74.5 30.5z" />
    <glyph glyph-name="A" unicode="A" horiz-adv-x="757" 
d="M501 712l238 -712h-176l-42 129h-286l-40 -129h-177l239 712h244zM379 568l-108 -318h216z" />
    <glyph glyph-name="B" unicode="B" horiz-adv-x="755" 
d="M438 0h-357v712h345q111 0 181.5 -55.5t70.5 -140.5q0 -56 -28.5 -97.5t-74.5 -54.5q55 -14 89 -60t34 -109q0 -87 -72.5 -141t-187.5 -54zM404 306h-155v-179h155q53 0 87.5 25t34.5 63q0 40 -34.5 65.5t-87.5 25.5zM396 585h-147v-165h147q48 0 79 23t31 59
q0 37 -31 60t-79 23z" />
    <glyph glyph-name="C" unicode="C" horiz-adv-x="830" 
d="M625 265l157 -20q-18 -118 -118 -194t-236 -76q-165 0 -272.5 107.5t-107.5 273.5t107.5 273.5t272.5 107.5q135 0 234.5 -78t118.5 -199l-157 -18q-15 66 -69 108.5t-123 42.5q-95 0 -155.5 -66.5t-60.5 -170.5t60.5 -170.5t155.5 -66.5q67 0 121.5 41.5t71.5 104.5z
" />
    <glyph glyph-name="D" unicode="D" horiz-adv-x="806" 
d="M81 0v712h267q185 0 297.5 -98t112.5 -258t-112.5 -258t-297.5 -98h-267zM591 356q0 103 -67 164t-176 61h-104v-450h104q109 0 176 61t67 164z" />
    <glyph glyph-name="E" unicode="E" horiz-adv-x="638" 
d="M243 135h348v-135h-510v712h500v-135h-338v-153h298v-118h-298v-171z" />
    <glyph glyph-name="F" unicode="F" horiz-adv-x="598" 
d="M507 255h-258v-255h-168v712h485v-144h-317v-185h258v-128z" />
    <glyph glyph-name="G" unicode="G" horiz-adv-x="868" 
d="M656 294h-220v110h382q2 -26 2 -50q0 -154 -91 -258q-107 -121 -287 -121q-172 0 -283 107.5t-111 273.5t111 273.5t283 107.5q122 0 216 -63t120 -161l-154 -34q-17 50 -68.5 82t-114.5 32q-98 0 -161.5 -67t-63.5 -170t65 -170t165 -67q85 0 145 50.5t65 124.5z" />
    <glyph glyph-name="H" unicode="H" horiz-adv-x="790" 
d="M248 0h-168v712h168v-275h294v275h168v-712h-168v301h-294v-301z" />
    <glyph glyph-name="I" unicode="I" horiz-adv-x="329" 
d="M249 712v-712h-168v712h168z" />
    <glyph glyph-name="J" unicode="J" horiz-adv-x="495" 
d="M251 241v471h168v-488q0 -108 -68 -176t-172 -68q-78 0 -143 20v129q52 -14 96 -14q53 0 86 34.5t33 91.5z" />
    <glyph glyph-name="K" unicode="K" horiz-adv-x="707" 
d="M81 712h168v-290l237 290h203l-291 -342l297 -370h-204l-242 314v-314h-168v712z" />
    <glyph glyph-name="L" unicode="L" horiz-adv-x="583" 
d="M547 0h-466v712h168v-568h298v-144z" />
    <glyph glyph-name="M" unicode="M" horiz-adv-x="1009" 
d="M245 0h-164v712h222l201 -521l199 521h225v-712h-164v509l-197 -509h-126l-196 509v-509z" />
    <glyph glyph-name="N" unicode="N" horiz-adv-x="792" 
d="M269 712l283 -509v509h160v-712h-188l-284 508v-508h-159v712h188z" />
    <glyph glyph-name="O" unicode="O" horiz-adv-x="884" 
d="M48 356q0 169 109.5 275t284.5 106t284.5 -106t109.5 -275t-109.5 -275t-284.5 -106t-284.5 105.5t-109.5 275.5zM216 356q0 -104 63 -170t163 -67q100 0 163 66.5t63 170.5t-63 170.5t-163 66.5t-163 -66.5t-63 -170.5z" />
    <glyph glyph-name="P" unicode="P" horiz-adv-x="719" 
d="M399 221h-156v-221h-162v712h319q124 0 202.5 -68.5t78.5 -177.5q0 -108 -79 -176.5t-203 -68.5zM369 585h-126v-237h126q63 0 103.5 33t40.5 85q0 53 -40 86t-104 33z" />
    <glyph glyph-name="Q" unicode="Q" horiz-adv-x="884" 
d="M48 356q0 169 109.5 275t284.5 106t284.5 -106t109.5 -275q0 -97 -38.5 -176t-107.5 -131l141 -189h-165l-100 133q-57 -18 -124 -18q-175 0 -284.5 105.5t-109.5 275.5zM216 356q0 -104 63 -170t163 -67q99 0 162.5 66.5t63.5 170.5t-63 170.5t-163 66.5t-163 -66.5
t-63 -170.5z" />
    <glyph glyph-name="R" unicode="R" horiz-adv-x="770" 
d="M81 0v712h345q124 0 202 -66t78 -171q0 -71 -43 -125.5t-113 -77.5l172 -272h-188l-140 249h-145v-249h-168zM399 585h-150v-217h150q60 0 99.5 30t39.5 77q0 51 -39 80.5t-100 29.5z" />
    <glyph glyph-name="S" unicode="S" horiz-adv-x="718" 
d="M364 -25q-136 0 -223.5 73t-87.5 186h151q0 -58 46.5 -95t118.5 -37q61 0 97 26.5t36 65.5q0 35 -32.5 55.5t-81.5 28.5q-50 7 -107 20t-106.5 31t-82 62t-32.5 110q0 105 81 170.5t210 65.5q130 0 214 -70t84 -177h-146q1 52 -41 86t-107 34q-59 0 -95.5 -24.5
t-36.5 -62.5q0 -29 24.5 -47t63.5 -27t87 -16q47 -8 94 -21t86 -34t63.5 -61.5t24.5 -98.5q0 -107 -83.5 -175t-218.5 -68z" />
    <glyph glyph-name="T" unicode="T" horiz-adv-x="629" 
d="M230 572h-214v140h596v-140h-214v-572h-168v572z" />
    <glyph glyph-name="U" unicode="U" horiz-adv-x="785" 
d="M543 299v413h168v-417q0 -142 -88.5 -231t-229.5 -89q-142 0 -231 89t-89 231v417h169v-413q0 -73 41 -126t110 -54q67 0 108.5 50.5t41.5 129.5z" />
    <glyph glyph-name="V" unicode="V" horiz-adv-x="749" 
d="M193 712l182 -588l181 588h175l-228 -712h-256l-229 712h175z" />
    <glyph glyph-name="W" unicode="W" horiz-adv-x="1181" 
d="M826 138l151 574h170l-193 -712h-242l-121 503l-121 -503h-243l-194 712h171l151 -574l144 574h186z" />
    <glyph glyph-name="X" unicode="X" horiz-adv-x="798" 
d="M265 376l-231 336h195l167 -247l171 247h198l-242 -336l248 -376h-198l-177 282l-173 -282h-195z" />
    <glyph glyph-name="Y" unicode="Y" horiz-adv-x="703" 
d="M269 248l-252 464h178l158 -316l151 316h181l-248 -464v-248h-168v248z" />
    <glyph glyph-name="Z" unicode="Z" horiz-adv-x="670" 
d="M46 110l350 470h-340v132h558v-110l-344 -470h354v-132h-578v110z" />
    <glyph glyph-name="bracketleft" unicode="[" horiz-adv-x="437" 
d="M225 640v-718h194v-102h-338v922h338v-102h-194z" />
    <glyph glyph-name="backslash" unicode="\" horiz-adv-x="481" 
d="M18 712h134l311 -942h-134z" />
    <glyph glyph-name="bracketright" unicode="]" horiz-adv-x="436" 
d="M356 -180h-338v102h194v718h-194v102h338v-922z" />
    <glyph glyph-name="asciicircum" unicode="^" horiz-adv-x="599" 
d="M182 400h-140l183 312h149l183 -312h-139l-119 219z" />
    <glyph glyph-name="underscore" unicode="_" horiz-adv-x="500" 
d="M0 0h500v-107h-500v107z" />
    <glyph glyph-name="grave" unicode="`" horiz-adv-x="335" 
d="M42 753h142l109 -160h-118z" />
    <glyph glyph-name="a" unicode="a" horiz-adv-x="591" 
d="M420.5 512.5q52.5 -27.5 82 -78t29.5 -119.5v-315h-144v53q-28 -32 -69.5 -48.5t-85.5 -16.5q-56 0 -101.5 21t-71.5 59.5t-26 87.5q0 51 29 91t79 62.5t111 22.5q66 0 135 -27v10q0 46 -30 75.5t-92 29.5q-63 0 -136 -37l-50 99q114 58 220 58q68 0 120.5 -27.5z
M346 111q35 20 42 55v49q-53 20 -114 20q-40 0 -68 -21.5t-28 -53.5q0 -31 25 -50t63 -19q45 0 80 20z" />
    <glyph glyph-name="b" unicode="b" horiz-adv-x="669" 
d="M65 742h150v-292q63 82 169 82q107 0 175 -77t68 -199q0 -121 -68 -198.5t-175 -77.5t-171 82v-62h-148v742zM477 256q0 61 -38 101t-96 40t-96 -40t-38 -101t38 -101t96 -40t96 40t38 101z" />
    <glyph glyph-name="c" unicode="c" horiz-adv-x="624" 
d="M583 329l-140 -18q-10 41 -44 68t-77 27q-55 0 -92.5 -42.5t-37.5 -107.5t37 -107.5t93 -42.5q44 0 77.5 26.5t44.5 68.5l140 -18q-14 -88 -89 -145.5t-174 -57.5q-121 0 -200 78t-79 198t79 198t200 78q101 0 175.5 -57.5t86.5 -145.5z" />
    <glyph glyph-name="d" unicode="d" horiz-adv-x="669" 
d="M454 450v292h150v-742h-148v62q-64 -82 -171 -82t-175 77.5t-68 198.5t68 198.5t175 77.5q106 0 169 -82zM192 256q0 -61 38 -101t96 -40t96 40t38 101t-38 101t-96 40t-96 -40t-38 -101z" />
    <glyph glyph-name="e" unicode="e" horiz-adv-x="642" 
d="M328 95q40 0 72 19t46 49l131 -29q-20 -67 -91.5 -110.5t-161.5 -43.5q-124 0 -203 78t-79 202q0 120 79 196t203 76q123 0 199.5 -76t76.5 -198q0 -34 -2 -45l-401 1q10 -54 45 -86.5t86 -32.5zM196 304h252q-7 49 -42 81t-85 32q-49 0 -82 -30.5t-43 -82.5z" />
    <glyph glyph-name="f" unicode="f" horiz-adv-x="411" 
d="M379 746v-123q-28 7 -50 7q-29 0 -47 -17.5t-18 -45.5v-55h115v-114h-115v-398h-150v398h-72v114h72v64q0 84 45.5 135t119.5 51q52 0 100 -16z" />
    <glyph glyph-name="g" unicode="g" horiz-adv-x="669" 
d="M66 -63l134 21q12 -39 46.5 -64t77.5 -25q58 0 94 37.5t36 103.5v61q-64 -78 -169 -78q-106 0 -174.5 73.5t-68.5 189.5q0 120 68.5 197.5t174.5 77.5t170 -80v61h149v-506q0 -118 -75.5 -187t-198.5 -69q-100 0 -173.5 52.5t-90.5 134.5zM326 116q58 0 96 39.5t38 100.5
q0 62 -38 103t-96 41t-96 -41t-38 -103q0 -61 38 -100.5t96 -39.5z" />
    <glyph glyph-name="h" unicode="h" 
d="M372 532q87 0 141 -58t54 -150v-324h-150v294q0 47 -26 76.5t-70 29.5t-75 -32t-31 -80v-288h-150v742h150v-288q25 37 67.5 57.5t89.5 20.5z" />
    <glyph glyph-name="i" unicode="i" horiz-adv-x="304" 
d="M227 512v-512h-150v512h150zM65 665q0 37 24.5 60.5t62.5 23.5t62.5 -23.5t24.5 -60.5t-24.5 -61t-62.5 -24t-62.5 24t-24.5 61z" />
    <glyph glyph-name="j" unicode="j" horiz-adv-x="306" 
d="M80 -33v545h150v-564q0 -81 -47 -130.5t-124 -49.5q-65 0 -111 16v119q24 -7 61 -7q32 0 51.5 19.5t19.5 51.5zM68 665q0 37 24.5 60.5t62.5 23.5t62.5 -23.5t24.5 -60.5t-24.5 -61t-62.5 -24t-62.5 24t-24.5 61z" />
    <glyph glyph-name="k" unicode="k" horiz-adv-x="588" 
d="M65 742h150v-419l173 189h182l-222 -240l228 -272h-182l-179 220v-220h-150v742z" />
    <glyph glyph-name="l" unicode="l" horiz-adv-x="278" 
d="M214 742v-742h-150v742h150z" />
    <glyph glyph-name="m" unicode="m" horiz-adv-x="948" 
d="M65 0v512h144v-61q50 81 150 81q55 0 99 -24.5t66 -66.5q25 42 71.5 66t100.5 24q87 0 142 -58.5t55 -150.5v-322h-150v292q0 46 -26.5 76.5t-68.5 31.5q-43 0 -70 -30t-27 -78v-292h-150v292q0 49 -25 78.5t-67 29.5q-43 0 -68.5 -29.5t-25.5 -78.5v-292h-150z" />
    <glyph glyph-name="n" unicode="n" 
d="M373 532q86 0 140 -59.5t54 -152.5v-320h-150v294q0 47 -25.5 76.5t-69.5 29.5q-45 0 -76 -32t-31 -80v-288h-150v512h146v-69q27 42 70 65.5t92 23.5z" />
    <glyph glyph-name="o" unicode="o" horiz-adv-x="651" 
d="M610 256q0 -122 -79 -199t-206 -77q-126 0 -205 77t-79 199t79 199t205 77q127 0 206 -77t79 -199zM460 256q0 63 -38 103.5t-97 40.5t-96.5 -40.5t-37.5 -103.5t37.5 -103.5t96.5 -40.5t97 40.5t38 103.5z" />
    <glyph glyph-name="p" unicode="p" horiz-adv-x="669" 
d="M215 62v-292h-150v742h148v-62q64 82 171 82t175 -77.5t68 -198.5q0 -122 -68 -199t-175 -77q-106 0 -169 82zM477 256q0 61 -38 101t-96 40t-96 -40t-38 -101t38 -101t96 -40t96 40t38 101z" />
    <glyph glyph-name="q" unicode="q" horiz-adv-x="669" 
d="M604 -230h-150v292q-63 -82 -169 -82q-107 0 -175 77.5t-68 198.5t68 198.5t175 77.5t171 -82v62h148v-742zM192 256q0 -61 38 -101t96 -40t96 40t38 101t-38 101t-96 40t-96 -40t-38 -101z" />
    <glyph glyph-name="r" unicode="r" horiz-adv-x="429" 
d="M346 531q28 0 61 -13v-133q-46 19 -84 19q-48 0 -78 -37t-30 -95v-272h-150v512h144v-65q23 39 59 61.5t78 22.5z" />
    <glyph glyph-name="s" unicode="s" horiz-adv-x="564" 
d="M283 -22q-104 0 -171 54.5t-67 138.5h127q0 -38 32 -62.5t81 -24.5q41 0 68 17.5t27 43.5q0 28 -34 41t-82 19q-49 5 -97.5 16t-82.5 46t-34 95q1 75 63.5 123.5t156.5 48.5q103 0 169.5 -50t67.5 -127h-132q-1 31 -30.5 51t-74.5 20q-36 0 -60 -16t-24 -41
q0 -23 24.5 -36.5t62.5 -18.5q37 -5 81 -14.5t81.5 -22t63 -43t25.5 -75.5q0 -80 -67.5 -131.5t-173.5 -51.5z" />
    <glyph glyph-name="t" unicode="t" horiz-adv-x="417" 
d="M104 166v232h-72v114h79l17 129h126v-129h116v-114h-116v-217q0 -33 18.5 -52.5t49.5 -19.5q23 0 53 7l-1 -120q-48 -16 -102 -16q-76 0 -122 52t-46 134z" />
    <glyph glyph-name="u" unicode="u" 
d="M248 -20q-86 0 -139.5 59.5t-53.5 152.5v320h150v-294q0 -47 25.5 -76.5t69.5 -29.5q45 0 76 32t31 80v288h150v-512h-146v69q-27 -42 -70 -65.5t-93 -23.5z" />
    <glyph glyph-name="v" unicode="v" horiz-adv-x="607" 
d="M197 0l-179 512h160l126 -398l125 398h161l-179 -512h-214z" />
    <glyph glyph-name="w" unicode="w" horiz-adv-x="919" 
d="M183 0l-155 512h156l105 -362l100 362h140l107 -365l104 365h151l-156 -512h-190l-86 337l-86 -337h-190z" />
    <glyph glyph-name="x" unicode="x" horiz-adv-x="632" 
d="M210 0h-182l175 266l-167 246h178l102 -163l102 163h178l-167 -246l175 -266h-182l-106 179z" />
    <glyph glyph-name="y" unicode="y" horiz-adv-x="608" 
d="M87 -213v111q31 -11 61 -11q44 0 68 27t44 81l-242 517h164l139 -330l114 330h156l-198 -530q-39 -107 -86 -160t-121 -53q-53 0 -99 18z" />
    <glyph glyph-name="z" unicode="z" horiz-adv-x="569" 
d="M307 389h-251v123h457v-98l-252 -291h262v-123h-477v98z" />
    <glyph glyph-name="braceleft" unicode="{" horiz-adv-x="415" 
d="M338 -78h60v-102h-149q-56 0 -90.5 34.5t-34.5 90.5v207q0 29 -18 47.5t-48 18.5h-10v136h10q30 0 48 18.5t18 47.5v197q0 56 34.5 90.5t90.5 34.5h149v-102h-60q-32 0 -51 -19t-19 -51v-164q0 -50 -31 -83t-81 -36l-10 -1l10 -1q50 -3 81 -36t31 -83v-174q0 -32 19 -51
t51 -19z" />
    <glyph glyph-name="bar" unicode="|" horiz-adv-x="295" 
d="M81 742h134v-972h-134v972z" />
    <glyph glyph-name="braceright" unicode="}" horiz-adv-x="415" 
d="M167 -180h-149v102h60q32 0 51 19t19 51v174q0 50 30.5 83t80.5 36l10 1l-10 1q-50 3 -80.5 36t-30.5 83v164q0 32 -19 51t-51 19h-60v102h149q56 0 90.5 -34.5t34.5 -90.5v-197q0 -29 18 -47.5t48 -18.5h10v-136h-10q-30 0 -48 -18.5t-18 -47.5v-207q0 -56 -34.5 -90.5
t-90.5 -34.5z" />
    <glyph glyph-name="asciitilde" unicode="~" horiz-adv-x="654" 
d="M203 420q40 0 89.5 -27t95.5 -54q45 -27 75 -27q61 0 103 56l46 -94q-30 -39 -74.5 -63.5t-83.5 -24.5q-40 0 -90.5 27t-96.5 54q-47 27 -79 27q-54 0 -100 -56l-46 94q30 39 75.5 63.5t85.5 24.5z" />
    <glyph glyph-name="exclamdown" unicode="&#xa1;" horiz-adv-x="311" 
d="M77 -38l39 283h79l38 -283v-192h-156v192zM243 413q0 -37 -24.5 -60.5t-62.5 -23.5t-62.5 23.5t-24.5 60.5t24.5 61t62.5 24t62.5 -24t24.5 -61z" />
    <glyph glyph-name="cent" unicode="&#xa2;" horiz-adv-x="624" 
d="M380 -14v-100h-133v103q-92 22 -148.5 94.5t-56.5 172.5t56.5 172.5t148.5 94.5v91h133v-88q81 -16 137 -69.5t66 -127.5l-140 -18q-10 41 -44 68t-77 27q-55 0 -92.5 -42.5t-37.5 -107.5t37 -107.5t93 -42.5q44 0 77.5 26.5t44.5 68.5l140 -18q-12 -74 -68 -127.5
t-136 -69.5z" />
    <glyph glyph-name="sterling" unicode="&#xa3;" horiz-adv-x="653" 
d="M386 611q-37 0 -57.5 -27.5t-20.5 -72.5v-105h222v-101h-230q-9 -78 -38.5 -119t-79.5 -63h428v-123h-568v143q48 12 75 47t31 115h-96v101h100v110q0 98 60.5 159.5t162.5 61.5q100 0 163.5 -59.5t72.5 -154.5l-135 -22q-5 50 -28 80t-62 30z" />
    <glyph glyph-name="currency" unicode="&#xa4;" horiz-adv-x="736" 
d="M524 477l75 78l88 -75l-77 -80q43 -61 43 -144q0 -84 -43 -145l79 -81l-90 -74l-75 78q-68 -38 -155 -38q-89 0 -153 38l-81 -78l-87 74l79 81q-42 62 -42 145q0 82 42 144l-75 80l88 76l75 -78q68 38 154 38q88 0 155 -39zM503 256q0 65 -37.5 105.5t-96.5 40.5
t-96.5 -41t-37.5 -105q0 -65 37.5 -105.5t96.5 -40.5t96.5 40.5t37.5 105.5z" />
    <glyph glyph-name="yen" unicode="&#xa5;" horiz-adv-x="743" 
d="M254 305l-226 407h183l163 -328l155 328h186l-223 -407h170v-83h-204v-58h204v-84h-204v-80h-168v80h-207v84h207v58h-207v83h171z" />
    <glyph glyph-name="section" unicode="&#xa7;" horiz-adv-x="638" 
d="M316 705q89 0 154.5 -45.5t83.5 -122.5l-133 -17q-6 37 -36.5 60.5t-72.5 23.5q-40 0 -66 -16.5t-26 -41.5q0 -18 10.5 -31.5t35.5 -23.5t44 -15t57 -13q40 -8 63 -13.5t57 -18.5t52 -27.5t32 -38.5t14 -55q0 -48 -34.5 -84.5t-89.5 -49.5q42 -15 67.5 -52t25.5 -85
q0 -85 -68 -139.5t-174 -54.5q-91 0 -157 48.5t-80 123.5l133 18q7 -37 38.5 -61t72.5 -24t67 17t26 46q0 21 -11 36t-36 25t-44.5 15t-57.5 12q-36 7 -60.5 13t-55.5 18.5t-49.5 27.5t-31.5 39.5t-13 55.5q0 47 31 83.5t81 48.5q-37 16 -60 52.5t-23 83.5q0 80 65.5 131
t168.5 51zM273 356q-35 -3 -59 -22t-24 -41q0 -33 30.5 -48.5t79.5 -23.5q5 -1 27 -5q21 -5 26 -6q39 3 64 21.5t25 43.5q0 33 -29.5 47t-76.5 20q-3 1 -29.5 7t-33.5 7z" />
    <glyph glyph-name="dieresis" unicode="&#xa8;" horiz-adv-x="500" 
d="M120 570q-34 0 -56 21.5t-22 53.5q0 33 22 54.5t56 21.5t56.5 -21.5t22.5 -54.5q0 -32 -22.5 -53.5t-56.5 -21.5zM380 570q-34 0 -56 21.5t-22 53.5q0 33 22 54.5t56 21.5t56 -21.5t22 -54.5q0 -32 -22 -53.5t-56 -21.5z" />
    <glyph glyph-name="copyright" unicode="&#xa9;" horiz-adv-x="999" 
d="M48 259q0 192 125.5 313t326.5 121t326.5 -120.5t125.5 -313.5q0 -196 -125.5 -318t-326.5 -122t-326.5 122t-125.5 318zM150 259q0 -155 97 -252.5t253 -97.5q155 0 252.5 97.5t97.5 252.5q0 151 -97.5 247.5t-252.5 96.5t-252.5 -96.5t-97.5 -247.5zM754 328l-101 -16
q-12 51 -53 84.5t-93 33.5q-67 0 -111 -49t-44 -125t44 -125t112 -49q54 0 96.5 35t53.5 89l96 -19q-12 -88 -82 -144.5t-165 -56.5q-117 0 -193 75.5t-76 194.5q0 118 75.5 194t192.5 76q94 0 164 -56t84 -142z" />
    <glyph glyph-name="guillemotleft" unicode="&#xab;" horiz-adv-x="701" 
d="M383 512l-187 -252l187 -260h-159l-182 260l182 252h159zM653 512l-187 -252l187 -260h-159l-182 260l182 252h159z" />
    <glyph glyph-name="logicalnot" unicode="&#xac;" horiz-adv-x="644" 
d="M484 70v186h-442v120h550v-306h-108z" />
    <glyph glyph-name="registered" unicode="&#xae;" horiz-adv-x="999" 
d="M48 259q0 192 125.5 313t326.5 121t326.5 -120.5t125.5 -313.5q0 -196 -125.5 -318t-326.5 -122t-326.5 122t-125.5 318zM850 259q0 151 -97.5 247.5t-252.5 96.5t-252.5 -96.5t-97.5 -247.5q0 -155 97 -252.5t253 -97.5q155 0 252.5 97.5t97.5 252.5zM417 10h-107v502
h233q81 0 131.5 -43t50.5 -111q0 -53 -31.5 -91t-85.5 -52l111 -205h-122l-93 194h-87v-194zM615 357q0 38 -25 59.5t-69 21.5h-104v-166h107q40 0 65.5 23t25.5 62z" />
    <glyph glyph-name="macron" unicode="&#xaf;" horiz-adv-x="422" 
d="M380 692v-91h-338v91h338z" />
    <glyph glyph-name="degree" unicode="&#xb0;" horiz-adv-x="528" 
d="M264 333q-100 0 -161 58t-61 152t61 152t161 58t161 -58t61 -152t-61 -152t-161 -58zM264 657q-51 0 -82.5 -31.5t-31.5 -82.5t31.5 -82.5t82.5 -31.5t82.5 31.5t31.5 82.5t-31.5 82.5t-82.5 31.5z" />
    <glyph glyph-name="plusminus" unicode="&#xb1;" horiz-adv-x="554" 
d="M42 107h470v-107h-470v107zM340 192h-126v108h-172v108h172v104h126v-104h172v-108h-172v-108z" />
    <glyph glyph-name="acute" unicode="&#xb4;" horiz-adv-x="343" 
d="M293 753l-134 -160h-117l108 160h143z" />
    <glyph glyph-name="paragraph" unicode="&#xb6;" horiz-adv-x="797" 
d="M726 604h-96v-816h-132v816h-98v-816h-132v516q-103 0 -165 56t-61 148t63 148t163 56h458v-108z" />
    <glyph glyph-name="periodcentered" unicode="&#xb7;" horiz-adv-x="258" 
d="M129 216q-38 0 -62.5 23.5t-24.5 60.5t24.5 60.5t62.5 23.5t62.5 -23.5t24.5 -60.5t-24.5 -60.5t-62.5 -23.5z" />
    <glyph glyph-name="cedilla" unicode="&#xb8;" horiz-adv-x="317" 
d="M130 -120h-52l22 140h84l-15 -93q48 0 77 -27t29 -71t-33.5 -71.5t-88.5 -27.5q-40 0 -70.5 20t-40.5 52l54 29q6 -16 19.5 -25.5t29.5 -9.5q19 0 30 11t11 29q0 19 -15.5 31.5t-40.5 12.5z" />
    <glyph glyph-name="guillemotright" unicode="&#xbb;" horiz-adv-x="700" 
d="M388 260l-182 -260h-159l188 260l-188 252h159zM658 260l-182 -260h-159l188 260l-188 252h159z" />
    <glyph glyph-name="questiondown" unicode="&#xbf;" horiz-adv-x="637" 
d="M253 292h138q0 -76 -24 -120.5t-77 -80.5q-28 -20 -39.5 -29.5t-25 -30t-13.5 -42.5q0 -40 29 -67t73 -27q50 0 83.5 36t40.5 94l151 -28q-11 -103 -88.5 -168t-192.5 -65q-112 0 -186 60t-74 153q0 62 32 104t90 75q44 25 63.5 54.5t19.5 81.5zM411 432
q0 -37 -24.5 -60.5t-62.5 -23.5t-62.5 23.5t-24.5 60.5t24.5 61t62.5 24t62.5 -24t24.5 -61z" />
    <glyph glyph-name="Agrave" unicode="&#xc0;" horiz-adv-x="757" 
d="M501 712l238 -712h-176l-42 129h-286l-40 -129h-177l239 712h244zM379 568l-108 -318h216zM312 799l-132 135h148l112 -135h-128z" />
    <glyph glyph-name="Aacute" unicode="&#xc1;" horiz-adv-x="757" 
d="M501 712l238 -712h-176l-42 129h-286l-40 -129h-177l239 712h244zM379 568l-108 -318h216zM567 934l-132 -135h-128l111 135h149z" />
    <glyph glyph-name="Acircumflex" unicode="&#xc2;" horiz-adv-x="757" 
d="M501 712l238 -712h-176l-42 129h-286l-40 -129h-177l239 712h244zM379 568l-108 -318h216zM307 794h-110l109 140h148l109 -141l-109 1l-74 78z" />
    <glyph glyph-name="Atilde" unicode="&#xc3;" horiz-adv-x="757" 
d="M501 712l238 -712h-176l-42 129h-286l-40 -129h-177l239 712h244zM379 568l-108 -318h216zM253 828l-71 42q15 39 50.5 64.5t77.5 25.5q39 0 83 -27q43 -28 60 -28q36 0 57 43l72 -42q-15 -38 -52 -64t-81 -26q-43 0 -84 27q-42 27 -57 27q-31 0 -55 -42z" />
    <glyph glyph-name="Adieresis" unicode="&#xc4;" horiz-adv-x="757" 
d="M501 712l238 -712h-176l-42 129h-286l-40 -129h-177l239 712h244zM379 568l-108 -318h216zM256 795q-34 0 -56 22t-22 56t22 55.5t56 21.5t56 -21.5t22 -55.5q0 -35 -22 -56.5t-56 -21.5zM504 795q-34 0 -56 22t-22 56t22 55.5t56 21.5q35 0 57 -21.5t22 -55.5t-22 -56
t-57 -22z" />
    <glyph glyph-name="Aring" unicode="&#xc5;" horiz-adv-x="757" 
d="M501 712l238 -712h-176l-42 129h-286l-40 -129h-177l239 712h244zM379 568l-108 -318h216zM378 759q-53 0 -87 30.5t-34 79.5t33.5 79t87.5 30q53 0 87 -30.5t34 -78.5q0 -49 -33.5 -79.5t-87.5 -30.5zM378 906q-16 0 -26.5 -10t-10.5 -27t10.5 -27t26.5 -10
q17 0 27.5 10.5t10.5 26.5q-1 17 -11.5 27t-26.5 10z" />
    <glyph glyph-name="AE" unicode="&#xc6;" horiz-adv-x="997" 
d="M949 135v-135h-452v118h-234l-59 -118h-186l357 712h564v-136h-291v-155h251v-119h-252v-167h302zM497 237v361l-178 -361h178z" />
    <glyph glyph-name="Ccedilla" unicode="&#xc7;" horiz-adv-x="830" 
d="M422 -120h-52l15 97q-149 15 -243 120t-94 259q0 166 107.5 273.5t272.5 107.5q135 0 234.5 -78t118.5 -199l-157 -18q-15 66 -69 108.5t-123 42.5q-95 0 -155.5 -66.5t-60.5 -170.5t60.5 -170.5t155.5 -66.5q67 0 121.5 41.5t71.5 104.5l157 -20q-16 -108 -103.5 -182.5
t-209.5 -85.5l-8 -50q47 0 76.5 -27t29.5 -71t-34 -71.5t-89 -27.5q-40 0 -70.5 20t-39.5 52l53 29q6 -16 20 -25.5t30 -9.5q18 0 29.5 11t11.5 29q0 19 -15.5 31.5t-40.5 12.5z" />
    <glyph glyph-name="Egrave" unicode="&#xc8;" horiz-adv-x="638" 
d="M243 135h348v-135h-510v712h500v-135h-338v-153h298v-118h-298v-171zM284 799l-132 135h148l111 -135h-127z" />
    <glyph glyph-name="Eacute" unicode="&#xc9;" horiz-adv-x="638" 
d="M243 135h348v-135h-510v712h500v-135h-338v-153h298v-118h-298v-171zM518 934l-132 -135h-127l111 135h148z" />
    <glyph glyph-name="Ecircumflex" unicode="&#xca;" horiz-adv-x="638" 
d="M243 135h348v-135h-510v712h500v-135h-338v-153h298v-118h-298v-171zM259 794h-110l108 140h149l108 -141l-109 1l-73 78z" />
    <glyph glyph-name="Edieresis" unicode="&#xcb;" horiz-adv-x="638" 
d="M243 135h348v-135h-510v712h500v-135h-338v-153h298v-118h-298v-171zM208 795q-34 0 -56 21.5t-22 56.5q0 34 22 55.5t56 21.5t56 -21.5t22 -55.5q0 -35 -22 -56.5t-56 -21.5zM456 795q-34 0 -56 22t-22 56t22 55.5t56 21.5t56 -21.5t22 -55.5q0 -35 -22 -56.5t-56 -21.5
z" />
    <glyph glyph-name="Igrave" unicode="&#xcc;" horiz-adv-x="330" 
d="M249 712v-712h-168v712h168zM97 799l-132 135h148l111 -135h-127z" />
    <glyph glyph-name="Iacute" unicode="&#xcd;" horiz-adv-x="333" 
d="M249 712v-712h-168v712h168zM351 934l-132 -135h-127l111 135h148z" />
    <glyph glyph-name="Icircumflex" unicode="&#xce;" horiz-adv-x="330" 
d="M249 712v-712h-168v712h168zM92 782h-110l109 141h148l109 -141h-110l-73 79z" />
    <glyph glyph-name="Idieresis" unicode="&#xcf;" horiz-adv-x="326" 
d="M247 712v-712h-168v712h168zM39 795q-35 0 -56.5 21.5t-21.5 56.5q0 34 22 55.5t56 21.5t56 -21.5t22 -55.5q0 -35 -21.5 -56.5t-56.5 -21.5zM287 795q-34 0 -56 22t-22 56t22 55.5t56 21.5q35 0 57 -21.5t22 -55.5t-22 -56t-57 -22z" />
    <glyph glyph-name="Ntilde" unicode="&#xd1;" horiz-adv-x="792" 
d="M269 712l283 -509v509h160v-712h-188l-284 508v-508h-159v712h188zM270 828l-71 42q15 39 50.5 64.5t77.5 25.5q39 0 83 -27q43 -28 60 -28q36 0 57 43l72 -42q-15 -39 -52 -64.5t-81 -25.5q-43 0 -84 27q-42 27 -57 27q-31 0 -55 -42z" />
    <glyph glyph-name="Ograve" unicode="&#xd2;" horiz-adv-x="884" 
d="M48 356q0 169 109.5 275t284.5 106t284.5 -106t109.5 -275t-109.5 -275t-284.5 -106t-284.5 105.5t-109.5 275.5zM216 356q0 -104 63 -170t163 -67q100 0 163 66.5t63 170.5t-63 170.5t-163 66.5t-163 -66.5t-63 -170.5zM380 799l-132 135h148l111 -135h-127z" />
    <glyph glyph-name="Oacute" unicode="&#xd3;" horiz-adv-x="884" 
d="M48 356q0 169 109.5 275t284.5 106t284.5 -106t109.5 -275t-109.5 -275t-284.5 -106t-284.5 105.5t-109.5 275.5zM216 356q0 -104 63 -170t163 -67q100 0 163 66.5t63 170.5t-63 170.5t-163 66.5t-163 -66.5t-63 -170.5zM623 934l-132 -135h-128l111 135h149z" />
    <glyph glyph-name="Ocircumflex" unicode="&#xd4;" horiz-adv-x="884" 
d="M48 356q0 169 109.5 275t284.5 106t284.5 -106t109.5 -275t-109.5 -275t-284.5 -106t-284.5 105.5t-109.5 275.5zM216 356q0 -104 63 -170t163 -67q100 0 163 66.5t63 170.5t-63 170.5t-163 66.5t-163 -66.5t-63 -170.5zM369 794h-110l108 140h149l108 -141l-109 1
l-73 78z" />
    <glyph glyph-name="Otilde" unicode="&#xd5;" horiz-adv-x="884" 
d="M48 356q0 169 109.5 275t284.5 106t284.5 -106t109.5 -275t-109.5 -275t-284.5 -106t-284.5 105.5t-109.5 275.5zM216 356q0 -104 63 -170t163 -67q100 0 163 66.5t63 170.5t-63 170.5t-163 66.5t-163 -66.5t-63 -170.5zM315 828l-72 42q15 39 50.5 64.5t77.5 25.5
q39 0 83 -27q43 -28 60 -28q36 0 58 43l72 -42q-15 -39 -52 -64.5t-82 -25.5q-42 0 -83 27q-42 27 -58 27q-30 0 -54 -42z" />
    <glyph glyph-name="Odieresis" unicode="&#xd6;" horiz-adv-x="884" 
d="M48 356q0 169 109.5 275t284.5 106t284.5 -106t109.5 -275t-109.5 -275t-284.5 -106t-284.5 105.5t-109.5 275.5zM216 356q0 -104 63 -170t163 -67q100 0 163 66.5t63 170.5t-63 170.5t-163 66.5t-163 -66.5t-63 -170.5zM318 795q-35 0 -57 22t-22 56t22 55.5t57 21.5
q34 0 56 -21.5t22 -55.5q0 -35 -22 -56.5t-56 -21.5zM566 795q-34 0 -56 22t-22 56t22 55.5t56 21.5t56 -21.5t22 -55.5q0 -35 -22 -56.5t-56 -21.5z" />
    <glyph glyph-name="multiply" unicode="&#xd7;" horiz-adv-x="446" 
d="M129 112l-87 86l95 99l-95 99l87 86l94 -97l94 98l87 -87l-96 -99l95 -99l-86 -86l-94 98z" />
    <glyph glyph-name="Oslash" unicode="&#xd8;" horiz-adv-x="864" 
d="M568 714l75 146l106 1l-96 -188q76 -50 119.5 -133t43.5 -184q0 -166 -108.5 -273.5t-275.5 -107.5q-65 0 -127 19l-68 -134h-106l88 173q-80 49 -125.5 133.5t-45.5 189.5q0 166 108.5 273.5t275.5 107.5q72 0 136 -23zM216 356q0 -116 77 -180l206 405q-30 12 -67 12
q-94 0 -155 -67t-61 -170zM648 356q0 107 -69 174l-205 -403q24 -8 58 -8q94 0 155 67t61 170z" />
    <glyph glyph-name="Ugrave" unicode="&#xd9;" horiz-adv-x="785" 
d="M543 299v413h168v-417q0 -142 -88.5 -231t-229.5 -89q-142 0 -231 89t-89 231v417h169v-413q0 -73 41 -126t110 -54q67 0 108.5 50.5t41.5 129.5zM330 799l-132 135h149l111 -135h-128z" />
    <glyph glyph-name="Uacute" unicode="&#xda;" horiz-adv-x="785" 
d="M543 299v413h168v-417q0 -142 -88.5 -231t-229.5 -89q-142 0 -231 89t-89 231v417h169v-413q0 -73 41 -126t110 -54q67 0 108.5 50.5t41.5 129.5zM573 934l-132 -135h-127l111 135h148z" />
    <glyph glyph-name="Ucircumflex" unicode="&#xdb;" horiz-adv-x="785" 
d="M543 299v413h168v-417q0 -142 -88.5 -231t-229.5 -89q-142 0 -231 89t-89 231v417h169v-413q0 -73 41 -126t110 -54q67 0 108.5 50.5t41.5 129.5zM319 794h-109l108 140h149l108 -141l-109 1l-74 78z" />
    <glyph glyph-name="Udieresis" unicode="&#xdc;" horiz-adv-x="785" 
d="M543 299v413h168v-417q0 -142 -88.5 -231t-229.5 -89q-142 0 -231 89t-89 231v417h169v-413q0 -73 41 -126t110 -54q67 0 108.5 50.5t41.5 129.5zM268 795q-34 0 -56 22t-22 56t22 55.5t56 21.5q35 0 57 -21.5t22 -55.5t-22 -56t-57 -22zM517 795q-35 0 -57 22t-22 56
t22 55.5t57 21.5q34 0 56 -21.5t22 -55.5q0 -35 -21.5 -56.5t-56.5 -21.5z" />
    <glyph glyph-name="Yacute" unicode="&#xdd;" horiz-adv-x="703" 
d="M269 248l-252 464h178l158 -316l151 316h181l-248 -464v-248h-168v248zM532 934l-132 -135h-127l111 135h148z" />
    <glyph glyph-name="germandbls" unicode="&#xdf;" horiz-adv-x="747" 
d="M239 479v-479h-168v480q0 112 81 182.5t210 70.5q119 0 193.5 -57.5t74.5 -149.5q0 -52 -28 -90.5t-73 -49.5q69 -13 115 -69.5t46 -133.5q0 -90 -64.5 -149t-162.5 -59q-78 0 -159 36l32 107q48 -23 88 -23q43 0 70.5 29.5t27.5 74.5q0 57 -34.5 91t-99.5 34h-45v102h47
q37 0 60.5 24.5t23.5 62.5q0 43 -32.5 71t-82.5 28q-54 0 -87 -36t-33 -97z" />
    <glyph glyph-name="agrave" unicode="&#xe0;" horiz-adv-x="591" 
d="M420.5 512.5q52.5 -27.5 82 -78t29.5 -119.5v-315h-144v53q-28 -32 -69.5 -48.5t-85.5 -16.5q-56 0 -101.5 21t-71.5 59.5t-26 87.5q0 51 29 91t79 62.5t111 22.5q66 0 135 -27v10q0 46 -30 75.5t-92 29.5q-63 0 -136 -37l-50 99q114 58 220 58q68 0 120.5 -27.5z
M346 111q35 20 42 55v49q-53 20 -114 20q-40 0 -68 -21.5t-28 -53.5q0 -31 25 -50t63 -19q45 0 80 20zM115 753h142l109 -160h-118z" />
    <glyph glyph-name="aacute" unicode="&#xe1;" horiz-adv-x="591" 
d="M420.5 512.5q52.5 -27.5 82 -78t29.5 -119.5v-315h-144v53q-28 -32 -69.5 -48.5t-85.5 -16.5q-56 0 -101.5 21t-71.5 59.5t-26 87.5q0 51 29 91t79 62.5t111 22.5q66 0 135 -27v10q0 46 -30 75.5t-92 29.5q-63 0 -136 -37l-50 99q114 58 220 58q68 0 120.5 -27.5z
M346 111q35 20 42 55v49q-53 20 -114 20q-40 0 -68 -21.5t-28 -53.5q0 -31 25 -50t63 -19q45 0 80 20zM450 753l-134 -160h-117l108 160h143z" />
    <glyph glyph-name="acircumflex" unicode="&#xe2;" horiz-adv-x="591" 
d="M420.5 512.5q52.5 -27.5 82 -78t29.5 -119.5v-315h-144v53q-28 -32 -69.5 -48.5t-85.5 -16.5q-56 0 -101.5 21t-71.5 59.5t-26 87.5q0 51 29 91t79 62.5t111 22.5q66 0 135 -27v10q0 46 -30 75.5t-92 29.5q-63 0 -136 -37l-50 99q114 58 220 58q68 0 120.5 -27.5z
M346 111q35 20 42 55v49q-53 20 -114 20q-40 0 -68 -21.5t-28 -53.5q0 -31 25 -50t63 -19q45 0 80 20zM99 593l109 161h148l110 -161h-110l-73 98l-74 -98h-110z" />
    <glyph glyph-name="atilde" unicode="&#xe3;" horiz-adv-x="591" 
d="M420.5 512.5q52.5 -27.5 82 -78t29.5 -119.5v-315h-144v53q-28 -32 -69.5 -48.5t-85.5 -16.5q-56 0 -101.5 21t-71.5 59.5t-26 87.5q0 51 29 91t79 62.5t111 22.5q66 0 135 -27v10q0 46 -30 75.5t-92 29.5q-63 0 -136 -37l-50 99q114 58 220 58q68 0 120.5 -27.5z
M346 111q35 20 42 55v49q-53 20 -114 20q-40 0 -68 -21.5t-28 -53.5q0 -31 25 -50t63 -19q45 0 80 20zM154 590l-71 36q14 39 50.5 64.5t78.5 25.5q38 0 82 -27q44 -28 62 -28q36 0 55 38l72 -37q-15 -39 -51.5 -64.5t-81.5 -25.5q-42 0 -84 27q-43 27 -60 27q-31 0 -52 -36
z" />
    <glyph glyph-name="adieresis" unicode="&#xe4;" horiz-adv-x="591" 
d="M420.5 512.5q52.5 -27.5 82 -78t29.5 -119.5v-315h-144v53q-28 -32 -69.5 -48.5t-85.5 -16.5q-56 0 -101.5 21t-71.5 59.5t-26 87.5q0 51 29 91t79 62.5t111 22.5q66 0 135 -27v10q0 46 -30 75.5t-92 29.5q-63 0 -136 -37l-50 99q114 58 220 58q68 0 120.5 -27.5z
M346 111q35 20 42 55v49q-53 20 -114 20q-40 0 -68 -21.5t-28 -53.5q0 -31 25 -50t63 -19q45 0 80 20zM153 570q-34 0 -56 21.5t-22 53.5q0 33 22 54.5t56 21.5t56.5 -21.5t22.5 -54.5q0 -32 -22.5 -53.5t-56.5 -21.5zM413 570q-34 0 -56 21.5t-22 53.5q0 33 22 54.5
t56 21.5t56 -21.5t22 -54.5q0 -32 -22 -53.5t-56 -21.5z" />
    <glyph glyph-name="aring" unicode="&#xe5;" horiz-adv-x="591" 
d="M420.5 512.5q52.5 -27.5 82 -78t29.5 -119.5v-315h-144v53q-28 -32 -69.5 -48.5t-85.5 -16.5q-56 0 -101.5 21t-71.5 59.5t-26 87.5q0 51 29 91t79 62.5t111 22.5q66 0 135 -27v10q0 46 -30 75.5t-92 29.5q-63 0 -136 -37l-50 99q114 58 220 58q68 0 120.5 -27.5z
M346 111q35 20 42 55v49q-53 20 -114 20q-40 0 -68 -21.5t-28 -53.5q0 -31 25 -50t63 -19q45 0 80 20zM283 542q-63 0 -102.5 36t-39.5 94t39.5 94t102.5 36q64 0 103 -36t39 -94t-39 -94t-103 -36zM283 730q-26 0 -42 -16t-16 -42t16 -42t42 -16t42 16t16 42t-16 42t-42 16
z" />
    <glyph glyph-name="ae" unicode="&#xe6;" horiz-adv-x="1058" 
d="M1016 262q0 -36 -3 -56h-401q11 -52 48.5 -81.5t90.5 -29.5q78 0 112 64l128 -30q-24 -65 -89.5 -107t-144.5 -42q-64 0 -117.5 28t-78.5 73v-81h-96v71q-65 -91 -179 -91q-108 0 -176 77t-68 199t68 199t176 77q112 0 179 -91v71h96v-81q26 47 75.5 74t116.5 27
q115 0 189 -76.5t74 -193.5zM192 256q0 -68 38.5 -112t99.5 -44q60 0 99 43t39 113q0 69 -38.5 112.5t-99.5 43.5t-99.5 -43.5t-38.5 -112.5zM610 291h255q-3 53 -38.5 87.5t-90.5 34.5q-50 0 -84.5 -33t-41.5 -89z" />
    <glyph glyph-name="ccedilla" unicode="&#xe7;" horiz-adv-x="624" 
d="M312 -120h-52l16 103q-103 14 -168.5 89.5t-65.5 183.5q0 120 79 198t200 78q101 0 175.5 -57.5t86.5 -145.5l-140 -18q-10 41 -44 68t-77 27q-55 0 -92.5 -42.5t-37.5 -107.5t37 -107.5t93 -42.5q44 0 77.5 26.5t44.5 68.5l140 -18q-13 -79 -75 -134t-149 -66l-9 -56
q48 0 77 -27t29 -71t-34 -71.5t-89 -27.5q-40 0 -70 20t-40 52l53 29q15 -35 50 -35q19 0 30 11t11 29q0 19 -15.5 31.5t-40.5 12.5z" />
    <glyph glyph-name="egrave" unicode="&#xe8;" horiz-adv-x="642" 
d="M328 95q40 0 72 19t46 49l131 -29q-20 -67 -91.5 -110.5t-161.5 -43.5q-124 0 -203 78t-79 202q0 120 79 196t203 76q123 0 199.5 -76t76.5 -198q0 -34 -2 -45l-401 1q10 -54 45 -86.5t86 -32.5zM196 304h252q-7 49 -42 81t-85 32q-49 0 -82 -30.5t-43 -82.5zM146 755
l142 1l109 -161h-117z" />
    <glyph glyph-name="eacute" unicode="&#xe9;" horiz-adv-x="642" 
d="M328 95q40 0 72 19t46 49l131 -29q-20 -67 -91.5 -110.5t-161.5 -43.5q-124 0 -203 78t-79 202q0 120 79 196t203 76q123 0 199.5 -76t76.5 -198q0 -34 -2 -45l-401 1q10 -54 45 -86.5t86 -32.5zM196 304h252q-7 49 -42 81t-85 32q-49 0 -82 -30.5t-43 -82.5zM364 755
h142l-133 -160h-117z" />
    <glyph glyph-name="ecircumflex" unicode="&#xea;" horiz-adv-x="642" 
d="M328 95q40 0 72 19t46 49l131 -29q-20 -67 -91.5 -110.5t-161.5 -43.5q-124 0 -203 78t-79 202q0 120 79 196t203 76q123 0 199.5 -76t76.5 -198q0 -34 -2 -45l-401 1q10 -54 45 -86.5t86 -32.5zM196 304h252q-7 49 -42 81t-85 32q-49 0 -82 -30.5t-43 -82.5zM252 595
h-110l110 161h148l110 -161h-111l-73 98z" />
    <glyph glyph-name="edieresis" unicode="&#xeb;" horiz-adv-x="642" 
d="M328 95q40 0 72 19t46 49l131 -29q-20 -67 -91.5 -110.5t-161.5 -43.5q-124 0 -203 78t-79 202q0 120 79 196t203 76q123 0 199.5 -76t76.5 -198q0 -34 -2 -45l-401 1q10 -54 45 -86.5t86 -32.5zM196 304h252q-7 49 -42 81t-85 32q-49 0 -82 -30.5t-43 -82.5zM195 586
q-34 0 -56 21.5t-22 54.5t22 54t56 21q35 0 57 -21t22 -54t-22.5 -54.5t-56.5 -21.5zM455 586q-34 0 -56 21.5t-22 54.5t22 54t56 21t56 -21t22 -54t-22 -54.5t-56 -21.5z" />
    <glyph glyph-name="igrave" unicode="&#xec;" horiz-adv-x="283" 
d="M219 512v-512h-150v512h150zM-41 755l142 1l109 -161h-117z" />
    <glyph glyph-name="iacute" unicode="&#xed;" horiz-adv-x="283" 
d="M217 512v-512h-150v512h150zM181 755h142l-133 -160h-117z" />
    <glyph glyph-name="icircumflex" unicode="&#xee;" horiz-adv-x="283" 
d="M216 512v-512h-150v512h150zM68 595h-110l109 161h148l110 -161h-111l-73 98z" />
    <glyph glyph-name="idieresis" unicode="&#xef;" horiz-adv-x="286" 
d="M218 512v-512h-150v512h150zM13 586q-34 0 -56 21.5t-22 54.5t22 54t56 21q35 0 57 -21t22 -54t-22.5 -54.5t-56.5 -21.5zM273 586q-34 0 -56 21.5t-22 54.5t22 54t56 21t56 -21t22 -54t-22 -54.5t-56 -21.5z" />
    <glyph glyph-name="ntilde" unicode="&#xf1;" 
d="M373 532q86 0 140 -59.5t54 -152.5v-320h-150v294q0 47 -25.5 76.5t-69.5 29.5q-45 0 -76 -32t-31 -80v-288h-150v512h146v-69q27 42 70 65.5t92 23.5zM186 619l-71 36q14 39 50.5 64.5t78.5 25.5q38 0 82 -27t62 -27q36 0 55 37l72 -37q-15 -39 -51.5 -64.5t-81.5 -25.5
q-42 0 -84 27q-43 27 -60 27q-31 0 -52 -36z" />
    <glyph glyph-name="ograve" unicode="&#xf2;" horiz-adv-x="652" 
d="M610 256q0 -122 -79 -199t-205 -77t-205 77t-79 199t79 199t205 77t205 -77t79 -199zM460 256q0 63 -37.5 103.5t-96.5 40.5t-96.5 -40.5t-37.5 -103.5t37.5 -103.5t96.5 -40.5t96.5 40.5t37.5 103.5zM142 755l142 1l108 -161h-117z" />
    <glyph glyph-name="oacute" unicode="&#xf3;" horiz-adv-x="652" 
d="M610 256q0 -122 -79 -199t-205 -77t-205 77t-79 199t79 199t205 77t205 -77t79 -199zM460 256q0 63 -37.5 103.5t-96.5 40.5t-96.5 -40.5t-37.5 -103.5t37.5 -103.5t96.5 -40.5t96.5 40.5t37.5 103.5zM366 755h142l-134 -160h-117z" />
    <glyph glyph-name="ocircumflex" unicode="&#xf4;" horiz-adv-x="652" 
d="M610 256q0 -122 -79 -199t-205 -77t-205 77t-79 199t79 199t205 77t205 -77t79 -199zM460 256q0 63 -37.5 103.5t-96.5 40.5t-96.5 -40.5t-37.5 -103.5t37.5 -103.5t96.5 -40.5t96.5 40.5t37.5 103.5zM253 595h-109l109 161h148l110 -161h-111l-73 98z" />
    <glyph glyph-name="otilde" unicode="&#xf5;" horiz-adv-x="652" 
d="M610 256q0 -122 -79 -199t-205 -77t-205 77t-79 199t79 199t205 77t205 -77t79 -199zM460 256q0 63 -37.5 103.5t-96.5 40.5t-96.5 -40.5t-37.5 -103.5t37.5 -103.5t96.5 -40.5t96.5 40.5t37.5 103.5zM206 619l-71 36q14 39 50 64.5t78 25.5q39 0 83 -27q43 -27 61 -27
q36 0 56 37l72 -37q-15 -39 -52 -64.5t-82 -25.5q-42 0 -84 27t-59 27q-33 0 -52 -36z" />
    <glyph glyph-name="odieresis" unicode="&#xf6;" horiz-adv-x="652" 
d="M610 256q0 -122 -79 -199t-205 -77t-205 77t-79 199t79 199t205 77t205 -77t79 -199zM460 256q0 63 -37.5 103.5t-96.5 40.5t-96.5 -40.5t-37.5 -103.5t37.5 -103.5t96.5 -40.5t96.5 40.5t37.5 103.5zM196 586q-34 0 -56 21.5t-22 54.5t22 54t56 21q35 0 57 -21t22 -54
t-22.5 -54.5t-56.5 -21.5zM456 586q-34 0 -56 21.5t-22 54.5t22 54t56 21t56 -21t22 -54t-22 -54.5t-56 -21.5z" />
    <glyph glyph-name="divide" unicode="&#xf7;" horiz-adv-x="534" 
d="M267 20q-32 0 -53.5 20.5t-21.5 51.5t21.5 51.5t53.5 20.5q33 0 54 -20t21 -52t-21 -52t-54 -20zM42 358h450v-115h-450v115zM267 428q-32 0 -53.5 20.5t-21.5 51.5t21.5 51.5t53.5 20.5q33 0 54 -20t21 -52t-21 -52t-54 -20z" />
    <glyph glyph-name="oslash" unicode="&#xf8;" horiz-adv-x="664" 
d="M428 519l41 81h92l-59 -114q120 -77 120 -230q0 -122 -80.5 -199t-209.5 -77q-42 0 -85 10l-36 -70h-91l51 100q-61 35 -95 96.5t-34 139.5q0 122 80.5 199t209.5 77q49 0 96 -13zM174 256q0 -82 54 -128l148 290q-19 6 -44 6q-69 0 -113.5 -47t-44.5 -121zM490 256
q0 73 -45 121l-146 -286q17 -3 33 -3q70 0 114 47t44 121z" />
    <glyph glyph-name="ugrave" unicode="&#xf9;" 
d="M248 -20q-86 0 -139.5 59.5t-53.5 152.5v320h150v-294q0 -47 25.5 -76.5t69.5 -29.5q45 0 76 32t31 80v288h150v-512h-146v69q-27 -42 -70 -65.5t-93 -23.5zM127 755h142l108 -161h-117z" />
    <glyph glyph-name="uacute" unicode="&#xfa;" 
d="M248 -20q-86 0 -139.5 59.5t-53.5 152.5v320h150v-294q0 -47 25.5 -76.5t69.5 -29.5q45 0 76 32t31 80v288h150v-512h-146v69q-27 -42 -70 -65.5t-93 -23.5zM351 755h142l-134 -161h-117z" />
    <glyph glyph-name="ucircumflex" unicode="&#xfb;" 
d="M248 -20q-86 0 -139.5 59.5t-53.5 152.5v320h150v-294q0 -47 25.5 -76.5t69.5 -29.5q45 0 76 32t31 80v288h150v-512h-146v69q-27 -42 -70 -65.5t-93 -23.5zM233 594l-110 1l109 160h148l110 -161h-111l-73 98z" />
    <glyph glyph-name="udieresis" unicode="&#xfc;" 
d="M248 -20q-86 0 -139.5 59.5t-53.5 152.5v320h150v-294q0 -47 25.5 -76.5t69.5 -29.5q45 0 76 32t31 80v288h150v-512h-146v69q-27 -42 -70 -65.5t-93 -23.5zM176 585q-34 0 -56.5 21.5t-22.5 54.5t22 54t57 21q34 0 56 -21t22 -54t-22 -54.5t-56 -21.5zM435 585
q-34 0 -56 21.5t-22 54.5t22 54t56 21q35 0 57 -21t22 -54t-22.5 -54.5t-56.5 -21.5z" />
    <glyph glyph-name="yacute" unicode="&#xfd;" horiz-adv-x="608" 
d="M87 -213v111q31 -11 61 -11q44 0 68 27t44 81l-242 517h164l139 -330l114 330h156l-198 -530q-39 -107 -86 -160t-121 -53q-53 0 -99 18zM355 755h142l-133 -160h-117z" />
    <glyph glyph-name="ydieresis" unicode="&#xff;" horiz-adv-x="608" 
d="M87 -213v111q31 -11 61 -11q44 0 68 27t44 81l-242 517h164l139 -330l114 330h156l-198 -530q-39 -107 -86 -160t-121 -53q-53 0 -99 18zM175 586q-34 0 -56.5 21.5t-22.5 54.5t22 54t57 21q34 0 56 -21t22 -54t-22 -54.5t-56 -21.5zM434 586q-34 0 -56 21.5t-22 54.5
t22 54t56 21q35 0 57 -21t22 -54t-22.5 -54.5t-56.5 -21.5z" />
    <glyph glyph-name="Amacron" unicode="&#x100;" horiz-adv-x="757" 
d="M501 712l238 -712h-176l-42 129h-286l-40 -129h-177l239 712h244zM379 568l-108 -318h216zM549 909v-90h-338v90h338z" />
    <glyph glyph-name="amacron" unicode="&#x101;" horiz-adv-x="591" 
d="M420.5 512.5q52.5 -27.5 82 -78t29.5 -119.5v-315h-144v53q-28 -32 -69.5 -48.5t-85.5 -16.5q-56 0 -101.5 21t-71.5 59.5t-26 87.5q0 51 29 91t79 62.5t111 22.5q66 0 135 -27v10q0 46 -30 75.5t-92 29.5q-63 0 -136 -37l-50 99q114 58 220 58q68 0 120.5 -27.5z
M346 111q35 20 42 55v49q-53 20 -114 20q-40 0 -68 -21.5t-28 -53.5q0 -31 25 -50t63 -19q45 0 80 20zM452 692v-91h-338v91h338z" />
    <glyph glyph-name="Abreve" unicode="&#x102;" horiz-adv-x="757" 
d="M501 712l238 -712h-176l-42 129h-286l-40 -129h-177l239 712h244zM379 568l-108 -318h216zM441 934h95q0 -62 -43.5 -101.5t-112.5 -39.5q-68 0 -111.5 39.5t-43.5 101.5h94q0 -25 17.5 -41t43.5 -16q27 0 44 16t17 41z" />
    <glyph glyph-name="abreve" unicode="&#x103;" horiz-adv-x="591" 
d="M420.5 512.5q52.5 -27.5 82 -78t29.5 -119.5v-315h-144v53q-28 -32 -69.5 -48.5t-85.5 -16.5q-56 0 -101.5 21t-71.5 59.5t-26 87.5q0 51 29 91t79 62.5t111 22.5q66 0 135 -27v10q0 46 -30 75.5t-92 29.5q-63 0 -136 -37l-50 99q114 58 220 58q68 0 120.5 -27.5z
M346 111q35 20 42 55v49q-53 20 -114 20q-40 0 -68 -21.5t-28 -53.5q0 -31 25 -50t63 -19q45 0 80 20zM338 742h95q1 -71 -38.5 -113t-111.5 -42q-71 0 -110.5 42t-39.5 113h96q0 -32 15 -51.5t39 -19.5t39.5 20t15.5 51z" />
    <glyph glyph-name="Aogonek" unicode="&#x104;" horiz-adv-x="796" 
d="M638 0h-75l-42 129h-286l-40 -129h-177l239 712h244l238 -712h-4q-105 -32 -105 -96q0 -47 40.5 -75.5t107.5 -30.5v-77q-104 0 -169 45.5t-65 117.5q0 79 94 116zM379 568l-108 -318h216z" />
    <glyph glyph-name="aogonek" unicode="&#x105;" horiz-adv-x="591" 
d="M420.5 512.5q52.5 -27.5 82 -78t29.5 -119.5v-315h-144v53q-28 -32 -69.5 -48.5t-85.5 -16.5q-56 0 -101.5 21t-71.5 59.5t-26 87.5q0 51 29 91t79 62.5t111 22.5q66 0 135 -27v10q0 46 -30 75.5t-92 29.5q-63 0 -136 -37l-50 99q114 58 220 58q68 0 120.5 -27.5z
M346 111q35 20 42 55v49q-53 20 -114 20q-40 0 -68 -21.5t-28 -53.5q0 -31 25 -50t63 -19q45 0 80 20zM481 10l62 -10q-108 -33 -108 -97q0 -47 40.5 -75.5t107.5 -30.5v-77q-104 0 -169 45.5t-65 117.5q0 46 35 79.5t97 47.5z" />
    <glyph glyph-name="Cacute" unicode="&#x106;" horiz-adv-x="830" 
d="M625 265l157 -20q-18 -118 -118 -194t-236 -76q-165 0 -272.5 107.5t-107.5 273.5t107.5 273.5t272.5 107.5q135 0 234.5 -78t118.5 -199l-157 -18q-15 66 -69 108.5t-123 42.5q-95 0 -155.5 -66.5t-60.5 -170.5t60.5 -170.5t155.5 -66.5q67 0 121.5 41.5t71.5 104.5z
M603 934l-132 -135h-127l111 135h148z" />
    <glyph glyph-name="cacute" unicode="&#x107;" horiz-adv-x="624" 
d="M583 329l-140 -18q-10 41 -44 68t-77 27q-55 0 -92.5 -42.5t-37.5 -107.5t37 -107.5t93 -42.5q44 0 77.5 26.5t44.5 68.5l140 -18q-14 -88 -89 -145.5t-174 -57.5q-121 0 -200 78t-79 198t79 198t200 78q101 0 175.5 -57.5t86.5 -145.5zM362 755h142l-133 -160h-117z" />
    <glyph glyph-name="Ccircumflex" unicode="&#x108;" horiz-adv-x="830" 
d="M625 265l157 -20q-18 -118 -118 -194t-236 -76q-165 0 -272.5 107.5t-107.5 273.5t107.5 273.5t272.5 107.5q135 0 234.5 -78t118.5 -199l-157 -18q-15 66 -69 108.5t-123 42.5q-95 0 -155.5 -66.5t-60.5 -170.5t60.5 -170.5t155.5 -66.5q67 0 121.5 41.5t71.5 104.5z
M354 794h-109l108 140h149l108 -141l-109 1l-74 78z" />
    <glyph glyph-name="ccircumflex" unicode="&#x109;" horiz-adv-x="624" 
d="M583 329l-140 -18q-10 41 -44 68t-77 27q-55 0 -92.5 -42.5t-37.5 -107.5t37 -107.5t93 -42.5q44 0 77.5 26.5t44.5 68.5l140 -18q-14 -88 -89 -145.5t-174 -57.5q-121 0 -200 78t-79 198t79 198t200 78q101 0 175.5 -57.5t86.5 -145.5zM244 595h-110l109 161h148
l111 -161h-111l-73 98z" />
    <glyph glyph-name="Cdotaccent" unicode="&#x10a;" horiz-adv-x="830" 
d="M625 265l157 -20q-18 -118 -118 -194t-236 -76q-165 0 -272.5 107.5t-107.5 273.5t107.5 273.5t272.5 107.5q135 0 234.5 -78t118.5 -199l-157 -18q-15 66 -69 108.5t-123 42.5q-95 0 -155.5 -66.5t-60.5 -170.5t60.5 -170.5t155.5 -66.5q67 0 121.5 41.5t71.5 104.5z
M417 799q-37 0 -60 21.5t-23 56.5q0 34 23.5 56t59.5 22t59 -22t23 -56t-23 -56t-59 -22z" />
    <glyph glyph-name="cdotaccent" unicode="&#x10b;" horiz-adv-x="624" 
d="M583 329l-140 -18q-10 41 -44 68t-77 27q-55 0 -92.5 -42.5t-37.5 -107.5t37 -107.5t93 -42.5q44 0 77.5 26.5t44.5 68.5l140 -18q-14 -88 -89 -145.5t-174 -57.5q-121 0 -200 78t-79 198t79 198t200 78q101 0 175.5 -57.5t86.5 -145.5zM317 593q-36 0 -59.5 23t-23.5 58
t23.5 57.5t59.5 22.5t59 -22.5t23 -57.5t-23 -58t-59 -23z" />
    <glyph glyph-name="Ccaron" unicode="&#x10c;" horiz-adv-x="830" 
d="M625 265l157 -20q-18 -118 -118 -194t-236 -76q-165 0 -272.5 107.5t-107.5 273.5t107.5 273.5t272.5 107.5q135 0 234.5 -78t118.5 -199l-157 -18q-15 66 -69 108.5t-123 42.5q-95 0 -155.5 -66.5t-60.5 -170.5t60.5 -170.5t155.5 -66.5q67 0 121.5 41.5t71.5 104.5z
M501 943h112l-111 -150h-149l-111 150h112l73 -87z" />
    <glyph glyph-name="ccaron" unicode="&#x10d;" horiz-adv-x="624" 
d="M583 329l-140 -18q-10 41 -44 68t-77 27q-55 0 -92.5 -42.5t-37.5 -107.5t37 -107.5t93 -42.5q44 0 77.5 26.5t44.5 68.5l140 -18q-14 -88 -89 -145.5t-174 -57.5q-121 0 -200 78t-79 198t79 198t200 78q101 0 175.5 -57.5t86.5 -145.5zM390 755l111 1l-110 -161h-148
l-110 160h110l74 -97z" />
    <glyph glyph-name="Dcaron" unicode="&#x10e;" horiz-adv-x="806" 
d="M81 0v712h267q185 0 297.5 -98t112.5 -258t-112.5 -258t-297.5 -98h-267zM591 356q0 103 -67 164t-176 61h-104v-450h104q109 0 176 61t67 164zM445 943h113l-112 -150h-149l-111 150h113l73 -87z" />
    <glyph glyph-name="dcaron" unicode="&#x10f;" horiz-adv-x="803" 
d="M454 450v292h150v-742h-148v62q-64 -82 -171 -82t-175 77.5t-68 198.5t68 198.5t175 77.5q106 0 169 -82zM192 256q0 -61 38 -101t96 -40t96 40t38 101t-38 101t-96 40t-96 -40t-38 -101zM722 599q-27 0 -43.5 19t-16.5 49q0 31 18.5 50t49.5 19q35 0 56.5 -24.5
t21.5 -64.5q0 -47 -23 -95t-58 -74l-58 23q23 19 38 46.5t15 51.5z" />
    <glyph glyph-name="Dcroat" unicode="&#x110;" horiz-adv-x="840" 
d="M115 442v270h268q185 0 297.5 -98t112.5 -258t-112.5 -258t-297.5 -98h-268v340h-97v102h97zM625 356q0 103 -66.5 164t-175.5 61h-104v-139h139v-102h-139v-209h104q109 0 175.5 61t66.5 164z" />
    <glyph glyph-name="dcroat" unicode="&#x111;" horiz-adv-x="700" 
d="M454 450v142h-166v83h166v67h150v-67h78v-83h-78v-592h-148v62q-64 -82 -171 -82t-175 77.5t-68 198.5t68 198.5t175 77.5q106 0 169 -82zM192 256q0 -61 38 -101t96 -40t96 40t38 101t-38 101t-96 40t-96 -40t-38 -101z" />
    <glyph glyph-name="Emacron" unicode="&#x112;" horiz-adv-x="638" 
d="M243 135h348v-135h-510v712h500v-135h-338v-153h298v-118h-298v-171zM501 909v-90h-338v90h338z" />
    <glyph glyph-name="emacron" unicode="&#x113;" horiz-adv-x="642" 
d="M328 95q40 0 72 19t46 49l131 -29q-20 -67 -91.5 -110.5t-161.5 -43.5q-124 0 -203 78t-79 202q0 120 79 196t203 76q123 0 199.5 -76t76.5 -198q0 -34 -2 -45l-401 1q10 -54 45 -86.5t86 -32.5zM196 304h252q-7 49 -42 81t-85 32q-49 0 -82 -30.5t-43 -82.5zM494 711
v-91h-338v91h338z" />
    <glyph glyph-name="Ebreve" unicode="&#x114;" horiz-adv-x="638" 
d="M243 135h348v-135h-510v712h500v-135h-338v-153h298v-118h-298v-171zM393 934h94q0 -62 -43 -101.5t-112 -39.5t-112.5 39.5t-43.5 101.5h95q0 -25 17.5 -41t43.5 -16q27 0 44 16t17 41z" />
    <glyph glyph-name="ebreve" unicode="&#x115;" horiz-adv-x="642" 
d="M328 95q40 0 72 19t46 49l131 -29q-20 -67 -91.5 -110.5t-161.5 -43.5q-124 0 -203 78t-79 202q0 120 79 196t203 76q123 0 199.5 -76t76.5 -198q0 -34 -2 -45l-401 1q10 -54 45 -86.5t86 -32.5zM196 304h252q-7 49 -42 81t-85 32q-49 0 -82 -30.5t-43 -82.5zM380 744h95
q0 -71 -39 -113t-111 -42q-71 0 -110.5 42t-39.5 113h95q0 -31 15.5 -51t39.5 -20t39.5 20t15.5 51z" />
    <glyph glyph-name="Edotaccent" unicode="&#x116;" horiz-adv-x="638" 
d="M243 135h348v-135h-510v712h500v-135h-338v-153h298v-118h-298v-171zM332 799q-37 0 -59.5 21.5t-23.5 56.5q1 35 24 56.5t59 21.5q37 0 60 -21.5t23 -56.5t-23 -56.5t-60 -21.5z" />
    <glyph glyph-name="edotaccent" unicode="&#x117;" horiz-adv-x="642" 
d="M328 95q40 0 72 19t46 49l131 -29q-20 -67 -91.5 -110.5t-161.5 -43.5q-124 0 -203 78t-79 202q0 120 79 196t203 76q123 0 199.5 -76t76.5 -198q0 -34 -2 -45l-401 1q10 -54 45 -86.5t86 -32.5zM196 304h252q-7 49 -42 81t-85 32q-49 0 -82 -30.5t-43 -82.5zM325 599
q-36 0 -59.5 23t-23.5 58t23.5 57.5t59.5 22.5t59.5 -22.5t23.5 -57.5t-23.5 -58t-59.5 -23z" />
    <glyph glyph-name="Eogonek" unicode="&#x118;" horiz-adv-x="638" 
d="M452 0h-371v712h500v-135h-338v-153h298v-118h-298v-171h348v-135h-43q-105 -32 -105 -96q0 -47 40.5 -75.5t107.5 -30.5v-77q-104 0 -169 45.5t-65 117.5q0 80 95 116z" />
    <glyph glyph-name="eogonek" unicode="&#x119;" horiz-adv-x="642" 
d="M303 -19q-116 7 -188.5 84t-72.5 195q0 120 79 196t203 76q123 0 199.5 -76t76.5 -198q0 -34 -2 -45l-401 1q10 -54 45 -86.5t86 -32.5q40 0 72 19t46 49l131 -29q-13 -44 -50 -79t-89 -55h1q-108 -33 -108 -97q0 -47 40.5 -75.5t107.5 -30.5v-77q-104 0 -169 45.5
t-65 117.5q0 60 58 98zM196 304h252q-7 49 -42 81t-85 32q-49 0 -82 -30.5t-43 -82.5z" />
    <glyph glyph-name="Ecaron" unicode="&#x11a;" horiz-adv-x="638" 
d="M243 135h348v-135h-510v712h500v-135h-338v-153h298v-118h-298v-171zM407 943h113l-112 -150h-149l-111 150h113l73 -87z" />
    <glyph glyph-name="ecaron" unicode="&#x11b;" horiz-adv-x="642" 
d="M328 95q40 0 72 19t46 49l131 -29q-20 -67 -91.5 -110.5t-161.5 -43.5q-124 0 -203 78t-79 202q0 120 79 196t203 76q123 0 199.5 -76t76.5 -198q0 -34 -2 -45l-401 1q10 -54 45 -86.5t86 -32.5zM196 304h252q-7 49 -42 81t-85 32q-49 0 -82 -30.5t-43 -82.5zM398 755
l111 1l-110 -161h-148l-109 160h109l74 -97z" />
    <glyph glyph-name="Gcircumflex" unicode="&#x11c;" horiz-adv-x="868" 
d="M656 294h-220v110h382q2 -26 2 -50q0 -154 -91 -258q-107 -121 -287 -121q-172 0 -283 107.5t-111 273.5t111 273.5t283 107.5q122 0 216 -63t120 -161l-154 -34q-17 50 -68.5 82t-114.5 32q-98 0 -161.5 -67t-63.5 -170t65 -170t165 -67q85 0 145 50.5t65 124.5z
M368 794h-109l108 140h149l108 -141l-109 1l-74 78z" />
    <glyph glyph-name="gcircumflex" unicode="&#x11d;" horiz-adv-x="669" 
d="M66 -63l134 21q12 -39 46.5 -64t77.5 -25q58 0 94 37.5t36 103.5v61q-64 -78 -169 -78q-106 0 -174.5 73.5t-68.5 189.5q0 120 68.5 197.5t174.5 77.5t170 -80v61h149v-506q0 -118 -75.5 -187t-198.5 -69q-100 0 -173.5 52.5t-90.5 134.5zM326 116q58 0 96 39.5t38 100.5
q0 62 -38 103t-96 41t-96 -41t-38 -103q0 -61 38 -100.5t96 -39.5zM250 595h-110l109 161h148l111 -161h-111l-73 98z" />
    <glyph glyph-name="Gbreve" unicode="&#x11e;" horiz-adv-x="868" 
d="M656 294h-220v110h382q2 -26 2 -50q0 -154 -91 -258q-107 -121 -287 -121q-172 0 -283 107.5t-111 273.5t111 273.5t283 107.5q122 0 216 -63t120 -161l-154 -34q-17 50 -68.5 82t-114.5 32q-98 0 -161.5 -67t-63.5 -170t65 -170t165 -67q85 0 145 50.5t65 124.5z
M503 934h94q0 -62 -43 -101.5t-112 -39.5t-112.5 39.5t-43.5 101.5h95q0 -25 17 -41t44 -16t44 16t17 41z" />
    <glyph glyph-name="gbreve" unicode="&#x11f;" horiz-adv-x="669" 
d="M66 -63l134 21q12 -39 46.5 -64t77.5 -25q58 0 94 37.5t36 103.5v61q-64 -78 -169 -78q-106 0 -174.5 73.5t-68.5 189.5q0 120 68.5 197.5t174.5 77.5t170 -80v61h149v-506q0 -118 -75.5 -187t-198.5 -69q-100 0 -173.5 52.5t-90.5 134.5zM326 116q58 0 96 39.5t38 100.5
q0 62 -38 103t-96 41t-96 -41t-38 -103q0 -61 38 -100.5t96 -39.5zM378 744h95q0 -71 -39 -113t-111 -42q-71 0 -110.5 42t-39.5 113h95q0 -31 15.5 -51t39.5 -20t39.5 20t15.5 51z" />
    <glyph glyph-name="Gdotaccent" unicode="&#x120;" horiz-adv-x="868" 
d="M656 294h-220v110h382q2 -26 2 -50q0 -154 -91 -258q-107 -121 -287 -121q-172 0 -283 107.5t-111 273.5t111 273.5t283 107.5q122 0 216 -63t120 -161l-154 -34q-17 50 -68.5 82t-114.5 32q-98 0 -161.5 -67t-63.5 -170t65 -170t165 -67q85 0 145 50.5t65 124.5z
M442 799q-37 0 -60 21.5t-23 56.5q1 35 24 56.5t59 21.5q37 0 60 -21.5t23 -56.5q-1 -35 -23.5 -56.5t-59.5 -21.5z" />
    <glyph glyph-name="gdotaccent" unicode="&#x121;" horiz-adv-x="669" 
d="M66 -63l134 21q12 -39 46.5 -64t77.5 -25q58 0 94 37.5t36 103.5v61q-64 -78 -169 -78q-106 0 -174.5 73.5t-68.5 189.5q0 120 68.5 197.5t174.5 77.5t170 -80v61h149v-506q0 -118 -75.5 -187t-198.5 -69q-100 0 -173.5 52.5t-90.5 134.5zM326 116q58 0 96 39.5t38 100.5
q0 62 -38 103t-96 41t-96 -41t-38 -103q0 -61 38 -100.5t96 -39.5zM323 599q-36 0 -59.5 23t-23.5 58t23.5 57.5t59.5 22.5t59 -22.5t23 -57.5t-23 -58t-59 -23z" />
    <glyph glyph-name="uni0122" unicode="&#x122;" horiz-adv-x="868" 
d="M656 294h-220v110h382q2 -26 2 -50q0 -154 -91 -258q-107 -121 -287 -121q-172 0 -283 107.5t-111 273.5t111 273.5t283 107.5q122 0 216 -63t120 -161l-154 -34q-17 50 -68.5 82t-114.5 32q-98 0 -161.5 -67t-63.5 -170t65 -170t165 -67q85 0 145 50.5t65 124.5z
M436 -225q-27 0 -43.5 19t-16.5 49q0 31 18.5 50t49.5 19q35 0 56.5 -24.5t21.5 -64.5q0 -47 -23 -95t-58 -74l-58 23q23 19 38 46.5t15 51.5z" />
    <glyph glyph-name="uni0123" unicode="&#x123;" horiz-adv-x="669" 
d="M66 -63l134 21q12 -39 46.5 -64t77.5 -25q58 0 94 37.5t36 103.5v61q-64 -78 -169 -78q-106 0 -174.5 73.5t-68.5 189.5q0 120 68.5 197.5t174.5 77.5t170 -80v61h149v-506q0 -118 -75.5 -187t-198.5 -69q-100 0 -173.5 52.5t-90.5 134.5zM326 116q58 0 96 39.5t38 100.5
q0 62 -38 103t-96 41t-96 -41t-38 -103q0 -61 38 -100.5t96 -39.5zM333 717q27 0 43.5 -19t16.5 -49q0 -32 -18.5 -51t-49.5 -19q-35 0 -56.5 24.5t-21.5 64.5q0 48 23 96t58 73l58 -22q-23 -20 -38 -47t-15 -51z" />
    <glyph glyph-name="Itilde" unicode="&#x128;" horiz-adv-x="333" 
d="M249 712v-712h-168v712h168zM38 828l-72 42q15 39 50.5 64.5t77.5 25.5q39 0 83 -27q43 -28 60 -28q36 0 58 43l72 -42q-15 -39 -52 -64.5t-82 -25.5q-42 0 -83 27q-42 27 -58 27q-30 0 -54 -42z" />
    <glyph glyph-name="itilde" unicode="&#x129;" horiz-adv-x="293" 
d="M213 512v-512h-150v512h150zM18 619l-72 36q15 39 51 64.5t78 25.5q38 0 82 -27t62 -27q37 0 55 37l73 -37q-15 -39 -52 -64.5t-82 -25.5q-42 0 -84 27t-59 27q-33 0 -52 -36z" />
    <glyph glyph-name="Imacron" unicode="&#x12a;" horiz-adv-x="321" 
d="M245 712v-712h-168v712h168zM330 909v-90h-338v90h338z" />
    <glyph glyph-name="imacron" unicode="&#x12b;" horiz-adv-x="286" 
d="M218 512v-512h-150v512h150zM312 711v-91h-338v91h338z" />
    <glyph glyph-name="Iogonek" unicode="&#x12e;" horiz-adv-x="340" 
d="M148 0h-67v712h168v-712h-4q-105 -32 -105 -96q0 -47 40.5 -75.5t107.5 -30.5v-77q-104 0 -169 45.5t-65 117.5q0 79 94 116z" />
    <glyph glyph-name="iogonek" unicode="&#x12f;" horiz-adv-x="300" 
d="M125 0h-50v512h150v-512h-3q-107 -32 -107 -96q0 -47 41 -76t107 -31v-77q-103 0 -168.5 46t-65.5 117q0 80 96 117zM63 665q0 37 24.5 60.5t62.5 23.5t62.5 -23.5t24.5 -60.5t-24.5 -61t-62.5 -24t-62.5 24t-24.5 61z" />
    <glyph glyph-name="Idotaccent" unicode="&#x130;" horiz-adv-x="329" 
d="M249 712v-712h-168v712h168zM165 799q-37 0 -60 21.5t-23 56.5q0 34 23.5 56t59.5 22t59 -22t23 -56t-23 -56t-59 -22z" />
    <glyph glyph-name="dotlessi" unicode="&#x131;" horiz-adv-x="280" 
d="M215 512v-512h-150v512h150z" />
    <glyph glyph-name="IJ" unicode="&#x132;" horiz-adv-x="788" 
d="M249 712v-712h-168v712h168zM539 241v471h169v-488q0 -108 -68 -176t-173 -68q-77 0 -142 20v129q53 -14 96 -14q53 0 85.5 34.5t32.5 91.5z" />
    <glyph glyph-name="ij" unicode="&#x133;" horiz-adv-x="578" 
d="M227 512v-512h-150v512h150zM352 -33v545h150v-564q0 -81 -47.5 -130.5t-124.5 -49.5q-64 0 -110 16v119q24 -7 60 -7q32 0 52 19.5t20 51.5zM65 665q0 37 24.5 60.5t62.5 23.5t62.5 -23.5t24.5 -60.5t-24.5 -61t-62.5 -24t-62.5 24t-24.5 61zM339 665q0 37 24.5 60.5
t62.5 23.5t62.5 -23.5t24.5 -60.5t-24.5 -61t-62.5 -24t-62.5 24t-24.5 61z" />
    <glyph glyph-name="uni0136" unicode="&#x136;" horiz-adv-x="707" 
d="M81 712h168v-290l237 290h203l-291 -342l297 -370h-204l-242 314v-314h-168v712zM357 -224q-27 0 -44 19.5t-17 49.5q0 31 18.5 50t49.5 19q35 0 57 -24.5t22 -64.5q0 -48 -23 -95.5t-59 -73.5l-57 22q23 20 38 47.5t15 50.5z" />
    <glyph glyph-name="uni0137" unicode="&#x137;" horiz-adv-x="588" 
d="M65 742h150v-419l173 189h182l-222 -240l228 -272h-182l-179 220v-220h-150v742zM293 -219q-27 0 -43.5 19t-16.5 49q0 32 18.5 51t49.5 19q35 0 56.5 -24.5t21.5 -64.5q0 -48 -23 -96t-58 -73l-58 22q23 20 38 47t15 51z" />
    <glyph glyph-name="Lacute" unicode="&#x139;" horiz-adv-x="583" 
d="M547 0h-466v712h168v-568h298v-144zM354 934l-131 -135h-128l111 135h148z" />
    <glyph glyph-name="lacute" unicode="&#x13a;" horiz-adv-x="392" 
d="M215 742v-742h-150v742h150zM329 944l-132 -144h-125l109 144h148z" />
    <glyph glyph-name="uni013B" unicode="&#x13b;" horiz-adv-x="583" 
d="M547 0h-466v712h168v-568h298v-144zM305 -224q-27 0 -43.5 19.5t-16.5 49.5q0 31 18 50t49 19q35 0 57 -24.5t22 -64.5q0 -48 -23 -95.5t-59 -73.5l-57 22q23 20 38 47.5t15 50.5z" />
    <glyph glyph-name="uni013C" unicode="&#x13c;" horiz-adv-x="286" 
d="M215 742v-742h-150v742h150zM130 -224q-27 0 -43.5 19t-16.5 49q0 32 18.5 51t49.5 19q35 0 56.5 -24.5t21.5 -65.5q0 -47 -23 -95t-58 -73l-58 22q23 19 38 46.5t15 51.5z" />
    <glyph glyph-name="Lcaron" unicode="&#x13d;" horiz-adv-x="586" 
d="M547 0h-466v712h168v-568h298v-144zM378 604q-27 0 -43.5 19t-16.5 49q0 32 18.5 51t49.5 19q35 0 56.5 -24.5t21.5 -64.5q0 -48 -23 -95.5t-59 -73.5l-57 22q23 20 38 47t15 51z" />
    <glyph glyph-name="lcaron" unicode="&#x13e;" horiz-adv-x="426" 
d="M215 742v-742h-150v742h150zM345 599q-27 0 -43.5 19t-16.5 49q0 31 18.5 50t49.5 19q35 0 56.5 -24.5t21.5 -64.5q0 -47 -23 -95t-59 -74l-57 23q23 19 38 46.5t15 51.5z" />
    <glyph glyph-name="Lslash" unicode="&#x141;" horiz-adv-x="520" 
d="M18 282l105 65v365h169v-261l245 151v-129l-245 -151v-178h298v-144h-467v218l-105 -65v129z" />
    <glyph glyph-name="lslash" unicode="&#x142;" horiz-adv-x="476" 
d="M313 368v-368h-150v272l-137 -88v129l137 88v341h150v-245l137 88v-129z" />
    <glyph glyph-name="Nacute" unicode="&#x143;" horiz-adv-x="792" 
d="M269 712l283 -509v509h160v-712h-188l-284 508v-508h-159v712h188zM584 934l-132 -135h-128l111 135h149z" />
    <glyph glyph-name="nacute" unicode="&#x144;" 
d="M373 532q86 0 140 -59.5t54 -152.5v-320h-150v294q0 47 -25.5 76.5t-69.5 29.5q-45 0 -76 -32t-31 -80v-288h-150v512h146v-69q27 42 70 65.5t92 23.5zM380 755h142l-133 -160h-117z" />
    <glyph glyph-name="uni0145" unicode="&#x145;" horiz-adv-x="792" 
d="M269 712l283 -509v509h160v-712h-188l-284 508v-508h-159v712h188zM387 -225q-27 0 -43.5 19t-16.5 49q0 32 18.5 51t49.5 19q35 0 56.5 -24.5t21.5 -64.5q0 -48 -23 -95.5t-59 -73.5l-57 22q23 20 38 47t15 51z" />
    <glyph glyph-name="uni0146" unicode="&#x146;" 
d="M373 532q86 0 140 -59.5t54 -152.5v-320h-150v294q0 47 -25.5 76.5t-69.5 29.5q-45 0 -76 -32t-31 -80v-288h-150v512h146v-69q27 42 70 65.5t92 23.5zM307 -225q-27 0 -43.5 19t-16.5 49q0 32 18 51t49 19q35 0 57 -24.5t22 -64.5q0 -48 -23 -95.5t-59 -73.5l-57 22
q23 20 38 47t15 51z" />
    <glyph glyph-name="Ncaron" unicode="&#x147;" horiz-adv-x="792" 
d="M269 712l283 -509v509h160v-712h-188l-284 508v-508h-159v712h188zM467 943h112l-111 -150h-149l-111 150h112l73 -87z" />
    <glyph glyph-name="ncaron" unicode="&#x148;" 
d="M373 532q86 0 140 -59.5t54 -152.5v-320h-150v294q0 47 -25.5 76.5t-69.5 29.5q-45 0 -76 -32t-31 -80v-288h-150v512h146v-69q27 42 70 65.5t92 23.5zM408 755l111 1l-110 -161h-148l-109 160h110l73 -97z" />
    <glyph glyph-name="Omacron" unicode="&#x14c;" horiz-adv-x="884" 
d="M48 356q0 169 109.5 275t284.5 106t284.5 -106t109.5 -275t-109.5 -275t-284.5 -106t-284.5 105.5t-109.5 275.5zM216 356q0 -104 63 -170t163 -67q100 0 163 66.5t63 170.5t-63 170.5t-163 66.5t-163 -66.5t-63 -170.5zM611 909v-90h-338v90h338z" />
    <glyph glyph-name="omacron" unicode="&#x14d;" horiz-adv-x="652" 
d="M610 256q0 -122 -79 -199t-205 -77t-205 77t-79 199t79 199t205 77t205 -77t79 -199zM460 256q0 63 -37.5 103.5t-96.5 40.5t-96.5 -40.5t-37.5 -103.5t37.5 -103.5t96.5 -40.5t96.5 40.5t37.5 103.5zM495 711v-91h-338v91h338z" />
    <glyph glyph-name="Obreve" unicode="&#x14e;" horiz-adv-x="884" 
d="M48 356q0 169 109.5 275t284.5 106t284.5 -106t109.5 -275t-109.5 -275t-284.5 -106t-284.5 105.5t-109.5 275.5zM216 356q0 -104 63 -170t163 -67q100 0 163 66.5t63 170.5t-63 170.5t-163 66.5t-163 -66.5t-63 -170.5zM503 934h94q0 -62 -43 -101.5t-112 -39.5
t-112.5 39.5t-43.5 101.5h95q0 -25 17 -41t44 -16t44 16t17 41z" />
    <glyph glyph-name="obreve" unicode="&#x14f;" horiz-adv-x="652" 
d="M610 256q0 -122 -79 -199t-205 -77t-205 77t-79 199t79 199t205 77t205 -77t79 -199zM460 256q0 63 -37.5 103.5t-96.5 40.5t-96.5 -40.5t-37.5 -103.5t37.5 -103.5t96.5 -40.5t96.5 40.5t37.5 103.5zM381 744h95q1 -71 -38.5 -113t-111.5 -42q-71 0 -110.5 42t-39.5 113
h95q1 -32 16 -51.5t39 -19.5t39.5 20t15.5 51z" />
    <glyph glyph-name="Ohungarumlaut" unicode="&#x150;" horiz-adv-x="884" 
d="M48 356q0 169 109.5 275t284.5 106t284.5 -106t109.5 -275t-109.5 -275t-284.5 -106t-284.5 105.5t-109.5 275.5zM216 356q0 -104 63 -170t163 -67q100 0 163 66.5t63 170.5t-63 170.5t-163 66.5t-163 -66.5t-63 -170.5zM384 934h135l-119 -141h-110zM578 934h134
l-131 -141h-108z" />
    <glyph glyph-name="ohungarumlaut" unicode="&#x151;" horiz-adv-x="651" 
d="M610 256q0 -122 -79 -199t-206 -77q-126 0 -205 77t-79 199t79 199t205 77q127 0 206 -77t79 -199zM460 256q0 63 -38 103.5t-97 40.5t-96.5 -40.5t-37.5 -103.5t37.5 -103.5t96.5 -40.5t97 40.5t38 103.5zM278 752h139l-124 -157h-108zM473 752h142l-140 -157h-111z" />
    <glyph glyph-name="OE" unicode="&#x152;" horiz-adv-x="1059" 
d="M48 356q0 169 100.5 272t269.5 103q68 0 122 -19h462v-135h-300v-156h260v-119h-260v-167h310v-135h-471q-57 -19 -123 -19q-169 0 -269.5 103t-100.5 272zM538 150v412q-42 25 -104 25q-95 0 -156.5 -64.5t-61.5 -166.5q0 -101 60 -166t152 -65q68 0 110 25z" />
    <glyph glyph-name="oe" unicode="&#x153;" horiz-adv-x="1062" 
d="M746 95q40 0 72.5 19t47.5 49l125 -34q-22 -65 -90.5 -107t-152.5 -42q-139 0 -211 97q-70 -97 -211 -97q-126 0 -205 77t-79 199t79 199t205 77q140 0 210 -95q71 95 212 95q120 0 196 -76.5t76 -197.5q0 -24 -2 -44h-402q10 -54 45 -86.5t85 -32.5zM460 256
q0 63 -37.5 103.5t-96.5 40.5t-96.5 -40.5t-37.5 -103.5t37.5 -103.5t96.5 -40.5t96.5 40.5t37.5 103.5zM616 304h251q-6 49 -41.5 81.5t-85.5 32.5q-49 0 -82 -31t-42 -83z" />
    <glyph glyph-name="Racute" unicode="&#x154;" horiz-adv-x="770" 
d="M81 0v712h345q124 0 202 -66t78 -171q0 -71 -43 -125.5t-113 -77.5l172 -272h-188l-140 249h-145v-249h-168zM399 585h-150v-217h150q60 0 99.5 30t39.5 77q0 51 -39 80.5t-100 29.5zM570 934l-132 -135h-127l111 135h148z" />
    <glyph glyph-name="racute" unicode="&#x155;" horiz-adv-x="445" 
d="M346 531q28 0 61 -13v-133q-46 19 -84 19q-48 0 -78 -37t-30 -95v-272h-150v512h144v-65q23 39 59 61.5t78 22.5zM281 755h142l-133 -160h-117z" />
    <glyph glyph-name="uni0156" unicode="&#x156;" horiz-adv-x="770" 
d="M81 0v712h345q124 0 202 -66t78 -171q0 -71 -43 -125.5t-113 -77.5l172 -272h-188l-140 249h-145v-249h-168zM399 585h-150v-217h150q60 0 99.5 30t39.5 77q0 51 -39 80.5t-100 29.5zM379 -225q-27 0 -43.5 19t-16.5 49q0 32 18.5 51t49.5 19q35 0 56.5 -24.5t21.5 -64.5
q0 -48 -23 -95.5t-58 -73.5l-58 22q23 20 38 47t15 51z" />
    <glyph glyph-name="uni0157" unicode="&#x157;" horiz-adv-x="428" 
d="M346 531q28 0 61 -13v-133q-46 19 -84 19q-48 0 -78 -37t-30 -95v-272h-150v512h144v-65q23 39 59 61.5t78 22.5zM133 -225q-27 0 -43.5 19t-16.5 49q0 32 18.5 51t49.5 19q35 0 56.5 -24.5t21.5 -64.5q0 -48 -23 -95.5t-58 -73.5l-58 22q23 20 38 47t15 51z" />
    <glyph glyph-name="Rcaron" unicode="&#x158;" horiz-adv-x="770" 
d="M81 0v712h345q124 0 202 -66t78 -171q0 -71 -43 -125.5t-113 -77.5l172 -272h-188l-140 249h-145v-249h-168zM399 585h-150v-217h150q60 0 99.5 30t39.5 77q0 51 -39 80.5t-100 29.5zM448 943h112l-111 -150h-149l-111 150h112l73 -87z" />
    <glyph glyph-name="rcaron" unicode="&#x159;" horiz-adv-x="429" 
d="M346 531q28 0 61 -13v-133q-46 19 -84 19q-48 0 -78 -37t-30 -95v-272h-150v512h144v-65q23 39 59 61.5t78 22.5zM309 755l111 1l-110 -161h-148l-110 160h110l74 -97z" />
    <glyph glyph-name="Sacute" unicode="&#x15a;" horiz-adv-x="718" 
d="M364 -25q-136 0 -223.5 73t-87.5 186h151q0 -58 46.5 -95t118.5 -37q61 0 97 26.5t36 65.5q0 35 -32.5 55.5t-81.5 28.5q-50 7 -107 20t-106.5 31t-82 62t-32.5 110q0 105 81 170.5t210 65.5q130 0 214 -70t84 -177h-146q1 52 -41 86t-107 34q-59 0 -95.5 -24.5
t-36.5 -62.5q0 -29 24.5 -47t63.5 -27t87 -16q47 -8 94 -21t86 -34t63.5 -61.5t24.5 -98.5q0 -107 -83.5 -175t-218.5 -68zM542 934l-132 -135h-127l111 135h148z" />
    <glyph glyph-name="sacute" unicode="&#x15b;" horiz-adv-x="564" 
d="M283 -22q-104 0 -171 54.5t-67 138.5h127q0 -38 32 -62.5t81 -24.5q41 0 68 17.5t27 43.5q0 28 -34 41t-82 19q-49 5 -97.5 16t-82.5 46t-34 95q1 75 63.5 123.5t156.5 48.5q103 0 169.5 -50t67.5 -127h-132q-1 31 -30.5 51t-74.5 20q-36 0 -60 -16t-24 -41
q0 -23 24.5 -36.5t62.5 -18.5q37 -5 81 -14.5t81.5 -22t63 -43t25.5 -75.5q0 -80 -67.5 -131.5t-173.5 -51.5zM319 755h142l-133 -160h-117z" />
    <glyph glyph-name="Scircumflex" unicode="&#x15c;" horiz-adv-x="718" 
d="M364 -25q-136 0 -223.5 73t-87.5 186h151q0 -58 46.5 -95t118.5 -37q61 0 97 26.5t36 65.5q0 35 -32.5 55.5t-81.5 28.5q-50 7 -107 20t-106.5 31t-82 62t-32.5 110q0 105 81 170.5t210 65.5q130 0 214 -70t84 -177h-146q1 52 -41 86t-107 34q-59 0 -95.5 -24.5
t-36.5 -62.5q0 -29 24.5 -47t63.5 -27t87 -16q47 -8 94 -21t86 -34t63.5 -61.5t24.5 -98.5q0 -107 -83.5 -175t-218.5 -68zM282 794h-109l108 140h149l108 -141l-109 1l-74 78z" />
    <glyph glyph-name="scircumflex" unicode="&#x15d;" horiz-adv-x="564" 
d="M283 -22q-104 0 -171 54.5t-67 138.5h127q0 -38 32 -62.5t81 -24.5q41 0 68 17.5t27 43.5q0 28 -34 41t-82 19q-49 5 -97.5 16t-82.5 46t-34 95q1 75 63.5 123.5t156.5 48.5q103 0 169.5 -50t67.5 -127h-132q-1 31 -30.5 51t-74.5 20q-36 0 -60 -16t-24 -41
q0 -23 24.5 -36.5t62.5 -18.5q37 -5 81 -14.5t81.5 -22t63 -43t25.5 -75.5q0 -80 -67.5 -131.5t-173.5 -51.5zM201 595h-110l110 161h148l110 -161h-111l-73 98z" />
    <glyph glyph-name="Scedilla" unicode="&#x15e;" horiz-adv-x="718" 
d="M335 -120h-52l16 100q-110 17 -178 86.5t-68 167.5h151q0 -58 46.5 -95t118.5 -37q61 0 97 26.5t36 65.5q0 35 -32.5 55.5t-81.5 28.5q-50 7 -107 20t-106.5 31t-82 62t-32.5 110q0 105 81 170.5t210 65.5q130 0 214 -70t84 -177h-146q1 52 -41 86t-107 34
q-59 0 -95.5 -24.5t-36.5 -62.5q0 -29 24.5 -47t63.5 -27t87 -16q47 -8 94 -21t86 -34t63.5 -61.5t24.5 -98.5q0 -103 -78 -170.5t-206 -72.5l-8 -48q48 0 77 -27t29 -71t-33.5 -71.5t-88.5 -27.5q-40 0 -70.5 20t-40.5 52l54 29q6 -16 19.5 -25.5t29.5 -9.5q19 0 30 11
t11 29q0 19 -15.5 31.5t-40.5 12.5z" />
    <glyph glyph-name="scedilla" unicode="&#x15f;" horiz-adv-x="564" 
d="M279 -120h-52l16 100q-88 11 -143 63.5t-55 127.5h127q0 -38 32 -62.5t81 -24.5q41 0 68 17.5t27 43.5q0 28 -34 41t-82 19q-49 5 -97.5 16t-82.5 46t-34 95q1 75 63.5 123.5t156.5 48.5q103 0 169.5 -50t67.5 -127h-132q-1 31 -30.5 51t-74.5 20q-36 0 -60 -16t-24 -41
q0 -23 24.5 -36.5t62.5 -18.5q37 -5 81 -14.5t81.5 -22t63 -43t25.5 -75.5q0 -71 -54 -120.5t-143 -60.5l-9 -53q48 0 77 -27t29 -71t-34 -71.5t-89 -27.5q-39 0 -69.5 20t-40.5 52l54 29q6 -16 19.5 -25.5t29.5 -9.5q19 0 30 11t11 29q0 19 -15.5 31.5t-40.5 12.5z" />
    <glyph glyph-name="Scaron" unicode="&#x160;" horiz-adv-x="718" 
d="M364 -25q-136 0 -223.5 73t-87.5 186h151q0 -58 46.5 -95t118.5 -37q61 0 97 26.5t36 65.5q0 35 -32.5 55.5t-81.5 28.5q-50 7 -107 20t-106.5 31t-82 62t-32.5 110q0 105 81 170.5t210 65.5q130 0 214 -70t84 -177h-146q1 52 -41 86t-107 34q-59 0 -95.5 -24.5
t-36.5 -62.5q0 -29 24.5 -47t63.5 -27t87 -16q47 -8 94 -21t86 -34t63.5 -61.5t24.5 -98.5q0 -107 -83.5 -175t-218.5 -68zM425 943h113l-112 -150h-149l-111 150h113l73 -87z" />
    <glyph glyph-name="scaron" unicode="&#x161;" horiz-adv-x="564" 
d="M283 -22q-104 0 -171 54.5t-67 138.5h127q0 -38 32 -62.5t81 -24.5q41 0 68 17.5t27 43.5q0 28 -34 41t-82 19q-49 5 -97.5 16t-82.5 46t-34 95q1 75 63.5 123.5t156.5 48.5q103 0 169.5 -50t67.5 -127h-132q-1 31 -30.5 51t-74.5 20q-36 0 -60 -16t-24 -41
q0 -23 24.5 -36.5t62.5 -18.5q37 -5 81 -14.5t81.5 -22t63 -43t25.5 -75.5q0 -80 -67.5 -131.5t-173.5 -51.5zM338 755l111 1l-110 -161h-148l-109 160h110l73 -97z" />
    <glyph glyph-name="uni0162" unicode="&#x162;" horiz-adv-x="629" 
d="M230 572h-214v140h596v-140h-214v-572h-168v572zM304 -225q-27 0 -44 19.5t-17 49.5q0 31 18.5 50t49.5 19q35 0 57 -24.5t22 -64.5q0 -48 -23 -95.5t-59 -73.5l-57 22q23 20 38 47.5t15 50.5z" />
    <glyph glyph-name="uni0163" unicode="&#x163;" horiz-adv-x="417" 
d="M104 166v232h-72v114h79l17 129h126v-129h116v-114h-116v-217q0 -33 18.5 -52.5t49.5 -19.5q23 0 53 7l-1 -120q-48 -16 -102 -16q-76 0 -122 52t-46 134zM238 -225q-27 0 -43.5 19t-16.5 49q0 32 18.5 51t49.5 19q35 0 56.5 -24.5t21.5 -64.5q0 -48 -23 -95.5t-58 -73.5
l-58 22q23 20 38 47t15 51z" />
    <glyph glyph-name="Tcaron" unicode="&#x164;" horiz-adv-x="629" 
d="M230 572h-214v140h596v-140h-214v-572h-168v572zM388 943h112l-111 -150h-149l-111 150h112l73 -87z" />
    <glyph glyph-name="tcaron" unicode="&#x165;" horiz-adv-x="451" 
d="M104 166v232h-72v114h79l17 129h126v-129h116v-114h-116v-217q0 -33 18.5 -52.5t49.5 -19.5q23 0 53 7l-1 -120q-48 -16 -102 -16q-76 0 -122 52t-46 134zM347 684q-27 0 -43.5 19t-16.5 49q0 32 18.5 51t49.5 19q35 0 56.5 -24.5t21.5 -64.5q0 -48 -23 -95.5t-58 -73.5
l-58 22q23 20 38 47t15 51z" />
    <glyph glyph-name="Utilde" unicode="&#x168;" horiz-adv-x="785" 
d="M543 299v413h168v-417q0 -142 -88.5 -231t-229.5 -89q-142 0 -231 89t-89 231v417h169v-413q0 -73 41 -126t110 -54q67 0 108.5 50.5t41.5 129.5zM265 828l-71 42q15 38 50.5 64t77.5 26q39 0 83 -27q43 -28 60 -28q36 0 58 43l71 -42q-15 -39 -51.5 -64.5t-81.5 -25.5
q-42 0 -84 27t-57 27q-31 0 -55 -42z" />
    <glyph glyph-name="utilde" unicode="&#x169;" 
d="M248 -20q-86 0 -139.5 59.5t-53.5 152.5v320h150v-294q0 -47 25.5 -76.5t69.5 -29.5q45 0 76 32t31 80v288h150v-512h-146v69q-27 -42 -70 -65.5t-93 -23.5zM185 618l-71 36q14 39 50 64.5t78 25.5q39 0 83 -27q43 -27 62 -27q37 0 55 38l72 -37q-14 -39 -51.5 -64.5
t-81.5 -25.5q-42 0 -84 27q-43 27 -60 27q-32 0 -52 -37z" />
    <glyph glyph-name="Umacron" unicode="&#x16a;" horiz-adv-x="785" 
d="M543 299v413h168v-417q0 -142 -88.5 -231t-229.5 -89q-142 0 -231 89t-89 231v417h169v-413q0 -73 41 -126t110 -54q67 0 108.5 50.5t41.5 129.5zM562 909v-90h-338v90h338z" />
    <glyph glyph-name="umacron" unicode="&#x16b;" 
d="M248 -20q-86 0 -139.5 59.5t-53.5 152.5v320h150v-294q0 -47 25.5 -76.5t69.5 -29.5q45 0 76 32t31 80v288h150v-512h-146v69q-27 -42 -70 -65.5t-93 -23.5zM475 710v-90h-339v90h339z" />
    <glyph glyph-name="Ubreve" unicode="&#x16c;" horiz-adv-x="785" 
d="M543 299v413h168v-417q0 -142 -88.5 -231t-229.5 -89q-142 0 -231 89t-89 231v417h169v-413q0 -73 41 -126t110 -54q67 0 108.5 50.5t41.5 129.5zM454 934h94q0 -62 -43.5 -101.5t-111.5 -39.5q-69 0 -112.5 39.5t-43.5 101.5h95q0 -25 17 -41t44 -16t44 16t17 41z" />
    <glyph glyph-name="ubreve" unicode="&#x16d;" 
d="M248 -20q-86 0 -139.5 59.5t-53.5 152.5v320h150v-294q0 -47 25.5 -76.5t69.5 -29.5q45 0 76 32t31 80v288h150v-512h-146v69q-27 -42 -70 -65.5t-93 -23.5zM360 744h96q0 -72 -39 -113.5t-111 -41.5t-111 42t-40 113h96q0 -31 15.5 -51.5t39.5 -20.5t39 20t15 52z" />
    <glyph glyph-name="Uring" unicode="&#x16e;" horiz-adv-x="785" 
d="M543 299v413h168v-417q0 -142 -88.5 -231t-229.5 -89q-142 0 -231 89t-89 231v417h169v-413q0 -73 41 -126t110 -54q67 0 108.5 50.5t41.5 129.5zM393 772q-64 0 -103 36t-39 94t39 94t103 36q63 0 102 -36t39 -94t-39 -94t-102 -36zM393 960q-26 0 -42.5 -16t-15.5 -42
q0 -26 16 -42t42 -16q25 0 41.5 16t16.5 42t-16 42t-42 16z" />
    <glyph glyph-name="uring" unicode="&#x16f;" 
d="M248 -20q-86 0 -139.5 59.5t-53.5 152.5v320h150v-294q0 -47 25.5 -76.5t69.5 -29.5q45 0 76 32t31 80v288h150v-512h-146v69q-27 -42 -70 -65.5t-93 -23.5zM306 561q-64 0 -103.5 36.5t-39.5 94.5t39.5 94t103.5 36q63 0 102 -36t39 -94t-39 -94.5t-102 -36.5zM306 750
q-26 0 -42.5 -16t-15.5 -42q0 -26 16 -42t42 -16q25 0 41 16t16 42t-16 42t-41 16z" />
    <glyph glyph-name="Uhungarumlaut" unicode="&#x170;" horiz-adv-x="785" 
d="M543 299v413h168v-417q0 -142 -88.5 -231t-229.5 -89q-142 0 -231 89t-89 231v417h169v-413q0 -73 41 -126t110 -54q67 0 108.5 50.5t41.5 129.5zM333 934h134l-119 -141h-109zM527 934h134l-131 -141h-109z" />
    <glyph glyph-name="uhungarumlaut" unicode="&#x171;" horiz-adv-x="597" 
d="M248 -20q-86 0 -139.5 59.5t-53.5 152.5v320h150v-294q0 -47 25.5 -76.5t69.5 -29.5q45 0 76 32t31 80v288h150v-512h-146v69q-27 -42 -70 -65.5t-93 -23.5zM243 751l139 1l-124 -158h-108zM438 751h142l-140 -157h-111z" />
    <glyph glyph-name="Uogonek" unicode="&#x172;" horiz-adv-x="785" 
d="M367 -24q-131 8 -212.5 96t-81.5 223v417h169v-413q0 -73 41 -126t110 -54q67 0 108.5 50.5t41.5 129.5v413h168v-417q0 -123 -68 -208t-182 -106q-59 -30 -59 -78q0 -47 41 -75.5t107 -30.5v-77q-104 0 -169 45.5t-65 117.5q0 56 51 93z" />
    <glyph glyph-name="uogonek" unicode="&#x173;" horiz-adv-x="659" 
d="M452 0h-41v69q-27 -42 -70 -65.5t-93 -23.5q-86 0 -139.5 59.5t-53.5 152.5v320h150v-294q0 -47 25.5 -76.5t69.5 -29.5q45 0 76 32t31 80v288h150v-512h-10q-101 -33 -101 -95q0 -47 41 -75.5t107 -30.5v-77q-103 0 -168.5 46t-65.5 117q0 38 24 68t68 47z" />
    <glyph glyph-name="Wcircumflex" unicode="&#x174;" horiz-adv-x="1181" 
d="M826 138l151 574h170l-193 -712h-242l-121 503l-121 -503h-243l-194 712h171l151 -574l144 574h186zM517 794h-110l109 140h148l109 -141l-110 1l-73 78z" />
    <glyph glyph-name="wcircumflex" unicode="&#x175;" horiz-adv-x="919" 
d="M183 0l-155 512h156l105 -362l100 362h140l107 -365l104 365h151l-156 -512h-190l-86 337l-86 -337h-190zM387 595h-110l109 161h148l110 -161h-111l-73 98z" />
    <glyph glyph-name="Ycircumflex" unicode="&#x176;" horiz-adv-x="703" 
d="M269 248l-252 464h178l158 -316l151 316h181l-248 -464v-248h-168v248zM278 794h-110l109 140h148l109 -141l-109 1l-74 78z" />
    <glyph glyph-name="ycircumflex" unicode="&#x177;" horiz-adv-x="608" 
d="M87 -213v111q31 -11 61 -11q44 0 68 27t44 81l-242 517h164l139 -330l114 330h156l-198 -530q-39 -107 -86 -160t-121 -53q-53 0 -99 18zM232 595h-110l109 161h148l110 -161h-111l-73 98z" />
    <glyph glyph-name="Ydieresis" unicode="&#x178;" horiz-adv-x="703" 
d="M269 248l-252 464h178l158 -316l151 316h181l-248 -464v-248h-168v248zM227 795q-34 0 -56 22t-22 56t22 55.5t56 21.5q35 0 57 -21.5t22 -55.5t-22 -56t-57 -22zM475 795q-34 0 -56 22t-22 56t22 55.5t56 21.5q35 0 57 -21.5t22 -55.5t-22 -56t-57 -22z" />
    <glyph glyph-name="Zacute" unicode="&#x179;" horiz-adv-x="670" 
d="M46 110l350 470h-340v132h558v-110l-344 -470h354v-132h-578v110zM521 934l-132 -135h-127l111 135h148z" />
    <glyph glyph-name="zacute" unicode="&#x17a;" horiz-adv-x="569" 
d="M307 389h-251v123h457v-98l-252 -291h262v-123h-477v98zM324 755h142l-133 -160h-117z" />
    <glyph glyph-name="Zdotaccent" unicode="&#x17b;" horiz-adv-x="670" 
d="M46 110l350 470h-340v132h558v-110l-344 -470h354v-132h-578v110zM335 799q-37 0 -59.5 21.5t-23.5 56.5q1 35 24 56.5t59 21.5q37 0 60 -21.5t23 -56.5t-23 -56.5t-60 -21.5z" />
    <glyph glyph-name="zdotaccent" unicode="&#x17c;" horiz-adv-x="569" 
d="M307 389h-251v123h457v-98l-252 -291h262v-123h-477v98zM285 602q-36 0 -59.5 22.5t-23.5 57.5t23.5 57.5t59.5 22.5t59 -22.5t23 -57.5t-23 -57.5t-59 -22.5z" />
    <glyph glyph-name="Zcaron" unicode="&#x17d;" horiz-adv-x="670" 
d="M46 110l350 470h-340v132h558v-110l-344 -470h354v-132h-578v110zM405 943h112l-112 -150h-148l-112 150h113l73 -87z" />
    <glyph glyph-name="zcaron" unicode="&#x17e;" horiz-adv-x="569" 
d="M307 389h-251v123h457v-98l-252 -291h262v-123h-477v98zM358 755l111 1l-111 -161h-148l-109 160h110l74 -97z" />
    <glyph glyph-name="Aringacute" unicode="&#x1fa;" horiz-adv-x="757" 
d="M501 712l238 -712h-176l-42 129h-286l-40 -129h-177l239 712h244zM379 568l-108 -318h216zM378 734q-53 0 -87 30.5t-34 79.5t33.5 79t87.5 30q53 0 87 -30.5t34 -78.5q0 -49 -33.5 -79.5t-87.5 -30.5zM378 881q-16 0 -26.5 -10.5t-10.5 -26.5t10.5 -26.5t26.5 -10.5
q17 0 27.5 10.5t10.5 26.5q-1 17 -11.5 27t-26.5 10zM545 1074l-109 -101h-125l97 101h137z" />
    <glyph glyph-name="aringacute" unicode="&#x1fb;" horiz-adv-x="591" 
d="M420.5 512.5q52.5 -27.5 82 -78t29.5 -119.5v-315h-144v53q-28 -32 -69.5 -48.5t-85.5 -16.5q-56 0 -101.5 21t-71.5 59.5t-26 87.5q0 51 29 91t79 62.5t111 22.5q66 0 135 -27v10q0 46 -30 75.5t-92 29.5q-63 0 -136 -37l-50 99q114 58 220 58q68 0 120.5 -27.5z
M346 111q35 20 42 55v49q-53 20 -114 20q-40 0 -68 -21.5t-28 -53.5q0 -31 25 -50t63 -19q45 0 80 20zM283 542q-63 0 -102.5 36t-39.5 94t39.5 94t102.5 36q64 0 103 -36t39 -94t-39 -94t-103 -36zM283 730q-26 0 -42 -16t-16 -42t16 -42t42 -16t42 16t16 42t-16 42t-42 16
zM491 972l-134 -160h-117l108 160h143z" />
    <glyph glyph-name="AEacute" unicode="&#x1fc;" horiz-adv-x="997" 
d="M949 135v-135h-452v118h-234l-59 -118h-186l357 712h564v-136h-291v-155h251v-119h-252v-167h302zM497 237v361l-178 -361h178zM755 920l-132 -135h-127l111 135h148z" />
    <glyph glyph-name="aeacute" unicode="&#x1fd;" horiz-adv-x="1058" 
d="M1016 262q0 -36 -3 -56h-401q11 -52 48.5 -81.5t90.5 -29.5q78 0 112 64l128 -30q-24 -65 -89.5 -107t-144.5 -42q-64 0 -117.5 28t-78.5 73v-81h-96v71q-65 -91 -179 -91q-108 0 -176 77t-68 199t68 199t176 77q112 0 179 -91v71h96v-81q26 47 75.5 74t116.5 27
q115 0 189 -76.5t74 -193.5zM192 256q0 -68 38.5 -112t99.5 -44q60 0 99 43t39 113q0 69 -38.5 112.5t-99.5 43.5t-99.5 -43.5t-38.5 -112.5zM610 291h255q-3 53 -38.5 87.5t-90.5 34.5q-50 0 -84.5 -33t-41.5 -89zM570 753h142l-133 -160h-117z" />
    <glyph glyph-name="Oslashacute" unicode="&#x1fe;" horiz-adv-x="864" 
d="M568 714l75 146l106 1l-96 -188q76 -50 119.5 -133t43.5 -184q0 -166 -108.5 -273.5t-275.5 -107.5q-65 0 -127 19l-68 -134h-106l88 173q-80 49 -125.5 133.5t-45.5 189.5q0 166 108.5 273.5t275.5 107.5q72 0 136 -23zM216 356q0 -116 77 -180l206 405q-30 12 -67 12
q-94 0 -155 -67t-61 -170zM648 356q0 107 -69 174l-205 -403q24 -8 58 -8q94 0 155 67t61 170zM609 924l-132 -135h-127l111 135h148z" />
    <glyph glyph-name="oslashacute" unicode="&#x1ff;" horiz-adv-x="664" 
d="M428 519l41 81h92l-59 -114q120 -77 120 -230q0 -122 -80.5 -199t-209.5 -77q-42 0 -85 10l-36 -70h-91l51 100q-61 35 -95 96.5t-34 139.5q0 122 80.5 199t209.5 77q49 0 96 -13zM228 128l148 290q-19 6 -44 6q-69 0 -113.5 -47t-44.5 -121q0 -82 54 -128zM490 256
q0 73 -45 121l-146 -286q17 -3 33 -3q70 0 114 47t44 121zM515 744l-133 -149h-117l108 149h142z" />
    <glyph glyph-name="uni0218" unicode="&#x218;" horiz-adv-x="718" 
d="M364 -25q-136 0 -223.5 73t-87.5 186h151q0 -58 46.5 -95t118.5 -37q61 0 97 26.5t36 65.5q0 35 -32.5 55.5t-81.5 28.5q-50 7 -107 20t-106.5 31t-82 62t-32.5 110q0 105 81 170.5t210 65.5q130 0 214 -70t84 -177h-146q1 52 -41 86t-107 34q-59 0 -95.5 -24.5
t-36.5 -62.5q0 -29 24.5 -47t63.5 -27t87 -16q47 -8 94 -21t86 -34t63.5 -61.5t24.5 -98.5q0 -107 -83.5 -175t-218.5 -68zM345 -225q-27 0 -43.5 19t-16.5 49q0 32 18.5 51t49.5 19q35 0 56.5 -24.5t21.5 -64.5q0 -48 -23 -96t-59 -73l-57 22q23 20 38 47t15 51z" />
    <glyph glyph-name="uni0219" unicode="&#x219;" horiz-adv-x="564" 
d="M283 -22q-104 0 -171 54.5t-67 138.5h127q0 -38 32 -62.5t81 -24.5q41 0 68 17.5t27 43.5q0 28 -34 41t-82 19q-49 5 -97.5 16t-82.5 46t-34 95q1 75 63.5 123.5t156.5 48.5q103 0 169.5 -50t67.5 -127h-132q-1 31 -30.5 51t-74.5 20q-36 0 -60 -16t-24 -41
q0 -23 24.5 -36.5t62.5 -18.5q37 -5 81 -14.5t81.5 -22t63 -43t25.5 -75.5q0 -80 -67.5 -131.5t-173.5 -51.5zM267 -225q-27 0 -43.5 19t-16.5 49q0 32 18 51t49 19q35 0 57 -24.5t22 -64.5q0 -48 -23 -95.5t-59 -73.5l-57 22q23 20 38 47t15 51z" />
    <glyph glyph-name="circumflex" unicode="&#x2c6;" horiz-adv-x="452" 
d="M42 593l109 161h148l110 -161h-110l-73 98l-74 -98h-110z" />
    <glyph glyph-name="caron" unicode="&#x2c7;" horiz-adv-x="452" 
d="M299 753l110 1l-110 -161h-148l-109 160h110l74 -97z" />
    <glyph glyph-name="breve" unicode="&#x2d8;" horiz-adv-x="384" 
d="M247 742h95q1 -71 -38.5 -113t-111.5 -42q-71 0 -110.5 42t-39.5 113h96q0 -32 15 -51.5t39 -19.5t39.5 20t15.5 51z" />
    <glyph glyph-name="dotaccent" unicode="&#x2d9;" horiz-adv-x="250" 
d="M125 560q-36 0 -59.5 23t-23.5 58q0 34 23.5 56.5t59.5 22.5t59 -22t23 -57t-23 -58t-59 -23z" />
    <glyph glyph-name="ring" unicode="&#x2da;" horiz-adv-x="368" 
d="M184 542q-63 0 -102.5 36t-39.5 94t39.5 94t102.5 36q64 0 103 -36t39 -94t-39 -94t-103 -36zM184 730q-26 0 -42 -16t-16 -42t16 -42t42 -16t42 16t16 42t-16 42t-42 16z" />
    <glyph glyph-name="ogonek" unicode="&#x2db;" horiz-adv-x="318" 
d="M174 10l62 -10q-108 -33 -108 -97q0 -47 40.5 -75.5t107.5 -30.5v-77q-104 0 -169 45.5t-65 117.5q0 46 35 79.5t97 47.5z" />
    <glyph glyph-name="tilde" unicode="&#x2dc;" horiz-adv-x="484" 
d="M113 590l-71 36q14 39 50.5 64.5t78.5 25.5q38 0 82 -27q44 -28 62 -28q36 0 55 38l72 -37q-15 -39 -51.5 -64.5t-81.5 -25.5q-42 0 -84 27q-43 27 -60 27q-31 0 -52 -36z" />
    <glyph glyph-name="hungarumlaut" unicode="&#x2dd;" horiz-adv-x="514" 
d="M135 750h139l-124 -157h-108zM330 750h142l-140 -157h-111z" />
    <glyph glyph-name="Wgrave" unicode="&#x1e80;" horiz-adv-x="1181" 
d="M826 138l151 574h170l-193 -712h-242l-121 503l-121 -503h-243l-194 712h171l151 -574l144 574h186zM522 799l-132 135h148l112 -135h-128z" />
    <glyph glyph-name="wgrave" unicode="&#x1e81;" horiz-adv-x="919" 
d="M183 0l-155 512h156l105 -362l100 362h140l107 -365l104 365h151l-156 -512h-190l-86 337l-86 -337h-190zM275 755l142 1l108 -161h-117z" />
    <glyph glyph-name="Wacute" unicode="&#x1e82;" horiz-adv-x="1181" 
d="M826 138l151 574h170l-193 -712h-242l-121 503l-121 -503h-243l-194 712h171l151 -574l144 574h186zM777 934l-132 -135h-128l111 135h149z" />
    <glyph glyph-name="wacute" unicode="&#x1e83;" horiz-adv-x="919" 
d="M183 0l-155 512h156l105 -362l100 362h140l107 -365l104 365h151l-156 -512h-190l-86 337l-86 -337h-190zM499 755h142l-134 -160h-117z" />
    <glyph glyph-name="Wdieresis" unicode="&#x1e84;" horiz-adv-x="1181" 
d="M826 138l151 574h170l-193 -712h-242l-121 503l-121 -503h-243l-194 712h171l151 -574l144 574h186zM466 795q-34 0 -56 22t-22 56t22 55.5t56 21.5q35 0 57 -21.5t22 -55.5t-22 -56t-57 -22zM715 795q-35 0 -57 22t-22 56t22 55.5t57 21.5q34 0 56 -21.5t22 -55.5
q0 -35 -21.5 -56.5t-56.5 -21.5z" />
    <glyph glyph-name="wdieresis" unicode="&#x1e85;" horiz-adv-x="919" 
d="M183 0l-155 512h156l105 -362l100 362h140l107 -365l104 365h151l-156 -512h-190l-86 337l-86 -337h-190zM330 586q-34 0 -56.5 21.5t-22.5 54.5t22 54t57 21q34 0 56 -21t22 -54t-22 -54.5t-56 -21.5zM589 586q-34 0 -56 21.5t-22 54.5t22 54t56 21q35 0 57 -21t22 -54
t-22.5 -54.5t-56.5 -21.5z" />
    <glyph glyph-name="uni1E9E" unicode="&#x1e9e;" horiz-adv-x="747" 
d="M239 479v-479h-168v480q0 112 81 182.5t210 70.5q119 0 193.5 -57.5t74.5 -149.5q0 -52 -28 -90.5t-73 -49.5q69 -13 115 -69.5t46 -133.5q0 -90 -64.5 -149t-162.5 -59q-78 0 -159 36l32 107q48 -23 88 -23q43 0 70.5 29.5t27.5 74.5q0 57 -34.5 91t-99.5 34h-45v102h47
q37 0 60.5 24.5t23.5 62.5q0 43 -32.5 71t-82.5 28q-54 0 -87 -36t-33 -97z" />
    <glyph glyph-name="Ygrave" unicode="&#x1ef2;" horiz-adv-x="703" 
d="M269 248l-252 464h178l158 -316l151 316h181l-248 -464v-248h-168v248zM289 799l-132 135h148l111 -135h-127z" />
    <glyph glyph-name="ygrave" unicode="&#x1ef3;" horiz-adv-x="608" 
d="M87 -213v111q31 -11 61 -11q44 0 68 27t44 81l-242 517h164l139 -330l114 330h156l-198 -530q-39 -107 -86 -160t-121 -53q-53 0 -99 18zM126 755l142 1l108 -161h-117z" />
    <glyph glyph-name="endash" unicode="&#x2013;" horiz-adv-x="654" 
d="M612 372v-123h-570v123h570z" />
    <glyph glyph-name="emdash" unicode="&#x2014;" horiz-adv-x="823" 
d="M26 372h770v-123h-770v123z" />
    <glyph glyph-name="quoteleft" unicode="&#x2018;" horiz-adv-x="261" 
d="M218 510q0 -37 -24 -60.5t-60 -23.5q-41 0 -66.5 32.5t-25.5 85.5q0 55 27 110t69 86l73 -26q-31 -26 -51 -59.5t-20 -60.5q35 0 56.5 -23.5t21.5 -60.5z" />
    <glyph glyph-name="quoteright" unicode="&#x2019;" horiz-adv-x="261" 
d="M43 656q0 37 24 60.5t60 23.5q41 0 66.5 -32.5t25.5 -85.5q0 -56 -27 -111t-69 -85l-73 26q31 26 51 59.5t20 60.5q-35 0 -56.5 23.5t-21.5 60.5z" />
    <glyph glyph-name="quotesinglbase" unicode="&#x201a;" horiz-adv-x="261" 
d="M43 68q0 37 24 60.5t60 23.5q41 0 66.5 -32.5t25.5 -84.5q0 -55 -27 -110.5t-69 -86.5l-73 26q31 26 51 59.5t20 60.5q-34 0 -56 23.5t-22 60.5z" />
    <glyph glyph-name="quotedblleft" unicode="&#x201c;" horiz-adv-x="492" 
d="M221 510q0 -36 -24.5 -60t-60.5 -24q-41 0 -66.5 32.5t-25.5 85.5q0 55 27 110t69 86l73 -26q-31 -26 -51 -59.5t-20 -60.5q35 0 57 -23.5t22 -60.5zM447 510q0 -36 -24 -60t-60 -24q-42 0 -67 32.5t-25 85.5q0 56 26.5 110.5t68.5 85.5l74 -26q-31 -25 -51 -59t-20 -61
q35 0 56.5 -23.5t21.5 -60.5z" />
    <glyph glyph-name="quotedblright" unicode="&#x201d;" horiz-adv-x="489" 
d="M45 661q0 37 24 60.5t60 23.5q41 0 66.5 -32.5t25.5 -84.5q0 -55 -27 -110.5t-68 -86.5l-74 26q31 25 51 59t20 61q-34 0 -56 23.5t-22 60.5zM271 661q0 36 24 60t60 24q42 0 67 -32t25 -85q0 -55 -27 -110.5t-68 -86.5l-74 26q31 25 51 59t20 61q-34 0 -56 23.5
t-22 60.5z" />
    <glyph glyph-name="quotedblbase" unicode="&#x201e;" horiz-adv-x="489" 
d="M45 69q0 37 24 60.5t60 23.5q41 0 66.5 -32.5t25.5 -85.5q0 -55 -27 -110.5t-68 -85.5l-74 26q31 25 51 59t20 61q-35 0 -56.5 23.5t-21.5 60.5zM271 69q0 36 24 60t60 24q42 0 67 -32.5t25 -85.5q0 -56 -26.5 -111t-68.5 -85l-74 26q31 25 51 59t20 61q-34 0 -56 23.5
t-22 60.5z" />
    <glyph glyph-name="bullet" unicode="&#x2022;" horiz-adv-x="306" 
d="M153 202q-49 0 -80 30.5t-31 77.5t31 77.5t80 30.5t80 -30.5t31 -77.5t-31 -77.5t-80 -30.5z" />
    <glyph glyph-name="ellipsis" unicode="&#x2026;" horiz-adv-x="717" 
d="M42 69q0 37 24.5 60.5t62.5 23.5t62.5 -23.5t24.5 -60.5t-24.5 -61t-62.5 -24t-62.5 24t-24.5 61zM272 69q0 37 24.5 60.5t62.5 23.5t62.5 -23.5t24.5 -60.5t-24.5 -61t-62.5 -24t-62.5 24t-24.5 61zM501 69q0 37 24.5 60.5t62.5 23.5t62.5 -23.5t24.5 -60.5t-24.5 -61
t-62.5 -24t-62.5 24t-24.5 61z" />
    <glyph glyph-name="perthousand" unicode="&#x2030;" horiz-adv-x="1540" 
d="M597 200q0 94 59.5 154t153.5 60t154 -60t60 -154t-60 -154t-154 -60t-153.5 60t-59.5 154zM899 200q0 39 -25 64t-64 25t-63.5 -25t-24.5 -64q0 -40 24.5 -64.5t63.5 -24.5t64 24.5t25 64.5zM1070 200q0 94 60 154t154 60t154 -60t60 -154t-60 -154t-154 -60t-154 60
t-60 154zM1372 200q0 39 -24.5 64t-64.5 25q-39 0 -63.5 -25t-24.5 -64q0 -40 24.5 -64.5t63.5 -24.5q40 0 64.5 24.5t24.5 64.5zM42 542q0 94 60 154t154 60t154 -60t60 -154t-60 -154t-154 -60t-154 60t-60 154zM344 542q0 40 -24 64.5t-64 24.5t-64.5 -24.5t-24.5 -64.5
q0 -39 24.5 -64t64.5 -25q39 0 63.5 25t24.5 64zM716 742h143l-509 -742h-143z" />
    <glyph glyph-name="guilsinglleft" unicode="&#x2039;" horiz-adv-x="401" 
d="M359 512l-188 -252l188 -260h-159l-182 260l182 252h159z" />
    <glyph glyph-name="guilsinglright" unicode="&#x203a;" horiz-adv-x="401" 
d="M383 260l-182 -260h-159l188 260l-188 252h159z" />
    <glyph glyph-name="lira" unicode="&#x20a4;" horiz-adv-x="653" 
d="M46 430h106v85q0 98 60.5 159.5t160.5 61.5q102 0 164.5 -58.5t73.5 -154.5l-136 -22q-14 110 -88 110q-37 0 -58 -29t-21 -76v-76h222v-78h-222q0 -16 -2 -46h224v-78h-250q-26 -87 -99 -120h429v-108h-568v140q66 15 86 94h-82v72h105q1 12 1 46h-106v78z" />
    <glyph glyph-name="Euro" unicode="&#x20ac;" horiz-adv-x="913" 
d="M707 265l158 -20q-18 -118 -118 -194t-237 -76q-136 0 -235.5 76t-131.5 201h-105v79h93q-1 8 -1 25q0 19 1 28h-93v79h106q32 124 131 199t235 75q135 0 234.5 -78t119.5 -199l-158 -18q-14 66 -68.5 108.5t-123.5 42.5q-68 0 -119 -34.5t-76 -95.5h213v-79h-233v-53
h232v-79h-213q25 -62 76.5 -97.5t119.5 -35.5q67 0 121.5 41.5t71.5 104.5z" />
    <glyph glyph-name="trademark" unicode="&#x2122;" horiz-adv-x="1167" 
d="M152 150v454h-136v108h399v-108h-137v-454h-126zM973 528l-145 -378h-89l-145 378v-378h-119v562h155l153 -395l150 395h159v-562h-119v378z" />
    <glyph glyph-name="minus" unicode="&#x2212;" horiz-adv-x="494" 
d="M42 372h410v-123h-410v123z" />
    <glyph glyph-name="notequal" unicode="&#x2260;" horiz-adv-x="554" 
d="M512 377h-157l-47 -136h204v-119h-243l-56 -162h-102l57 162h-126v119h165l48 136h-213v119h253l50 146h100l-51 -146h118v-119z" />
    <glyph glyph-name="lessequal" unicode="&#x2264;" horiz-adv-x="454" 
d="M412 106v-106h-370v106h370zM42 402l370 120v-103l-272 -85l272 -85v-102l-370 119v136z" />
    <glyph glyph-name="greaterequal" unicode="&#x2265;" horiz-adv-x="454" 
d="M42 106h370v-106h-370v106zM42 249l272 85l-272 85v103l370 -120v-136l-370 -119v102z" />
    <glyph glyph-name="commaaccent" unicode="&#xf6c3;" horiz-adv-x="230" 
d="M102 -33q-27 0 -43.5 19t-16.5 49q0 32 18.5 51t49.5 19q35 0 56.5 -24.5t21.5 -64.5q0 -48 -23 -96t-58 -73l-58 22q23 19 38 46.5t15 51.5z" />
    <glyph glyph-name="uni0009" horiz-adv-x="30" 
d="M0 0z" />
    <glyph glyph-name="nonmarkingreturn.1" horiz-adv-x="333" 
d="M0 0z" />
    <glyph glyph-name="IJacute" horiz-adv-x="791" 
d="M248 712v-712h-168v712h168zM539 241v471h168v-488q0 -108 -67.5 -176t-172.5 -68q-79 0 -142 20v129q51 -14 96 -14q53 0 85.5 34.5t32.5 91.5zM357 934l-132 -135h-128l112 135h148zM810 934l-132 -135h-127l111 135h148z" />
    <glyph glyph-name="acute.case" horiz-adv-x="343" 
d="M169 607h-127l111 135h148z" />
    <glyph glyph-name="breve.case" horiz-adv-x="395" 
d="M259 742h94q0 -62 -43 -101.5t-112 -39.5t-112.5 39.5t-43.5 101.5h95q0 -25 17 -41t44 -16t44 16t17 41z" />
    <glyph glyph-name="caron.case" horiz-adv-x="449" 
d="M298 742h109l-108 -141h-149l-108 141h110l73 -78z" />
    <glyph glyph-name="circumflex.case" horiz-adv-x="449" 
d="M42 590l108 141h149l108 -141h-109l-73 78l-73 -78h-110z" />
    <glyph glyph-name="dieresis.case" horiz-adv-x="489" 
d="M120 557q-34 0 -56 22t-22 56t22 55.5t56 21.5q35 0 57 -21.5t22 -55.5t-22 -56t-57 -22zM369 557q-35 0 -57 22t-22 56t22 55.5t57 21.5q34 0 56 -21.5t22 -55.5q0 -35 -21.5 -56.5t-56.5 -21.5z" />
    <glyph glyph-name="dotaccent.case" horiz-adv-x="250" 
d="M125 566q-37 0 -60 21.5t-23 56.5q1 35 24 56.5t59 21.5q37 0 60 -22t22 -56q0 -35 -22.5 -56.5t-59.5 -21.5z" />
    <glyph glyph-name="hungarumlaut.case" horiz-adv-x="506" 
d="M136 742h134l-118 -141h-110zM330 742h134l-131 -141h-109z" />
    <glyph glyph-name="grave.case" horiz-adv-x="343" 
d="M174 694l-132 135h148l111 -135h-127z" />
    <glyph glyph-name="uni00ED_j_uni0301" horiz-adv-x="576" 
d="M70 512h150v-512h-150v512zM365 -34v546h150v-552q0 -81 -47 -130.5t-124 -49.5q-63 0 -111 16v105q28 -7 61 -7q32 0 51.5 20t19.5 52zM185 742h142l-133 -149h-117zM474 742h142l-133 -149h-117z" />
    <glyph glyph-name="ring.case" horiz-adv-x="327" 
d="M164 540q-54 0 -88 30.5t-34 79.5q0 48 33.5 78.5t87.5 30.5t87.5 -30.5t34.5 -79.5q0 -48 -34 -78.5t-87 -30.5zM164 687q-17 0 -27.5 -10.5t-10.5 -26.5t11 -27t27 -11t26.5 10.5t10.5 27.5q0 16 -10.5 26.5t-26.5 10.5z" />
    <glyph glyph-name="tilde.case" horiz-adv-x="484" 
d="M113 616l-71 41q14 39 50 64.5t78 25.5q39 0 83 -27q43 -27 60 -27q37 0 58 43l71 -42q-15 -39 -51.5 -64.5t-81.5 -25.5q-42 0 -84 27t-57 27q-31 0 -55 -42z" />
    <glyph glyph-name="nonmarkingreturn.2" horiz-adv-x="306" 
d="M0 0z" />
    </font>
</defs>
</svg>
